<?xml version="1.0" encoding="UTF-8" standalone="no"?><svg xmlns="http://www.w3.org/2000/svg" xmlns:xlink="http://www.w3.org/1999/xlink" clip-rule="evenodd" stroke-miterlimit="10" viewBox="0 0 1920 1080"><desc>SVG generated by Keynote</desc><defs></defs><g transform="matrix(1.00, 0.00, -0.00, -1.00, 0.0, 1080.0)"><g><clipPath id="clip0x7fe42b04f5a0"><path d="M 0.0 1080.0 L 1920.0 1080.0 L 1920.0 0.0 L 0.0 0.0 Z M 0.0 1080.0 "></path></clipPath><g clip-path="url(#clip0x7fe42b04f5a0)"><image xlink:href="../../EAAA0B26-26D2-4E6F-B71B-738E9DFC302E/assets/0F43D2572F34A9AFB59E4515ED9A1249.jpeg" width="3840.00" height="2160.00" transform="matrix(0.50, 0.00, -0.00, -0.50, 0.0, 1080.0)"></image></g></g><image xlink:href="../../41BB162D-1C4B-4A08-9AA5-F3CD3FD05BCD/assets/5E3B30BBEB39731F56D97D16D9680B09.png" width="411.00" height="82.00" transform="matrix(1.00, 0.00, -0.00, -1.00, 123.0, 952.0)"></image><text xml:space="preserve" font-family="HelveticaNeue-Light,Helvetica Neue" font-size="100.0" fill="#FEFFFE" transform="matrix(1.00, 0.00, -0.00, -1.00, 120.0, 879.2)">R</text><text xml:space="preserve" font-family="HelveticaNeue-Light,Helvetica Neue" font-size="100.0" fill="#FEFFFE" transform="matrix(1.00, 0.00, -0.00, -1.00, 186.7, 879.2)">e</text><text xml:space="preserve" font-family="HelveticaNeue-Light,Helvetica Neue" font-size="100.0" fill="#FEFFFE" transform="matrix(1.00, 0.00, -0.00, -1.00, 238.6, 879.2)">d</text><text xml:space="preserve" font-family="HelveticaNeue-Light,Helvetica Neue" font-size="100.0" fill="#FEFFFE" transform="matrix(1.00, 0.00, -0.00, -1.00, 296.0, 879.2)">u</text><text xml:space="preserve" font-family="HelveticaNeue-Light,Helvetica Neue" font-size="100.0" fill="#FEFFFE" transform="matrix(1.00, 0.00, -0.00, -1.00, 349.7, 879.2)">c</text><text xml:space="preserve" font-family="HelveticaNeue-Light,Helvetica Neue" font-size="100.0" fill="#FEFFFE" transform="matrix(1.00, 0.00, -0.00, -1.00, 401.6, 879.2)">e</text><text xml:space="preserve" font-family="HelveticaNeue-Light,Helvetica Neue" font-size="100.0" fill="#FEFFFE" transform="matrix(1.00, 0.00, -0.00, -1.00, 453.5, 879.2)">r</text><text xml:space="preserve" font-family="HelveticaNeue-Light,Helvetica Neue" font-size="100.0" fill="#FEFFFE" transform="matrix(1.00, 0.00, -0.00, -1.00, 485.0, 879.2)">s</text><text xml:space="preserve" font-family="Monaco,Monaco" font-size="49.5" fill="#FC4384" transform="matrix(1.00, 0.00, -0.00, -1.00, 120.0, 701.5)">v</text><text xml:space="preserve" font-family="Monaco,Monaco" font-size="49.5" fill="#FC4384" transform="matrix(1.00, 0.00, -0.00, -1.00, 149.7, 701.5)">a</text><text xml:space="preserve" font-family="Monaco,Monaco" font-size="49.5" fill="#FC4384" transform="matrix(1.00, 0.00, -0.00, -1.00, 179.4, 701.5)">r</text><text xml:space="preserve" font-family="Monaco,Monaco" font-size="49.5" fill="#000000" transform="matrix(1.00, 0.00, -0.00, -1.00, 209.1, 701.5)"> </text><text xml:space="preserve" font-family="Monaco,Monaco" font-size="49.5" fill="#F9F9F4" transform="matrix(1.00, 0.00, -0.00, -1.00, 238.8, 701.5)">f</text><text xml:space="preserve" font-family="Monaco,Monaco" font-size="49.5" fill="#F9F9F4" transform="matrix(1.00, 0.00, -0.00, -1.00, 268.5, 701.5)">i</text><text xml:space="preserve" font-family="Monaco,Monaco" font-size="49.5" fill="#F9F9F4" transform="matrix(1.00, 0.00, -0.00, -1.00, 298.2, 701.5)">l</text><text xml:space="preserve" font-family="Monaco,Monaco" font-size="49.5" fill="#F9F9F4" transform="matrix(1.00, 0.00, -0.00, -1.00, 327.9, 701.5)">t</text><text xml:space="preserve" font-family="Monaco,Monaco" font-size="49.5" fill="#F9F9F4" transform="matrix(1.00, 0.00, -0.00, -1.00, 357.7, 701.5)">e</text><text xml:space="preserve" font-family="Monaco,Monaco" font-size="49.5" fill="#F9F9F4" transform="matrix(1.00, 0.00, -0.00, -1.00, 387.4, 701.5)">r</text><text xml:space="preserve" font-family="Monaco,Monaco" font-size="49.5" fill="#000000" transform="matrix(1.00, 0.00, -0.00, -1.00, 417.0, 701.5)"> </text><text xml:space="preserve" font-family="Monaco,Monaco" font-size="49.5" fill="#F9F9F4" transform="matrix(1.00, 0.00, -0.00, -1.00, 446.8, 701.5)">=</text><text xml:space="preserve" font-family="Monaco,Monaco" font-size="49.5" fill="#000000" transform="matrix(1.00, 0.00, -0.00, -1.00, 476.5, 701.5)"> </text><text xml:space="preserve" font-family="Monaco,Monaco" font-size="49.5" fill="#FC4384" transform="matrix(1.00, 0.00, -0.00, -1.00, 506.2, 701.5)">f</text><text xml:space="preserve" font-family="Monaco,Monaco" font-size="49.5" fill="#FC4384" transform="matrix(1.00, 0.00, -0.00, -1.00, 535.9, 701.5)">u</text><text xml:space="preserve" font-family="Monaco,Monaco" font-size="49.5" fill="#FC4384" transform="matrix(1.00, 0.00, -0.00, -1.00, 565.6, 701.5)">n</text><text xml:space="preserve" font-family="Monaco,Monaco" font-size="49.5" fill="#FC4384" transform="matrix(1.00, 0.00, -0.00, -1.00, 595.3, 701.5)">c</text><text xml:space="preserve" font-family="Monaco,Monaco" font-size="49.5" fill="#FC4384" transform="matrix(1.00, 0.00, -0.00, -1.00, 625.0, 701.5)">t</text><text xml:space="preserve" font-family="Monaco,Monaco" font-size="49.5" fill="#FC4384" transform="matrix(1.00, 0.00, -0.00, -1.00, 654.7, 701.5)">i</text><text xml:space="preserve" font-family="Monaco,Monaco" font-size="49.5" fill="#FC4384" transform="matrix(1.00, 0.00, -0.00, -1.00, 684.4, 701.5)">o</text><text xml:space="preserve" font-family="Monaco,Monaco" font-size="49.5" fill="#FC4384" transform="matrix(1.00, 0.00, -0.00, -1.00, 714.1, 701.5)">n</text><text xml:space="preserve" font-family="Monaco,Monaco" font-size="49.5" fill="#F9F9F4" transform="matrix(1.00, 0.00, -0.00, -1.00, 743.8, 701.5)">(</text><text xml:space="preserve" font-family="Monaco,Monaco" font-size="49.5" fill="#F9F9F4" transform="matrix(1.00, 0.00, -0.00, -1.00, 773.5, 701.5)">p</text><text xml:space="preserve" font-family="Monaco,Monaco" font-size="49.5" fill="#F9F9F4" transform="matrix(1.00, 0.00, -0.00, -1.00, 803.2, 701.5)">r</text><text xml:space="preserve" font-family="Monaco,Monaco" font-size="49.5" fill="#F9F9F4" transform="matrix(1.00, 0.00, -0.00, -1.00, 832.9, 701.5)">e</text><text xml:space="preserve" font-family="Monaco,Monaco" font-size="49.5" fill="#F9F9F4" transform="matrix(1.00, 0.00, -0.00, -1.00, 862.6, 701.5)">d</text><text xml:space="preserve" font-family="Monaco,Monaco" font-size="49.5" fill="#F9F9F4" transform="matrix(1.00, 0.00, -0.00, -1.00, 892.4, 701.5)">,</text><text xml:space="preserve" font-family="Monaco,Monaco" font-size="49.5" fill="#000000" transform="matrix(1.00, 0.00, -0.00, -1.00, 922.0, 701.5)"> </text><text xml:space="preserve" font-family="Monaco,Monaco" font-size="49.5" fill="#F9F9F4" transform="matrix(1.00, 0.00, -0.00, -1.00, 951.7, 701.5)">c</text><text xml:space="preserve" font-family="Monaco,Monaco" font-size="49.5" fill="#F9F9F4" transform="matrix(1.00, 0.00, -0.00, -1.00, 981.4, 701.5)">o</text><text xml:space="preserve" font-family="Monaco,Monaco" font-size="49.5" fill="#F9F9F4" transform="matrix(1.00, 0.00, -0.00, -1.00, 1011.2, 701.5)">l</text><text xml:space="preserve" font-family="Monaco,Monaco" font-size="49.5" fill="#F9F9F4" transform="matrix(1.00, 0.00, -0.00, -1.00, 1040.9, 701.5)">l</text><text xml:space="preserve" font-family="Monaco,Monaco" font-size="49.5" fill="#F9F9F4" transform="matrix(1.00, 0.00, -0.00, -1.00, 1070.6, 701.5)">)</text><text xml:space="preserve" font-family="Monaco,Monaco" font-size="49.5" fill="#F9F9F4" transform="matrix(1.00, 0.00, -0.00, -1.00, 1100.3, 701.5)"> </text><text xml:space="preserve" font-family="Monaco,Monaco" font-size="49.5" fill="#F9F9F4" transform="matrix(1.00, 0.00, -0.00, -1.00, 1130.0, 701.5)">{</text><text xml:space="preserve" font-family="Monaco,Monaco" font-size="49.5" fill="#000000" transform="matrix(1.00, 0.00, -0.00, -1.00, 120.0, 635.5)"> </text><text xml:space="preserve" font-family="Monaco,Monaco" font-size="49.5" fill="#000000" transform="matrix(1.00, 0.00, -0.00, -1.00, 149.7, 635.5)"> </text><text xml:space="preserve" font-family="Monaco,Monaco" font-size="49.5" fill="#FC4384" transform="matrix(1.00, 0.00, -0.00, -1.00, 179.4, 635.5)">r</text><text xml:space="preserve" font-family="Monaco,Monaco" font-size="49.5" fill="#FC4384" transform="matrix(1.00, 0.00, -0.00, -1.00, 209.1, 635.5)">e</text><text xml:space="preserve" font-family="Monaco,Monaco" font-size="49.5" fill="#FC4384" transform="matrix(1.00, 0.00, -0.00, -1.00, 238.8, 635.5)">t</text><text xml:space="preserve" font-family="Monaco,Monaco" font-size="49.5" fill="#FC4384" transform="matrix(1.00, 0.00, -0.00, -1.00, 268.5, 635.5)">u</text><text xml:space="preserve" font-family="Monaco,Monaco" font-size="49.5" fill="#FC4384" transform="matrix(1.00, 0.00, -0.00, -1.00, 298.2, 635.5)">r</text><text xml:space="preserve" font-family="Monaco,Monaco" font-size="49.5" fill="#FC4384" transform="matrix(1.00, 0.00, -0.00, -1.00, 328.0, 635.5)">n</text><text xml:space="preserve" font-family="Monaco,Monaco" font-size="49.5" fill="#000000" transform="matrix(1.00, 0.00, -0.00, -1.00, 357.6, 635.5)"> </text><text xml:space="preserve" font-family="Monaco,Monaco" font-size="49.5" fill="#F9F9F4" transform="matrix(1.00, 0.00, -0.00, -1.00, 387.3, 635.5)">{</text><text xml:space="preserve" font-family="Monaco,Monaco" font-size="49.5" fill="#F9F9F4" transform="matrix(1.00, 0.00, -0.00, -1.00, 120.0, 569.5)"> </text><text xml:space="preserve" font-family="Monaco,Monaco" font-size="49.5" fill="#F9F9F4" transform="matrix(1.00, 0.00, -0.00, -1.00, 149.7, 569.5)"> </text><text xml:space="preserve" font-family="Monaco,Monaco" font-size="49.5" fill="#F9F9F4" transform="matrix(1.00, 0.00, -0.00, -1.00, 179.4, 569.5)"> </text><text xml:space="preserve" font-family="Monaco,Monaco" font-size="49.5" fill="#F9F9F4" transform="matrix(1.00, 0.00, -0.00, -1.00, 209.1, 569.5)"> </text><text xml:space="preserve" font-family="Monaco,Monaco" font-size="49.5" fill="#F9F9F4" transform="matrix(1.00, 0.00, -0.00, -1.00, 238.8, 569.5)">r</text><text xml:space="preserve" font-family="Monaco,Monaco" font-size="49.5" fill="#F9F9F4" transform="matrix(1.00, 0.00, -0.00, -1.00, 268.5, 569.5)">e</text><text xml:space="preserve" font-family="Monaco,Monaco" font-size="49.5" fill="#F9F9F4" transform="matrix(1.00, 0.00, -0.00, -1.00, 298.3, 569.5)">d</text><text xml:space="preserve" font-family="Monaco,Monaco" font-size="49.5" fill="#F9F9F4" transform="matrix(1.00, 0.00, -0.00, -1.00, 328.0, 569.5)">u</text><text xml:space="preserve" font-family="Monaco,Monaco" font-size="49.5" fill="#F9F9F4" transform="matrix(1.00, 0.00, -0.00, -1.00, 357.7, 569.5)">c</text><text xml:space="preserve" font-family="Monaco,Monaco" font-size="49.5" fill="#F9F9F4" transform="matrix(1.00, 0.00, -0.00, -1.00, 387.4, 569.5)">e</text><text xml:space="preserve" font-family="Monaco,Monaco" font-size="49.5" fill="#F9F9F4" transform="matrix(1.00, 0.00, -0.00, -1.00, 417.1, 569.5)">:</text><text xml:space="preserve" font-family="Monaco,Monaco" font-size="49.5" fill="#000000" transform="matrix(1.00, 0.00, -0.00, -1.00, 446.8, 569.5)"> </text><text xml:space="preserve" font-family="Monaco,Monaco" font-size="49.5" fill="#FC4384" transform="matrix(1.00, 0.00, -0.00, -1.00, 476.5, 569.5)">f</text><text xml:space="preserve" font-family="Monaco,Monaco" font-size="49.5" fill="#FC4384" transform="matrix(1.00, 0.00, -0.00, -1.00, 506.2, 569.5)">u</text><text xml:space="preserve" font-family="Monaco,Monaco" font-size="49.5" fill="#FC4384" transform="matrix(1.00, 0.00, -0.00, -1.00, 535.9, 569.5)">n</text><text xml:space="preserve" font-family="Monaco,Monaco" font-size="49.5" fill="#FC4384" transform="matrix(1.00, 0.00, -0.00, -1.00, 565.6, 569.5)">c</text><text xml:space="preserve" font-family="Monaco,Monaco" font-size="49.5" fill="#FC4384" transform="matrix(1.00, 0.00, -0.00, -1.00, 595.3, 569.5)">t</text><text xml:space="preserve" font-family="Monaco,Monaco" font-size="49.5" fill="#FC4384" transform="matrix(1.00, 0.00, -0.00, -1.00, 625.0, 569.5)">i</text><text xml:space="preserve" font-family="Monaco,Monaco" font-size="49.5" fill="#FC4384" transform="matrix(1.00, 0.00, -0.00, -1.00, 654.7, 569.5)">o</text><text xml:space="preserve" font-family="Monaco,Monaco" font-size="49.5" fill="#FC4384" transform="matrix(1.00, 0.00, -0.00, -1.00, 684.4, 569.5)">n</text><text xml:space="preserve" font-family="Monaco,Monaco" font-size="49.5" fill="#F9F9F4" transform="matrix(1.00, 0.00, -0.00, -1.00, 714.1, 569.5)">(</text><text xml:space="preserve" font-family="Monaco,Monaco" font-size="49.5" fill="#F9F9F4" transform="matrix(1.00, 0.00, -0.00, -1.00, 743.8, 569.5)">s</text><text xml:space="preserve" font-family="Monaco,Monaco" font-size="49.5" fill="#F9F9F4" transform="matrix(1.00, 0.00, -0.00, -1.00, 773.5, 569.5)">t</text><text xml:space="preserve" font-family="Monaco,Monaco" font-size="49.5" fill="#F9F9F4" transform="matrix(1.00, 0.00, -0.00, -1.00, 803.2, 569.5)">e</text><text xml:space="preserve" font-family="Monaco,Monaco" font-size="49.5" fill="#F9F9F4" transform="matrix(1.00, 0.00, -0.00, -1.00, 832.9, 569.5)">p</text><text xml:space="preserve" font-family="Monaco,Monaco" font-size="49.5" fill="#F9F9F4" transform="matrix(1.00, 0.00, -0.00, -1.00, 862.6, 569.5)">,</text><text xml:space="preserve" font-family="Monaco,Monaco" font-size="49.5" fill="#000000" transform="matrix(1.00, 0.00, -0.00, -1.00, 892.3, 569.5)"> </text><text xml:space="preserve" font-family="Monaco,Monaco" font-size="49.5" fill="#F9F9F4" transform="matrix(1.00, 0.00, -0.00, -1.00, 922.0, 569.5)">i</text><text xml:space="preserve" font-family="Monaco,Monaco" font-size="49.5" fill="#F9F9F4" transform="matrix(1.00, 0.00, -0.00, -1.00, 951.7, 569.5)">n</text><text xml:space="preserve" font-family="Monaco,Monaco" font-size="49.5" fill="#F9F9F4" transform="matrix(1.00, 0.00, -0.00, -1.00, 981.5, 569.5)">i</text><text xml:space="preserve" font-family="Monaco,Monaco" font-size="49.5" fill="#F9F9F4" transform="matrix(1.00, 0.00, -0.00, -1.00, 1011.2, 569.5)">t</text><text xml:space="preserve" font-family="Monaco,Monaco" font-size="49.5" fill="#F9F9F4" transform="matrix(1.00, 0.00, -0.00, -1.00, 1040.9, 569.5)">i</text><text xml:space="preserve" font-family="Monaco,Monaco" font-size="49.5" fill="#F9F9F4" transform="matrix(1.00, 0.00, -0.00, -1.00, 1070.6, 569.5)">a</text><text xml:space="preserve" font-family="Monaco,Monaco" font-size="49.5" fill="#F9F9F4" transform="matrix(1.00, 0.00, -0.00, -1.00, 1100.3, 569.5)">l</text><text xml:space="preserve" font-family="Monaco,Monaco" font-size="49.5" fill="#F9F9F4" transform="matrix(1.00, 0.00, -0.00, -1.00, 1130.0, 569.5)">)</text><text xml:space="preserve" font-family="Monaco,Monaco" font-size="49.5" fill="#F9F9F4" transform="matrix(1.00, 0.00, -0.00, -1.00, 1159.7, 569.5)"> </text><text xml:space="preserve" font-family="Monaco,Monaco" font-size="49.5" fill="#F9F9F4" transform="matrix(1.00, 0.00, -0.00, -1.00, 1189.4, 569.5)">{</text><text xml:space="preserve" font-family="Monaco,Monaco" font-size="49.5" fill="#000000" transform="matrix(1.00, 0.00, -0.00, -1.00, 120.0, 503.5)"> </text><text xml:space="preserve" font-family="Monaco,Monaco" font-size="49.5" fill="#000000" transform="matrix(1.00, 0.00, -0.00, -1.00, 149.7, 503.5)"> </text><text xml:space="preserve" font-family="Monaco,Monaco" font-size="49.5" fill="#000000" transform="matrix(1.00, 0.00, -0.00, -1.00, 179.4, 503.5)"> </text><text xml:space="preserve" font-family="Monaco,Monaco" font-size="49.5" fill="#000000" transform="matrix(1.00, 0.00, -0.00, -1.00, 209.1, 503.5)"> </text><text xml:space="preserve" font-family="Monaco,Monaco" font-size="49.5" fill="#000000" transform="matrix(1.00, 0.00, -0.00, -1.00, 238.8, 503.5)"> </text><text xml:space="preserve" font-family="Monaco,Monaco" font-size="49.5" fill="#000000" transform="matrix(1.00, 0.00, -0.00, -1.00, 268.5, 503.5)"> </text><text xml:space="preserve" font-family="Monaco,Monaco" font-size="49.5" fill="#FC4384" transform="matrix(1.00, 0.00, -0.00, -1.00, 298.2, 503.5)">r</text><text xml:space="preserve" font-family="Monaco,Monaco" font-size="49.5" fill="#FC4384" transform="matrix(1.00, 0.00, -0.00, -1.00, 327.9, 503.5)">e</text><text xml:space="preserve" font-family="Monaco,Monaco" font-size="49.5" fill="#FC4384" transform="matrix(1.00, 0.00, -0.00, -1.00, 357.6, 503.5)">t</text><text xml:space="preserve" font-family="Monaco,Monaco" font-size="49.5" fill="#FC4384" transform="matrix(1.00, 0.00, -0.00, -1.00, 387.4, 503.5)">u</text><text xml:space="preserve" font-family="Monaco,Monaco" font-size="49.5" fill="#FC4384" transform="matrix(1.00, 0.00, -0.00, -1.00, 417.1, 503.5)">r</text><text xml:space="preserve" font-family="Monaco,Monaco" font-size="49.5" fill="#FC4384" transform="matrix(1.00, 0.00, -0.00, -1.00, 446.8, 503.5)">n</text><text xml:space="preserve" font-family="Monaco,Monaco" font-size="49.5" fill="#000000" transform="matrix(1.00, 0.00, -0.00, -1.00, 476.5, 503.5)"> </text><text xml:space="preserve" font-family="Monaco,Monaco" font-size="49.5" fill="#F9F9F4" transform="matrix(1.00, 0.00, -0.00, -1.00, 506.2, 503.5)">c</text><text xml:space="preserve" font-family="Monaco,Monaco" font-size="49.5" fill="#F9F9F4" transform="matrix(1.00, 0.00, -0.00, -1.00, 535.9, 503.5)">o</text><text xml:space="preserve" font-family="Monaco,Monaco" font-size="49.5" fill="#F9F9F4" transform="matrix(1.00, 0.00, -0.00, -1.00, 565.6, 503.5)">l</text><text xml:space="preserve" font-family="Monaco,Monaco" font-size="49.5" fill="#F9F9F4" transform="matrix(1.00, 0.00, -0.00, -1.00, 595.3, 503.5)">l</text><text xml:space="preserve" font-family="Monaco,Monaco" font-size="49.5" fill="#F9F9F4" transform="matrix(1.00, 0.00, -0.00, -1.00, 625.0, 503.5)">.</text><text xml:space="preserve" font-family="Monaco,Monaco" font-size="49.5" fill="#13F7BA" transform="matrix(1.00, 0.00, -0.00, -1.00, 654.7, 503.5)">r</text><text xml:space="preserve" font-family="Monaco,Monaco" font-size="49.5" fill="#13F7BA" transform="matrix(1.00, 0.00, -0.00, -1.00, 684.4, 503.5)">e</text><text xml:space="preserve" font-family="Monaco,Monaco" font-size="49.5" fill="#13F7BA" transform="matrix(1.00, 0.00, -0.00, -1.00, 714.1, 503.5)">d</text><text xml:space="preserve" font-family="Monaco,Monaco" font-size="49.5" fill="#13F7BA" transform="matrix(1.00, 0.00, -0.00, -1.00, 743.8, 503.5)">u</text><text xml:space="preserve" font-family="Monaco,Monaco" font-size="49.5" fill="#13F7BA" transform="matrix(1.00, 0.00, -0.00, -1.00, 773.5, 503.5)">c</text><text xml:space="preserve" font-family="Monaco,Monaco" font-size="49.5" fill="#13F7BA" transform="matrix(1.00, 0.00, -0.00, -1.00, 803.2, 503.5)">e</text><text xml:space="preserve" font-family="Monaco,Monaco" font-size="49.5" fill="#F9F9F4" transform="matrix(1.00, 0.00, -0.00, -1.00, 832.9, 503.5)">(</text><text xml:space="preserve" font-family="Monaco,Monaco" font-size="49.5" fill="#FC4384" transform="matrix(1.00, 0.00, -0.00, -1.00, 862.6, 503.5)">f</text><text xml:space="preserve" font-family="Monaco,Monaco" font-size="49.5" fill="#FC4384" transform="matrix(1.00, 0.00, -0.00, -1.00, 892.3, 503.5)">u</text><text xml:space="preserve" font-family="Monaco,Monaco" font-size="49.5" fill="#FC4384" transform="matrix(1.00, 0.00, -0.00, -1.00, 922.0, 503.5)">n</text><text xml:space="preserve" font-family="Monaco,Monaco" font-size="49.5" fill="#FC4384" transform="matrix(1.00, 0.00, -0.00, -1.00, 951.8, 503.5)">c</text><text xml:space="preserve" font-family="Monaco,Monaco" font-size="49.5" fill="#FC4384" transform="matrix(1.00, 0.00, -0.00, -1.00, 981.5, 503.5)">t</text><text xml:space="preserve" font-family="Monaco,Monaco" font-size="49.5" fill="#FC4384" transform="matrix(1.00, 0.00, -0.00, -1.00, 1011.2, 503.5)">i</text><text xml:space="preserve" font-family="Monaco,Monaco" font-size="49.5" fill="#FC4384" transform="matrix(1.00, 0.00, -0.00, -1.00, 1040.9, 503.5)">o</text><text xml:space="preserve" font-family="Monaco,Monaco" font-size="49.5" fill="#FC4384" transform="matrix(1.00, 0.00, -0.00, -1.00, 1070.6, 503.5)">n</text><text xml:space="preserve" font-family="Monaco,Monaco" font-size="49.5" fill="#F9F9F4" transform="matrix(1.00, 0.00, -0.00, -1.00, 1100.3, 503.5)">(</text><text xml:space="preserve" font-family="Monaco,Monaco" font-size="49.5" fill="#F9F9F4" transform="matrix(1.00, 0.00, -0.00, -1.00, 1130.0, 503.5)">a</text><text xml:space="preserve" font-family="Monaco,Monaco" font-size="49.5" fill="#F9F9F4" transform="matrix(1.00, 0.00, -0.00, -1.00, 1159.7, 503.5)">c</text><text xml:space="preserve" font-family="Monaco,Monaco" font-size="49.5" fill="#F9F9F4" transform="matrix(1.00, 0.00, -0.00, -1.00, 1189.4, 503.5)">c</text><text xml:space="preserve" font-family="Monaco,Monaco" font-size="49.5" fill="#F9F9F4" transform="matrix(1.00, 0.00, -0.00, -1.00, 1219.1, 503.5)">,</text><text xml:space="preserve" font-family="Monaco,Monaco" font-size="49.5" fill="#000000" transform="matrix(1.00, 0.00, -0.00, -1.00, 1248.8, 503.5)"> </text><text xml:space="preserve" font-family="Monaco,Monaco" font-size="49.5" fill="#F9F9F4" transform="matrix(1.00, 0.00, -0.00, -1.00, 1278.5, 503.5)">e</text><text xml:space="preserve" font-family="Monaco,Monaco" font-size="49.5" fill="#F9F9F4" transform="matrix(1.00, 0.00, -0.00, -1.00, 1308.2, 503.5)">l</text><text xml:space="preserve" font-family="Monaco,Monaco" font-size="49.5" fill="#F9F9F4" transform="matrix(1.00, 0.00, -0.00, -1.00, 1337.9, 503.5)">e</text><text xml:space="preserve" font-family="Monaco,Monaco" font-size="49.5" fill="#F9F9F4" transform="matrix(1.00, 0.00, -0.00, -1.00, 1367.6, 503.5)">m</text><text xml:space="preserve" font-family="Monaco,Monaco" font-size="49.5" fill="#F9F9F4" transform="matrix(1.00, 0.00, -0.00, -1.00, 1397.3, 503.5)">e</text><text xml:space="preserve" font-family="Monaco,Monaco" font-size="49.5" fill="#F9F9F4" transform="matrix(1.00, 0.00, -0.00, -1.00, 1427.0, 503.5)">n</text><text xml:space="preserve" font-family="Monaco,Monaco" font-size="49.5" fill="#F9F9F4" transform="matrix(1.00, 0.00, -0.00, -1.00, 1456.7, 503.5)">t</text><text xml:space="preserve" font-family="Monaco,Monaco" font-size="49.5" fill="#F9F9F4" transform="matrix(1.00, 0.00, -0.00, -1.00, 1486.5, 503.5)">)</text><text xml:space="preserve" font-family="Monaco,Monaco" font-size="49.5" fill="#F9F9F4" transform="matrix(1.00, 0.00, -0.00, -1.00, 1516.2, 503.5)"> </text><text xml:space="preserve" font-family="Monaco,Monaco" font-size="49.5" fill="#F9F9F4" transform="matrix(1.00, 0.00, -0.00, -1.00, 1545.9, 503.5)">{</text><text xml:space="preserve" font-family="Monaco,Monaco" font-size="49.5" fill="#000000" transform="matrix(1.00, 0.00, -0.00, -1.00, 120.0, 437.5)"> </text><text xml:space="preserve" font-family="Monaco,Monaco" font-size="49.5" fill="#000000" transform="matrix(1.00, 0.00, -0.00, -1.00, 149.7, 437.5)"> </text><text xml:space="preserve" font-family="Monaco,Monaco" font-size="49.5" fill="#000000" transform="matrix(1.00, 0.00, -0.00, -1.00, 179.4, 437.5)"> </text><text xml:space="preserve" font-family="Monaco,Monaco" font-size="49.5" fill="#000000" transform="matrix(1.00, 0.00, -0.00, -1.00, 209.1, 437.5)"> </text><text xml:space="preserve" font-family="Monaco,Monaco" font-size="49.5" fill="#000000" transform="matrix(1.00, 0.00, -0.00, -1.00, 238.8, 437.5)"> </text><text xml:space="preserve" font-family="Monaco,Monaco" font-size="49.5" fill="#000000" transform="matrix(1.00, 0.00, -0.00, -1.00, 268.5, 437.5)"> </text><text xml:space="preserve" font-family="Monaco,Monaco" font-size="49.5" fill="#000000" transform="matrix(1.00, 0.00, -0.00, -1.00, 298.3, 437.5)"> </text><text xml:space="preserve" font-family="Monaco,Monaco" font-size="49.5" fill="#000000" transform="matrix(1.00, 0.00, -0.00, -1.00, 328.0, 437.5)"> </text><text xml:space="preserve" font-family="Monaco,Monaco" font-size="49.5" fill="#FC4384" transform="matrix(1.00, 0.00, -0.00, -1.00, 357.6, 437.5)">r</text><text xml:space="preserve" font-family="Monaco,Monaco" font-size="49.5" fill="#FC4384" transform="matrix(1.00, 0.00, -0.00, -1.00, 387.3, 437.5)">e</text><text xml:space="preserve" font-family="Monaco,Monaco" font-size="49.5" fill="#FC4384" transform="matrix(1.00, 0.00, -0.00, -1.00, 417.1, 437.5)">t</text><text xml:space="preserve" font-family="Monaco,Monaco" font-size="49.5" fill="#FC4384" transform="matrix(1.00, 0.00, -0.00, -1.00, 446.8, 437.5)">u</text><text xml:space="preserve" font-family="Monaco,Monaco" font-size="49.5" fill="#FC4384" transform="matrix(1.00, 0.00, -0.00, -1.00, 476.5, 437.5)">r</text><text xml:space="preserve" font-family="Monaco,Monaco" font-size="49.5" fill="#FC4384" transform="matrix(1.00, 0.00, -0.00, -1.00, 506.2, 437.5)">n</text><text xml:space="preserve" font-family="Monaco,Monaco" font-size="49.5" fill="#000000" transform="matrix(1.00, 0.00, -0.00, -1.00, 535.9, 437.5)"> </text><text xml:space="preserve" font-family="Monaco,Monaco" font-size="49.5" fill="#13F7BA" transform="matrix(1.00, 0.00, -0.00, -1.00, 565.6, 437.5)">p</text><text xml:space="preserve" font-family="Monaco,Monaco" font-size="49.5" fill="#13F7BA" transform="matrix(1.00, 0.00, -0.00, -1.00, 595.3, 437.5)">r</text><text xml:space="preserve" font-family="Monaco,Monaco" font-size="49.5" fill="#13F7BA" transform="matrix(1.00, 0.00, -0.00, -1.00, 625.0, 437.5)">e</text><text xml:space="preserve" font-family="Monaco,Monaco" font-size="49.5" fill="#13F7BA" transform="matrix(1.00, 0.00, -0.00, -1.00, 654.7, 437.5)">d</text><text xml:space="preserve" font-family="Monaco,Monaco" font-size="49.5" fill="#F9F9F4" transform="matrix(1.00, 0.00, -0.00, -1.00, 684.4, 437.5)">(</text><text xml:space="preserve" font-family="Monaco,Monaco" font-size="49.5" fill="#F9F9F4" transform="matrix(1.00, 0.00, -0.00, -1.00, 714.1, 437.5)">e</text><text xml:space="preserve" font-family="Monaco,Monaco" font-size="49.5" fill="#F9F9F4" transform="matrix(1.00, 0.00, -0.00, -1.00, 743.8, 437.5)">l</text><text xml:space="preserve" font-family="Monaco,Monaco" font-size="49.5" fill="#F9F9F4" transform="matrix(1.00, 0.00, -0.00, -1.00, 773.5, 437.5)">e</text><text xml:space="preserve" font-family="Monaco,Monaco" font-size="49.5" fill="#F9F9F4" transform="matrix(1.00, 0.00, -0.00, -1.00, 803.2, 437.5)">m</text><text xml:space="preserve" font-family="Monaco,Monaco" font-size="49.5" fill="#F9F9F4" transform="matrix(1.00, 0.00, -0.00, -1.00, 832.9, 437.5)">e</text><text xml:space="preserve" font-family="Monaco,Monaco" font-size="49.5" fill="#F9F9F4" transform="matrix(1.00, 0.00, -0.00, -1.00, 862.7, 437.5)">n</text><text xml:space="preserve" font-family="Monaco,Monaco" font-size="49.5" fill="#F9F9F4" transform="matrix(1.00, 0.00, -0.00, -1.00, 892.4, 437.5)">t</text><text xml:space="preserve" font-family="Monaco,Monaco" font-size="49.5" fill="#F9F9F4" transform="matrix(1.00, 0.00, -0.00, -1.00, 922.1, 437.5)">)</text><text xml:space="preserve" font-family="Monaco,Monaco" font-size="49.5" fill="#F9F9F4" transform="matrix(1.00, 0.00, -0.00, -1.00, 951.8, 437.5)"> </text><text xml:space="preserve" font-family="Monaco,Monaco" font-size="49.5" fill="#F9F9F4" transform="matrix(1.00, 0.00, -0.00, -1.00, 981.5, 437.5)">?</text><text xml:space="preserve" font-family="Monaco,Monaco" font-size="49.5" fill="#000000" transform="matrix(1.00, 0.00, -0.00, -1.00, 1011.1, 437.5)"> </text><text xml:space="preserve" font-family="Monaco,Monaco" font-size="49.5" fill="#13F7BA" transform="matrix(1.00, 0.00, -0.00, -1.00, 1040.8, 437.5)">s</text><text xml:space="preserve" font-family="Monaco,Monaco" font-size="49.5" fill="#13F7BA" transform="matrix(1.00, 0.00, -0.00, -1.00, 1070.6, 437.5)">t</text><text xml:space="preserve" font-family="Monaco,Monaco" font-size="49.5" fill="#13F7BA" transform="matrix(1.00, 0.00, -0.00, -1.00, 1100.3, 437.5)">e</text><text xml:space="preserve" font-family="Monaco,Monaco" font-size="49.5" fill="#13F7BA" transform="matrix(1.00, 0.00, -0.00, -1.00, 1130.0, 437.5)">p</text><text xml:space="preserve" font-family="Monaco,Monaco" font-size="49.5" fill="#F9F9F4" transform="matrix(1.00, 0.00, -0.00, -1.00, 1159.7, 437.5)">(</text><text xml:space="preserve" font-family="Monaco,Monaco" font-size="49.5" fill="#F9F9F4" transform="matrix(1.00, 0.00, -0.00, -1.00, 1189.4, 437.5)">a</text><text xml:space="preserve" font-family="Monaco,Monaco" font-size="49.5" fill="#F9F9F4" transform="matrix(1.00, 0.00, -0.00, -1.00, 1219.1, 437.5)">c</text><text xml:space="preserve" font-family="Monaco,Monaco" font-size="49.5" fill="#F9F9F4" transform="matrix(1.00, 0.00, -0.00, -1.00, 1248.8, 437.5)">c</text><text xml:space="preserve" font-family="Monaco,Monaco" font-size="49.5" fill="#F9F9F4" transform="matrix(1.00, 0.00, -0.00, -1.00, 1278.5, 437.5)">,</text><text xml:space="preserve" font-family="Monaco,Monaco" font-size="49.5" fill="#000000" transform="matrix(1.00, 0.00, -0.00, -1.00, 1308.2, 437.5)"> </text><text xml:space="preserve" font-family="Monaco,Monaco" font-size="49.5" fill="#F9F9F4" transform="matrix(1.00, 0.00, -0.00, -1.00, 1337.9, 437.5)">e</text><text xml:space="preserve" font-family="Monaco,Monaco" font-size="49.5" fill="#F9F9F4" transform="matrix(1.00, 0.00, -0.00, -1.00, 1367.6, 437.5)">l</text><text xml:space="preserve" font-family="Monaco,Monaco" font-size="49.5" fill="#F9F9F4" transform="matrix(1.00, 0.00, -0.00, -1.00, 1397.3, 437.5)">e</text><text xml:space="preserve" font-family="Monaco,Monaco" font-size="49.5" fill="#F9F9F4" transform="matrix(1.00, 0.00, -0.00, -1.00, 1427.0, 437.5)">m</text><text xml:space="preserve" font-family="Monaco,Monaco" font-size="49.5" fill="#F9F9F4" transform="matrix(1.00, 0.00, -0.00, -1.00, 1456.7, 437.5)">e</text><text xml:space="preserve" font-family="Monaco,Monaco" font-size="49.5" fill="#F9F9F4" transform="matrix(1.00, 0.00, -0.00, -1.00, 1486.4, 437.5)">n</text><text xml:space="preserve" font-family="Monaco,Monaco" font-size="49.5" fill="#F9F9F4" transform="matrix(1.00, 0.00, -0.00, -1.00, 1516.2, 437.5)">t</text><text xml:space="preserve" font-family="Monaco,Monaco" font-size="49.5" fill="#F9F9F4" transform="matrix(1.00, 0.00, -0.00, -1.00, 1545.9, 437.5)">)</text><text xml:space="preserve" font-family="Monaco,Monaco" font-size="49.5" fill="#F9F9F4" transform="matrix(1.00, 0.00, -0.00, -1.00, 1575.6, 437.5)"> </text><text xml:space="preserve" font-family="Monaco,Monaco" font-size="49.5" fill="#F9F9F4" transform="matrix(1.00, 0.00, -0.00, -1.00, 1605.3, 437.5)">:</text><text xml:space="preserve" font-family="Monaco,Monaco" font-size="49.5" fill="#000000" transform="matrix(1.00, 0.00, -0.00, -1.00, 1634.9, 437.5)"> </text><text xml:space="preserve" font-family="Monaco,Monaco" font-size="49.5" fill="#F9F9F4" transform="matrix(1.00, 0.00, -0.00, -1.00, 1664.7, 437.5)">a</text><text xml:space="preserve" font-family="Monaco,Monaco" font-size="49.5" fill="#F9F9F4" transform="matrix(1.00, 0.00, -0.00, -1.00, 1694.4, 437.5)">c</text><text xml:space="preserve" font-family="Monaco,Monaco" font-size="49.5" fill="#F9F9F4" transform="matrix(1.00, 0.00, -0.00, -1.00, 1724.1, 437.5)">c</text><text xml:space="preserve" font-family="Monaco,Monaco" font-size="49.5" fill="#F9F9F4" transform="matrix(1.00, 0.00, -0.00, -1.00, 1753.8, 437.5)">;</text><text xml:space="preserve" font-family="Monaco,Monaco" font-size="49.5" fill="#000000" transform="matrix(1.00, 0.00, -0.00, -1.00, 120.0, 371.5)"> </text><text xml:space="preserve" font-family="Monaco,Monaco" font-size="49.5" fill="#000000" transform="matrix(1.00, 0.00, -0.00, -1.00, 149.7, 371.5)"> </text><text xml:space="preserve" font-family="Monaco,Monaco" font-size="49.5" fill="#000000" transform="matrix(1.00, 0.00, -0.00, -1.00, 179.4, 371.5)"> </text><text xml:space="preserve" font-family="Monaco,Monaco" font-size="49.5" fill="#000000" transform="matrix(1.00, 0.00, -0.00, -1.00, 209.1, 371.5)"> </text><text xml:space="preserve" font-family="Monaco,Monaco" font-size="49.5" fill="#000000" transform="matrix(1.00, 0.00, -0.00, -1.00, 238.8, 371.5)"> </text><text xml:space="preserve" font-family="Monaco,Monaco" font-size="49.5" fill="#000000" transform="matrix(1.00, 0.00, -0.00, -1.00, 268.5, 371.5)"> </text><text xml:space="preserve" font-family="Monaco,Monaco" font-size="49.5" fill="#F9F9F4" transform="matrix(1.00, 0.00, -0.00, -1.00, 298.2, 371.5)">}</text><text xml:space="preserve" font-family="Monaco,Monaco" font-size="49.5" fill="#F9F9F4" transform="matrix(1.00, 0.00, -0.00, -1.00, 327.9, 371.5)">,</text><text xml:space="preserve" font-family="Monaco,Monaco" font-size="49.5" fill="#000000" transform="matrix(1.00, 0.00, -0.00, -1.00, 357.6, 371.5)"> </text><text xml:space="preserve" font-family="Monaco,Monaco" font-size="49.5" fill="#F9F9F4" transform="matrix(1.00, 0.00, -0.00, -1.00, 387.3, 371.5)">i</text><text xml:space="preserve" font-family="Monaco,Monaco" font-size="49.5" fill="#F9F9F4" transform="matrix(1.00, 0.00, -0.00, -1.00, 417.1, 371.5)">n</text><text xml:space="preserve" font-family="Monaco,Monaco" font-size="49.5" fill="#F9F9F4" transform="matrix(1.00, 0.00, -0.00, -1.00, 446.8, 371.5)">i</text><text xml:space="preserve" font-family="Monaco,Monaco" font-size="49.5" fill="#F9F9F4" transform="matrix(1.00, 0.00, -0.00, -1.00, 476.5, 371.5)">t</text><text xml:space="preserve" font-family="Monaco,Monaco" font-size="49.5" fill="#F9F9F4" transform="matrix(1.00, 0.00, -0.00, -1.00, 506.2, 371.5)">i</text><text xml:space="preserve" font-family="Monaco,Monaco" font-size="49.5" fill="#F9F9F4" transform="matrix(1.00, 0.00, -0.00, -1.00, 535.9, 371.5)">a</text><text xml:space="preserve" font-family="Monaco,Monaco" font-size="49.5" fill="#F9F9F4" transform="matrix(1.00, 0.00, -0.00, -1.00, 565.6, 371.5)">l</text><text xml:space="preserve" font-family="Monaco,Monaco" font-size="49.5" fill="#F9F9F4" transform="matrix(1.00, 0.00, -0.00, -1.00, 595.3, 371.5)">)</text><text xml:space="preserve" font-family="Monaco,Monaco" font-size="49.5" fill="#F9F9F4" transform="matrix(1.00, 0.00, -0.00, -1.00, 625.0, 371.5)">;</text><text xml:space="preserve" font-family="Monaco,Monaco" font-size="49.5" fill="#000000" transform="matrix(1.00, 0.00, -0.00, -1.00, 120.0, 305.5)"> </text><text xml:space="preserve" font-family="Monaco,Monaco" font-size="49.5" fill="#000000" transform="matrix(1.00, 0.00, -0.00, -1.00, 149.7, 305.5)"> </text><text xml:space="preserve" font-family="Monaco,Monaco" font-size="49.5" fill="#000000" transform="matrix(1.00, 0.00, -0.00, -1.00, 179.4, 305.5)"> </text><text xml:space="preserve" font-family="Monaco,Monaco" font-size="49.5" fill="#000000" transform="matrix(1.00, 0.00, -0.00, -1.00, 209.1, 305.5)"> </text><text xml:space="preserve" font-family="Monaco,Monaco" font-size="49.5" fill="#F9F9F4" transform="matrix(1.00, 0.00, -0.00, -1.00, 238.8, 305.5)">}</text><text xml:space="preserve" font-family="Monaco,Monaco" font-size="49.5" fill="#000000" transform="matrix(1.00, 0.00, -0.00, -1.00, 120.0, 239.5)"> </text><text xml:space="preserve" font-family="Monaco,Monaco" font-size="49.5" fill="#000000" transform="matrix(1.00, 0.00, -0.00, -1.00, 149.7, 239.5)"> </text><text xml:space="preserve" font-family="Monaco,Monaco" font-size="49.5" fill="#F9F9F4" transform="matrix(1.00, 0.00, -0.00, -1.00, 179.4, 239.5)">}</text><text xml:space="preserve" font-family="Monaco,Monaco" font-size="49.5" fill="#F9F9F4" transform="matrix(1.00, 0.00, -0.00, -1.00, 209.1, 239.5)">;</text><text xml:space="preserve" font-family="Monaco,Monaco" font-size="49.5" fill="#F9F9F4" transform="matrix(1.00, 0.00, -0.00, -1.00, 120.0, 173.5)">}</text><text xml:space="preserve" font-family="Monaco,Monaco" font-size="49.5" fill="#F9F9F4" transform="matrix(1.00, 0.00, -0.00, -1.00, 149.7, 173.5)">;</text></g></svg>