<?xml version="1.0" encoding="UTF-8" standalone="no"?><svg xmlns="http://www.w3.org/2000/svg" xmlns:xlink="http://www.w3.org/1999/xlink" clip-rule="evenodd" stroke-miterlimit="10" viewBox="0 0 1920 1080"><desc>SVG generated by Keynote</desc><defs></defs><g transform="matrix(1.00, 0.00, -0.00, -1.00, 0.0, 1080.0)"><g><clipPath id="clip0x7fe428432e60"><path d="M 0.0 1080.0 L 1920.0 1080.0 L 1920.0 0.0 L 0.0 0.0 Z M 0.0 1080.0 "></path></clipPath><g clip-path="url(#clip0x7fe428432e60)"><image xlink:href="../../EAAA0B26-26D2-4E6F-B71B-738E9DFC302E/assets/0F43D2572F34A9AFB59E4515ED9A1249.jpeg" width="3840.00" height="2160.00" transform="matrix(0.50, 0.00, -0.00, -0.50, 0.0, 1080.0)"></image></g></g><image xlink:href="../../41BB162D-1C4B-4A08-9AA5-F3CD3FD05BCD/assets/5E3B30BBEB39731F56D97D16D9680B09.png" width="411.00" height="82.00" transform="matrix(1.00, 0.00, -0.00, -1.00, 123.0, 952.0)"></image><text xml:space="preserve" font-family="HelveticaNeue-Light,Helvetica Neue" font-size="100.0" fill="#FEFFFE" transform="matrix(1.00, 0.00, -0.00, -1.00, 120.0, 879.2)">R</text><text xml:space="preserve" font-family="HelveticaNeue-Light,Helvetica Neue" font-size="100.0" fill="#FEFFFE" transform="matrix(1.00, 0.00, -0.00, -1.00, 186.7, 879.2)">e</text><text xml:space="preserve" font-family="HelveticaNeue-Light,Helvetica Neue" font-size="100.0" fill="#FEFFFE" transform="matrix(1.00, 0.00, -0.00, -1.00, 238.6, 879.2)">d</text><text xml:space="preserve" font-family="HelveticaNeue-Light,Helvetica Neue" font-size="100.0" fill="#FEFFFE" transform="matrix(1.00, 0.00, -0.00, -1.00, 296.0, 879.2)">u</text><text xml:space="preserve" font-family="HelveticaNeue-Light,Helvetica Neue" font-size="100.0" fill="#FEFFFE" transform="matrix(1.00, 0.00, -0.00, -1.00, 349.7, 879.2)">c</text><text xml:space="preserve" font-family="HelveticaNeue-Light,Helvetica Neue" font-size="100.0" fill="#FEFFFE" transform="matrix(1.00, 0.00, -0.00, -1.00, 401.6, 879.2)">e</text><text xml:space="preserve" font-family="HelveticaNeue-Light,Helvetica Neue" font-size="100.0" fill="#FEFFFE" transform="matrix(1.00, 0.00, -0.00, -1.00, 453.5, 879.2)">r</text><text xml:space="preserve" font-family="HelveticaNeue-Light,Helvetica Neue" font-size="100.0" fill="#FEFFFE" transform="matrix(1.00, 0.00, -0.00, -1.00, 485.0, 879.2)">s</text><text xml:space="preserve" font-family="Monaco,Monaco" font-size="46.5" fill="#FC4384" transform="matrix(1.00, 0.00, -0.00, -1.00, 120.0, 690.5)">v</text><text xml:space="preserve" font-family="Monaco,Monaco" font-size="46.5" fill="#FC4384" transform="matrix(1.00, 0.00, -0.00, -1.00, 147.9, 690.5)">a</text><text xml:space="preserve" font-family="Monaco,Monaco" font-size="46.5" fill="#FC4384" transform="matrix(1.00, 0.00, -0.00, -1.00, 175.8, 690.5)">r</text><text xml:space="preserve" font-family="Monaco,Monaco" font-size="46.5" fill="#000000" transform="matrix(1.00, 0.00, -0.00, -1.00, 203.7, 690.5)"> </text><text xml:space="preserve" font-family="Monaco,Monaco" font-size="46.5" fill="#F9F9F4" transform="matrix(1.00, 0.00, -0.00, -1.00, 231.6, 690.5)">p</text><text xml:space="preserve" font-family="Monaco,Monaco" font-size="46.5" fill="#F9F9F4" transform="matrix(1.00, 0.00, -0.00, -1.00, 259.5, 690.5)">o</text><text xml:space="preserve" font-family="Monaco,Monaco" font-size="46.5" fill="#F9F9F4" transform="matrix(1.00, 0.00, -0.00, -1.00, 287.4, 690.5)">w</text><text xml:space="preserve" font-family="Monaco,Monaco" font-size="46.5" fill="#F9F9F4" transform="matrix(1.00, 0.00, -0.00, -1.00, 315.3, 690.5)">e</text><text xml:space="preserve" font-family="Monaco,Monaco" font-size="46.5" fill="#F9F9F4" transform="matrix(1.00, 0.00, -0.00, -1.00, 343.3, 690.5)">r</text><text xml:space="preserve" font-family="Monaco,Monaco" font-size="46.5" fill="#F9F9F4" transform="matrix(1.00, 0.00, -0.00, -1.00, 371.2, 690.5)">O</text><text xml:space="preserve" font-family="Monaco,Monaco" font-size="46.5" fill="#F9F9F4" transform="matrix(1.00, 0.00, -0.00, -1.00, 399.1, 690.5)">f</text><text xml:space="preserve" font-family="Monaco,Monaco" font-size="46.5" fill="#F9F9F4" transform="matrix(1.00, 0.00, -0.00, -1.00, 427.0, 690.5)">T</text><text xml:space="preserve" font-family="Monaco,Monaco" font-size="46.5" fill="#F9F9F4" transform="matrix(1.00, 0.00, -0.00, -1.00, 454.9, 690.5)">w</text><text xml:space="preserve" font-family="Monaco,Monaco" font-size="46.5" fill="#F9F9F4" transform="matrix(1.00, 0.00, -0.00, -1.00, 482.8, 690.5)">o</text><text xml:space="preserve" font-family="Monaco,Monaco" font-size="46.5" fill="#000000" transform="matrix(1.00, 0.00, -0.00, -1.00, 510.7, 690.5)"> </text><text xml:space="preserve" font-family="Monaco,Monaco" font-size="46.5" fill="#F9F9F4" transform="matrix(1.00, 0.00, -0.00, -1.00, 538.6, 690.5)">=</text><text xml:space="preserve" font-family="Monaco,Monaco" font-size="46.5" fill="#000000" transform="matrix(1.00, 0.00, -0.00, -1.00, 566.5, 690.5)"> </text><text xml:space="preserve" font-family="Monaco,Monaco" font-size="46.5" fill="#FC4384" transform="matrix(1.00, 0.00, -0.00, -1.00, 594.4, 690.5)">f</text><text xml:space="preserve" font-family="Monaco,Monaco" font-size="46.5" fill="#FC4384" transform="matrix(1.00, 0.00, -0.00, -1.00, 622.3, 690.5)">u</text><text xml:space="preserve" font-family="Monaco,Monaco" font-size="46.5" fill="#FC4384" transform="matrix(1.00, 0.00, -0.00, -1.00, 650.2, 690.5)">n</text><text xml:space="preserve" font-family="Monaco,Monaco" font-size="46.5" fill="#FC4384" transform="matrix(1.00, 0.00, -0.00, -1.00, 678.1, 690.5)">c</text><text xml:space="preserve" font-family="Monaco,Monaco" font-size="46.5" fill="#FC4384" transform="matrix(1.00, 0.00, -0.00, -1.00, 706.0, 690.5)">t</text><text xml:space="preserve" font-family="Monaco,Monaco" font-size="46.5" fill="#FC4384" transform="matrix(1.00, 0.00, -0.00, -1.00, 733.9, 690.5)">i</text><text xml:space="preserve" font-family="Monaco,Monaco" font-size="46.5" fill="#FC4384" transform="matrix(1.00, 0.00, -0.00, -1.00, 761.8, 690.5)">o</text><text xml:space="preserve" font-family="Monaco,Monaco" font-size="46.5" fill="#FC4384" transform="matrix(1.00, 0.00, -0.00, -1.00, 789.7, 690.5)">n</text><text xml:space="preserve" font-family="Monaco,Monaco" font-size="46.5" fill="#F9F9F4" transform="matrix(1.00, 0.00, -0.00, -1.00, 817.6, 690.5)">(</text><text xml:space="preserve" font-family="Monaco,Monaco" font-size="46.5" fill="#F9F9F4" transform="matrix(1.00, 0.00, -0.00, -1.00, 845.5, 690.5)">e</text><text xml:space="preserve" font-family="Monaco,Monaco" font-size="46.5" fill="#F9F9F4" transform="matrix(1.00, 0.00, -0.00, -1.00, 873.4, 690.5)">l</text><text xml:space="preserve" font-family="Monaco,Monaco" font-size="46.5" fill="#F9F9F4" transform="matrix(1.00, 0.00, -0.00, -1.00, 901.3, 690.5)">e</text><text xml:space="preserve" font-family="Monaco,Monaco" font-size="46.5" fill="#F9F9F4" transform="matrix(1.00, 0.00, -0.00, -1.00, 929.3, 690.5)">m</text><text xml:space="preserve" font-family="Monaco,Monaco" font-size="46.5" fill="#F9F9F4" transform="matrix(1.00, 0.00, -0.00, -1.00, 957.2, 690.5)">e</text><text xml:space="preserve" font-family="Monaco,Monaco" font-size="46.5" fill="#F9F9F4" transform="matrix(1.00, 0.00, -0.00, -1.00, 985.1, 690.5)">n</text><text xml:space="preserve" font-family="Monaco,Monaco" font-size="46.5" fill="#F9F9F4" transform="matrix(1.00, 0.00, -0.00, -1.00, 1013.0, 690.5)">t</text><text xml:space="preserve" font-family="Monaco,Monaco" font-size="46.5" fill="#F9F9F4" transform="matrix(1.00, 0.00, -0.00, -1.00, 1040.9, 690.5)">)</text><text xml:space="preserve" font-family="Monaco,Monaco" font-size="46.5" fill="#F9F9F4" transform="matrix(1.00, 0.00, -0.00, -1.00, 1068.8, 690.5)"> </text><text xml:space="preserve" font-family="Monaco,Monaco" font-size="46.5" fill="#F9F9F4" transform="matrix(1.00, 0.00, -0.00, -1.00, 1096.7, 690.5)">{</text><text xml:space="preserve" font-family="Monaco,Monaco" font-size="46.5" fill="#000000" transform="matrix(1.00, 0.00, -0.00, -1.00, 1124.6, 690.5)"> </text><text xml:space="preserve" font-family="Monaco,Monaco" font-size="46.5" fill="#FC4384" transform="matrix(1.00, 0.00, -0.00, -1.00, 1152.5, 690.5)">r</text><text xml:space="preserve" font-family="Monaco,Monaco" font-size="46.5" fill="#FC4384" transform="matrix(1.00, 0.00, -0.00, -1.00, 1180.4, 690.5)">e</text><text xml:space="preserve" font-family="Monaco,Monaco" font-size="46.5" fill="#FC4384" transform="matrix(1.00, 0.00, -0.00, -1.00, 1208.3, 690.5)">t</text><text xml:space="preserve" font-family="Monaco,Monaco" font-size="46.5" fill="#FC4384" transform="matrix(1.00, 0.00, -0.00, -1.00, 1236.2, 690.5)">u</text><text xml:space="preserve" font-family="Monaco,Monaco" font-size="46.5" fill="#FC4384" transform="matrix(1.00, 0.00, -0.00, -1.00, 1264.1, 690.5)">r</text><text xml:space="preserve" font-family="Monaco,Monaco" font-size="46.5" fill="#FC4384" transform="matrix(1.00, 0.00, -0.00, -1.00, 1292.0, 690.5)">n</text><text xml:space="preserve" font-family="Monaco,Monaco" font-size="46.5" fill="#000000" transform="matrix(1.00, 0.00, -0.00, -1.00, 1319.9, 690.5)"> </text><text xml:space="preserve" font-family="Monaco,Monaco" font-size="46.5" fill="#BC99FF" transform="matrix(1.00, 0.00, -0.00, -1.00, 1347.8, 690.5)">1</text><text xml:space="preserve" font-family="Monaco,Monaco" font-size="46.5" fill="#000000" transform="matrix(1.00, 0.00, -0.00, -1.00, 1375.7, 690.5)"> </text><text xml:space="preserve" font-family="Monaco,Monaco" font-size="46.5" fill="#F9F9F4" transform="matrix(1.00, 0.00, -0.00, -1.00, 1403.6, 690.5)">&lt;</text><text xml:space="preserve" font-family="Monaco,Monaco" font-size="46.5" fill="#F9F9F4" transform="matrix(1.00, 0.00, -0.00, -1.00, 1431.5, 690.5)">&lt;</text><text xml:space="preserve" font-family="Monaco,Monaco" font-size="46.5" fill="#000000" transform="matrix(1.00, 0.00, -0.00, -1.00, 1459.4, 690.5)"> </text><text xml:space="preserve" font-family="Monaco,Monaco" font-size="46.5" fill="#F9F9F4" transform="matrix(1.00, 0.00, -0.00, -1.00, 1487.3, 690.5)">e</text><text xml:space="preserve" font-family="Monaco,Monaco" font-size="46.5" fill="#F9F9F4" transform="matrix(1.00, 0.00, -0.00, -1.00, 1515.2, 690.5)">l</text><text xml:space="preserve" font-family="Monaco,Monaco" font-size="46.5" fill="#F9F9F4" transform="matrix(1.00, 0.00, -0.00, -1.00, 1543.1, 690.5)">e</text><text xml:space="preserve" font-family="Monaco,Monaco" font-size="46.5" fill="#F9F9F4" transform="matrix(1.00, 0.00, -0.00, -1.00, 1571.1, 690.5)">m</text><text xml:space="preserve" font-family="Monaco,Monaco" font-size="46.5" fill="#F9F9F4" transform="matrix(1.00, 0.00, -0.00, -1.00, 1599.0, 690.5)">e</text><text xml:space="preserve" font-family="Monaco,Monaco" font-size="46.5" fill="#F9F9F4" transform="matrix(1.00, 0.00, -0.00, -1.00, 1626.9, 690.5)">n</text><text xml:space="preserve" font-family="Monaco,Monaco" font-size="46.5" fill="#F9F9F4" transform="matrix(1.00, 0.00, -0.00, -1.00, 1654.8, 690.5)">t</text><text xml:space="preserve" font-family="Monaco,Monaco" font-size="46.5" fill="#F9F9F4" transform="matrix(1.00, 0.00, -0.00, -1.00, 1682.7, 690.5)">;</text><text xml:space="preserve" font-family="Monaco,Monaco" font-size="46.5" fill="#F9F9F4" transform="matrix(1.00, 0.00, -0.00, -1.00, 1710.6, 690.5)"> </text><text xml:space="preserve" font-family="Monaco,Monaco" font-size="46.5" fill="#F9F9F4" transform="matrix(1.00, 0.00, -0.00, -1.00, 1738.5, 690.5)">}</text><text xml:space="preserve" font-family="Monaco,Monaco" font-size="46.5" fill="#F9F9F4" transform="matrix(1.00, 0.00, -0.00, -1.00, 1766.4, 690.5)">;</text><text xml:space="preserve" font-family="Monaco,Monaco" font-size="46.5" fill="#FC4384" transform="matrix(1.00, 0.00, -0.00, -1.00, 120.0, 627.5)">v</text><text xml:space="preserve" font-family="Monaco,Monaco" font-size="46.5" fill="#FC4384" transform="matrix(1.00, 0.00, -0.00, -1.00, 147.9, 627.5)">a</text><text xml:space="preserve" font-family="Monaco,Monaco" font-size="46.5" fill="#FC4384" transform="matrix(1.00, 0.00, -0.00, -1.00, 175.8, 627.5)">r</text><text xml:space="preserve" font-family="Monaco,Monaco" font-size="46.5" fill="#000000" transform="matrix(1.00, 0.00, -0.00, -1.00, 203.7, 627.5)"> </text><text xml:space="preserve" font-family="Monaco,Monaco" font-size="46.5" fill="#F9F9F4" transform="matrix(1.00, 0.00, -0.00, -1.00, 231.6, 627.5)">m</text><text xml:space="preserve" font-family="Monaco,Monaco" font-size="46.5" fill="#F9F9F4" transform="matrix(1.00, 0.00, -0.00, -1.00, 259.5, 627.5)">a</text><text xml:space="preserve" font-family="Monaco,Monaco" font-size="46.5" fill="#F9F9F4" transform="matrix(1.00, 0.00, -0.00, -1.00, 287.4, 627.5)">p</text><text xml:space="preserve" font-family="Monaco,Monaco" font-size="46.5" fill="#000000" transform="matrix(1.00, 0.00, -0.00, -1.00, 315.3, 627.5)"> </text><text xml:space="preserve" font-family="Monaco,Monaco" font-size="46.5" fill="#F9F9F4" transform="matrix(1.00, 0.00, -0.00, -1.00, 343.2, 627.5)">=</text><text xml:space="preserve" font-family="Monaco,Monaco" font-size="46.5" fill="#000000" transform="matrix(1.00, 0.00, -0.00, -1.00, 371.1, 627.5)"> </text><text xml:space="preserve" font-family="Monaco,Monaco" font-size="46.5" fill="#FC4384" transform="matrix(1.00, 0.00, -0.00, -1.00, 399.0, 627.5)">f</text><text xml:space="preserve" font-family="Monaco,Monaco" font-size="46.5" fill="#FC4384" transform="matrix(1.00, 0.00, -0.00, -1.00, 427.0, 627.5)">u</text><text xml:space="preserve" font-family="Monaco,Monaco" font-size="46.5" fill="#FC4384" transform="matrix(1.00, 0.00, -0.00, -1.00, 454.9, 627.5)">n</text><text xml:space="preserve" font-family="Monaco,Monaco" font-size="46.5" fill="#FC4384" transform="matrix(1.00, 0.00, -0.00, -1.00, 482.8, 627.5)">c</text><text xml:space="preserve" font-family="Monaco,Monaco" font-size="46.5" fill="#FC4384" transform="matrix(1.00, 0.00, -0.00, -1.00, 510.7, 627.5)">t</text><text xml:space="preserve" font-family="Monaco,Monaco" font-size="46.5" fill="#FC4384" transform="matrix(1.00, 0.00, -0.00, -1.00, 538.6, 627.5)">i</text><text xml:space="preserve" font-family="Monaco,Monaco" font-size="46.5" fill="#FC4384" transform="matrix(1.00, 0.00, -0.00, -1.00, 566.5, 627.5)">o</text><text xml:space="preserve" font-family="Monaco,Monaco" font-size="46.5" fill="#FC4384" transform="matrix(1.00, 0.00, -0.00, -1.00, 594.4, 627.5)">n</text><text xml:space="preserve" font-family="Monaco,Monaco" font-size="46.5" fill="#F9F9F4" transform="matrix(1.00, 0.00, -0.00, -1.00, 622.3, 627.5)">(</text><text xml:space="preserve" font-family="Monaco,Monaco" font-size="46.5" fill="#F9F9F4" transform="matrix(1.00, 0.00, -0.00, -1.00, 650.2, 627.5)">f</text><text xml:space="preserve" font-family="Monaco,Monaco" font-size="46.5" fill="#F9F9F4" transform="matrix(1.00, 0.00, -0.00, -1.00, 678.1, 627.5)">n</text><text xml:space="preserve" font-family="Monaco,Monaco" font-size="46.5" fill="#F9F9F4" transform="matrix(1.00, 0.00, -0.00, -1.00, 706.0, 627.5)">,</text><text xml:space="preserve" font-family="Monaco,Monaco" font-size="46.5" fill="#000000" transform="matrix(1.00, 0.00, -0.00, -1.00, 733.9, 627.5)"> </text><text xml:space="preserve" font-family="Monaco,Monaco" font-size="46.5" fill="#F9F9F4" transform="matrix(1.00, 0.00, -0.00, -1.00, 761.8, 627.5)">c</text><text xml:space="preserve" font-family="Monaco,Monaco" font-size="46.5" fill="#F9F9F4" transform="matrix(1.00, 0.00, -0.00, -1.00, 789.7, 627.5)">o</text><text xml:space="preserve" font-family="Monaco,Monaco" font-size="46.5" fill="#F9F9F4" transform="matrix(1.00, 0.00, -0.00, -1.00, 817.6, 627.5)">l</text><text xml:space="preserve" font-family="Monaco,Monaco" font-size="46.5" fill="#F9F9F4" transform="matrix(1.00, 0.00, -0.00, -1.00, 845.5, 627.5)">l</text><text xml:space="preserve" font-family="Monaco,Monaco" font-size="46.5" fill="#F9F9F4" transform="matrix(1.00, 0.00, -0.00, -1.00, 873.4, 627.5)">)</text><text xml:space="preserve" font-family="Monaco,Monaco" font-size="46.5" fill="#F9F9F4" transform="matrix(1.00, 0.00, -0.00, -1.00, 901.4, 627.5)"> </text><text xml:space="preserve" font-family="Monaco,Monaco" font-size="46.5" fill="#F9F9F4" transform="matrix(1.00, 0.00, -0.00, -1.00, 929.3, 627.5)">{</text><text xml:space="preserve" font-family="Monaco,Monaco" font-size="46.5" fill="#000000" transform="matrix(1.00, 0.00, -0.00, -1.00, 957.1, 627.5)"> </text><text xml:space="preserve" font-family="Monaco,Monaco" font-size="46.5" fill="#FC4384" transform="matrix(1.00, 0.00, -0.00, -1.00, 985.0, 627.5)">r</text><text xml:space="preserve" font-family="Monaco,Monaco" font-size="46.5" fill="#FC4384" transform="matrix(1.00, 0.00, -0.00, -1.00, 1012.9, 627.5)">e</text><text xml:space="preserve" font-family="Monaco,Monaco" font-size="46.5" fill="#FC4384" transform="matrix(1.00, 0.00, -0.00, -1.00, 1040.9, 627.5)">t</text><text xml:space="preserve" font-family="Monaco,Monaco" font-size="46.5" fill="#FC4384" transform="matrix(1.00, 0.00, -0.00, -1.00, 1068.8, 627.5)">u</text><text xml:space="preserve" font-family="Monaco,Monaco" font-size="46.5" fill="#FC4384" transform="matrix(1.00, 0.00, -0.00, -1.00, 1096.7, 627.5)">r</text><text xml:space="preserve" font-family="Monaco,Monaco" font-size="46.5" fill="#FC4384" transform="matrix(1.00, 0.00, -0.00, -1.00, 1124.6, 627.5)">n</text><text xml:space="preserve" font-family="Monaco,Monaco" font-size="46.5" fill="#000000" transform="matrix(1.00, 0.00, -0.00, -1.00, 1152.5, 627.5)"> </text><text xml:space="preserve" font-family="Monaco,Monaco" font-size="46.5" fill="#F9F9F4" transform="matrix(1.00, 0.00, -0.00, -1.00, 1180.4, 627.5)">c</text><text xml:space="preserve" font-family="Monaco,Monaco" font-size="46.5" fill="#F9F9F4" transform="matrix(1.00, 0.00, -0.00, -1.00, 1208.3, 627.5)">o</text><text xml:space="preserve" font-family="Monaco,Monaco" font-size="46.5" fill="#F9F9F4" transform="matrix(1.00, 0.00, -0.00, -1.00, 1236.2, 627.5)">l</text><text xml:space="preserve" font-family="Monaco,Monaco" font-size="46.5" fill="#F9F9F4" transform="matrix(1.00, 0.00, -0.00, -1.00, 1264.1, 627.5)">l</text><text xml:space="preserve" font-family="Monaco,Monaco" font-size="46.5" fill="#F9F9F4" transform="matrix(1.00, 0.00, -0.00, -1.00, 1292.0, 627.5)">.</text><text xml:space="preserve" font-family="Monaco,Monaco" font-size="46.5" fill="#13F7BA" transform="matrix(1.00, 0.00, -0.00, -1.00, 1319.9, 627.5)">m</text><text xml:space="preserve" font-family="Monaco,Monaco" font-size="46.5" fill="#13F7BA" transform="matrix(1.00, 0.00, -0.00, -1.00, 1347.8, 627.5)">a</text><text xml:space="preserve" font-family="Monaco,Monaco" font-size="46.5" fill="#13F7BA" transform="matrix(1.00, 0.00, -0.00, -1.00, 1375.7, 627.5)">p</text><text xml:space="preserve" font-family="Monaco,Monaco" font-size="46.5" fill="#F9F9F4" transform="matrix(1.00, 0.00, -0.00, -1.00, 1403.6, 627.5)">(</text><text xml:space="preserve" font-family="Monaco,Monaco" font-size="46.5" fill="#F9F9F4" transform="matrix(1.00, 0.00, -0.00, -1.00, 1431.5, 627.5)">f</text><text xml:space="preserve" font-family="Monaco,Monaco" font-size="46.5" fill="#F9F9F4" transform="matrix(1.00, 0.00, -0.00, -1.00, 1459.4, 627.5)">n</text><text xml:space="preserve" font-family="Monaco,Monaco" font-size="46.5" fill="#F9F9F4" transform="matrix(1.00, 0.00, -0.00, -1.00, 1487.3, 627.5)">)</text><text xml:space="preserve" font-family="Monaco,Monaco" font-size="46.5" fill="#F9F9F4" transform="matrix(1.00, 0.00, -0.00, -1.00, 1515.2, 627.5)">;</text><text xml:space="preserve" font-family="Monaco,Monaco" font-size="46.5" fill="#F9F9F4" transform="matrix(1.00, 0.00, -0.00, -1.00, 1543.2, 627.5)"> </text><text xml:space="preserve" font-family="Monaco,Monaco" font-size="46.5" fill="#F9F9F4" transform="matrix(1.00, 0.00, -0.00, -1.00, 1571.1, 627.5)">}</text><text xml:space="preserve" font-family="Monaco,Monaco" font-size="46.5" fill="#F9F9F4" transform="matrix(1.00, 0.00, -0.00, -1.00, 1599.0, 627.5)">;</text><text xml:space="preserve" font-family="Monaco,Monaco" font-size="46.5" fill="#FC4384" transform="matrix(1.00, 0.00, -0.00, -1.00, 120.0, 564.5)">v</text><text xml:space="preserve" font-family="Monaco,Monaco" font-size="46.5" fill="#FC4384" transform="matrix(1.00, 0.00, -0.00, -1.00, 147.9, 564.5)">a</text><text xml:space="preserve" font-family="Monaco,Monaco" font-size="46.5" fill="#FC4384" transform="matrix(1.00, 0.00, -0.00, -1.00, 175.8, 564.5)">r</text><text xml:space="preserve" font-family="Monaco,Monaco" font-size="46.5" fill="#000000" transform="matrix(1.00, 0.00, -0.00, -1.00, 203.7, 564.5)"> </text><text xml:space="preserve" font-family="Monaco,Monaco" font-size="46.5" fill="#F9F9F4" transform="matrix(1.00, 0.00, -0.00, -1.00, 231.6, 564.5)">r</text><text xml:space="preserve" font-family="Monaco,Monaco" font-size="46.5" fill="#F9F9F4" transform="matrix(1.00, 0.00, -0.00, -1.00, 259.5, 564.5)">e</text><text xml:space="preserve" font-family="Monaco,Monaco" font-size="46.5" fill="#F9F9F4" transform="matrix(1.00, 0.00, -0.00, -1.00, 287.4, 564.5)">d</text><text xml:space="preserve" font-family="Monaco,Monaco" font-size="46.5" fill="#F9F9F4" transform="matrix(1.00, 0.00, -0.00, -1.00, 315.3, 564.5)">u</text><text xml:space="preserve" font-family="Monaco,Monaco" font-size="46.5" fill="#F9F9F4" transform="matrix(1.00, 0.00, -0.00, -1.00, 343.3, 564.5)">c</text><text xml:space="preserve" font-family="Monaco,Monaco" font-size="46.5" fill="#F9F9F4" transform="matrix(1.00, 0.00, -0.00, -1.00, 371.2, 564.5)">e</text><text xml:space="preserve" font-family="Monaco,Monaco" font-size="46.5" fill="#000000" transform="matrix(1.00, 0.00, -0.00, -1.00, 399.0, 564.5)"> </text><text xml:space="preserve" font-family="Monaco,Monaco" font-size="46.5" fill="#F9F9F4" transform="matrix(1.00, 0.00, -0.00, -1.00, 426.9, 564.5)">=</text><text xml:space="preserve" font-family="Monaco,Monaco" font-size="46.5" fill="#000000" transform="matrix(1.00, 0.00, -0.00, -1.00, 454.9, 564.5)"> </text><text xml:space="preserve" font-family="Monaco,Monaco" font-size="46.5" fill="#FC4384" transform="matrix(1.00, 0.00, -0.00, -1.00, 482.8, 564.5)">f</text><text xml:space="preserve" font-family="Monaco,Monaco" font-size="46.5" fill="#FC4384" transform="matrix(1.00, 0.00, -0.00, -1.00, 510.7, 564.5)">u</text><text xml:space="preserve" font-family="Monaco,Monaco" font-size="46.5" fill="#FC4384" transform="matrix(1.00, 0.00, -0.00, -1.00, 538.6, 564.5)">n</text><text xml:space="preserve" font-family="Monaco,Monaco" font-size="46.5" fill="#FC4384" transform="matrix(1.00, 0.00, -0.00, -1.00, 566.5, 564.5)">c</text><text xml:space="preserve" font-family="Monaco,Monaco" font-size="46.5" fill="#FC4384" transform="matrix(1.00, 0.00, -0.00, -1.00, 594.4, 564.5)">t</text><text xml:space="preserve" font-family="Monaco,Monaco" font-size="46.5" fill="#FC4384" transform="matrix(1.00, 0.00, -0.00, -1.00, 622.3, 564.5)">i</text><text xml:space="preserve" font-family="Monaco,Monaco" font-size="46.5" fill="#FC4384" transform="matrix(1.00, 0.00, -0.00, -1.00, 650.2, 564.5)">o</text><text xml:space="preserve" font-family="Monaco,Monaco" font-size="46.5" fill="#FC4384" transform="matrix(1.00, 0.00, -0.00, -1.00, 678.1, 564.5)">n</text><text xml:space="preserve" font-family="Monaco,Monaco" font-size="46.5" fill="#F9F9F4" transform="matrix(1.00, 0.00, -0.00, -1.00, 706.0, 564.5)">(</text><text xml:space="preserve" font-family="Monaco,Monaco" font-size="46.5" fill="#F9F9F4" transform="matrix(1.00, 0.00, -0.00, -1.00, 733.9, 564.5)">s</text><text xml:space="preserve" font-family="Monaco,Monaco" font-size="46.5" fill="#F9F9F4" transform="matrix(1.00, 0.00, -0.00, -1.00, 761.8, 564.5)">t</text><text xml:space="preserve" font-family="Monaco,Monaco" font-size="46.5" fill="#F9F9F4" transform="matrix(1.00, 0.00, -0.00, -1.00, 789.7, 564.5)">e</text><text xml:space="preserve" font-family="Monaco,Monaco" font-size="46.5" fill="#F9F9F4" transform="matrix(1.00, 0.00, -0.00, -1.00, 817.6, 564.5)">p</text><text xml:space="preserve" font-family="Monaco,Monaco" font-size="46.5" fill="#F9F9F4" transform="matrix(1.00, 0.00, -0.00, -1.00, 845.5, 564.5)">,</text><text xml:space="preserve" font-family="Monaco,Monaco" font-size="46.5" fill="#000000" transform="matrix(1.00, 0.00, -0.00, -1.00, 873.4, 564.5)"> </text><text xml:space="preserve" font-family="Monaco,Monaco" font-size="46.5" fill="#F9F9F4" transform="matrix(1.00, 0.00, -0.00, -1.00, 901.3, 564.5)">i</text><text xml:space="preserve" font-family="Monaco,Monaco" font-size="46.5" fill="#F9F9F4" transform="matrix(1.00, 0.00, -0.00, -1.00, 929.2, 564.5)">n</text><text xml:space="preserve" font-family="Monaco,Monaco" font-size="46.5" fill="#F9F9F4" transform="matrix(1.00, 0.00, -0.00, -1.00, 957.1, 564.5)">i</text><text xml:space="preserve" font-family="Monaco,Monaco" font-size="46.5" fill="#F9F9F4" transform="matrix(1.00, 0.00, -0.00, -1.00, 985.1, 564.5)">t</text><text xml:space="preserve" font-family="Monaco,Monaco" font-size="46.5" fill="#F9F9F4" transform="matrix(1.00, 0.00, -0.00, -1.00, 1013.0, 564.5)">i</text><text xml:space="preserve" font-family="Monaco,Monaco" font-size="46.5" fill="#F9F9F4" transform="matrix(1.00, 0.00, -0.00, -1.00, 1040.9, 564.5)">a</text><text xml:space="preserve" font-family="Monaco,Monaco" font-size="46.5" fill="#F9F9F4" transform="matrix(1.00, 0.00, -0.00, -1.00, 1068.8, 564.5)">l</text><text xml:space="preserve" font-family="Monaco,Monaco" font-size="46.5" fill="#F9F9F4" transform="matrix(1.00, 0.00, -0.00, -1.00, 1096.7, 564.5)">,</text><text xml:space="preserve" font-family="Monaco,Monaco" font-size="46.5" fill="#000000" transform="matrix(1.00, 0.00, -0.00, -1.00, 1124.6, 564.5)"> </text><text xml:space="preserve" font-family="Monaco,Monaco" font-size="46.5" fill="#F9F9F4" transform="matrix(1.00, 0.00, -0.00, -1.00, 1152.5, 564.5)">c</text><text xml:space="preserve" font-family="Monaco,Monaco" font-size="46.5" fill="#F9F9F4" transform="matrix(1.00, 0.00, -0.00, -1.00, 1180.4, 564.5)">o</text><text xml:space="preserve" font-family="Monaco,Monaco" font-size="46.5" fill="#F9F9F4" transform="matrix(1.00, 0.00, -0.00, -1.00, 1208.3, 564.5)">l</text><text xml:space="preserve" font-family="Monaco,Monaco" font-size="46.5" fill="#F9F9F4" transform="matrix(1.00, 0.00, -0.00, -1.00, 1236.2, 564.5)">l</text><text xml:space="preserve" font-family="Monaco,Monaco" font-size="46.5" fill="#F9F9F4" transform="matrix(1.00, 0.00, -0.00, -1.00, 1264.1, 564.5)">)</text><text xml:space="preserve" font-family="Monaco,Monaco" font-size="46.5" fill="#F9F9F4" transform="matrix(1.00, 0.00, -0.00, -1.00, 1292.0, 564.5)"> </text><text xml:space="preserve" font-family="Monaco,Monaco" font-size="46.5" fill="#F9F9F4" transform="matrix(1.00, 0.00, -0.00, -1.00, 1319.9, 564.5)">{</text><text xml:space="preserve" font-family="Monaco,Monaco" font-size="46.5" fill="#000000" transform="matrix(1.00, 0.00, -0.00, -1.00, 120.0, 501.5)"> </text><text xml:space="preserve" font-family="Monaco,Monaco" font-size="46.5" fill="#000000" transform="matrix(1.00, 0.00, -0.00, -1.00, 147.9, 501.5)"> </text><text xml:space="preserve" font-family="Monaco,Monaco" font-size="46.5" fill="#FC4384" transform="matrix(1.00, 0.00, -0.00, -1.00, 175.8, 501.5)">r</text><text xml:space="preserve" font-family="Monaco,Monaco" font-size="46.5" fill="#FC4384" transform="matrix(1.00, 0.00, -0.00, -1.00, 203.7, 501.5)">e</text><text xml:space="preserve" font-family="Monaco,Monaco" font-size="46.5" fill="#FC4384" transform="matrix(1.00, 0.00, -0.00, -1.00, 231.6, 501.5)">t</text><text xml:space="preserve" font-family="Monaco,Monaco" font-size="46.5" fill="#FC4384" transform="matrix(1.00, 0.00, -0.00, -1.00, 259.5, 501.5)">u</text><text xml:space="preserve" font-family="Monaco,Monaco" font-size="46.5" fill="#FC4384" transform="matrix(1.00, 0.00, -0.00, -1.00, 287.4, 501.5)">r</text><text xml:space="preserve" font-family="Monaco,Monaco" font-size="46.5" fill="#FC4384" transform="matrix(1.00, 0.00, -0.00, -1.00, 315.4, 501.5)">n</text><text xml:space="preserve" font-family="Monaco,Monaco" font-size="46.5" fill="#000000" transform="matrix(1.00, 0.00, -0.00, -1.00, 343.2, 501.5)"> </text><text xml:space="preserve" font-family="Monaco,Monaco" font-size="46.5" fill="#F9F9F4" transform="matrix(1.00, 0.00, -0.00, -1.00, 371.1, 501.5)">c</text><text xml:space="preserve" font-family="Monaco,Monaco" font-size="46.5" fill="#F9F9F4" transform="matrix(1.00, 0.00, -0.00, -1.00, 399.1, 501.5)">o</text><text xml:space="preserve" font-family="Monaco,Monaco" font-size="46.5" fill="#F9F9F4" transform="matrix(1.00, 0.00, -0.00, -1.00, 427.0, 501.5)">l</text><text xml:space="preserve" font-family="Monaco,Monaco" font-size="46.5" fill="#F9F9F4" transform="matrix(1.00, 0.00, -0.00, -1.00, 454.9, 501.5)">l</text><text xml:space="preserve" font-family="Monaco,Monaco" font-size="46.5" fill="#F9F9F4" transform="matrix(1.00, 0.00, -0.00, -1.00, 482.8, 501.5)">.</text><text xml:space="preserve" font-family="Monaco,Monaco" font-size="46.5" fill="#13F7BA" transform="matrix(1.00, 0.00, -0.00, -1.00, 510.7, 501.5)">r</text><text xml:space="preserve" font-family="Monaco,Monaco" font-size="46.5" fill="#13F7BA" transform="matrix(1.00, 0.00, -0.00, -1.00, 538.6, 501.5)">e</text><text xml:space="preserve" font-family="Monaco,Monaco" font-size="46.5" fill="#13F7BA" transform="matrix(1.00, 0.00, -0.00, -1.00, 566.5, 501.5)">d</text><text xml:space="preserve" font-family="Monaco,Monaco" font-size="46.5" fill="#13F7BA" transform="matrix(1.00, 0.00, -0.00, -1.00, 594.4, 501.5)">u</text><text xml:space="preserve" font-family="Monaco,Monaco" font-size="46.5" fill="#13F7BA" transform="matrix(1.00, 0.00, -0.00, -1.00, 622.3, 501.5)">c</text><text xml:space="preserve" font-family="Monaco,Monaco" font-size="46.5" fill="#13F7BA" transform="matrix(1.00, 0.00, -0.00, -1.00, 650.2, 501.5)">e</text><text xml:space="preserve" font-family="Monaco,Monaco" font-size="46.5" fill="#F9F9F4" transform="matrix(1.00, 0.00, -0.00, -1.00, 678.1, 501.5)">(</text><text xml:space="preserve" font-family="Monaco,Monaco" font-size="46.5" fill="#F9F9F4" transform="matrix(1.00, 0.00, -0.00, -1.00, 706.0, 501.5)">s</text><text xml:space="preserve" font-family="Monaco,Monaco" font-size="46.5" fill="#F9F9F4" transform="matrix(1.00, 0.00, -0.00, -1.00, 733.9, 501.5)">t</text><text xml:space="preserve" font-family="Monaco,Monaco" font-size="46.5" fill="#F9F9F4" transform="matrix(1.00, 0.00, -0.00, -1.00, 761.8, 501.5)">e</text><text xml:space="preserve" font-family="Monaco,Monaco" font-size="46.5" fill="#F9F9F4" transform="matrix(1.00, 0.00, -0.00, -1.00, 789.7, 501.5)">p</text><text xml:space="preserve" font-family="Monaco,Monaco" font-size="46.5" fill="#F9F9F4" transform="matrix(1.00, 0.00, -0.00, -1.00, 817.6, 501.5)">,</text><text xml:space="preserve" font-family="Monaco,Monaco" font-size="46.5" fill="#000000" transform="matrix(1.00, 0.00, -0.00, -1.00, 845.5, 501.5)"> </text><text xml:space="preserve" font-family="Monaco,Monaco" font-size="46.5" fill="#F9F9F4" transform="matrix(1.00, 0.00, -0.00, -1.00, 873.4, 501.5)">i</text><text xml:space="preserve" font-family="Monaco,Monaco" font-size="46.5" fill="#F9F9F4" transform="matrix(1.00, 0.00, -0.00, -1.00, 901.3, 501.5)">n</text><text xml:space="preserve" font-family="Monaco,Monaco" font-size="46.5" fill="#F9F9F4" transform="matrix(1.00, 0.00, -0.00, -1.00, 929.2, 501.5)">i</text><text xml:space="preserve" font-family="Monaco,Monaco" font-size="46.5" fill="#F9F9F4" transform="matrix(1.00, 0.00, -0.00, -1.00, 957.2, 501.5)">t</text><text xml:space="preserve" font-family="Monaco,Monaco" font-size="46.5" fill="#F9F9F4" transform="matrix(1.00, 0.00, -0.00, -1.00, 985.1, 501.5)">i</text><text xml:space="preserve" font-family="Monaco,Monaco" font-size="46.5" fill="#F9F9F4" transform="matrix(1.00, 0.00, -0.00, -1.00, 1013.0, 501.5)">a</text><text xml:space="preserve" font-family="Monaco,Monaco" font-size="46.5" fill="#F9F9F4" transform="matrix(1.00, 0.00, -0.00, -1.00, 1040.9, 501.5)">l</text><text xml:space="preserve" font-family="Monaco,Monaco" font-size="46.5" fill="#F9F9F4" transform="matrix(1.00, 0.00, -0.00, -1.00, 1068.8, 501.5)">)</text><text xml:space="preserve" font-family="Monaco,Monaco" font-size="46.5" fill="#F9F9F4" transform="matrix(1.00, 0.00, -0.00, -1.00, 1096.7, 501.5)">;</text><text xml:space="preserve" font-family="Monaco,Monaco" font-size="46.5" fill="#F9F9F4" transform="matrix(1.00, 0.00, -0.00, -1.00, 120.0, 438.5)">}</text><text xml:space="preserve" font-family="Monaco,Monaco" font-size="46.5" fill="#F9F9F4" transform="matrix(1.00, 0.00, -0.00, -1.00, 147.9, 438.5)">;</text><text xml:space="preserve" font-family="Monaco,Monaco" font-size="46.5" fill="#13F7BA" transform="matrix(1.00, 0.00, -0.00, -1.00, 120.0, 375.5)">r</text><text xml:space="preserve" font-family="Monaco,Monaco" font-size="46.5" fill="#13F7BA" transform="matrix(1.00, 0.00, -0.00, -1.00, 147.9, 375.5)">e</text><text xml:space="preserve" font-family="Monaco,Monaco" font-size="46.5" fill="#13F7BA" transform="matrix(1.00, 0.00, -0.00, -1.00, 175.8, 375.5)">d</text><text xml:space="preserve" font-family="Monaco,Monaco" font-size="46.5" fill="#13F7BA" transform="matrix(1.00, 0.00, -0.00, -1.00, 203.7, 375.5)">u</text><text xml:space="preserve" font-family="Monaco,Monaco" font-size="46.5" fill="#13F7BA" transform="matrix(1.00, 0.00, -0.00, -1.00, 231.6, 375.5)">c</text><text xml:space="preserve" font-family="Monaco,Monaco" font-size="46.5" fill="#13F7BA" transform="matrix(1.00, 0.00, -0.00, -1.00, 259.5, 375.5)">e</text><text xml:space="preserve" font-family="Monaco,Monaco" font-size="46.5" fill="#F9F9F4" transform="matrix(1.00, 0.00, -0.00, -1.00, 287.4, 375.5)">(</text><text xml:space="preserve" font-family="Monaco,Monaco" font-size="46.5" fill="#000000" transform="matrix(1.00, 0.00, -0.00, -1.00, 120.0, 312.5)"> </text><text xml:space="preserve" font-family="Monaco,Monaco" font-size="46.5" fill="#000000" transform="matrix(1.00, 0.00, -0.00, -1.00, 147.9, 312.5)"> </text><text xml:space="preserve" font-family="Monaco,Monaco" font-size="46.5" fill="#FC4384" transform="matrix(1.00, 0.00, -0.00, -1.00, 175.8, 312.5)">f</text><text xml:space="preserve" font-family="Monaco,Monaco" font-size="46.5" fill="#FC4384" transform="matrix(1.00, 0.00, -0.00, -1.00, 203.7, 312.5)">u</text><text xml:space="preserve" font-family="Monaco,Monaco" font-size="46.5" fill="#FC4384" transform="matrix(1.00, 0.00, -0.00, -1.00, 231.6, 312.5)">n</text><text xml:space="preserve" font-family="Monaco,Monaco" font-size="46.5" fill="#FC4384" transform="matrix(1.00, 0.00, -0.00, -1.00, 259.5, 312.5)">c</text><text xml:space="preserve" font-family="Monaco,Monaco" font-size="46.5" fill="#FC4384" transform="matrix(1.00, 0.00, -0.00, -1.00, 287.4, 312.5)">t</text><text xml:space="preserve" font-family="Monaco,Monaco" font-size="46.5" fill="#FC4384" transform="matrix(1.00, 0.00, -0.00, -1.00, 315.4, 312.5)">i</text><text xml:space="preserve" font-family="Monaco,Monaco" font-size="46.5" fill="#FC4384" transform="matrix(1.00, 0.00, -0.00, -1.00, 343.3, 312.5)">o</text><text xml:space="preserve" font-family="Monaco,Monaco" font-size="46.5" fill="#FC4384" transform="matrix(1.00, 0.00, -0.00, -1.00, 371.2, 312.5)">n</text><text xml:space="preserve" font-family="Monaco,Monaco" font-size="46.5" fill="#F9F9F4" transform="matrix(1.00, 0.00, -0.00, -1.00, 399.0, 312.5)">(</text><text xml:space="preserve" font-family="Monaco,Monaco" font-size="46.5" fill="#F9F9F4" transform="matrix(1.00, 0.00, -0.00, -1.00, 427.0, 312.5)">a</text><text xml:space="preserve" font-family="Monaco,Monaco" font-size="46.5" fill="#F9F9F4" transform="matrix(1.00, 0.00, -0.00, -1.00, 454.9, 312.5)">c</text><text xml:space="preserve" font-family="Monaco,Monaco" font-size="46.5" fill="#F9F9F4" transform="matrix(1.00, 0.00, -0.00, -1.00, 482.8, 312.5)">c</text><text xml:space="preserve" font-family="Monaco,Monaco" font-size="46.5" fill="#F9F9F4" transform="matrix(1.00, 0.00, -0.00, -1.00, 510.7, 312.5)">,</text><text xml:space="preserve" font-family="Monaco,Monaco" font-size="46.5" fill="#000000" transform="matrix(1.00, 0.00, -0.00, -1.00, 538.6, 312.5)"> </text><text xml:space="preserve" font-family="Monaco,Monaco" font-size="46.5" fill="#F9F9F4" transform="matrix(1.00, 0.00, -0.00, -1.00, 566.5, 312.5)">e</text><text xml:space="preserve" font-family="Monaco,Monaco" font-size="46.5" fill="#F9F9F4" transform="matrix(1.00, 0.00, -0.00, -1.00, 594.4, 312.5)">l</text><text xml:space="preserve" font-family="Monaco,Monaco" font-size="46.5" fill="#F9F9F4" transform="matrix(1.00, 0.00, -0.00, -1.00, 622.3, 312.5)">e</text><text xml:space="preserve" font-family="Monaco,Monaco" font-size="46.5" fill="#F9F9F4" transform="matrix(1.00, 0.00, -0.00, -1.00, 650.2, 312.5)">m</text><text xml:space="preserve" font-family="Monaco,Monaco" font-size="46.5" fill="#F9F9F4" transform="matrix(1.00, 0.00, -0.00, -1.00, 678.1, 312.5)">e</text><text xml:space="preserve" font-family="Monaco,Monaco" font-size="46.5" fill="#F9F9F4" transform="matrix(1.00, 0.00, -0.00, -1.00, 706.0, 312.5)">n</text><text xml:space="preserve" font-family="Monaco,Monaco" font-size="46.5" fill="#F9F9F4" transform="matrix(1.00, 0.00, -0.00, -1.00, 733.9, 312.5)">t</text><text xml:space="preserve" font-family="Monaco,Monaco" font-size="46.5" fill="#F9F9F4" transform="matrix(1.00, 0.00, -0.00, -1.00, 761.8, 312.5)">)</text><text xml:space="preserve" font-family="Monaco,Monaco" font-size="46.5" fill="#F9F9F4" transform="matrix(1.00, 0.00, -0.00, -1.00, 789.7, 312.5)"> </text><text xml:space="preserve" font-family="Monaco,Monaco" font-size="46.5" fill="#F9F9F4" transform="matrix(1.00, 0.00, -0.00, -1.00, 817.7, 312.5)">{</text><text xml:space="preserve" font-family="Monaco,Monaco" font-size="46.5" fill="#000000" transform="matrix(1.00, 0.00, -0.00, -1.00, 845.5, 312.5)"> </text><text xml:space="preserve" font-family="Monaco,Monaco" font-size="46.5" fill="#FC4384" transform="matrix(1.00, 0.00, -0.00, -1.00, 873.4, 312.5)">r</text><text xml:space="preserve" font-family="Monaco,Monaco" font-size="46.5" fill="#FC4384" transform="matrix(1.00, 0.00, -0.00, -1.00, 901.3, 312.5)">e</text><text xml:space="preserve" font-family="Monaco,Monaco" font-size="46.5" fill="#FC4384" transform="matrix(1.00, 0.00, -0.00, -1.00, 929.2, 312.5)">t</text><text xml:space="preserve" font-family="Monaco,Monaco" font-size="46.5" fill="#FC4384" transform="matrix(1.00, 0.00, -0.00, -1.00, 957.2, 312.5)">u</text><text xml:space="preserve" font-family="Monaco,Monaco" font-size="46.5" fill="#FC4384" transform="matrix(1.00, 0.00, -0.00, -1.00, 985.1, 312.5)">r</text><text xml:space="preserve" font-family="Monaco,Monaco" font-size="46.5" fill="#FC4384" transform="matrix(1.00, 0.00, -0.00, -1.00, 1013.0, 312.5)">n</text><text xml:space="preserve" font-family="Monaco,Monaco" font-size="46.5" fill="#000000" transform="matrix(1.00, 0.00, -0.00, -1.00, 1040.8, 312.5)"> </text><text xml:space="preserve" font-family="Monaco,Monaco" font-size="46.5" fill="#F9F9F4" transform="matrix(1.00, 0.00, -0.00, -1.00, 1068.8, 312.5)">a</text><text xml:space="preserve" font-family="Monaco,Monaco" font-size="46.5" fill="#F9F9F4" transform="matrix(1.00, 0.00, -0.00, -1.00, 1096.7, 312.5)">c</text><text xml:space="preserve" font-family="Monaco,Monaco" font-size="46.5" fill="#F9F9F4" transform="matrix(1.00, 0.00, -0.00, -1.00, 1124.6, 312.5)">c</text><text xml:space="preserve" font-family="Monaco,Monaco" font-size="46.5" fill="#000000" transform="matrix(1.00, 0.00, -0.00, -1.00, 1152.5, 312.5)"> </text><text xml:space="preserve" font-family="Monaco,Monaco" font-size="46.5" fill="#F9F9F4" transform="matrix(1.00, 0.00, -0.00, -1.00, 1180.4, 312.5)">+</text><text xml:space="preserve" font-family="Monaco,Monaco" font-size="46.5" fill="#000000" transform="matrix(1.00, 0.00, -0.00, -1.00, 1208.3, 312.5)"> </text><text xml:space="preserve" font-family="Monaco,Monaco" font-size="46.5" fill="#F9F9F4" transform="matrix(1.00, 0.00, -0.00, -1.00, 1236.2, 312.5)">e</text><text xml:space="preserve" font-family="Monaco,Monaco" font-size="46.5" fill="#F9F9F4" transform="matrix(1.00, 0.00, -0.00, -1.00, 1264.1, 312.5)">l</text><text xml:space="preserve" font-family="Monaco,Monaco" font-size="46.5" fill="#F9F9F4" transform="matrix(1.00, 0.00, -0.00, -1.00, 1292.0, 312.5)">e</text><text xml:space="preserve" font-family="Monaco,Monaco" font-size="46.5" fill="#F9F9F4" transform="matrix(1.00, 0.00, -0.00, -1.00, 1319.9, 312.5)">m</text><text xml:space="preserve" font-family="Monaco,Monaco" font-size="46.5" fill="#F9F9F4" transform="matrix(1.00, 0.00, -0.00, -1.00, 1347.8, 312.5)">e</text><text xml:space="preserve" font-family="Monaco,Monaco" font-size="46.5" fill="#F9F9F4" transform="matrix(1.00, 0.00, -0.00, -1.00, 1375.7, 312.5)">n</text><text xml:space="preserve" font-family="Monaco,Monaco" font-size="46.5" fill="#F9F9F4" transform="matrix(1.00, 0.00, -0.00, -1.00, 1403.6, 312.5)">t</text><text xml:space="preserve" font-family="Monaco,Monaco" font-size="46.5" fill="#F9F9F4" transform="matrix(1.00, 0.00, -0.00, -1.00, 1431.5, 312.5)">;</text><text xml:space="preserve" font-family="Monaco,Monaco" font-size="46.5" fill="#F9F9F4" transform="matrix(1.00, 0.00, -0.00, -1.00, 1459.5, 312.5)"> </text><text xml:space="preserve" font-family="Monaco,Monaco" font-size="46.5" fill="#F9F9F4" transform="matrix(1.00, 0.00, -0.00, -1.00, 1487.4, 312.5)">}</text><text xml:space="preserve" font-family="Monaco,Monaco" font-size="46.5" fill="#F9F9F4" transform="matrix(1.00, 0.00, -0.00, -1.00, 1515.3, 312.5)">,</text><text xml:space="preserve" font-family="Monaco,Monaco" font-size="46.5" fill="#000000" transform="matrix(1.00, 0.00, -0.00, -1.00, 120.0, 249.5)"> </text><text xml:space="preserve" font-family="Monaco,Monaco" font-size="46.5" fill="#000000" transform="matrix(1.00, 0.00, -0.00, -1.00, 147.9, 249.5)"> </text><text xml:space="preserve" font-family="Monaco,Monaco" font-size="46.5" fill="#BC99FF" transform="matrix(1.00, 0.00, -0.00, -1.00, 175.8, 249.5)">0</text><text xml:space="preserve" font-family="Monaco,Monaco" font-size="46.5" fill="#F9F9F4" transform="matrix(1.00, 0.00, -0.00, -1.00, 203.7, 249.5)">,</text><text xml:space="preserve" font-family="Monaco,Monaco" font-size="46.5" fill="#000000" transform="matrix(1.00, 0.00, -0.00, -1.00, 120.0, 186.5)"> </text><text xml:space="preserve" font-family="Monaco,Monaco" font-size="46.5" fill="#000000" transform="matrix(1.00, 0.00, -0.00, -1.00, 147.9, 186.5)"> </text><text xml:space="preserve" font-family="Monaco,Monaco" font-size="46.5" fill="#13F7BA" transform="matrix(1.00, 0.00, -0.00, -1.00, 175.8, 186.5)">m</text><text xml:space="preserve" font-family="Monaco,Monaco" font-size="46.5" fill="#13F7BA" transform="matrix(1.00, 0.00, -0.00, -1.00, 203.7, 186.5)">a</text><text xml:space="preserve" font-family="Monaco,Monaco" font-size="46.5" fill="#13F7BA" transform="matrix(1.00, 0.00, -0.00, -1.00, 231.6, 186.5)">p</text><text xml:space="preserve" font-family="Monaco,Monaco" font-size="46.5" fill="#F9F9F4" transform="matrix(1.00, 0.00, -0.00, -1.00, 259.5, 186.5)">(</text><text xml:space="preserve" font-family="Monaco,Monaco" font-size="46.5" fill="#F9F9F4" transform="matrix(1.00, 0.00, -0.00, -1.00, 287.4, 186.5)">p</text><text xml:space="preserve" font-family="Monaco,Monaco" font-size="46.5" fill="#F9F9F4" transform="matrix(1.00, 0.00, -0.00, -1.00, 315.3, 186.5)">o</text><text xml:space="preserve" font-family="Monaco,Monaco" font-size="46.5" fill="#F9F9F4" transform="matrix(1.00, 0.00, -0.00, -1.00, 343.3, 186.5)">w</text><text xml:space="preserve" font-family="Monaco,Monaco" font-size="46.5" fill="#F9F9F4" transform="matrix(1.00, 0.00, -0.00, -1.00, 371.2, 186.5)">e</text><text xml:space="preserve" font-family="Monaco,Monaco" font-size="46.5" fill="#F9F9F4" transform="matrix(1.00, 0.00, -0.00, -1.00, 399.1, 186.5)">r</text><text xml:space="preserve" font-family="Monaco,Monaco" font-size="46.5" fill="#F9F9F4" transform="matrix(1.00, 0.00, -0.00, -1.00, 427.0, 186.5)">O</text><text xml:space="preserve" font-family="Monaco,Monaco" font-size="46.5" fill="#F9F9F4" transform="matrix(1.00, 0.00, -0.00, -1.00, 454.9, 186.5)">f</text><text xml:space="preserve" font-family="Monaco,Monaco" font-size="46.5" fill="#F9F9F4" transform="matrix(1.00, 0.00, -0.00, -1.00, 482.8, 186.5)">T</text><text xml:space="preserve" font-family="Monaco,Monaco" font-size="46.5" fill="#F9F9F4" transform="matrix(1.00, 0.00, -0.00, -1.00, 510.7, 186.5)">w</text><text xml:space="preserve" font-family="Monaco,Monaco" font-size="46.5" fill="#F9F9F4" transform="matrix(1.00, 0.00, -0.00, -1.00, 538.6, 186.5)">o</text><text xml:space="preserve" font-family="Monaco,Monaco" font-size="46.5" fill="#F9F9F4" transform="matrix(1.00, 0.00, -0.00, -1.00, 566.5, 186.5)">,</text><text xml:space="preserve" font-family="Monaco,Monaco" font-size="46.5" fill="#F9F9F4" transform="matrix(1.00, 0.00, -0.00, -1.00, 594.4, 186.5)"> </text><text xml:space="preserve" font-family="Monaco,Monaco" font-size="46.5" fill="#F9F9F4" transform="matrix(1.00, 0.00, -0.00, -1.00, 622.3, 186.5)">[</text><text xml:space="preserve" font-family="Monaco,Monaco" font-size="46.5" fill="#BC99FF" transform="matrix(1.00, 0.00, -0.00, -1.00, 650.2, 186.5)">0</text><text xml:space="preserve" font-family="Monaco,Monaco" font-size="46.5" fill="#F9F9F4" transform="matrix(1.00, 0.00, -0.00, -1.00, 678.1, 186.5)">,</text><text xml:space="preserve" font-family="Monaco,Monaco" font-size="46.5" fill="#000000" transform="matrix(1.00, 0.00, -0.00, -1.00, 706.0, 186.5)"> </text><text xml:space="preserve" font-family="Monaco,Monaco" font-size="46.5" fill="#BC99FF" transform="matrix(1.00, 0.00, -0.00, -1.00, 733.9, 186.5)">1</text><text xml:space="preserve" font-family="Monaco,Monaco" font-size="46.5" fill="#F9F9F4" transform="matrix(1.00, 0.00, -0.00, -1.00, 761.8, 186.5)">,</text><text xml:space="preserve" font-family="Monaco,Monaco" font-size="46.5" fill="#000000" transform="matrix(1.00, 0.00, -0.00, -1.00, 789.7, 186.5)"> </text><text xml:space="preserve" font-family="Monaco,Monaco" font-size="46.5" fill="#BC99FF" transform="matrix(1.00, 0.00, -0.00, -1.00, 817.6, 186.5)">2</text><text xml:space="preserve" font-family="Monaco,Monaco" font-size="46.5" fill="#F9F9F4" transform="matrix(1.00, 0.00, -0.00, -1.00, 845.5, 186.5)">,</text><text xml:space="preserve" font-family="Monaco,Monaco" font-size="46.5" fill="#000000" transform="matrix(1.00, 0.00, -0.00, -1.00, 873.4, 186.5)"> </text><text xml:space="preserve" font-family="Monaco,Monaco" font-size="46.5" fill="#BC99FF" transform="matrix(1.00, 0.00, -0.00, -1.00, 901.3, 186.5)">3</text><text xml:space="preserve" font-family="Monaco,Monaco" font-size="46.5" fill="#F9F9F4" transform="matrix(1.00, 0.00, -0.00, -1.00, 929.2, 186.5)">,</text><text xml:space="preserve" font-family="Monaco,Monaco" font-size="46.5" fill="#000000" transform="matrix(1.00, 0.00, -0.00, -1.00, 957.1, 186.5)"> </text><text xml:space="preserve" font-family="Monaco,Monaco" font-size="46.5" fill="#BC99FF" transform="matrix(1.00, 0.00, -0.00, -1.00, 985.0, 186.5)">4</text><text xml:space="preserve" font-family="Monaco,Monaco" font-size="46.5" fill="#F9F9F4" transform="matrix(1.00, 0.00, -0.00, -1.00, 1012.9, 186.5)">,</text><text xml:space="preserve" font-family="Monaco,Monaco" font-size="46.5" fill="#000000" transform="matrix(1.00, 0.00, -0.00, -1.00, 1040.8, 186.5)"> </text><text xml:space="preserve" font-family="Monaco,Monaco" font-size="46.5" fill="#BC99FF" transform="matrix(1.00, 0.00, -0.00, -1.00, 1068.8, 186.5)">5</text><text xml:space="preserve" font-family="Monaco,Monaco" font-size="46.5" fill="#F9F9F4" transform="matrix(1.00, 0.00, -0.00, -1.00, 1096.7, 186.5)">,</text><text xml:space="preserve" font-family="Monaco,Monaco" font-size="46.5" fill="#000000" transform="matrix(1.00, 0.00, -0.00, -1.00, 1124.6, 186.5)"> </text><text xml:space="preserve" font-family="Monaco,Monaco" font-size="46.5" fill="#BC99FF" transform="matrix(1.00, 0.00, -0.00, -1.00, 1152.5, 186.5)">6</text><text xml:space="preserve" font-family="Monaco,Monaco" font-size="46.5" fill="#F9F9F4" transform="matrix(1.00, 0.00, -0.00, -1.00, 1180.4, 186.5)">,</text><text xml:space="preserve" font-family="Monaco,Monaco" font-size="46.5" fill="#000000" transform="matrix(1.00, 0.00, -0.00, -1.00, 1208.3, 186.5)"> </text><text xml:space="preserve" font-family="Monaco,Monaco" font-size="46.5" fill="#BC99FF" transform="matrix(1.00, 0.00, -0.00, -1.00, 1236.2, 186.5)">7</text><text xml:space="preserve" font-family="Monaco,Monaco" font-size="46.5" fill="#F9F9F4" transform="matrix(1.00, 0.00, -0.00, -1.00, 1264.1, 186.5)">]</text><text xml:space="preserve" font-family="Monaco,Monaco" font-size="46.5" fill="#F9F9F4" transform="matrix(1.00, 0.00, -0.00, -1.00, 1292.0, 186.5)">)</text><text xml:space="preserve" font-family="Monaco,Monaco" font-size="46.5" fill="#F9F9F4" transform="matrix(1.00, 0.00, -0.00, -1.00, 1319.9, 186.5)">)</text><text xml:space="preserve" font-family="Monaco,Monaco" font-size="46.5" fill="#F9F9F4" transform="matrix(1.00, 0.00, -0.00, -1.00, 1347.8, 186.5)">;</text></g></svg>