<?xml version="1.0" encoding="UTF-8" standalone="no"?><svg xmlns="http://www.w3.org/2000/svg" xmlns:xlink="http://www.w3.org/1999/xlink" clip-rule="evenodd" stroke-miterlimit="10" viewBox="0 0 1920 1080"><desc>SVG generated by Keynote</desc><defs></defs><g transform="matrix(1.00, 0.00, -0.00, -1.00, 0.0, 1080.0)"><g><clipPath id="clip0x7fe42b873ac0"><path d="M 0.0 1080.0 L 1920.0 1080.0 L 1920.0 0.0 L 0.0 0.0 Z M 0.0 1080.0 "></path></clipPath><g clip-path="url(#clip0x7fe42b873ac0)"><image xlink:href="../../EAAA0B26-26D2-4E6F-B71B-738E9DFC302E/assets/0F43D2572F34A9AFB59E4515ED9A1249.jpeg" width="3840.00" height="2160.00" transform="matrix(0.50, 0.00, -0.00, -0.50, 0.0, 1080.0)"></image></g></g><image xlink:href="../../41BB162D-1C4B-4A08-9AA5-F3CD3FD05BCD/assets/5E3B30BBEB39731F56D97D16D9680B09.png" width="411.00" height="82.00" transform="matrix(1.00, 0.00, -0.00, -1.00, 123.0, 952.0)"></image><text xml:space="preserve" font-family="HelveticaNeue-Light,Helvetica Neue" font-size="100.0" fill="#FEFFFE" transform="matrix(1.00, 0.00, -0.00, -1.00, 120.0, 879.2)">R</text><text xml:space="preserve" font-family="HelveticaNeue-Light,Helvetica Neue" font-size="100.0" fill="#FEFFFE" transform="matrix(1.00, 0.00, -0.00, -1.00, 186.7, 879.2)">e</text><text xml:space="preserve" font-family="HelveticaNeue-Light,Helvetica Neue" font-size="100.0" fill="#FEFFFE" transform="matrix(1.00, 0.00, -0.00, -1.00, 238.6, 879.2)">d</text><text xml:space="preserve" font-family="HelveticaNeue-Light,Helvetica Neue" font-size="100.0" fill="#FEFFFE" transform="matrix(1.00, 0.00, -0.00, -1.00, 296.0, 879.2)">u</text><text xml:space="preserve" font-family="HelveticaNeue-Light,Helvetica Neue" font-size="100.0" fill="#FEFFFE" transform="matrix(1.00, 0.00, -0.00, -1.00, 349.7, 879.2)">c</text><text xml:space="preserve" font-family="HelveticaNeue-Light,Helvetica Neue" font-size="100.0" fill="#FEFFFE" transform="matrix(1.00, 0.00, -0.00, -1.00, 401.6, 879.2)">e</text><text xml:space="preserve" font-family="HelveticaNeue-Light,Helvetica Neue" font-size="100.0" fill="#FEFFFE" transform="matrix(1.00, 0.00, -0.00, -1.00, 453.5, 879.2)">r</text><text xml:space="preserve" font-family="HelveticaNeue-Light,Helvetica Neue" font-size="100.0" fill="#FEFFFE" transform="matrix(1.00, 0.00, -0.00, -1.00, 485.0, 879.2)">s</text><text xml:space="preserve" font-family="Monaco,Monaco" font-size="50.0" fill="#13F7BA" transform="matrix(1.00, 0.00, -0.00, -1.00, 120.0, 537.7)">r</text><text xml:space="preserve" font-family="Monaco,Monaco" font-size="50.0" fill="#13F7BA" transform="matrix(1.00, 0.00, -0.00, -1.00, 150.0, 537.7)">e</text><text xml:space="preserve" font-family="Monaco,Monaco" font-size="50.0" fill="#13F7BA" transform="matrix(1.00, 0.00, -0.00, -1.00, 180.0, 537.7)">d</text><text xml:space="preserve" font-family="Monaco,Monaco" font-size="50.0" fill="#13F7BA" transform="matrix(1.00, 0.00, -0.00, -1.00, 210.0, 537.7)">u</text><text xml:space="preserve" font-family="Monaco,Monaco" font-size="50.0" fill="#13F7BA" transform="matrix(1.00, 0.00, -0.00, -1.00, 240.0, 537.7)">c</text><text xml:space="preserve" font-family="Monaco,Monaco" font-size="50.0" fill="#13F7BA" transform="matrix(1.00, 0.00, -0.00, -1.00, 270.0, 537.7)">e</text><text xml:space="preserve" font-family="Monaco,Monaco" font-size="50.0" fill="#F9F9F4" transform="matrix(1.00, 0.00, -0.00, -1.00, 300.0, 537.7)">(</text><text xml:space="preserve" font-family="Monaco,Monaco" font-size="50.0" fill="#000000" transform="matrix(1.00, 0.00, -0.00, -1.00, 120.0, 470.7)"> </text><text xml:space="preserve" font-family="Monaco,Monaco" font-size="50.0" fill="#000000" transform="matrix(1.00, 0.00, -0.00, -1.00, 150.0, 470.7)"> </text><text xml:space="preserve" font-family="Monaco,Monaco" font-size="50.0" fill="#FC4384" transform="matrix(1.00, 0.00, -0.00, -1.00, 180.0, 470.7)">f</text><text xml:space="preserve" font-family="Monaco,Monaco" font-size="50.0" fill="#FC4384" transform="matrix(1.00, 0.00, -0.00, -1.00, 210.0, 470.7)">u</text><text xml:space="preserve" font-family="Monaco,Monaco" font-size="50.0" fill="#FC4384" transform="matrix(1.00, 0.00, -0.00, -1.00, 240.0, 470.7)">n</text><text xml:space="preserve" font-family="Monaco,Monaco" font-size="50.0" fill="#FC4384" transform="matrix(1.00, 0.00, -0.00, -1.00, 270.0, 470.7)">c</text><text xml:space="preserve" font-family="Monaco,Monaco" font-size="50.0" fill="#FC4384" transform="matrix(1.00, 0.00, -0.00, -1.00, 300.0, 470.7)">t</text><text xml:space="preserve" font-family="Monaco,Monaco" font-size="50.0" fill="#FC4384" transform="matrix(1.00, 0.00, -0.00, -1.00, 330.1, 470.7)">i</text><text xml:space="preserve" font-family="Monaco,Monaco" font-size="50.0" fill="#FC4384" transform="matrix(1.00, 0.00, -0.00, -1.00, 360.1, 470.7)">o</text><text xml:space="preserve" font-family="Monaco,Monaco" font-size="50.0" fill="#FC4384" transform="matrix(1.00, 0.00, -0.00, -1.00, 390.1, 470.7)">n</text><text xml:space="preserve" font-family="Monaco,Monaco" font-size="50.0" fill="#F9F9F4" transform="matrix(1.00, 0.00, -0.00, -1.00, 420.0, 470.7)">(</text><text xml:space="preserve" font-family="Monaco,Monaco" font-size="50.0" fill="#F9F9F4" transform="matrix(1.00, 0.00, -0.00, -1.00, 450.1, 470.7)">a</text><text xml:space="preserve" font-family="Monaco,Monaco" font-size="50.0" fill="#F9F9F4" transform="matrix(1.00, 0.00, -0.00, -1.00, 480.1, 470.7)">c</text><text xml:space="preserve" font-family="Monaco,Monaco" font-size="50.0" fill="#F9F9F4" transform="matrix(1.00, 0.00, -0.00, -1.00, 510.1, 470.7)">c</text><text xml:space="preserve" font-family="Monaco,Monaco" font-size="50.0" fill="#F9F9F4" transform="matrix(1.00, 0.00, -0.00, -1.00, 540.1, 470.7)">,</text><text xml:space="preserve" font-family="Monaco,Monaco" font-size="50.0" fill="#000000" transform="matrix(1.00, 0.00, -0.00, -1.00, 570.1, 470.7)"> </text><text xml:space="preserve" font-family="Monaco,Monaco" font-size="50.0" fill="#F9F9F4" transform="matrix(1.00, 0.00, -0.00, -1.00, 600.1, 470.7)">e</text><text xml:space="preserve" font-family="Monaco,Monaco" font-size="50.0" fill="#F9F9F4" transform="matrix(1.00, 0.00, -0.00, -1.00, 630.1, 470.7)">l</text><text xml:space="preserve" font-family="Monaco,Monaco" font-size="50.0" fill="#F9F9F4" transform="matrix(1.00, 0.00, -0.00, -1.00, 660.1, 470.7)">e</text><text xml:space="preserve" font-family="Monaco,Monaco" font-size="50.0" fill="#F9F9F4" transform="matrix(1.00, 0.00, -0.00, -1.00, 690.1, 470.7)">m</text><text xml:space="preserve" font-family="Monaco,Monaco" font-size="50.0" fill="#F9F9F4" transform="matrix(1.00, 0.00, -0.00, -1.00, 720.1, 470.7)">e</text><text xml:space="preserve" font-family="Monaco,Monaco" font-size="50.0" fill="#F9F9F4" transform="matrix(1.00, 0.00, -0.00, -1.00, 750.1, 470.7)">n</text><text xml:space="preserve" font-family="Monaco,Monaco" font-size="50.0" fill="#F9F9F4" transform="matrix(1.00, 0.00, -0.00, -1.00, 780.1, 470.7)">t</text><text xml:space="preserve" font-family="Monaco,Monaco" font-size="50.0" fill="#F9F9F4" transform="matrix(1.00, 0.00, -0.00, -1.00, 810.1, 470.7)">)</text><text xml:space="preserve" font-family="Monaco,Monaco" font-size="50.0" fill="#F9F9F4" transform="matrix(1.00, 0.00, -0.00, -1.00, 840.2, 470.7)"> </text><text xml:space="preserve" font-family="Monaco,Monaco" font-size="50.0" fill="#F9F9F4" transform="matrix(1.00, 0.00, -0.00, -1.00, 870.2, 470.7)">{</text><text xml:space="preserve" font-family="Monaco,Monaco" font-size="50.0" fill="#000000" transform="matrix(1.00, 0.00, -0.00, -1.00, 900.1, 470.7)"> </text><text xml:space="preserve" font-family="Monaco,Monaco" font-size="50.0" fill="#FC4384" transform="matrix(1.00, 0.00, -0.00, -1.00, 930.1, 470.7)">r</text><text xml:space="preserve" font-family="Monaco,Monaco" font-size="50.0" fill="#FC4384" transform="matrix(1.00, 0.00, -0.00, -1.00, 960.1, 470.7)">e</text><text xml:space="preserve" font-family="Monaco,Monaco" font-size="50.0" fill="#FC4384" transform="matrix(1.00, 0.00, -0.00, -1.00, 990.2, 470.7)">t</text><text xml:space="preserve" font-family="Monaco,Monaco" font-size="50.0" fill="#FC4384" transform="matrix(1.00, 0.00, -0.00, -1.00, 1020.2, 470.7)">u</text><text xml:space="preserve" font-family="Monaco,Monaco" font-size="50.0" fill="#FC4384" transform="matrix(1.00, 0.00, -0.00, -1.00, 1050.2, 470.7)">r</text><text xml:space="preserve" font-family="Monaco,Monaco" font-size="50.0" fill="#FC4384" transform="matrix(1.00, 0.00, -0.00, -1.00, 1080.2, 470.7)">n</text><text xml:space="preserve" font-family="Monaco,Monaco" font-size="50.0" fill="#000000" transform="matrix(1.00, 0.00, -0.00, -1.00, 1110.2, 470.7)"> </text><text xml:space="preserve" font-family="Monaco,Monaco" font-size="50.0" fill="#F9F9F4" transform="matrix(1.00, 0.00, -0.00, -1.00, 1140.2, 470.7)">a</text><text xml:space="preserve" font-family="Monaco,Monaco" font-size="50.0" fill="#F9F9F4" transform="matrix(1.00, 0.00, -0.00, -1.00, 1170.2, 470.7)">c</text><text xml:space="preserve" font-family="Monaco,Monaco" font-size="50.0" fill="#F9F9F4" transform="matrix(1.00, 0.00, -0.00, -1.00, 1200.2, 470.7)">c</text><text xml:space="preserve" font-family="Monaco,Monaco" font-size="50.0" fill="#000000" transform="matrix(1.00, 0.00, -0.00, -1.00, 1230.2, 470.7)"> </text><text xml:space="preserve" font-family="Monaco,Monaco" font-size="50.0" fill="#F9F9F4" transform="matrix(1.00, 0.00, -0.00, -1.00, 1260.2, 470.7)">+</text><text xml:space="preserve" font-family="Monaco,Monaco" font-size="50.0" fill="#000000" transform="matrix(1.00, 0.00, -0.00, -1.00, 1290.2, 470.7)"> </text><text xml:space="preserve" font-family="Monaco,Monaco" font-size="50.0" fill="#F9F9F4" transform="matrix(1.00, 0.00, -0.00, -1.00, 1320.2, 470.7)">e</text><text xml:space="preserve" font-family="Monaco,Monaco" font-size="50.0" fill="#F9F9F4" transform="matrix(1.00, 0.00, -0.00, -1.00, 1350.2, 470.7)">l</text><text xml:space="preserve" font-family="Monaco,Monaco" font-size="50.0" fill="#F9F9F4" transform="matrix(1.00, 0.00, -0.00, -1.00, 1380.2, 470.7)">e</text><text xml:space="preserve" font-family="Monaco,Monaco" font-size="50.0" fill="#F9F9F4" transform="matrix(1.00, 0.00, -0.00, -1.00, 1410.2, 470.7)">m</text><text xml:space="preserve" font-family="Monaco,Monaco" font-size="50.0" fill="#F9F9F4" transform="matrix(1.00, 0.00, -0.00, -1.00, 1440.2, 470.7)">e</text><text xml:space="preserve" font-family="Monaco,Monaco" font-size="50.0" fill="#F9F9F4" transform="matrix(1.00, 0.00, -0.00, -1.00, 1470.2, 470.7)">n</text><text xml:space="preserve" font-family="Monaco,Monaco" font-size="50.0" fill="#F9F9F4" transform="matrix(1.00, 0.00, -0.00, -1.00, 1500.3, 470.7)">t</text><text xml:space="preserve" font-family="Monaco,Monaco" font-size="50.0" fill="#F9F9F4" transform="matrix(1.00, 0.00, -0.00, -1.00, 1530.3, 470.7)">;</text><text xml:space="preserve" font-family="Monaco,Monaco" font-size="50.0" fill="#F9F9F4" transform="matrix(1.00, 0.00, -0.00, -1.00, 1560.3, 470.7)"> </text><text xml:space="preserve" font-family="Monaco,Monaco" font-size="50.0" fill="#F9F9F4" transform="matrix(1.00, 0.00, -0.00, -1.00, 1590.3, 470.7)">}</text><text xml:space="preserve" font-family="Monaco,Monaco" font-size="50.0" fill="#F9F9F4" transform="matrix(1.00, 0.00, -0.00, -1.00, 1620.3, 470.7)">,</text><text xml:space="preserve" font-family="Monaco,Monaco" font-size="50.0" fill="#000000" transform="matrix(1.00, 0.00, -0.00, -1.00, 120.0, 403.7)"> </text><text xml:space="preserve" font-family="Monaco,Monaco" font-size="50.0" fill="#000000" transform="matrix(1.00, 0.00, -0.00, -1.00, 150.0, 403.7)"> </text><text xml:space="preserve" font-family="Monaco,Monaco" font-size="50.0" fill="#BC99FF" transform="matrix(1.00, 0.00, -0.00, -1.00, 180.0, 403.7)">0</text><text xml:space="preserve" font-family="Monaco,Monaco" font-size="50.0" fill="#F9F9F4" transform="matrix(1.00, 0.00, -0.00, -1.00, 210.0, 403.7)">,</text><text xml:space="preserve" font-family="Monaco,Monaco" font-size="50.0" fill="#000000" transform="matrix(1.00, 0.00, -0.00, -1.00, 120.0, 336.7)"> </text><text xml:space="preserve" font-family="Monaco,Monaco" font-size="50.0" fill="#000000" transform="matrix(1.00, 0.00, -0.00, -1.00, 150.0, 336.7)"> </text><text xml:space="preserve" font-family="Monaco,Monaco" font-size="50.0" fill="#13F7BA" transform="matrix(1.00, 0.00, -0.00, -1.00, 180.0, 336.7)">m</text><text xml:space="preserve" font-family="Monaco,Monaco" font-size="50.0" fill="#13F7BA" transform="matrix(1.00, 0.00, -0.00, -1.00, 210.0, 336.7)">a</text><text xml:space="preserve" font-family="Monaco,Monaco" font-size="50.0" fill="#13F7BA" transform="matrix(1.00, 0.00, -0.00, -1.00, 240.0, 336.7)">p</text><text xml:space="preserve" font-family="Monaco,Monaco" font-size="50.0" fill="#F9F9F4" transform="matrix(1.00, 0.00, -0.00, -1.00, 270.0, 336.7)">(</text><text xml:space="preserve" font-family="Monaco,Monaco" font-size="50.0" fill="#F9F9F4" transform="matrix(1.00, 0.00, -0.00, -1.00, 300.0, 336.7)">p</text><text xml:space="preserve" font-family="Monaco,Monaco" font-size="50.0" fill="#F9F9F4" transform="matrix(1.00, 0.00, -0.00, -1.00, 330.0, 336.7)">o</text><text xml:space="preserve" font-family="Monaco,Monaco" font-size="50.0" fill="#F9F9F4" transform="matrix(1.00, 0.00, -0.00, -1.00, 360.1, 336.7)">w</text><text xml:space="preserve" font-family="Monaco,Monaco" font-size="50.0" fill="#F9F9F4" transform="matrix(1.00, 0.00, -0.00, -1.00, 390.1, 336.7)">e</text><text xml:space="preserve" font-family="Monaco,Monaco" font-size="50.0" fill="#F9F9F4" transform="matrix(1.00, 0.00, -0.00, -1.00, 420.1, 336.7)">r</text><text xml:space="preserve" font-family="Monaco,Monaco" font-size="50.0" fill="#F9F9F4" transform="matrix(1.00, 0.00, -0.00, -1.00, 450.1, 336.7)">O</text><text xml:space="preserve" font-family="Monaco,Monaco" font-size="50.0" fill="#F9F9F4" transform="matrix(1.00, 0.00, -0.00, -1.00, 480.1, 336.7)">f</text><text xml:space="preserve" font-family="Monaco,Monaco" font-size="50.0" fill="#F9F9F4" transform="matrix(1.00, 0.00, -0.00, -1.00, 510.1, 336.7)">T</text><text xml:space="preserve" font-family="Monaco,Monaco" font-size="50.0" fill="#F9F9F4" transform="matrix(1.00, 0.00, -0.00, -1.00, 540.1, 336.7)">w</text><text xml:space="preserve" font-family="Monaco,Monaco" font-size="50.0" fill="#F9F9F4" transform="matrix(1.00, 0.00, -0.00, -1.00, 570.1, 336.7)">o</text><text xml:space="preserve" font-family="Monaco,Monaco" font-size="50.0" fill="#F9F9F4" transform="matrix(1.00, 0.00, -0.00, -1.00, 600.1, 336.7)">,</text><text xml:space="preserve" font-family="Monaco,Monaco" font-size="50.0" fill="#F9F9F4" transform="matrix(1.00, 0.00, -0.00, -1.00, 630.1, 336.7)"> </text><text xml:space="preserve" font-family="Monaco,Monaco" font-size="50.0" fill="#F9F9F4" transform="matrix(1.00, 0.00, -0.00, -1.00, 660.2, 336.7)">[</text><text xml:space="preserve" font-family="Monaco,Monaco" font-size="50.0" fill="#BC99FF" transform="matrix(1.00, 0.00, -0.00, -1.00, 690.1, 336.7)">0</text><text xml:space="preserve" font-family="Monaco,Monaco" font-size="50.0" fill="#F9F9F4" transform="matrix(1.00, 0.00, -0.00, -1.00, 720.1, 336.7)">,</text><text xml:space="preserve" font-family="Monaco,Monaco" font-size="50.0" fill="#000000" transform="matrix(1.00, 0.00, -0.00, -1.00, 750.1, 336.7)"> </text><text xml:space="preserve" font-family="Monaco,Monaco" font-size="50.0" fill="#BC99FF" transform="matrix(1.00, 0.00, -0.00, -1.00, 780.1, 336.7)">1</text><text xml:space="preserve" font-family="Monaco,Monaco" font-size="50.0" fill="#F9F9F4" transform="matrix(1.00, 0.00, -0.00, -1.00, 810.1, 336.7)">,</text><text xml:space="preserve" font-family="Monaco,Monaco" font-size="50.0" fill="#000000" transform="matrix(1.00, 0.00, -0.00, -1.00, 840.1, 336.7)"> </text><text xml:space="preserve" font-family="Monaco,Monaco" font-size="50.0" fill="#BC99FF" transform="matrix(1.00, 0.00, -0.00, -1.00, 870.1, 336.7)">2</text><text xml:space="preserve" font-family="Monaco,Monaco" font-size="50.0" fill="#F9F9F4" transform="matrix(1.00, 0.00, -0.00, -1.00, 900.1, 336.7)">,</text><text xml:space="preserve" font-family="Monaco,Monaco" font-size="50.0" fill="#000000" transform="matrix(1.00, 0.00, -0.00, -1.00, 930.1, 336.7)"> </text><text xml:space="preserve" font-family="Monaco,Monaco" font-size="50.0" fill="#BC99FF" transform="matrix(1.00, 0.00, -0.00, -1.00, 960.1, 336.7)">3</text><text xml:space="preserve" font-family="Monaco,Monaco" font-size="50.0" fill="#F9F9F4" transform="matrix(1.00, 0.00, -0.00, -1.00, 990.1, 336.7)">,</text><text xml:space="preserve" font-family="Monaco,Monaco" font-size="50.0" fill="#000000" transform="matrix(1.00, 0.00, -0.00, -1.00, 1020.1, 336.7)"> </text><text xml:space="preserve" font-family="Monaco,Monaco" font-size="50.0" fill="#BC99FF" transform="matrix(1.00, 0.00, -0.00, -1.00, 1050.2, 336.7)">4</text><text xml:space="preserve" font-family="Monaco,Monaco" font-size="50.0" fill="#F9F9F4" transform="matrix(1.00, 0.00, -0.00, -1.00, 1080.2, 336.7)">,</text><text xml:space="preserve" font-family="Monaco,Monaco" font-size="50.0" fill="#000000" transform="matrix(1.00, 0.00, -0.00, -1.00, 1110.2, 336.7)"> </text><text xml:space="preserve" font-family="Monaco,Monaco" font-size="50.0" fill="#BC99FF" transform="matrix(1.00, 0.00, -0.00, -1.00, 1140.2, 336.7)">5</text><text xml:space="preserve" font-family="Monaco,Monaco" font-size="50.0" fill="#F9F9F4" transform="matrix(1.00, 0.00, -0.00, -1.00, 1170.2, 336.7)">,</text><text xml:space="preserve" font-family="Monaco,Monaco" font-size="50.0" fill="#000000" transform="matrix(1.00, 0.00, -0.00, -1.00, 1200.2, 336.7)"> </text><text xml:space="preserve" font-family="Monaco,Monaco" font-size="50.0" fill="#BC99FF" transform="matrix(1.00, 0.00, -0.00, -1.00, 1230.2, 336.7)">6</text><text xml:space="preserve" font-family="Monaco,Monaco" font-size="50.0" fill="#F9F9F4" transform="matrix(1.00, 0.00, -0.00, -1.00, 1260.2, 336.7)">,</text><text xml:space="preserve" font-family="Monaco,Monaco" font-size="50.0" fill="#000000" transform="matrix(1.00, 0.00, -0.00, -1.00, 1290.2, 336.7)"> </text><text xml:space="preserve" font-family="Monaco,Monaco" font-size="50.0" fill="#BC99FF" transform="matrix(1.00, 0.00, -0.00, -1.00, 1320.2, 336.7)">7</text><text xml:space="preserve" font-family="Monaco,Monaco" font-size="50.0" fill="#F9F9F4" transform="matrix(1.00, 0.00, -0.00, -1.00, 1350.2, 336.7)">]</text><text xml:space="preserve" font-family="Monaco,Monaco" font-size="50.0" fill="#F9F9F4" transform="matrix(1.00, 0.00, -0.00, -1.00, 1380.2, 336.7)">)</text><text xml:space="preserve" font-family="Monaco,Monaco" font-size="50.0" fill="#F9F9F4" transform="matrix(1.00, 0.00, -0.00, -1.00, 1410.2, 336.7)">)</text><text xml:space="preserve" font-family="Monaco,Monaco" font-size="50.0" fill="#F9F9F4" transform="matrix(1.00, 0.00, -0.00, -1.00, 1440.2, 336.7)">;</text></g></svg>