<?xml version="1.0" encoding="UTF-8" standalone="no"?><svg xmlns="http://www.w3.org/2000/svg" xmlns:xlink="http://www.w3.org/1999/xlink" clip-rule="evenodd" stroke-miterlimit="10" viewBox="0 0 1920 1080"><desc>SVG generated by Keynote</desc><defs></defs><g transform="matrix(1.00, 0.00, -0.00, -1.00, 0.0, 1080.0)"><g><clipPath id="clip0x7fe42c993390"><path d="M 0.0 1080.0 L 1920.0 1080.0 L 1920.0 0.0 L 0.0 0.0 Z M 0.0 1080.0 "></path></clipPath><g clip-path="url(#clip0x7fe42c993390)"><image xlink:href="../../EAAA0B26-26D2-4E6F-B71B-738E9DFC302E/assets/0F43D2572F34A9AFB59E4515ED9A1249.jpeg" width="3840.00" height="2160.00" transform="matrix(0.50, 0.00, -0.00, -0.50, 0.0, 1080.0)"></image></g></g><image xlink:href="FF96B954047330BAE9C8197D7388E3CB.png" width="719.00" height="84.00" transform="matrix(1.00, 0.00, -0.00, -1.00, 119.0, 954.0)"></image><text xml:space="preserve" font-family="HelveticaNeue-Light,Helvetica Neue" font-size="100.0" fill="#FEFFFE" transform="matrix(1.00, 0.00, -0.00, -1.00, 120.0, 879.2)">G</text><text xml:space="preserve" font-family="HelveticaNeue-Light,Helvetica Neue" font-size="100.0" fill="#FEFFFE" transform="matrix(1.00, 0.00, -0.00, -1.00, 194.1, 879.2)">o</text><text xml:space="preserve" font-family="HelveticaNeue-Light,Helvetica Neue" font-size="100.0" fill="#FEFFFE" transform="matrix(1.00, 0.00, -0.00, -1.00, 249.7, 879.2)">-</text><text xml:space="preserve" font-family="HelveticaNeue-Light,Helvetica Neue" font-size="100.0" fill="#FEFFFE" transform="matrix(1.00, 0.00, -0.00, -1.00, 286.7, 879.2)">l</text><text xml:space="preserve" font-family="HelveticaNeue-Light,Helvetica Neue" font-size="100.0" fill="#FEFFFE" transform="matrix(1.00, 0.00, -0.00, -1.00, 305.2, 879.2)">i</text><text xml:space="preserve" font-family="HelveticaNeue-Light,Helvetica Neue" font-size="100.0" fill="#FEFFFE" transform="matrix(1.00, 0.00, -0.00, -1.00, 323.7, 879.2)">k</text><text xml:space="preserve" font-family="HelveticaNeue-Light,Helvetica Neue" font-size="100.0" fill="#FEFFFE" transform="matrix(1.00, 0.00, -0.00, -1.00, 373.7, 879.2)">e</text><text xml:space="preserve" font-family="HelveticaNeue-Light,Helvetica Neue" font-size="100.0" fill="#FEFFFE" transform="matrix(1.00, 0.00, -0.00, -1.00, 425.6, 879.2)"> </text><text xml:space="preserve" font-family="HelveticaNeue-Light,Helvetica Neue" font-size="100.0" fill="#FEFFFE" transform="matrix(1.00, 0.00, -0.00, -1.00, 453.4, 879.2)">c</text><text xml:space="preserve" font-family="HelveticaNeue-Light,Helvetica Neue" font-size="100.0" fill="#FEFFFE" transform="matrix(1.00, 0.00, -0.00, -1.00, 505.3, 879.2)">h</text><text xml:space="preserve" font-family="HelveticaNeue-Light,Helvetica Neue" font-size="100.0" fill="#FEFFFE" transform="matrix(1.00, 0.00, -0.00, -1.00, 559.0, 879.2)">a</text><text xml:space="preserve" font-family="HelveticaNeue-Light,Helvetica Neue" font-size="100.0" fill="#FEFFFE" transform="matrix(1.00, 0.00, -0.00, -1.00, 610.9, 879.2)">n</text><text xml:space="preserve" font-family="HelveticaNeue-Light,Helvetica Neue" font-size="100.0" fill="#FEFFFE" transform="matrix(1.00, 0.00, -0.00, -1.00, 664.6, 879.2)">n</text><text xml:space="preserve" font-family="HelveticaNeue-Light,Helvetica Neue" font-size="100.0" fill="#FEFFFE" transform="matrix(1.00, 0.00, -0.00, -1.00, 718.3, 879.2)">e</text><text xml:space="preserve" font-family="HelveticaNeue-Light,Helvetica Neue" font-size="100.0" fill="#FEFFFE" transform="matrix(1.00, 0.00, -0.00, -1.00, 770.2, 879.2)">l</text><text xml:space="preserve" font-family="HelveticaNeue-Light,Helvetica Neue" font-size="100.0" fill="#FEFFFE" transform="matrix(1.00, 0.00, -0.00, -1.00, 788.7, 879.2)">s</text><text xml:space="preserve" font-family="Monaco,Monaco" font-size="37.0" fill="#FC4384" transform="matrix(1.00, 0.00, -0.00, -1.00, 120.0, 732.3)">v</text><text xml:space="preserve" font-family="Monaco,Monaco" font-size="37.0" fill="#FC4384" transform="matrix(1.00, 0.00, -0.00, -1.00, 142.2, 732.3)">a</text><text xml:space="preserve" font-family="Monaco,Monaco" font-size="37.0" fill="#FC4384" transform="matrix(1.00, 0.00, -0.00, -1.00, 164.4, 732.3)">r</text><text xml:space="preserve" font-family="Monaco,Monaco" font-size="37.0" fill="#000000" transform="matrix(1.00, 0.00, -0.00, -1.00, 186.6, 732.3)"> </text><text xml:space="preserve" font-family="Monaco,Monaco" font-size="37.0" fill="#F9F9F4" transform="matrix(1.00, 0.00, -0.00, -1.00, 208.8, 732.3)">c</text><text xml:space="preserve" font-family="Monaco,Monaco" font-size="37.0" fill="#F9F9F4" transform="matrix(1.00, 0.00, -0.00, -1.00, 231.0, 732.3)">h</text><text xml:space="preserve" font-family="Monaco,Monaco" font-size="37.0" fill="#000000" transform="matrix(1.00, 0.00, -0.00, -1.00, 253.2, 732.3)"> </text><text xml:space="preserve" font-family="Monaco,Monaco" font-size="37.0" fill="#F9F9F4" transform="matrix(1.00, 0.00, -0.00, -1.00, 275.4, 732.3)">=</text><text xml:space="preserve" font-family="Monaco,Monaco" font-size="37.0" fill="#000000" transform="matrix(1.00, 0.00, -0.00, -1.00, 297.6, 732.3)"> </text><text xml:space="preserve" font-family="Monaco,Monaco" font-size="37.0" fill="#13F7BA" transform="matrix(1.00, 0.00, -0.00, -1.00, 319.8, 732.3)">c</text><text xml:space="preserve" font-family="Monaco,Monaco" font-size="37.0" fill="#13F7BA" transform="matrix(1.00, 0.00, -0.00, -1.00, 342.0, 732.3)">h</text><text xml:space="preserve" font-family="Monaco,Monaco" font-size="37.0" fill="#13F7BA" transform="matrix(1.00, 0.00, -0.00, -1.00, 364.2, 732.3)">a</text><text xml:space="preserve" font-family="Monaco,Monaco" font-size="37.0" fill="#13F7BA" transform="matrix(1.00, 0.00, -0.00, -1.00, 386.5, 732.3)">n</text><text xml:space="preserve" font-family="Monaco,Monaco" font-size="37.0" fill="#F9F9F4" transform="matrix(1.00, 0.00, -0.00, -1.00, 408.6, 732.3)">(</text><text xml:space="preserve" font-family="Monaco,Monaco" font-size="37.0" fill="#F9F9F4" transform="matrix(1.00, 0.00, -0.00, -1.00, 430.9, 732.3)">)</text><text xml:space="preserve" font-family="Monaco,Monaco" font-size="37.0" fill="#F9F9F4" transform="matrix(1.00, 0.00, -0.00, -1.00, 453.1, 732.3)">;</text><text xml:space="preserve" font-family="Monaco,Monaco" font-size="37.0" fill="#13F7BA" transform="matrix(1.00, 0.00, -0.00, -1.00, 120.0, 634.3)">g</text><text xml:space="preserve" font-family="Monaco,Monaco" font-size="37.0" fill="#13F7BA" transform="matrix(1.00, 0.00, -0.00, -1.00, 142.2, 634.3)">o</text><text xml:space="preserve" font-family="Monaco,Monaco" font-size="37.0" fill="#F9F9F4" transform="matrix(1.00, 0.00, -0.00, -1.00, 164.4, 634.3)">(</text><text xml:space="preserve" font-family="Monaco,Monaco" font-size="37.0" fill="#FC4384" transform="matrix(1.00, 0.00, -0.00, -1.00, 186.6, 634.3)">f</text><text xml:space="preserve" font-family="Monaco,Monaco" font-size="37.0" fill="#FC4384" transform="matrix(1.00, 0.00, -0.00, -1.00, 208.8, 634.3)">u</text><text xml:space="preserve" font-family="Monaco,Monaco" font-size="37.0" fill="#FC4384" transform="matrix(1.00, 0.00, -0.00, -1.00, 231.0, 634.3)">n</text><text xml:space="preserve" font-family="Monaco,Monaco" font-size="37.0" fill="#FC4384" transform="matrix(1.00, 0.00, -0.00, -1.00, 253.2, 634.3)">c</text><text xml:space="preserve" font-family="Monaco,Monaco" font-size="37.0" fill="#FC4384" transform="matrix(1.00, 0.00, -0.00, -1.00, 275.4, 634.3)">t</text><text xml:space="preserve" font-family="Monaco,Monaco" font-size="37.0" fill="#FC4384" transform="matrix(1.00, 0.00, -0.00, -1.00, 297.6, 634.3)">i</text><text xml:space="preserve" font-family="Monaco,Monaco" font-size="37.0" fill="#FC4384" transform="matrix(1.00, 0.00, -0.00, -1.00, 319.9, 634.3)">o</text><text xml:space="preserve" font-family="Monaco,Monaco" font-size="37.0" fill="#FC4384" transform="matrix(1.00, 0.00, -0.00, -1.00, 342.1, 634.3)">n</text><text xml:space="preserve" font-family="Monaco,Monaco" font-size="37.0" fill="#F9F9F4" transform="matrix(1.00, 0.00, -0.00, -1.00, 364.2, 634.3)">*</text><text xml:space="preserve" font-family="Monaco,Monaco" font-size="37.0" fill="#F9F9F4" transform="matrix(1.00, 0.00, -0.00, -1.00, 386.4, 634.3)">(</text><text xml:space="preserve" font-family="Monaco,Monaco" font-size="37.0" fill="#F9F9F4" transform="matrix(1.00, 0.00, -0.00, -1.00, 408.7, 634.3)">)</text><text xml:space="preserve" font-family="Monaco,Monaco" font-size="37.0" fill="#F9F9F4" transform="matrix(1.00, 0.00, -0.00, -1.00, 430.9, 634.3)"> </text><text xml:space="preserve" font-family="Monaco,Monaco" font-size="37.0" fill="#F9F9F4" transform="matrix(1.00, 0.00, -0.00, -1.00, 453.1, 634.3)">{</text><text xml:space="preserve" font-family="Monaco,Monaco" font-size="37.0" fill="#000000" transform="matrix(1.00, 0.00, -0.00, -1.00, 120.0, 585.3)"> </text><text xml:space="preserve" font-family="Monaco,Monaco" font-size="37.0" fill="#000000" transform="matrix(1.00, 0.00, -0.00, -1.00, 142.2, 585.3)"> </text><text xml:space="preserve" font-family="Monaco,Monaco" font-size="37.0" fill="#FC4384" transform="matrix(1.00, 0.00, -0.00, -1.00, 164.4, 585.3)">v</text><text xml:space="preserve" font-family="Monaco,Monaco" font-size="37.0" fill="#FC4384" transform="matrix(1.00, 0.00, -0.00, -1.00, 186.6, 585.3)">a</text><text xml:space="preserve" font-family="Monaco,Monaco" font-size="37.0" fill="#FC4384" transform="matrix(1.00, 0.00, -0.00, -1.00, 208.8, 585.3)">r</text><text xml:space="preserve" font-family="Monaco,Monaco" font-size="37.0" fill="#000000" transform="matrix(1.00, 0.00, -0.00, -1.00, 231.0, 585.3)"> </text><text xml:space="preserve" font-family="Monaco,Monaco" font-size="37.0" fill="#F9F9F4" transform="matrix(1.00, 0.00, -0.00, -1.00, 253.2, 585.3)">v</text><text xml:space="preserve" font-family="Monaco,Monaco" font-size="37.0" fill="#F9F9F4" transform="matrix(1.00, 0.00, -0.00, -1.00, 275.4, 585.3)">a</text><text xml:space="preserve" font-family="Monaco,Monaco" font-size="37.0" fill="#F9F9F4" transform="matrix(1.00, 0.00, -0.00, -1.00, 297.6, 585.3)">l</text><text xml:space="preserve" font-family="Monaco,Monaco" font-size="37.0" fill="#F9F9F4" transform="matrix(1.00, 0.00, -0.00, -1.00, 319.8, 585.3)">;</text><text xml:space="preserve" font-family="Monaco,Monaco" font-size="37.0" fill="#000000" transform="matrix(1.00, 0.00, -0.00, -1.00, 120.0, 536.3)"> </text><text xml:space="preserve" font-family="Monaco,Monaco" font-size="37.0" fill="#000000" transform="matrix(1.00, 0.00, -0.00, -1.00, 142.2, 536.3)"> </text><text xml:space="preserve" font-family="Monaco,Monaco" font-size="37.0" fill="#FC4384" transform="matrix(1.00, 0.00, -0.00, -1.00, 164.4, 536.3)">w</text><text xml:space="preserve" font-family="Monaco,Monaco" font-size="37.0" fill="#FC4384" transform="matrix(1.00, 0.00, -0.00, -1.00, 186.6, 536.3)">h</text><text xml:space="preserve" font-family="Monaco,Monaco" font-size="37.0" fill="#FC4384" transform="matrix(1.00, 0.00, -0.00, -1.00, 208.8, 536.3)">i</text><text xml:space="preserve" font-family="Monaco,Monaco" font-size="37.0" fill="#FC4384" transform="matrix(1.00, 0.00, -0.00, -1.00, 231.0, 536.3)">l</text><text xml:space="preserve" font-family="Monaco,Monaco" font-size="37.0" fill="#FC4384" transform="matrix(1.00, 0.00, -0.00, -1.00, 253.2, 536.3)">e</text><text xml:space="preserve" font-family="Monaco,Monaco" font-size="37.0" fill="#F9F9F4" transform="matrix(1.00, 0.00, -0.00, -1.00, 275.4, 536.3)">(</text><text xml:space="preserve" font-family="Monaco,Monaco" font-size="37.0" fill="#F9F9F4" transform="matrix(1.00, 0.00, -0.00, -1.00, 297.6, 536.3)">(</text><text xml:space="preserve" font-family="Monaco,Monaco" font-size="37.0" fill="#F9F9F4" transform="matrix(1.00, 0.00, -0.00, -1.00, 319.8, 536.3)">v</text><text xml:space="preserve" font-family="Monaco,Monaco" font-size="37.0" fill="#F9F9F4" transform="matrix(1.00, 0.00, -0.00, -1.00, 342.0, 536.3)">a</text><text xml:space="preserve" font-family="Monaco,Monaco" font-size="37.0" fill="#F9F9F4" transform="matrix(1.00, 0.00, -0.00, -1.00, 364.3, 536.3)">l</text><text xml:space="preserve" font-family="Monaco,Monaco" font-size="37.0" fill="#000000" transform="matrix(1.00, 0.00, -0.00, -1.00, 386.4, 536.3)"> </text><text xml:space="preserve" font-family="Monaco,Monaco" font-size="37.0" fill="#F9F9F4" transform="matrix(1.00, 0.00, -0.00, -1.00, 408.6, 536.3)">=</text><text xml:space="preserve" font-family="Monaco,Monaco" font-size="37.0" fill="#000000" transform="matrix(1.00, 0.00, -0.00, -1.00, 430.9, 536.3)"> </text><text xml:space="preserve" font-family="Monaco,Monaco" font-size="37.0" fill="#F9F9F4" transform="matrix(1.00, 0.00, -0.00, -1.00, 453.1, 536.3)">y</text><text xml:space="preserve" font-family="Monaco,Monaco" font-size="37.0" fill="#F9F9F4" transform="matrix(1.00, 0.00, -0.00, -1.00, 475.3, 536.3)">i</text><text xml:space="preserve" font-family="Monaco,Monaco" font-size="37.0" fill="#F9F9F4" transform="matrix(1.00, 0.00, -0.00, -1.00, 497.5, 536.3)">e</text><text xml:space="preserve" font-family="Monaco,Monaco" font-size="37.0" fill="#F9F9F4" transform="matrix(1.00, 0.00, -0.00, -1.00, 519.7, 536.3)">l</text><text xml:space="preserve" font-family="Monaco,Monaco" font-size="37.0" fill="#F9F9F4" transform="matrix(1.00, 0.00, -0.00, -1.00, 541.9, 536.3)">d</text><text xml:space="preserve" font-family="Monaco,Monaco" font-size="37.0" fill="#000000" transform="matrix(1.00, 0.00, -0.00, -1.00, 564.1, 536.3)"> </text><text xml:space="preserve" font-family="Monaco,Monaco" font-size="37.0" fill="#13F7BA" transform="matrix(1.00, 0.00, -0.00, -1.00, 586.3, 536.3)">t</text><text xml:space="preserve" font-family="Monaco,Monaco" font-size="37.0" fill="#13F7BA" transform="matrix(1.00, 0.00, -0.00, -1.00, 608.5, 536.3)">a</text><text xml:space="preserve" font-family="Monaco,Monaco" font-size="37.0" fill="#13F7BA" transform="matrix(1.00, 0.00, -0.00, -1.00, 630.7, 536.3)">k</text><text xml:space="preserve" font-family="Monaco,Monaco" font-size="37.0" fill="#13F7BA" transform="matrix(1.00, 0.00, -0.00, -1.00, 652.9, 536.3)">e</text><text xml:space="preserve" font-family="Monaco,Monaco" font-size="37.0" fill="#F9F9F4" transform="matrix(1.00, 0.00, -0.00, -1.00, 675.1, 536.3)">(</text><text xml:space="preserve" font-family="Monaco,Monaco" font-size="37.0" fill="#F9F9F4" transform="matrix(1.00, 0.00, -0.00, -1.00, 697.3, 536.3)">c</text><text xml:space="preserve" font-family="Monaco,Monaco" font-size="37.0" fill="#F9F9F4" transform="matrix(1.00, 0.00, -0.00, -1.00, 719.5, 536.3)">h</text><text xml:space="preserve" font-family="Monaco,Monaco" font-size="37.0" fill="#F9F9F4" transform="matrix(1.00, 0.00, -0.00, -1.00, 741.7, 536.3)">)</text><text xml:space="preserve" font-family="Monaco,Monaco" font-size="37.0" fill="#F9F9F4" transform="matrix(1.00, 0.00, -0.00, -1.00, 763.9, 536.3)">)</text><text xml:space="preserve" font-family="Monaco,Monaco" font-size="37.0" fill="#F9F9F4" transform="matrix(1.00, 0.00, -0.00, -1.00, 786.1, 536.3)"> </text><text xml:space="preserve" font-family="Monaco,Monaco" font-size="37.0" fill="#F9F9F4" transform="matrix(1.00, 0.00, -0.00, -1.00, 808.3, 536.3)">!</text><text xml:space="preserve" font-family="Monaco,Monaco" font-size="37.0" fill="#F9F9F4" transform="matrix(1.00, 0.00, -0.00, -1.00, 830.5, 536.3)">=</text><text xml:space="preserve" font-family="Monaco,Monaco" font-size="37.0" fill="#F9F9F4" transform="matrix(1.00, 0.00, -0.00, -1.00, 852.7, 536.3)">=</text><text xml:space="preserve" font-family="Monaco,Monaco" font-size="37.0" fill="#000000" transform="matrix(1.00, 0.00, -0.00, -1.00, 874.9, 536.3)"> </text><text xml:space="preserve" font-family="Monaco,Monaco" font-size="37.0" fill="#F9F9F4" transform="matrix(1.00, 0.00, -0.00, -1.00, 897.1, 536.3)">c</text><text xml:space="preserve" font-family="Monaco,Monaco" font-size="37.0" fill="#F9F9F4" transform="matrix(1.00, 0.00, -0.00, -1.00, 919.3, 536.3)">s</text><text xml:space="preserve" font-family="Monaco,Monaco" font-size="37.0" fill="#F9F9F4" transform="matrix(1.00, 0.00, -0.00, -1.00, 941.5, 536.3)">p</text><text xml:space="preserve" font-family="Monaco,Monaco" font-size="37.0" fill="#F9F9F4" transform="matrix(1.00, 0.00, -0.00, -1.00, 963.7, 536.3)">.</text><text xml:space="preserve" font-family="Monaco,Monaco" font-size="37.0" fill="#F9F9F4" transform="matrix(1.00, 0.00, -0.00, -1.00, 986.0, 536.3)">C</text><text xml:space="preserve" font-family="Monaco,Monaco" font-size="37.0" fill="#F9F9F4" transform="matrix(1.00, 0.00, -0.00, -1.00, 1008.2, 536.3)">L</text><text xml:space="preserve" font-family="Monaco,Monaco" font-size="37.0" fill="#F9F9F4" transform="matrix(1.00, 0.00, -0.00, -1.00, 1030.4, 536.3)">O</text><text xml:space="preserve" font-family="Monaco,Monaco" font-size="37.0" fill="#F9F9F4" transform="matrix(1.00, 0.00, -0.00, -1.00, 1052.6, 536.3)">S</text><text xml:space="preserve" font-family="Monaco,Monaco" font-size="37.0" fill="#F9F9F4" transform="matrix(1.00, 0.00, -0.00, -1.00, 1074.8, 536.3)">E</text><text xml:space="preserve" font-family="Monaco,Monaco" font-size="37.0" fill="#F9F9F4" transform="matrix(1.00, 0.00, -0.00, -1.00, 1097.0, 536.3)">D</text><text xml:space="preserve" font-family="Monaco,Monaco" font-size="37.0" fill="#F9F9F4" transform="matrix(1.00, 0.00, -0.00, -1.00, 1119.2, 536.3)">)</text><text xml:space="preserve" font-family="Monaco,Monaco" font-size="37.0" fill="#F9F9F4" transform="matrix(1.00, 0.00, -0.00, -1.00, 1141.4, 536.3)"> </text><text xml:space="preserve" font-family="Monaco,Monaco" font-size="37.0" fill="#F9F9F4" transform="matrix(1.00, 0.00, -0.00, -1.00, 1163.6, 536.3)">{</text><text xml:space="preserve" font-family="Monaco,Monaco" font-size="37.0" fill="#F9F9F4" transform="matrix(1.00, 0.00, -0.00, -1.00, 120.0, 487.3)"> </text><text xml:space="preserve" font-family="Monaco,Monaco" font-size="37.0" fill="#F9F9F4" transform="matrix(1.00, 0.00, -0.00, -1.00, 142.2, 487.3)"> </text><text xml:space="preserve" font-family="Monaco,Monaco" font-size="37.0" fill="#F9F9F4" transform="matrix(1.00, 0.00, -0.00, -1.00, 164.4, 487.3)"> </text><text xml:space="preserve" font-family="Monaco,Monaco" font-size="37.0" fill="#F9F9F4" transform="matrix(1.00, 0.00, -0.00, -1.00, 186.6, 487.3)"> </text><text xml:space="preserve" font-family="Monaco,Monaco" font-size="37.0" fill="#F9F9F4" transform="matrix(1.00, 0.00, -0.00, -1.00, 208.8, 487.3)">c</text><text xml:space="preserve" font-family="Monaco,Monaco" font-size="37.0" fill="#F9F9F4" transform="matrix(1.00, 0.00, -0.00, -1.00, 231.0, 487.3)">o</text><text xml:space="preserve" font-family="Monaco,Monaco" font-size="37.0" fill="#F9F9F4" transform="matrix(1.00, 0.00, -0.00, -1.00, 253.2, 487.3)">n</text><text xml:space="preserve" font-family="Monaco,Monaco" font-size="37.0" fill="#F9F9F4" transform="matrix(1.00, 0.00, -0.00, -1.00, 275.5, 487.3)">s</text><text xml:space="preserve" font-family="Monaco,Monaco" font-size="37.0" fill="#F9F9F4" transform="matrix(1.00, 0.00, -0.00, -1.00, 297.7, 487.3)">o</text><text xml:space="preserve" font-family="Monaco,Monaco" font-size="37.0" fill="#F9F9F4" transform="matrix(1.00, 0.00, -0.00, -1.00, 319.9, 487.3)">l</text><text xml:space="preserve" font-family="Monaco,Monaco" font-size="37.0" fill="#F9F9F4" transform="matrix(1.00, 0.00, -0.00, -1.00, 342.1, 487.3)">e</text><text xml:space="preserve" font-family="Monaco,Monaco" font-size="37.0" fill="#F9F9F4" transform="matrix(1.00, 0.00, -0.00, -1.00, 364.3, 487.3)">.</text><text xml:space="preserve" font-family="Monaco,Monaco" font-size="37.0" fill="#13F7BA" transform="matrix(1.00, 0.00, -0.00, -1.00, 386.4, 487.3)">l</text><text xml:space="preserve" font-family="Monaco,Monaco" font-size="37.0" fill="#13F7BA" transform="matrix(1.00, 0.00, -0.00, -1.00, 408.7, 487.3)">o</text><text xml:space="preserve" font-family="Monaco,Monaco" font-size="37.0" fill="#13F7BA" transform="matrix(1.00, 0.00, -0.00, -1.00, 430.9, 487.3)">g</text><text xml:space="preserve" font-family="Monaco,Monaco" font-size="37.0" fill="#F9F9F4" transform="matrix(1.00, 0.00, -0.00, -1.00, 453.1, 487.3)">(</text><text xml:space="preserve" font-family="Monaco,Monaco" font-size="37.0" fill="#F9F9F4" transform="matrix(1.00, 0.00, -0.00, -1.00, 475.3, 487.3)">v</text><text xml:space="preserve" font-family="Monaco,Monaco" font-size="37.0" fill="#F9F9F4" transform="matrix(1.00, 0.00, -0.00, -1.00, 497.5, 487.3)">a</text><text xml:space="preserve" font-family="Monaco,Monaco" font-size="37.0" fill="#F9F9F4" transform="matrix(1.00, 0.00, -0.00, -1.00, 519.7, 487.3)">l</text><text xml:space="preserve" font-family="Monaco,Monaco" font-size="37.0" fill="#F9F9F4" transform="matrix(1.00, 0.00, -0.00, -1.00, 541.9, 487.3)">)</text><text xml:space="preserve" font-family="Monaco,Monaco" font-size="37.0" fill="#F9F9F4" transform="matrix(1.00, 0.00, -0.00, -1.00, 564.1, 487.3)">;</text><text xml:space="preserve" font-family="Monaco,Monaco" font-size="37.0" fill="#000000" transform="matrix(1.00, 0.00, -0.00, -1.00, 120.0, 438.3)"> </text><text xml:space="preserve" font-family="Monaco,Monaco" font-size="37.0" fill="#000000" transform="matrix(1.00, 0.00, -0.00, -1.00, 142.2, 438.3)"> </text><text xml:space="preserve" font-family="Monaco,Monaco" font-size="37.0" fill="#F9F9F4" transform="matrix(1.00, 0.00, -0.00, -1.00, 164.4, 438.3)">}</text><text xml:space="preserve" font-family="Monaco,Monaco" font-size="37.0" fill="#F9F9F4" transform="matrix(1.00, 0.00, -0.00, -1.00, 120.0, 389.3)">}</text><text xml:space="preserve" font-family="Monaco,Monaco" font-size="37.0" fill="#F9F9F4" transform="matrix(1.00, 0.00, -0.00, -1.00, 142.2, 389.3)">)</text><text xml:space="preserve" font-family="Monaco,Monaco" font-size="37.0" fill="#F9F9F4" transform="matrix(1.00, 0.00, -0.00, -1.00, 164.4, 389.3)">;</text><text xml:space="preserve" font-family="Monaco,Monaco" font-size="37.0" fill="#13F7BA" transform="matrix(1.00, 0.00, -0.00, -1.00, 120.0, 291.3)">g</text><text xml:space="preserve" font-family="Monaco,Monaco" font-size="37.0" fill="#13F7BA" transform="matrix(1.00, 0.00, -0.00, -1.00, 142.2, 291.3)">o</text><text xml:space="preserve" font-family="Monaco,Monaco" font-size="37.0" fill="#F9F9F4" transform="matrix(1.00, 0.00, -0.00, -1.00, 164.4, 291.3)">(</text><text xml:space="preserve" font-family="Monaco,Monaco" font-size="37.0" fill="#FC4384" transform="matrix(1.00, 0.00, -0.00, -1.00, 186.6, 291.3)">f</text><text xml:space="preserve" font-family="Monaco,Monaco" font-size="37.0" fill="#FC4384" transform="matrix(1.00, 0.00, -0.00, -1.00, 208.8, 291.3)">u</text><text xml:space="preserve" font-family="Monaco,Monaco" font-size="37.0" fill="#FC4384" transform="matrix(1.00, 0.00, -0.00, -1.00, 231.0, 291.3)">n</text><text xml:space="preserve" font-family="Monaco,Monaco" font-size="37.0" fill="#FC4384" transform="matrix(1.00, 0.00, -0.00, -1.00, 253.2, 291.3)">c</text><text xml:space="preserve" font-family="Monaco,Monaco" font-size="37.0" fill="#FC4384" transform="matrix(1.00, 0.00, -0.00, -1.00, 275.4, 291.3)">t</text><text xml:space="preserve" font-family="Monaco,Monaco" font-size="37.0" fill="#FC4384" transform="matrix(1.00, 0.00, -0.00, -1.00, 297.6, 291.3)">i</text><text xml:space="preserve" font-family="Monaco,Monaco" font-size="37.0" fill="#FC4384" transform="matrix(1.00, 0.00, -0.00, -1.00, 319.9, 291.3)">o</text><text xml:space="preserve" font-family="Monaco,Monaco" font-size="37.0" fill="#FC4384" transform="matrix(1.00, 0.00, -0.00, -1.00, 342.1, 291.3)">n</text><text xml:space="preserve" font-family="Monaco,Monaco" font-size="37.0" fill="#F9F9F4" transform="matrix(1.00, 0.00, -0.00, -1.00, 364.2, 291.3)">*</text><text xml:space="preserve" font-family="Monaco,Monaco" font-size="37.0" fill="#F9F9F4" transform="matrix(1.00, 0.00, -0.00, -1.00, 386.4, 291.3)">(</text><text xml:space="preserve" font-family="Monaco,Monaco" font-size="37.0" fill="#F9F9F4" transform="matrix(1.00, 0.00, -0.00, -1.00, 408.7, 291.3)">)</text><text xml:space="preserve" font-family="Monaco,Monaco" font-size="37.0" fill="#F9F9F4" transform="matrix(1.00, 0.00, -0.00, -1.00, 430.9, 291.3)"> </text><text xml:space="preserve" font-family="Monaco,Monaco" font-size="37.0" fill="#F9F9F4" transform="matrix(1.00, 0.00, -0.00, -1.00, 453.1, 291.3)">{</text><text xml:space="preserve" font-family="Monaco,Monaco" font-size="37.0" fill="#F9F9F4" transform="matrix(1.00, 0.00, -0.00, -1.00, 120.0, 242.3)"> </text><text xml:space="preserve" font-family="Monaco,Monaco" font-size="37.0" fill="#F9F9F4" transform="matrix(1.00, 0.00, -0.00, -1.00, 142.2, 242.3)"> </text><text xml:space="preserve" font-family="Monaco,Monaco" font-size="37.0" fill="#F9F9F4" transform="matrix(1.00, 0.00, -0.00, -1.00, 164.4, 242.3)">y</text><text xml:space="preserve" font-family="Monaco,Monaco" font-size="37.0" fill="#F9F9F4" transform="matrix(1.00, 0.00, -0.00, -1.00, 186.6, 242.3)">i</text><text xml:space="preserve" font-family="Monaco,Monaco" font-size="37.0" fill="#F9F9F4" transform="matrix(1.00, 0.00, -0.00, -1.00, 208.8, 242.3)">e</text><text xml:space="preserve" font-family="Monaco,Monaco" font-size="37.0" fill="#F9F9F4" transform="matrix(1.00, 0.00, -0.00, -1.00, 231.0, 242.3)">l</text><text xml:space="preserve" font-family="Monaco,Monaco" font-size="37.0" fill="#F9F9F4" transform="matrix(1.00, 0.00, -0.00, -1.00, 253.2, 242.3)">d</text><text xml:space="preserve" font-family="Monaco,Monaco" font-size="37.0" fill="#000000" transform="matrix(1.00, 0.00, -0.00, -1.00, 275.4, 242.3)"> </text><text xml:space="preserve" font-family="Monaco,Monaco" font-size="37.0" fill="#13F7BA" transform="matrix(1.00, 0.00, -0.00, -1.00, 297.6, 242.3)">p</text><text xml:space="preserve" font-family="Monaco,Monaco" font-size="37.0" fill="#13F7BA" transform="matrix(1.00, 0.00, -0.00, -1.00, 319.8, 242.3)">u</text><text xml:space="preserve" font-family="Monaco,Monaco" font-size="37.0" fill="#13F7BA" transform="matrix(1.00, 0.00, -0.00, -1.00, 342.0, 242.3)">t</text><text xml:space="preserve" font-family="Monaco,Monaco" font-size="37.0" fill="#F9F9F4" transform="matrix(1.00, 0.00, -0.00, -1.00, 364.2, 242.3)">(</text><text xml:space="preserve" font-family="Monaco,Monaco" font-size="37.0" fill="#F9F9F4" transform="matrix(1.00, 0.00, -0.00, -1.00, 386.4, 242.3)">c</text><text xml:space="preserve" font-family="Monaco,Monaco" font-size="37.0" fill="#F9F9F4" transform="matrix(1.00, 0.00, -0.00, -1.00, 408.7, 242.3)">h</text><text xml:space="preserve" font-family="Monaco,Monaco" font-size="37.0" fill="#F9F9F4" transform="matrix(1.00, 0.00, -0.00, -1.00, 430.9, 242.3)">,</text><text xml:space="preserve" font-family="Monaco,Monaco" font-size="37.0" fill="#000000" transform="matrix(1.00, 0.00, -0.00, -1.00, 453.1, 242.3)"> </text><text xml:space="preserve" font-family="Monaco,Monaco" font-size="37.0" fill="#BC99FF" transform="matrix(1.00, 0.00, -0.00, -1.00, 475.3, 242.3)">1</text><text xml:space="preserve" font-family="Monaco,Monaco" font-size="37.0" fill="#F9F9F4" transform="matrix(1.00, 0.00, -0.00, -1.00, 497.5, 242.3)">)</text><text xml:space="preserve" font-family="Monaco,Monaco" font-size="37.0" fill="#F9F9F4" transform="matrix(1.00, 0.00, -0.00, -1.00, 519.7, 242.3)">;</text><text xml:space="preserve" font-family="Monaco,Monaco" font-size="37.0" fill="#F9F9F4" transform="matrix(1.00, 0.00, -0.00, -1.00, 120.0, 193.3)"> </text><text xml:space="preserve" font-family="Monaco,Monaco" font-size="37.0" fill="#F9F9F4" transform="matrix(1.00, 0.00, -0.00, -1.00, 142.2, 193.3)"> </text><text xml:space="preserve" font-family="Monaco,Monaco" font-size="37.0" fill="#F9F9F4" transform="matrix(1.00, 0.00, -0.00, -1.00, 164.4, 193.3)">y</text><text xml:space="preserve" font-family="Monaco,Monaco" font-size="37.0" fill="#F9F9F4" transform="matrix(1.00, 0.00, -0.00, -1.00, 186.6, 193.3)">i</text><text xml:space="preserve" font-family="Monaco,Monaco" font-size="37.0" fill="#F9F9F4" transform="matrix(1.00, 0.00, -0.00, -1.00, 208.8, 193.3)">e</text><text xml:space="preserve" font-family="Monaco,Monaco" font-size="37.0" fill="#F9F9F4" transform="matrix(1.00, 0.00, -0.00, -1.00, 231.0, 193.3)">l</text><text xml:space="preserve" font-family="Monaco,Monaco" font-size="37.0" fill="#F9F9F4" transform="matrix(1.00, 0.00, -0.00, -1.00, 253.2, 193.3)">d</text><text xml:space="preserve" font-family="Monaco,Monaco" font-size="37.0" fill="#000000" transform="matrix(1.00, 0.00, -0.00, -1.00, 275.4, 193.3)"> </text><text xml:space="preserve" font-family="Monaco,Monaco" font-size="37.0" fill="#13F7BA" transform="matrix(1.00, 0.00, -0.00, -1.00, 297.6, 193.3)">t</text><text xml:space="preserve" font-family="Monaco,Monaco" font-size="37.0" fill="#13F7BA" transform="matrix(1.00, 0.00, -0.00, -1.00, 319.8, 193.3)">a</text><text xml:space="preserve" font-family="Monaco,Monaco" font-size="37.0" fill="#13F7BA" transform="matrix(1.00, 0.00, -0.00, -1.00, 342.0, 193.3)">k</text><text xml:space="preserve" font-family="Monaco,Monaco" font-size="37.0" fill="#13F7BA" transform="matrix(1.00, 0.00, -0.00, -1.00, 364.3, 193.3)">e</text><text xml:space="preserve" font-family="Monaco,Monaco" font-size="37.0" fill="#F9F9F4" transform="matrix(1.00, 0.00, -0.00, -1.00, 386.4, 193.3)">(</text><text xml:space="preserve" font-family="Monaco,Monaco" font-size="37.0" fill="#13F7BA" transform="matrix(1.00, 0.00, -0.00, -1.00, 408.6, 193.3)">t</text><text xml:space="preserve" font-family="Monaco,Monaco" font-size="37.0" fill="#13F7BA" transform="matrix(1.00, 0.00, -0.00, -1.00, 430.9, 193.3)">i</text><text xml:space="preserve" font-family="Monaco,Monaco" font-size="37.0" fill="#13F7BA" transform="matrix(1.00, 0.00, -0.00, -1.00, 453.1, 193.3)">m</text><text xml:space="preserve" font-family="Monaco,Monaco" font-size="37.0" fill="#13F7BA" transform="matrix(1.00, 0.00, -0.00, -1.00, 475.3, 193.3)">e</text><text xml:space="preserve" font-family="Monaco,Monaco" font-size="37.0" fill="#13F7BA" transform="matrix(1.00, 0.00, -0.00, -1.00, 497.5, 193.3)">o</text><text xml:space="preserve" font-family="Monaco,Monaco" font-size="37.0" fill="#13F7BA" transform="matrix(1.00, 0.00, -0.00, -1.00, 519.7, 193.3)">u</text><text xml:space="preserve" font-family="Monaco,Monaco" font-size="37.0" fill="#13F7BA" transform="matrix(1.00, 0.00, -0.00, -1.00, 541.9, 193.3)">t</text><text xml:space="preserve" font-family="Monaco,Monaco" font-size="37.0" fill="#F9F9F4" transform="matrix(1.00, 0.00, -0.00, -1.00, 564.1, 193.3)">(</text><text xml:space="preserve" font-family="Monaco,Monaco" font-size="37.0" fill="#BC99FF" transform="matrix(1.00, 0.00, -0.00, -1.00, 586.3, 193.3)">1</text><text xml:space="preserve" font-family="Monaco,Monaco" font-size="37.0" fill="#BC99FF" transform="matrix(1.00, 0.00, -0.00, -1.00, 608.5, 193.3)">0</text><text xml:space="preserve" font-family="Monaco,Monaco" font-size="37.0" fill="#BC99FF" transform="matrix(1.00, 0.00, -0.00, -1.00, 630.7, 193.3)">0</text><text xml:space="preserve" font-family="Monaco,Monaco" font-size="37.0" fill="#BC99FF" transform="matrix(1.00, 0.00, -0.00, -1.00, 652.9, 193.3)">0</text><text xml:space="preserve" font-family="Monaco,Monaco" font-size="37.0" fill="#F9F9F4" transform="matrix(1.00, 0.00, -0.00, -1.00, 675.1, 193.3)">)</text><text xml:space="preserve" font-family="Monaco,Monaco" font-size="37.0" fill="#F9F9F4" transform="matrix(1.00, 0.00, -0.00, -1.00, 697.3, 193.3)">)</text><text xml:space="preserve" font-family="Monaco,Monaco" font-size="37.0" fill="#F9F9F4" transform="matrix(1.00, 0.00, -0.00, -1.00, 719.5, 193.3)">;</text><text xml:space="preserve" font-family="Monaco,Monaco" font-size="37.0" fill="#F9F9F4" transform="matrix(1.00, 0.00, -0.00, -1.00, 120.0, 144.3)"> </text><text xml:space="preserve" font-family="Monaco,Monaco" font-size="37.0" fill="#F9F9F4" transform="matrix(1.00, 0.00, -0.00, -1.00, 142.2, 144.3)"> </text><text xml:space="preserve" font-family="Monaco,Monaco" font-size="37.0" fill="#F9F9F4" transform="matrix(1.00, 0.00, -0.00, -1.00, 164.4, 144.3)">y</text><text xml:space="preserve" font-family="Monaco,Monaco" font-size="37.0" fill="#F9F9F4" transform="matrix(1.00, 0.00, -0.00, -1.00, 186.6, 144.3)">i</text><text xml:space="preserve" font-family="Monaco,Monaco" font-size="37.0" fill="#F9F9F4" transform="matrix(1.00, 0.00, -0.00, -1.00, 208.8, 144.3)">e</text><text xml:space="preserve" font-family="Monaco,Monaco" font-size="37.0" fill="#F9F9F4" transform="matrix(1.00, 0.00, -0.00, -1.00, 231.0, 144.3)">l</text><text xml:space="preserve" font-family="Monaco,Monaco" font-size="37.0" fill="#F9F9F4" transform="matrix(1.00, 0.00, -0.00, -1.00, 253.2, 144.3)">d</text><text xml:space="preserve" font-family="Monaco,Monaco" font-size="37.0" fill="#000000" transform="matrix(1.00, 0.00, -0.00, -1.00, 275.4, 144.3)"> </text><text xml:space="preserve" font-family="Monaco,Monaco" font-size="37.0" fill="#13F7BA" transform="matrix(1.00, 0.00, -0.00, -1.00, 297.6, 144.3)">p</text><text xml:space="preserve" font-family="Monaco,Monaco" font-size="37.0" fill="#13F7BA" transform="matrix(1.00, 0.00, -0.00, -1.00, 319.8, 144.3)">u</text><text xml:space="preserve" font-family="Monaco,Monaco" font-size="37.0" fill="#13F7BA" transform="matrix(1.00, 0.00, -0.00, -1.00, 342.0, 144.3)">t</text><text xml:space="preserve" font-family="Monaco,Monaco" font-size="37.0" fill="#F9F9F4" transform="matrix(1.00, 0.00, -0.00, -1.00, 364.2, 144.3)">(</text><text xml:space="preserve" font-family="Monaco,Monaco" font-size="37.0" fill="#F9F9F4" transform="matrix(1.00, 0.00, -0.00, -1.00, 386.4, 144.3)">c</text><text xml:space="preserve" font-family="Monaco,Monaco" font-size="37.0" fill="#F9F9F4" transform="matrix(1.00, 0.00, -0.00, -1.00, 408.7, 144.3)">h</text><text xml:space="preserve" font-family="Monaco,Monaco" font-size="37.0" fill="#F9F9F4" transform="matrix(1.00, 0.00, -0.00, -1.00, 430.9, 144.3)">,</text><text xml:space="preserve" font-family="Monaco,Monaco" font-size="37.0" fill="#000000" transform="matrix(1.00, 0.00, -0.00, -1.00, 453.1, 144.3)"> </text><text xml:space="preserve" font-family="Monaco,Monaco" font-size="37.0" fill="#BC99FF" transform="matrix(1.00, 0.00, -0.00, -1.00, 475.3, 144.3)">2</text><text xml:space="preserve" font-family="Monaco,Monaco" font-size="37.0" fill="#F9F9F4" transform="matrix(1.00, 0.00, -0.00, -1.00, 497.5, 144.3)">)</text><text xml:space="preserve" font-family="Monaco,Monaco" font-size="37.0" fill="#F9F9F4" transform="matrix(1.00, 0.00, -0.00, -1.00, 519.7, 144.3)">;</text><text xml:space="preserve" font-family="Monaco,Monaco" font-size="37.0" fill="#F9F9F4" transform="matrix(1.00, 0.00, -0.00, -1.00, 120.0, 95.3)"> </text><text xml:space="preserve" font-family="Monaco,Monaco" font-size="37.0" fill="#F9F9F4" transform="matrix(1.00, 0.00, -0.00, -1.00, 142.2, 95.3)"> </text><text xml:space="preserve" font-family="Monaco,Monaco" font-size="37.0" fill="#F9F9F4" transform="matrix(1.00, 0.00, -0.00, -1.00, 164.4, 95.3)">c</text><text xml:space="preserve" font-family="Monaco,Monaco" font-size="37.0" fill="#F9F9F4" transform="matrix(1.00, 0.00, -0.00, -1.00, 186.6, 95.3)">h</text><text xml:space="preserve" font-family="Monaco,Monaco" font-size="37.0" fill="#F9F9F4" transform="matrix(1.00, 0.00, -0.00, -1.00, 208.8, 95.3)">.</text><text xml:space="preserve" font-family="Monaco,Monaco" font-size="37.0" fill="#13F7BA" transform="matrix(1.00, 0.00, -0.00, -1.00, 231.0, 95.3)">c</text><text xml:space="preserve" font-family="Monaco,Monaco" font-size="37.0" fill="#13F7BA" transform="matrix(1.00, 0.00, -0.00, -1.00, 253.2, 95.3)">l</text><text xml:space="preserve" font-family="Monaco,Monaco" font-size="37.0" fill="#13F7BA" transform="matrix(1.00, 0.00, -0.00, -1.00, 275.4, 95.3)">o</text><text xml:space="preserve" font-family="Monaco,Monaco" font-size="37.0" fill="#13F7BA" transform="matrix(1.00, 0.00, -0.00, -1.00, 297.6, 95.3)">s</text><text xml:space="preserve" font-family="Monaco,Monaco" font-size="37.0" fill="#13F7BA" transform="matrix(1.00, 0.00, -0.00, -1.00, 319.8, 95.3)">e</text><text xml:space="preserve" font-family="Monaco,Monaco" font-size="37.0" fill="#F9F9F4" transform="matrix(1.00, 0.00, -0.00, -1.00, 342.0, 95.3)">(</text><text xml:space="preserve" font-family="Monaco,Monaco" font-size="37.0" fill="#F9F9F4" transform="matrix(1.00, 0.00, -0.00, -1.00, 364.2, 95.3)">)</text><text xml:space="preserve" font-family="Monaco,Monaco" font-size="37.0" fill="#F9F9F4" transform="matrix(1.00, 0.00, -0.00, -1.00, 386.5, 95.3)">;</text><text xml:space="preserve" font-family="Monaco,Monaco" font-size="37.0" fill="#F9F9F4" transform="matrix(1.00, 0.00, -0.00, -1.00, 120.0, 46.3)">}</text><text xml:space="preserve" font-family="Monaco,Monaco" font-size="37.0" fill="#F9F9F4" transform="matrix(1.00, 0.00, -0.00, -1.00, 142.2, 46.3)">)</text><text xml:space="preserve" font-family="Monaco,Monaco" font-size="37.0" fill="#F9F9F4" transform="matrix(1.00, 0.00, -0.00, -1.00, 164.4, 46.3)">;</text></g></svg>