<?xml version="1.0" encoding="UTF-8" standalone="no"?><svg xmlns="http://www.w3.org/2000/svg" xmlns:xlink="http://www.w3.org/1999/xlink" clip-rule="evenodd" stroke-miterlimit="10" viewBox="0 0 1920 1080"><desc>SVG generated by Keynote</desc><defs></defs><g transform="matrix(1.00, 0.00, -0.00, -1.00, 0.0, 1080.0)"><g><clipPath id="clip0x7fe42bbc3160"><path d="M 0.0 1080.0 L 1920.0 1080.0 L 1920.0 0.0 L 0.0 0.0 Z M 0.0 1080.0 "></path></clipPath><g clip-path="url(#clip0x7fe42bbc3160)"><image xlink:href="../../EAAA0B26-26D2-4E6F-B71B-738E9DFC302E/assets/0F43D2572F34A9AFB59E4515ED9A1249.jpeg" width="3840.00" height="2160.00" transform="matrix(0.50, 0.00, -0.00, -0.50, 0.0, 1080.0)"></image></g></g><image xlink:href="../../AC2B8E43-2A65-4F51-A746-74FBC6DF906F/assets/CE69BA7F60DBEC73F0F8F2B5962D5C23.png" width="532.00" height="82.00" transform="matrix(1.00, 0.00, -0.00, -1.00, 115.0, 952.0)"></image><text xml:space="preserve" font-family="HelveticaNeue-Light,Helvetica Neue" font-size="100.0" fill="#FEFFFE" transform="matrix(1.00, 0.00, -0.00, -1.00, 120.0, 879.2)">T</text><text xml:space="preserve" font-family="HelveticaNeue-Light,Helvetica Neue" font-size="100.0" fill="#FEFFFE" transform="matrix(1.00, 0.00, -0.00, -1.00, 166.4, 879.2)">r</text><text xml:space="preserve" font-family="HelveticaNeue-Light,Helvetica Neue" font-size="100.0" fill="#FEFFFE" transform="matrix(1.00, 0.00, -0.00, -1.00, 197.9, 879.2)">a</text><text xml:space="preserve" font-family="HelveticaNeue-Light,Helvetica Neue" font-size="100.0" fill="#FEFFFE" transform="matrix(1.00, 0.00, -0.00, -1.00, 249.8, 879.2)">n</text><text xml:space="preserve" font-family="HelveticaNeue-Light,Helvetica Neue" font-size="100.0" fill="#FEFFFE" transform="matrix(1.00, 0.00, -0.00, -1.00, 303.5, 879.2)">s</text><text xml:space="preserve" font-family="HelveticaNeue-Light,Helvetica Neue" font-size="100.0" fill="#FEFFFE" transform="matrix(1.00, 0.00, -0.00, -1.00, 351.6, 879.2)">d</text><text xml:space="preserve" font-family="HelveticaNeue-Light,Helvetica Neue" font-size="100.0" fill="#FEFFFE" transform="matrix(1.00, 0.00, -0.00, -1.00, 409.0, 879.2)">u</text><text xml:space="preserve" font-family="HelveticaNeue-Light,Helvetica Neue" font-size="100.0" fill="#FEFFFE" transform="matrix(1.00, 0.00, -0.00, -1.00, 462.7, 879.2)">c</text><text xml:space="preserve" font-family="HelveticaNeue-Light,Helvetica Neue" font-size="100.0" fill="#FEFFFE" transform="matrix(1.00, 0.00, -0.00, -1.00, 514.6, 879.2)">e</text><text xml:space="preserve" font-family="HelveticaNeue-Light,Helvetica Neue" font-size="100.0" fill="#FEFFFE" transform="matrix(1.00, 0.00, -0.00, -1.00, 566.5, 879.2)">r</text><text xml:space="preserve" font-family="HelveticaNeue-Light,Helvetica Neue" font-size="100.0" fill="#FEFFFE" transform="matrix(1.00, 0.00, -0.00, -1.00, 598.0, 879.2)">s</text><text xml:space="preserve" font-family="HelveticaNeue-Light,Helvetica Neue" font-size="100.0" fill="#FEFFFE" transform="matrix(1.00, 0.00, -0.00, -1.00, 646.1, 879.2)"> </text><image xlink:href="../../6313A47B-AC74-4D89-967E-C2D6B1B5EEC8/assets/1C136BEB3CACEE0E706EAC043C4E0CD5.png" width="225.00" height="84.00" transform="matrix(1.00, 0.00, -0.00, -1.00, 668.0, 954.0)"></image><text xml:space="preserve" font-family="HelveticaNeue-Light,Helvetica Neue" font-size="100.0" fill="#FEFFFE" transform="matrix(1.00, 0.00, -0.00, -1.00, 673.9, 879.2)">/</text><text xml:space="preserve" font-family="HelveticaNeue-Light,Helvetica Neue" font-size="100.0" fill="#FEFFFE" transform="matrix(1.00, 0.00, -0.00, -1.00, 707.2, 879.2)"> </text><text xml:space="preserve" font-family="HelveticaNeue-Light,Helvetica Neue" font-size="100.0" fill="#FEFFFE" transform="matrix(1.00, 0.00, -0.00, -1.00, 735.0, 879.2)">i</text><text xml:space="preserve" font-family="HelveticaNeue-Light,Helvetica Neue" font-size="100.0" fill="#FEFFFE" transform="matrix(1.00, 0.00, -0.00, -1.00, 753.5, 879.2)">n</text><text xml:space="preserve" font-family="HelveticaNeue-Light,Helvetica Neue" font-size="100.0" fill="#FEFFFE" transform="matrix(1.00, 0.00, -0.00, -1.00, 807.2, 879.2)">t</text><text xml:space="preserve" font-family="HelveticaNeue-Light,Helvetica Neue" font-size="100.0" fill="#FEFFFE" transform="matrix(1.00, 0.00, -0.00, -1.00, 836.8, 879.2)">o</text><text xml:space="preserve" font-family="Monaco,Monaco" font-size="42.0" fill="#13F7BA" transform="matrix(1.00, 0.00, -0.00, -1.00, 120.0, 725.0)">i</text><text xml:space="preserve" font-family="Monaco,Monaco" font-size="42.0" fill="#13F7BA" transform="matrix(1.00, 0.00, -0.00, -1.00, 145.2, 725.0)">n</text><text xml:space="preserve" font-family="Monaco,Monaco" font-size="42.0" fill="#13F7BA" transform="matrix(1.00, 0.00, -0.00, -1.00, 170.4, 725.0)">t</text><text xml:space="preserve" font-family="Monaco,Monaco" font-size="42.0" fill="#13F7BA" transform="matrix(1.00, 0.00, -0.00, -1.00, 195.6, 725.0)">o</text><text xml:space="preserve" font-family="Monaco,Monaco" font-size="42.0" fill="#F9F9F4" transform="matrix(1.00, 0.00, -0.00, -1.00, 220.8, 725.0)">(</text><text xml:space="preserve" font-family="Monaco,Monaco" font-size="42.0" fill="#000000" transform="matrix(1.00, 0.00, -0.00, -1.00, 120.0, 668.0)"> </text><text xml:space="preserve" font-family="Monaco,Monaco" font-size="42.0" fill="#000000" transform="matrix(1.00, 0.00, -0.00, -1.00, 145.2, 668.0)"> </text><text xml:space="preserve" font-family="Monaco,Monaco" font-size="42.0" fill="#F9F9F4" transform="matrix(1.00, 0.00, -0.00, -1.00, 170.4, 668.0)">[</text><text xml:space="preserve" font-family="Monaco,Monaco" font-size="42.0" fill="#F9F9F4" transform="matrix(1.00, 0.00, -0.00, -1.00, 195.6, 668.0)">]</text><text xml:space="preserve" font-family="Monaco,Monaco" font-size="42.0" fill="#F9F9F4" transform="matrix(1.00, 0.00, -0.00, -1.00, 220.8, 668.0)">,</text><text xml:space="preserve" font-family="Monaco,Monaco" font-size="42.0" fill="#000000" transform="matrix(1.00, 0.00, -0.00, -1.00, 120.0, 611.0)"> </text><text xml:space="preserve" font-family="Monaco,Monaco" font-size="42.0" fill="#000000" transform="matrix(1.00, 0.00, -0.00, -1.00, 145.2, 611.0)"> </text><text xml:space="preserve" font-family="Monaco,Monaco" font-size="42.0" fill="#13F7BA" transform="matrix(1.00, 0.00, -0.00, -1.00, 170.4, 611.0)">m</text><text xml:space="preserve" font-family="Monaco,Monaco" font-size="42.0" fill="#13F7BA" transform="matrix(1.00, 0.00, -0.00, -1.00, 195.6, 611.0)">a</text><text xml:space="preserve" font-family="Monaco,Monaco" font-size="42.0" fill="#13F7BA" transform="matrix(1.00, 0.00, -0.00, -1.00, 220.8, 611.0)">p</text><text xml:space="preserve" font-family="Monaco,Monaco" font-size="42.0" fill="#F9F9F4" transform="matrix(1.00, 0.00, -0.00, -1.00, 246.0, 611.0)">(</text><text xml:space="preserve" font-family="Monaco,Monaco" font-size="42.0" fill="#F9F9F4" transform="matrix(1.00, 0.00, -0.00, -1.00, 271.2, 611.0)">p</text><text xml:space="preserve" font-family="Monaco,Monaco" font-size="42.0" fill="#F9F9F4" transform="matrix(1.00, 0.00, -0.00, -1.00, 296.4, 611.0)">o</text><text xml:space="preserve" font-family="Monaco,Monaco" font-size="42.0" fill="#F9F9F4" transform="matrix(1.00, 0.00, -0.00, -1.00, 321.6, 611.0)">w</text><text xml:space="preserve" font-family="Monaco,Monaco" font-size="42.0" fill="#F9F9F4" transform="matrix(1.00, 0.00, -0.00, -1.00, 346.9, 611.0)">e</text><text xml:space="preserve" font-family="Monaco,Monaco" font-size="42.0" fill="#F9F9F4" transform="matrix(1.00, 0.00, -0.00, -1.00, 372.1, 611.0)">r</text><text xml:space="preserve" font-family="Monaco,Monaco" font-size="42.0" fill="#F9F9F4" transform="matrix(1.00, 0.00, -0.00, -1.00, 397.3, 611.0)">O</text><text xml:space="preserve" font-family="Monaco,Monaco" font-size="42.0" fill="#F9F9F4" transform="matrix(1.00, 0.00, -0.00, -1.00, 422.5, 611.0)">f</text><text xml:space="preserve" font-family="Monaco,Monaco" font-size="42.0" fill="#F9F9F4" transform="matrix(1.00, 0.00, -0.00, -1.00, 447.7, 611.0)">T</text><text xml:space="preserve" font-family="Monaco,Monaco" font-size="42.0" fill="#F9F9F4" transform="matrix(1.00, 0.00, -0.00, -1.00, 472.9, 611.0)">w</text><text xml:space="preserve" font-family="Monaco,Monaco" font-size="42.0" fill="#F9F9F4" transform="matrix(1.00, 0.00, -0.00, -1.00, 498.1, 611.0)">o</text><text xml:space="preserve" font-family="Monaco,Monaco" font-size="42.0" fill="#F9F9F4" transform="matrix(1.00, 0.00, -0.00, -1.00, 523.3, 611.0)">)</text><text xml:space="preserve" font-family="Monaco,Monaco" font-size="42.0" fill="#F9F9F4" transform="matrix(1.00, 0.00, -0.00, -1.00, 548.5, 611.0)">,</text><text xml:space="preserve" font-family="Monaco,Monaco" font-size="42.0" fill="#000000" transform="matrix(1.00, 0.00, -0.00, -1.00, 120.0, 554.0)"> </text><text xml:space="preserve" font-family="Monaco,Monaco" font-size="42.0" fill="#000000" transform="matrix(1.00, 0.00, -0.00, -1.00, 145.2, 554.0)"> </text><text xml:space="preserve" font-family="Monaco,Monaco" font-size="42.0" fill="#F9F9F4" transform="matrix(1.00, 0.00, -0.00, -1.00, 170.4, 554.0)">[</text><text xml:space="preserve" font-family="Monaco,Monaco" font-size="42.0" fill="#BC99FF" transform="matrix(1.00, 0.00, -0.00, -1.00, 195.6, 554.0)">0</text><text xml:space="preserve" font-family="Monaco,Monaco" font-size="42.0" fill="#F9F9F4" transform="matrix(1.00, 0.00, -0.00, -1.00, 220.8, 554.0)">,</text><text xml:space="preserve" font-family="Monaco,Monaco" font-size="42.0" fill="#000000" transform="matrix(1.00, 0.00, -0.00, -1.00, 246.0, 554.0)"> </text><text xml:space="preserve" font-family="Monaco,Monaco" font-size="42.0" fill="#BC99FF" transform="matrix(1.00, 0.00, -0.00, -1.00, 271.2, 554.0)">1</text><text xml:space="preserve" font-family="Monaco,Monaco" font-size="42.0" fill="#F9F9F4" transform="matrix(1.00, 0.00, -0.00, -1.00, 296.4, 554.0)">,</text><text xml:space="preserve" font-family="Monaco,Monaco" font-size="42.0" fill="#000000" transform="matrix(1.00, 0.00, -0.00, -1.00, 321.6, 554.0)"> </text><text xml:space="preserve" font-family="Monaco,Monaco" font-size="42.0" fill="#BC99FF" transform="matrix(1.00, 0.00, -0.00, -1.00, 346.8, 554.0)">2</text><text xml:space="preserve" font-family="Monaco,Monaco" font-size="42.0" fill="#F9F9F4" transform="matrix(1.00, 0.00, -0.00, -1.00, 372.0, 554.0)">,</text><text xml:space="preserve" font-family="Monaco,Monaco" font-size="42.0" fill="#000000" transform="matrix(1.00, 0.00, -0.00, -1.00, 397.2, 554.0)"> </text><text xml:space="preserve" font-family="Monaco,Monaco" font-size="42.0" fill="#BC99FF" transform="matrix(1.00, 0.00, -0.00, -1.00, 422.4, 554.0)">3</text><text xml:space="preserve" font-family="Monaco,Monaco" font-size="42.0" fill="#F9F9F4" transform="matrix(1.00, 0.00, -0.00, -1.00, 447.7, 554.0)">,</text><text xml:space="preserve" font-family="Monaco,Monaco" font-size="42.0" fill="#000000" transform="matrix(1.00, 0.00, -0.00, -1.00, 472.9, 554.0)"> </text><text xml:space="preserve" font-family="Monaco,Monaco" font-size="42.0" fill="#BC99FF" transform="matrix(1.00, 0.00, -0.00, -1.00, 498.1, 554.0)">4</text><text xml:space="preserve" font-family="Monaco,Monaco" font-size="42.0" fill="#F9F9F4" transform="matrix(1.00, 0.00, -0.00, -1.00, 523.3, 554.0)">,</text><text xml:space="preserve" font-family="Monaco,Monaco" font-size="42.0" fill="#000000" transform="matrix(1.00, 0.00, -0.00, -1.00, 548.5, 554.0)"> </text><text xml:space="preserve" font-family="Monaco,Monaco" font-size="42.0" fill="#BC99FF" transform="matrix(1.00, 0.00, -0.00, -1.00, 573.7, 554.0)">5</text><text xml:space="preserve" font-family="Monaco,Monaco" font-size="42.0" fill="#F9F9F4" transform="matrix(1.00, 0.00, -0.00, -1.00, 598.9, 554.0)">,</text><text xml:space="preserve" font-family="Monaco,Monaco" font-size="42.0" fill="#000000" transform="matrix(1.00, 0.00, -0.00, -1.00, 624.1, 554.0)"> </text><text xml:space="preserve" font-family="Monaco,Monaco" font-size="42.0" fill="#BC99FF" transform="matrix(1.00, 0.00, -0.00, -1.00, 649.3, 554.0)">6</text><text xml:space="preserve" font-family="Monaco,Monaco" font-size="42.0" fill="#F9F9F4" transform="matrix(1.00, 0.00, -0.00, -1.00, 674.5, 554.0)">,</text><text xml:space="preserve" font-family="Monaco,Monaco" font-size="42.0" fill="#000000" transform="matrix(1.00, 0.00, -0.00, -1.00, 699.7, 554.0)"> </text><text xml:space="preserve" font-family="Monaco,Monaco" font-size="42.0" fill="#BC99FF" transform="matrix(1.00, 0.00, -0.00, -1.00, 724.9, 554.0)">7</text><text xml:space="preserve" font-family="Monaco,Monaco" font-size="42.0" fill="#F9F9F4" transform="matrix(1.00, 0.00, -0.00, -1.00, 750.1, 554.0)">]</text><text xml:space="preserve" font-family="Monaco,Monaco" font-size="42.0" fill="#F9F9F4" transform="matrix(1.00, 0.00, -0.00, -1.00, 775.3, 554.0)">)</text><text xml:space="preserve" font-family="Monaco,Monaco" font-size="42.0" fill="#F9F9F4" transform="matrix(1.00, 0.00, -0.00, -1.00, 800.5, 554.0)">;</text><text xml:space="preserve" font-family="Monaco,Monaco" font-size="42.0" fill="#FEFFFE" transform="matrix(1.00, 0.00, -0.00, -1.00, 120.0, 497.0)">=</text><text xml:space="preserve" font-family="Monaco,Monaco" font-size="42.0" fill="#FEFFFE" transform="matrix(1.00, 0.00, -0.00, -1.00, 145.2, 497.0)">&gt;</text><text xml:space="preserve" font-family="Monaco,Monaco" font-size="42.0" fill="#FEFFFE" transform="matrix(1.00, 0.00, -0.00, -1.00, 170.4, 497.0)"> </text><text xml:space="preserve" font-family="Monaco,Monaco" font-size="42.0" fill="#F9F9F4" transform="matrix(1.00, 0.00, -0.00, -1.00, 195.6, 497.0)">[</text><text xml:space="preserve" font-family="Monaco,Monaco" font-size="42.0" fill="#BC99FF" transform="matrix(1.00, 0.00, -0.00, -1.00, 220.8, 497.0)">1</text><text xml:space="preserve" font-family="Monaco,Monaco" font-size="42.0" fill="#F9F9F4" transform="matrix(1.00, 0.00, -0.00, -1.00, 246.0, 497.0)">,</text><text xml:space="preserve" font-family="Monaco,Monaco" font-size="42.0" fill="#000000" transform="matrix(1.00, 0.00, -0.00, -1.00, 271.2, 497.0)"> </text><text xml:space="preserve" font-family="Monaco,Monaco" font-size="42.0" fill="#BC99FF" transform="matrix(1.00, 0.00, -0.00, -1.00, 296.4, 497.0)">2</text><text xml:space="preserve" font-family="Monaco,Monaco" font-size="42.0" fill="#F9F9F4" transform="matrix(1.00, 0.00, -0.00, -1.00, 321.6, 497.0)">,</text><text xml:space="preserve" font-family="Monaco,Monaco" font-size="42.0" fill="#000000" transform="matrix(1.00, 0.00, -0.00, -1.00, 346.8, 497.0)"> </text><text xml:space="preserve" font-family="Monaco,Monaco" font-size="42.0" fill="#BC99FF" transform="matrix(1.00, 0.00, -0.00, -1.00, 372.0, 497.0)">4</text><text xml:space="preserve" font-family="Monaco,Monaco" font-size="42.0" fill="#F9F9F4" transform="matrix(1.00, 0.00, -0.00, -1.00, 397.2, 497.0)">,</text><text xml:space="preserve" font-family="Monaco,Monaco" font-size="42.0" fill="#000000" transform="matrix(1.00, 0.00, -0.00, -1.00, 422.4, 497.0)"> </text><text xml:space="preserve" font-family="Monaco,Monaco" font-size="42.0" fill="#BC99FF" transform="matrix(1.00, 0.00, -0.00, -1.00, 447.7, 497.0)">8</text><text xml:space="preserve" font-family="Monaco,Monaco" font-size="42.0" fill="#F9F9F4" transform="matrix(1.00, 0.00, -0.00, -1.00, 472.9, 497.0)">,</text><text xml:space="preserve" font-family="Monaco,Monaco" font-size="42.0" fill="#000000" transform="matrix(1.00, 0.00, -0.00, -1.00, 498.1, 497.0)"> </text><text xml:space="preserve" font-family="Monaco,Monaco" font-size="42.0" fill="#BC99FF" transform="matrix(1.00, 0.00, -0.00, -1.00, 523.3, 497.0)">1</text><text xml:space="preserve" font-family="Monaco,Monaco" font-size="42.0" fill="#BC99FF" transform="matrix(1.00, 0.00, -0.00, -1.00, 548.5, 497.0)">6</text><text xml:space="preserve" font-family="Monaco,Monaco" font-size="42.0" fill="#F9F9F4" transform="matrix(1.00, 0.00, -0.00, -1.00, 573.7, 497.0)">,</text><text xml:space="preserve" font-family="Monaco,Monaco" font-size="42.0" fill="#000000" transform="matrix(1.00, 0.00, -0.00, -1.00, 598.9, 497.0)"> </text><text xml:space="preserve" font-family="Monaco,Monaco" font-size="42.0" fill="#BC99FF" transform="matrix(1.00, 0.00, -0.00, -1.00, 624.1, 497.0)">3</text><text xml:space="preserve" font-family="Monaco,Monaco" font-size="42.0" fill="#BC99FF" transform="matrix(1.00, 0.00, -0.00, -1.00, 649.3, 497.0)">2</text><text xml:space="preserve" font-family="Monaco,Monaco" font-size="42.0" fill="#F9F9F4" transform="matrix(1.00, 0.00, -0.00, -1.00, 674.5, 497.0)">,</text><text xml:space="preserve" font-family="Monaco,Monaco" font-size="42.0" fill="#000000" transform="matrix(1.00, 0.00, -0.00, -1.00, 699.7, 497.0)"> </text><text xml:space="preserve" font-family="Monaco,Monaco" font-size="42.0" fill="#BC99FF" transform="matrix(1.00, 0.00, -0.00, -1.00, 724.9, 497.0)">6</text><text xml:space="preserve" font-family="Monaco,Monaco" font-size="42.0" fill="#BC99FF" transform="matrix(1.00, 0.00, -0.00, -1.00, 750.1, 497.0)">4</text><text xml:space="preserve" font-family="Monaco,Monaco" font-size="42.0" fill="#F9F9F4" transform="matrix(1.00, 0.00, -0.00, -1.00, 775.3, 497.0)">,</text><text xml:space="preserve" font-family="Monaco,Monaco" font-size="42.0" fill="#000000" transform="matrix(1.00, 0.00, -0.00, -1.00, 800.5, 497.0)"> </text><text xml:space="preserve" font-family="Monaco,Monaco" font-size="42.0" fill="#BC99FF" transform="matrix(1.00, 0.00, -0.00, -1.00, 825.7, 497.0)">1</text><text xml:space="preserve" font-family="Monaco,Monaco" font-size="42.0" fill="#BC99FF" transform="matrix(1.00, 0.00, -0.00, -1.00, 850.9, 497.0)">2</text><text xml:space="preserve" font-family="Monaco,Monaco" font-size="42.0" fill="#BC99FF" transform="matrix(1.00, 0.00, -0.00, -1.00, 876.1, 497.0)">8</text><text xml:space="preserve" font-family="Monaco,Monaco" font-size="42.0" fill="#F9F9F4" transform="matrix(1.00, 0.00, -0.00, -1.00, 901.3, 497.0)">]</text><text xml:space="preserve" font-family="Monaco,Monaco" font-size="42.0" fill="#13F7BA" transform="matrix(1.00, 0.00, -0.00, -1.00, 120.0, 383.0)">i</text><text xml:space="preserve" font-family="Monaco,Monaco" font-size="42.0" fill="#13F7BA" transform="matrix(1.00, 0.00, -0.00, -1.00, 145.2, 383.0)">n</text><text xml:space="preserve" font-family="Monaco,Monaco" font-size="42.0" fill="#13F7BA" transform="matrix(1.00, 0.00, -0.00, -1.00, 170.4, 383.0)">t</text><text xml:space="preserve" font-family="Monaco,Monaco" font-size="42.0" fill="#13F7BA" transform="matrix(1.00, 0.00, -0.00, -1.00, 195.6, 383.0)">o</text><text xml:space="preserve" font-family="Monaco,Monaco" font-size="42.0" fill="#F9F9F4" transform="matrix(1.00, 0.00, -0.00, -1.00, 220.8, 383.0)">(</text><text xml:space="preserve" font-family="Monaco,Monaco" font-size="42.0" fill="#000000" transform="matrix(1.00, 0.00, -0.00, -1.00, 120.0, 326.0)"> </text><text xml:space="preserve" font-family="Monaco,Monaco" font-size="42.0" fill="#000000" transform="matrix(1.00, 0.00, -0.00, -1.00, 145.2, 326.0)"> </text><text xml:space="preserve" font-family="Monaco,Monaco" font-size="42.0" fill="#F9F9F4" transform="matrix(1.00, 0.00, -0.00, -1.00, 170.4, 326.0)">{</text><text xml:space="preserve" font-family="Monaco,Monaco" font-size="42.0" fill="#F9F9F4" transform="matrix(1.00, 0.00, -0.00, -1.00, 195.6, 326.0)">}</text><text xml:space="preserve" font-family="Monaco,Monaco" font-size="42.0" fill="#F9F9F4" transform="matrix(1.00, 0.00, -0.00, -1.00, 220.8, 326.0)">,</text><text xml:space="preserve" font-family="Monaco,Monaco" font-size="42.0" fill="#000000" transform="matrix(1.00, 0.00, -0.00, -1.00, 120.0, 269.0)"> </text><text xml:space="preserve" font-family="Monaco,Monaco" font-size="42.0" fill="#000000" transform="matrix(1.00, 0.00, -0.00, -1.00, 145.2, 269.0)"> </text><text xml:space="preserve" font-family="Monaco,Monaco" font-size="42.0" fill="#13F7BA" transform="matrix(1.00, 0.00, -0.00, -1.00, 170.4, 269.0)">m</text><text xml:space="preserve" font-family="Monaco,Monaco" font-size="42.0" fill="#13F7BA" transform="matrix(1.00, 0.00, -0.00, -1.00, 195.6, 269.0)">a</text><text xml:space="preserve" font-family="Monaco,Monaco" font-size="42.0" fill="#13F7BA" transform="matrix(1.00, 0.00, -0.00, -1.00, 220.8, 269.0)">p</text><text xml:space="preserve" font-family="Monaco,Monaco" font-size="42.0" fill="#F9F9F4" transform="matrix(1.00, 0.00, -0.00, -1.00, 246.0, 269.0)">(</text><text xml:space="preserve" font-family="Monaco,Monaco" font-size="42.0" fill="#F9F9F4" transform="matrix(1.00, 0.00, -0.00, -1.00, 271.2, 269.0)">s</text><text xml:space="preserve" font-family="Monaco,Monaco" font-size="42.0" fill="#F9F9F4" transform="matrix(1.00, 0.00, -0.00, -1.00, 296.4, 269.0)">w</text><text xml:space="preserve" font-family="Monaco,Monaco" font-size="42.0" fill="#F9F9F4" transform="matrix(1.00, 0.00, -0.00, -1.00, 321.6, 269.0)">a</text><text xml:space="preserve" font-family="Monaco,Monaco" font-size="42.0" fill="#F9F9F4" transform="matrix(1.00, 0.00, -0.00, -1.00, 346.9, 269.0)">p</text><text xml:space="preserve" font-family="Monaco,Monaco" font-size="42.0" fill="#F9F9F4" transform="matrix(1.00, 0.00, -0.00, -1.00, 372.1, 269.0)">K</text><text xml:space="preserve" font-family="Monaco,Monaco" font-size="42.0" fill="#F9F9F4" transform="matrix(1.00, 0.00, -0.00, -1.00, 397.3, 269.0)">e</text><text xml:space="preserve" font-family="Monaco,Monaco" font-size="42.0" fill="#F9F9F4" transform="matrix(1.00, 0.00, -0.00, -1.00, 422.5, 269.0)">y</text><text xml:space="preserve" font-family="Monaco,Monaco" font-size="42.0" fill="#F9F9F4" transform="matrix(1.00, 0.00, -0.00, -1.00, 447.7, 269.0)">s</text><text xml:space="preserve" font-family="Monaco,Monaco" font-size="42.0" fill="#F9F9F4" transform="matrix(1.00, 0.00, -0.00, -1.00, 472.9, 269.0)">A</text><text xml:space="preserve" font-family="Monaco,Monaco" font-size="42.0" fill="#F9F9F4" transform="matrix(1.00, 0.00, -0.00, -1.00, 498.1, 269.0)">n</text><text xml:space="preserve" font-family="Monaco,Monaco" font-size="42.0" fill="#F9F9F4" transform="matrix(1.00, 0.00, -0.00, -1.00, 523.3, 269.0)">d</text><text xml:space="preserve" font-family="Monaco,Monaco" font-size="42.0" fill="#F9F9F4" transform="matrix(1.00, 0.00, -0.00, -1.00, 548.5, 269.0)">V</text><text xml:space="preserve" font-family="Monaco,Monaco" font-size="42.0" fill="#F9F9F4" transform="matrix(1.00, 0.00, -0.00, -1.00, 573.7, 269.0)">a</text><text xml:space="preserve" font-family="Monaco,Monaco" font-size="42.0" fill="#F9F9F4" transform="matrix(1.00, 0.00, -0.00, -1.00, 598.9, 269.0)">l</text><text xml:space="preserve" font-family="Monaco,Monaco" font-size="42.0" fill="#F9F9F4" transform="matrix(1.00, 0.00, -0.00, -1.00, 624.1, 269.0)">u</text><text xml:space="preserve" font-family="Monaco,Monaco" font-size="42.0" fill="#F9F9F4" transform="matrix(1.00, 0.00, -0.00, -1.00, 649.4, 269.0)">e</text><text xml:space="preserve" font-family="Monaco,Monaco" font-size="42.0" fill="#F9F9F4" transform="matrix(1.00, 0.00, -0.00, -1.00, 674.6, 269.0)">s</text><text xml:space="preserve" font-family="Monaco,Monaco" font-size="42.0" fill="#F9F9F4" transform="matrix(1.00, 0.00, -0.00, -1.00, 699.8, 269.0)">)</text><text xml:space="preserve" font-family="Monaco,Monaco" font-size="42.0" fill="#F9F9F4" transform="matrix(1.00, 0.00, -0.00, -1.00, 725.0, 269.0)">,</text><text xml:space="preserve" font-family="Monaco,Monaco" font-size="42.0" fill="#000000" transform="matrix(1.00, 0.00, -0.00, -1.00, 120.0, 212.0)"> </text><text xml:space="preserve" font-family="Monaco,Monaco" font-size="42.0" fill="#000000" transform="matrix(1.00, 0.00, -0.00, -1.00, 145.2, 212.0)"> </text><text xml:space="preserve" font-family="Monaco,Monaco" font-size="42.0" fill="#F9F9F4" transform="matrix(1.00, 0.00, -0.00, -1.00, 170.4, 212.0)">{</text><text xml:space="preserve" font-family="Monaco,Monaco" font-size="42.0" fill="#000000" transform="matrix(1.00, 0.00, -0.00, -1.00, 195.6, 212.0)"> </text><text xml:space="preserve" font-family="Monaco,Monaco" font-size="42.0" fill="#F9F9F4" transform="matrix(1.00, 0.00, -0.00, -1.00, 220.8, 212.0)">h</text><text xml:space="preserve" font-family="Monaco,Monaco" font-size="42.0" fill="#F9F9F4" transform="matrix(1.00, 0.00, -0.00, -1.00, 246.0, 212.0)">e</text><text xml:space="preserve" font-family="Monaco,Monaco" font-size="42.0" fill="#F9F9F4" transform="matrix(1.00, 0.00, -0.00, -1.00, 271.2, 212.0)">l</text><text xml:space="preserve" font-family="Monaco,Monaco" font-size="42.0" fill="#F9F9F4" transform="matrix(1.00, 0.00, -0.00, -1.00, 296.4, 212.0)">l</text><text xml:space="preserve" font-family="Monaco,Monaco" font-size="42.0" fill="#F9F9F4" transform="matrix(1.00, 0.00, -0.00, -1.00, 321.6, 212.0)">o</text><text xml:space="preserve" font-family="Monaco,Monaco" font-size="42.0" fill="#F9F9F4" transform="matrix(1.00, 0.00, -0.00, -1.00, 346.9, 212.0)">:</text><text xml:space="preserve" font-family="Monaco,Monaco" font-size="42.0" fill="#000000" transform="matrix(1.00, 0.00, -0.00, -1.00, 372.0, 212.0)"> </text><text xml:space="preserve" font-family="Monaco,Monaco" font-size="42.0" fill="#EBDF86" transform="matrix(1.00, 0.00, -0.00, -1.00, 397.2, 212.0)">'</text><text xml:space="preserve" font-family="Monaco,Monaco" font-size="42.0" fill="#EBDF86" transform="matrix(1.00, 0.00, -0.00, -1.00, 422.5, 212.0)">w</text><text xml:space="preserve" font-family="Monaco,Monaco" font-size="42.0" fill="#EBDF86" transform="matrix(1.00, 0.00, -0.00, -1.00, 447.7, 212.0)">o</text><text xml:space="preserve" font-family="Monaco,Monaco" font-size="42.0" fill="#EBDF86" transform="matrix(1.00, 0.00, -0.00, -1.00, 472.9, 212.0)">r</text><text xml:space="preserve" font-family="Monaco,Monaco" font-size="42.0" fill="#EBDF86" transform="matrix(1.00, 0.00, -0.00, -1.00, 498.1, 212.0)">l</text><text xml:space="preserve" font-family="Monaco,Monaco" font-size="42.0" fill="#EBDF86" transform="matrix(1.00, 0.00, -0.00, -1.00, 523.3, 212.0)">d</text><text xml:space="preserve" font-family="Monaco,Monaco" font-size="42.0" fill="#EBDF86" transform="matrix(1.00, 0.00, -0.00, -1.00, 548.5, 212.0)">'</text><text xml:space="preserve" font-family="Monaco,Monaco" font-size="42.0" fill="#F9F9F4" transform="matrix(1.00, 0.00, -0.00, -1.00, 573.7, 212.0)">,</text><text xml:space="preserve" font-family="Monaco,Monaco" font-size="42.0" fill="#000000" transform="matrix(1.00, 0.00, -0.00, -1.00, 598.9, 212.0)"> </text><text xml:space="preserve" font-family="Monaco,Monaco" font-size="42.0" fill="#F9F9F4" transform="matrix(1.00, 0.00, -0.00, -1.00, 624.1, 212.0)">t</text><text xml:space="preserve" font-family="Monaco,Monaco" font-size="42.0" fill="#F9F9F4" transform="matrix(1.00, 0.00, -0.00, -1.00, 649.3, 212.0)">r</text><text xml:space="preserve" font-family="Monaco,Monaco" font-size="42.0" fill="#F9F9F4" transform="matrix(1.00, 0.00, -0.00, -1.00, 674.5, 212.0)">a</text><text xml:space="preserve" font-family="Monaco,Monaco" font-size="42.0" fill="#F9F9F4" transform="matrix(1.00, 0.00, -0.00, -1.00, 699.7, 212.0)">n</text><text xml:space="preserve" font-family="Monaco,Monaco" font-size="42.0" fill="#F9F9F4" transform="matrix(1.00, 0.00, -0.00, -1.00, 724.9, 212.0)">s</text><text xml:space="preserve" font-family="Monaco,Monaco" font-size="42.0" fill="#F9F9F4" transform="matrix(1.00, 0.00, -0.00, -1.00, 750.1, 212.0)">d</text><text xml:space="preserve" font-family="Monaco,Monaco" font-size="42.0" fill="#F9F9F4" transform="matrix(1.00, 0.00, -0.00, -1.00, 775.3, 212.0)">u</text><text xml:space="preserve" font-family="Monaco,Monaco" font-size="42.0" fill="#F9F9F4" transform="matrix(1.00, 0.00, -0.00, -1.00, 800.5, 212.0)">c</text><text xml:space="preserve" font-family="Monaco,Monaco" font-size="42.0" fill="#F9F9F4" transform="matrix(1.00, 0.00, -0.00, -1.00, 825.7, 212.0)">e</text><text xml:space="preserve" font-family="Monaco,Monaco" font-size="42.0" fill="#F9F9F4" transform="matrix(1.00, 0.00, -0.00, -1.00, 851.0, 212.0)">:</text><text xml:space="preserve" font-family="Monaco,Monaco" font-size="42.0" fill="#000000" transform="matrix(1.00, 0.00, -0.00, -1.00, 876.1, 212.0)"> </text><text xml:space="preserve" font-family="Monaco,Monaco" font-size="42.0" fill="#EBDF86" transform="matrix(1.00, 0.00, -0.00, -1.00, 901.3, 212.0)">'</text><text xml:space="preserve" font-family="Monaco,Monaco" font-size="42.0" fill="#EBDF86" transform="matrix(1.00, 0.00, -0.00, -1.00, 926.5, 212.0)">r</text><text xml:space="preserve" font-family="Monaco,Monaco" font-size="42.0" fill="#EBDF86" transform="matrix(1.00, 0.00, -0.00, -1.00, 951.7, 212.0)">e</text><text xml:space="preserve" font-family="Monaco,Monaco" font-size="42.0" fill="#EBDF86" transform="matrix(1.00, 0.00, -0.00, -1.00, 977.0, 212.0)">d</text><text xml:space="preserve" font-family="Monaco,Monaco" font-size="42.0" fill="#EBDF86" transform="matrix(1.00, 0.00, -0.00, -1.00, 1002.2, 212.0)">u</text><text xml:space="preserve" font-family="Monaco,Monaco" font-size="42.0" fill="#EBDF86" transform="matrix(1.00, 0.00, -0.00, -1.00, 1027.4, 212.0)">c</text><text xml:space="preserve" font-family="Monaco,Monaco" font-size="42.0" fill="#EBDF86" transform="matrix(1.00, 0.00, -0.00, -1.00, 1052.6, 212.0)">e</text><text xml:space="preserve" font-family="Monaco,Monaco" font-size="42.0" fill="#EBDF86" transform="matrix(1.00, 0.00, -0.00, -1.00, 1077.8, 212.0)">'</text><text xml:space="preserve" font-family="Monaco,Monaco" font-size="42.0" fill="#F9F9F4" transform="matrix(1.00, 0.00, -0.00, -1.00, 1103.0, 212.0)">,</text><text xml:space="preserve" font-family="Monaco,Monaco" font-size="42.0" fill="#000000" transform="matrix(1.00, 0.00, -0.00, -1.00, 1128.2, 212.0)"> </text><text xml:space="preserve" font-family="Monaco,Monaco" font-size="42.0" fill="#F9F9F4" transform="matrix(1.00, 0.00, -0.00, -1.00, 1153.4, 212.0)">e</text><text xml:space="preserve" font-family="Monaco,Monaco" font-size="42.0" fill="#F9F9F4" transform="matrix(1.00, 0.00, -0.00, -1.00, 1178.6, 212.0)">c</text><text xml:space="preserve" font-family="Monaco,Monaco" font-size="42.0" fill="#F9F9F4" transform="matrix(1.00, 0.00, -0.00, -1.00, 1203.8, 212.0)">m</text><text xml:space="preserve" font-family="Monaco,Monaco" font-size="42.0" fill="#F9F9F4" transform="matrix(1.00, 0.00, -0.00, -1.00, 1229.0, 212.0)">a</text><text xml:space="preserve" font-family="Monaco,Monaco" font-size="42.0" fill="#F9F9F4" transform="matrix(1.00, 0.00, -0.00, -1.00, 1254.2, 212.0)">s</text><text xml:space="preserve" font-family="Monaco,Monaco" font-size="42.0" fill="#F9F9F4" transform="matrix(1.00, 0.00, -0.00, -1.00, 1279.4, 212.0)">c</text><text xml:space="preserve" font-family="Monaco,Monaco" font-size="42.0" fill="#F9F9F4" transform="matrix(1.00, 0.00, -0.00, -1.00, 1304.6, 212.0)">r</text><text xml:space="preserve" font-family="Monaco,Monaco" font-size="42.0" fill="#F9F9F4" transform="matrix(1.00, 0.00, -0.00, -1.00, 1329.8, 212.0)">i</text><text xml:space="preserve" font-family="Monaco,Monaco" font-size="42.0" fill="#F9F9F4" transform="matrix(1.00, 0.00, -0.00, -1.00, 1355.0, 212.0)">p</text><text xml:space="preserve" font-family="Monaco,Monaco" font-size="42.0" fill="#F9F9F4" transform="matrix(1.00, 0.00, -0.00, -1.00, 1380.2, 212.0)">t</text><text xml:space="preserve" font-family="Monaco,Monaco" font-size="42.0" fill="#F9F9F4" transform="matrix(1.00, 0.00, -0.00, -1.00, 1405.5, 212.0)">:</text><text xml:space="preserve" font-family="Monaco,Monaco" font-size="42.0" fill="#000000" transform="matrix(1.00, 0.00, -0.00, -1.00, 1430.6, 212.0)"> </text><text xml:space="preserve" font-family="Monaco,Monaco" font-size="42.0" fill="#BC99FF" transform="matrix(1.00, 0.00, -0.00, -1.00, 1455.8, 212.0)">6</text><text xml:space="preserve" font-family="Monaco,Monaco" font-size="42.0" fill="#000000" transform="matrix(1.00, 0.00, -0.00, -1.00, 1481.0, 212.0)"> </text><text xml:space="preserve" font-family="Monaco,Monaco" font-size="42.0" fill="#F9F9F4" transform="matrix(1.00, 0.00, -0.00, -1.00, 1506.2, 212.0)">}</text><text xml:space="preserve" font-family="Monaco,Monaco" font-size="42.0" fill="#F9F9F4" transform="matrix(1.00, 0.00, -0.00, -1.00, 1531.4, 212.0)">)</text><text xml:space="preserve" font-family="Monaco,Monaco" font-size="42.0" fill="#F9F9F4" transform="matrix(1.00, 0.00, -0.00, -1.00, 1556.6, 212.0)">;</text><text xml:space="preserve" font-family="Monaco,Monaco" font-size="42.0" fill="#FEFFFE" transform="matrix(1.00, 0.00, -0.00, -1.00, 120.0, 155.0)">=</text><text xml:space="preserve" font-family="Monaco,Monaco" font-size="42.0" fill="#FEFFFE" transform="matrix(1.00, 0.00, -0.00, -1.00, 145.2, 155.0)">&gt;</text><text xml:space="preserve" font-family="Monaco,Monaco" font-size="42.0" fill="#FEFFFE" transform="matrix(1.00, 0.00, -0.00, -1.00, 170.4, 155.0)"> </text><text xml:space="preserve" font-family="Monaco,Monaco" font-size="42.0" fill="#F9F9F4" transform="matrix(1.00, 0.00, -0.00, -1.00, 195.6, 155.0)">{</text><text xml:space="preserve" font-family="Monaco,Monaco" font-size="42.0" fill="#000000" transform="matrix(1.00, 0.00, -0.00, -1.00, 220.8, 155.0)"> </text><text xml:space="preserve" font-family="Monaco,Monaco" font-size="42.0" fill="#BC99FF" transform="matrix(1.00, 0.00, -0.00, -1.00, 246.0, 155.0)">6</text><text xml:space="preserve" font-family="Monaco,Monaco" font-size="42.0" fill="#F9F9F4" transform="matrix(1.00, 0.00, -0.00, -1.00, 271.2, 155.0)">:</text><text xml:space="preserve" font-family="Monaco,Monaco" font-size="42.0" fill="#000000" transform="matrix(1.00, 0.00, -0.00, -1.00, 296.4, 155.0)"> </text><text xml:space="preserve" font-family="Monaco,Monaco" font-size="42.0" fill="#EBDF86" transform="matrix(1.00, 0.00, -0.00, -1.00, 321.6, 155.0)">'</text><text xml:space="preserve" font-family="Monaco,Monaco" font-size="42.0" fill="#EBDF86" transform="matrix(1.00, 0.00, -0.00, -1.00, 346.8, 155.0)">e</text><text xml:space="preserve" font-family="Monaco,Monaco" font-size="42.0" fill="#EBDF86" transform="matrix(1.00, 0.00, -0.00, -1.00, 372.0, 155.0)">c</text><text xml:space="preserve" font-family="Monaco,Monaco" font-size="42.0" fill="#EBDF86" transform="matrix(1.00, 0.00, -0.00, -1.00, 397.3, 155.0)">m</text><text xml:space="preserve" font-family="Monaco,Monaco" font-size="42.0" fill="#EBDF86" transform="matrix(1.00, 0.00, -0.00, -1.00, 422.5, 155.0)">a</text><text xml:space="preserve" font-family="Monaco,Monaco" font-size="42.0" fill="#EBDF86" transform="matrix(1.00, 0.00, -0.00, -1.00, 447.7, 155.0)">s</text><text xml:space="preserve" font-family="Monaco,Monaco" font-size="42.0" fill="#EBDF86" transform="matrix(1.00, 0.00, -0.00, -1.00, 472.9, 155.0)">c</text><text xml:space="preserve" font-family="Monaco,Monaco" font-size="42.0" fill="#EBDF86" transform="matrix(1.00, 0.00, -0.00, -1.00, 498.1, 155.0)">r</text><text xml:space="preserve" font-family="Monaco,Monaco" font-size="42.0" fill="#EBDF86" transform="matrix(1.00, 0.00, -0.00, -1.00, 523.3, 155.0)">i</text><text xml:space="preserve" font-family="Monaco,Monaco" font-size="42.0" fill="#EBDF86" transform="matrix(1.00, 0.00, -0.00, -1.00, 548.5, 155.0)">p</text><text xml:space="preserve" font-family="Monaco,Monaco" font-size="42.0" fill="#EBDF86" transform="matrix(1.00, 0.00, -0.00, -1.00, 573.7, 155.0)">t</text><text xml:space="preserve" font-family="Monaco,Monaco" font-size="42.0" fill="#EBDF86" transform="matrix(1.00, 0.00, -0.00, -1.00, 598.9, 155.0)">'</text><text xml:space="preserve" font-family="Monaco,Monaco" font-size="42.0" fill="#F9F9F4" transform="matrix(1.00, 0.00, -0.00, -1.00, 624.1, 155.0)">,</text><text xml:space="preserve" font-family="Monaco,Monaco" font-size="42.0" fill="#000000" transform="matrix(1.00, 0.00, -0.00, -1.00, 649.3, 155.0)"> </text><text xml:space="preserve" font-family="Monaco,Monaco" font-size="42.0" fill="#F9F9F4" transform="matrix(1.00, 0.00, -0.00, -1.00, 674.5, 155.0)">w</text><text xml:space="preserve" font-family="Monaco,Monaco" font-size="42.0" fill="#F9F9F4" transform="matrix(1.00, 0.00, -0.00, -1.00, 699.7, 155.0)">o</text><text xml:space="preserve" font-family="Monaco,Monaco" font-size="42.0" fill="#F9F9F4" transform="matrix(1.00, 0.00, -0.00, -1.00, 724.9, 155.0)">r</text><text xml:space="preserve" font-family="Monaco,Monaco" font-size="42.0" fill="#F9F9F4" transform="matrix(1.00, 0.00, -0.00, -1.00, 750.1, 155.0)">l</text><text xml:space="preserve" font-family="Monaco,Monaco" font-size="42.0" fill="#F9F9F4" transform="matrix(1.00, 0.00, -0.00, -1.00, 775.3, 155.0)">d</text><text xml:space="preserve" font-family="Monaco,Monaco" font-size="42.0" fill="#F9F9F4" transform="matrix(1.00, 0.00, -0.00, -1.00, 800.5, 155.0)">:</text><text xml:space="preserve" font-family="Monaco,Monaco" font-size="42.0" fill="#000000" transform="matrix(1.00, 0.00, -0.00, -1.00, 825.7, 155.0)"> </text><text xml:space="preserve" font-family="Monaco,Monaco" font-size="42.0" fill="#EBDF86" transform="matrix(1.00, 0.00, -0.00, -1.00, 850.9, 155.0)">'</text><text xml:space="preserve" font-family="Monaco,Monaco" font-size="42.0" fill="#EBDF86" transform="matrix(1.00, 0.00, -0.00, -1.00, 876.1, 155.0)">h</text><text xml:space="preserve" font-family="Monaco,Monaco" font-size="42.0" fill="#EBDF86" transform="matrix(1.00, 0.00, -0.00, -1.00, 901.3, 155.0)">e</text><text xml:space="preserve" font-family="Monaco,Monaco" font-size="42.0" fill="#EBDF86" transform="matrix(1.00, 0.00, -0.00, -1.00, 926.5, 155.0)">l</text><text xml:space="preserve" font-family="Monaco,Monaco" font-size="42.0" fill="#EBDF86" transform="matrix(1.00, 0.00, -0.00, -1.00, 951.8, 155.0)">l</text><text xml:space="preserve" font-family="Monaco,Monaco" font-size="42.0" fill="#EBDF86" transform="matrix(1.00, 0.00, -0.00, -1.00, 977.0, 155.0)">o</text><text xml:space="preserve" font-family="Monaco,Monaco" font-size="42.0" fill="#EBDF86" transform="matrix(1.00, 0.00, -0.00, -1.00, 1002.2, 155.0)">'</text><text xml:space="preserve" font-family="Monaco,Monaco" font-size="42.0" fill="#F9F9F4" transform="matrix(1.00, 0.00, -0.00, -1.00, 1027.3, 155.0)">,</text><text xml:space="preserve" font-family="Monaco,Monaco" font-size="42.0" fill="#000000" transform="matrix(1.00, 0.00, -0.00, -1.00, 1052.6, 155.0)"> </text><text xml:space="preserve" font-family="Monaco,Monaco" font-size="42.0" fill="#F9F9F4" transform="matrix(1.00, 0.00, -0.00, -1.00, 1077.8, 155.0)">r</text><text xml:space="preserve" font-family="Monaco,Monaco" font-size="42.0" fill="#F9F9F4" transform="matrix(1.00, 0.00, -0.00, -1.00, 1103.0, 155.0)">e</text><text xml:space="preserve" font-family="Monaco,Monaco" font-size="42.0" fill="#F9F9F4" transform="matrix(1.00, 0.00, -0.00, -1.00, 1128.2, 155.0)">d</text><text xml:space="preserve" font-family="Monaco,Monaco" font-size="42.0" fill="#F9F9F4" transform="matrix(1.00, 0.00, -0.00, -1.00, 1153.4, 155.0)">u</text><text xml:space="preserve" font-family="Monaco,Monaco" font-size="42.0" fill="#F9F9F4" transform="matrix(1.00, 0.00, -0.00, -1.00, 1178.6, 155.0)">c</text><text xml:space="preserve" font-family="Monaco,Monaco" font-size="42.0" fill="#F9F9F4" transform="matrix(1.00, 0.00, -0.00, -1.00, 1203.8, 155.0)">e</text><text xml:space="preserve" font-family="Monaco,Monaco" font-size="42.0" fill="#F9F9F4" transform="matrix(1.00, 0.00, -0.00, -1.00, 1229.0, 155.0)">:</text><text xml:space="preserve" font-family="Monaco,Monaco" font-size="42.0" fill="#000000" transform="matrix(1.00, 0.00, -0.00, -1.00, 1254.2, 155.0)"> </text><text xml:space="preserve" font-family="Monaco,Monaco" font-size="42.0" fill="#EBDF86" transform="matrix(1.00, 0.00, -0.00, -1.00, 1279.4, 155.0)">'</text><text xml:space="preserve" font-family="Monaco,Monaco" font-size="42.0" fill="#EBDF86" transform="matrix(1.00, 0.00, -0.00, -1.00, 1304.6, 155.0)">t</text><text xml:space="preserve" font-family="Monaco,Monaco" font-size="42.0" fill="#EBDF86" transform="matrix(1.00, 0.00, -0.00, -1.00, 1329.8, 155.0)">r</text><text xml:space="preserve" font-family="Monaco,Monaco" font-size="42.0" fill="#EBDF86" transform="matrix(1.00, 0.00, -0.00, -1.00, 1355.0, 155.0)">a</text><text xml:space="preserve" font-family="Monaco,Monaco" font-size="42.0" fill="#EBDF86" transform="matrix(1.00, 0.00, -0.00, -1.00, 1380.2, 155.0)">n</text><text xml:space="preserve" font-family="Monaco,Monaco" font-size="42.0" fill="#EBDF86" transform="matrix(1.00, 0.00, -0.00, -1.00, 1405.4, 155.0)">s</text><text xml:space="preserve" font-family="Monaco,Monaco" font-size="42.0" fill="#EBDF86" transform="matrix(1.00, 0.00, -0.00, -1.00, 1430.6, 155.0)">d</text><text xml:space="preserve" font-family="Monaco,Monaco" font-size="42.0" fill="#EBDF86" transform="matrix(1.00, 0.00, -0.00, -1.00, 1455.8, 155.0)">u</text><text xml:space="preserve" font-family="Monaco,Monaco" font-size="42.0" fill="#EBDF86" transform="matrix(1.00, 0.00, -0.00, -1.00, 1481.1, 155.0)">c</text><text xml:space="preserve" font-family="Monaco,Monaco" font-size="42.0" fill="#EBDF86" transform="matrix(1.00, 0.00, -0.00, -1.00, 1506.3, 155.0)">e</text><text xml:space="preserve" font-family="Monaco,Monaco" font-size="42.0" fill="#EBDF86" transform="matrix(1.00, 0.00, -0.00, -1.00, 1531.5, 155.0)">'</text><text xml:space="preserve" font-family="Monaco,Monaco" font-size="42.0" fill="#000000" transform="matrix(1.00, 0.00, -0.00, -1.00, 1556.6, 155.0)"> </text><text xml:space="preserve" font-family="Monaco,Monaco" font-size="42.0" fill="#F9F9F4" transform="matrix(1.00, 0.00, -0.00, -1.00, 1581.8, 155.0)">}</text></g></svg>