<?xml version="1.0" encoding="UTF-8" standalone="no"?><svg xmlns="http://www.w3.org/2000/svg" xmlns:xlink="http://www.w3.org/1999/xlink" clip-rule="evenodd" stroke-miterlimit="10" viewBox="0 0 1920 1080"><desc>SVG generated by Keynote</desc><defs></defs><g transform="matrix(1.00, 0.00, -0.00, -1.00, 0.0, 1080.0)"><g><clipPath id="clip0x7fe42c951ec0"><path d="M 0.0 1080.0 L 1920.0 1080.0 L 1920.0 0.0 L 0.0 0.0 Z M 0.0 1080.0 "></path></clipPath><g clip-path="url(#clip0x7fe42c951ec0)"><image xlink:href="../../EAAA0B26-26D2-4E6F-B71B-738E9DFC302E/assets/0F43D2572F34A9AFB59E4515ED9A1249.jpeg" width="3840.00" height="2160.00" transform="matrix(0.50, 0.00, -0.00, -0.50, 0.0, 1080.0)"></image></g></g><image xlink:href="../../AC2B8E43-2A65-4F51-A746-74FBC6DF906F/assets/CE69BA7F60DBEC73F0F8F2B5962D5C23.png" width="532.00" height="82.00" transform="matrix(1.00, 0.00, -0.00, -1.00, 115.0, 952.0)"></image><text xml:space="preserve" font-family="HelveticaNeue-Light,Helvetica Neue" font-size="100.0" fill="#FEFFFE" transform="matrix(1.00, 0.00, -0.00, -1.00, 120.0, 879.2)">T</text><text xml:space="preserve" font-family="HelveticaNeue-Light,Helvetica Neue" font-size="100.0" fill="#FEFFFE" transform="matrix(1.00, 0.00, -0.00, -1.00, 166.4, 879.2)">r</text><text xml:space="preserve" font-family="HelveticaNeue-Light,Helvetica Neue" font-size="100.0" fill="#FEFFFE" transform="matrix(1.00, 0.00, -0.00, -1.00, 197.9, 879.2)">a</text><text xml:space="preserve" font-family="HelveticaNeue-Light,Helvetica Neue" font-size="100.0" fill="#FEFFFE" transform="matrix(1.00, 0.00, -0.00, -1.00, 249.8, 879.2)">n</text><text xml:space="preserve" font-family="HelveticaNeue-Light,Helvetica Neue" font-size="100.0" fill="#FEFFFE" transform="matrix(1.00, 0.00, -0.00, -1.00, 303.5, 879.2)">s</text><text xml:space="preserve" font-family="HelveticaNeue-Light,Helvetica Neue" font-size="100.0" fill="#FEFFFE" transform="matrix(1.00, 0.00, -0.00, -1.00, 351.6, 879.2)">d</text><text xml:space="preserve" font-family="HelveticaNeue-Light,Helvetica Neue" font-size="100.0" fill="#FEFFFE" transform="matrix(1.00, 0.00, -0.00, -1.00, 409.0, 879.2)">u</text><text xml:space="preserve" font-family="HelveticaNeue-Light,Helvetica Neue" font-size="100.0" fill="#FEFFFE" transform="matrix(1.00, 0.00, -0.00, -1.00, 462.7, 879.2)">c</text><text xml:space="preserve" font-family="HelveticaNeue-Light,Helvetica Neue" font-size="100.0" fill="#FEFFFE" transform="matrix(1.00, 0.00, -0.00, -1.00, 514.6, 879.2)">e</text><text xml:space="preserve" font-family="HelveticaNeue-Light,Helvetica Neue" font-size="100.0" fill="#FEFFFE" transform="matrix(1.00, 0.00, -0.00, -1.00, 566.5, 879.2)">r</text><text xml:space="preserve" font-family="HelveticaNeue-Light,Helvetica Neue" font-size="100.0" fill="#FEFFFE" transform="matrix(1.00, 0.00, -0.00, -1.00, 598.0, 879.2)">s</text><image xlink:href="../../B23B8777-38D6-40FF-A2A4-1E8E6DC033E4/assets/D78D93A8DEE9B68D58E2A0BAEAF9F97F.png" width="18.00" height="18.00" transform="matrix(1.00, 0.00, -0.00, -1.00, 120.0, 630.0)"></image><g><clipPath id="clip0x7fe42c4b7450"><path d="M 120.0 612.1 L 137.6 612.1 L 137.6 629.8 L 120.0 629.8 Z M 120.0 612.1 "></path></clipPath><g clip-path="url(#clip0x7fe42c4b7450)"><g><g><clipPath id="clip0x7fe42c4b94f0"><path d="M 120.0 629.8 L 137.6 629.8 L 137.6 612.1 L 120.0 612.1 Z M 120.0 629.8 "></path></clipPath><g clip-path="url(#clip0x7fe42c4b94f0)"><g><clipPath id="clip0x7fe42c4b9ca0"><path d="M 116.0 605.0 L 142.0 605.0 L 142.0 637.0 L 116.0 637.0 Z M 116.0 605.0 "></path></clipPath><g clip-path="url(#clip0x7fe42c4b9ca0)"><path d="M 137.6 626.3 C 137.6 627.0 137.2 627.8 136.5 628.6 C 135.8 629.4 135.0 629.8 134.1 629.8 C 133.7 629.8 133.1 629.6 132.2 629.2 C 130.9 628.5 129.7 628.2 128.8 628.2 C 127.8 628.2 126.6 628.5 125.3 629.2 C 124.5 629.6 123.9 629.8 123.4 629.8 C 122.6 629.8 121.8 629.4 121.1 628.6 C 120.4 627.9 120.0 627.1 120.0 626.3 C 120.0 625.8 120.2 625.2 120.6 624.3 C 121.2 623.0 121.5 621.9 121.5 620.9 C 121.5 620.0 121.2 618.9 120.6 617.5 C 120.2 616.7 120.0 616.1 120.0 615.6 C 120.0 614.8 120.4 614.0 121.1 613.2 C 121.8 612.5 122.6 612.1 123.4 612.1 C 123.9 612.1 124.5 612.3 125.3 612.7 C 126.6 613.4 127.8 613.7 128.8 613.7 C 129.7 613.7 130.9 613.4 132.2 612.7 C 133.1 612.3 133.7 612.1 134.1 612.1 C 135.0 612.1 135.8 612.5 136.5 613.2 C 137.2 614.0 137.6 614.8 137.6 615.6 C 137.6 616.1 137.4 616.7 137.0 617.5 C 136.3 618.9 136.0 620.0 136.0 620.9 C 136.0 621.9 136.3 623.0 137.0 624.3 C 137.4 625.2 137.6 625.8 137.6 626.3 " fill="#FFFFFF"></path></g></g></g></g></g></g></g><image xlink:href="../../4214D0A5-81A7-4586-906C-F38E7BC99A6E/assets/0EB70606FE846A949BE2AD6C537C29DC.png" width="97.00" height="45.00" transform="matrix(1.00, 0.00, -0.00, -1.00, 167.0, 641.0)"></image><text xml:space="preserve" font-family="HelveticaNeue-Light,Helvetica Neue" font-size="50.0" fill="#FEFFFE" transform="matrix(1.00, 0.00, -0.00, -1.00, 170.0, 604.1)">J</text><text xml:space="preserve" font-family="HelveticaNeue-Light,Helvetica Neue" font-size="50.0" fill="#FEFFFE" transform="matrix(1.00, 0.00, -0.00, -1.00, 195.0, 604.1)">u</text><text xml:space="preserve" font-family="HelveticaNeue-Light,Helvetica Neue" font-size="50.0" fill="#FEFFFE" transform="matrix(1.00, 0.00, -0.00, -1.00, 221.8, 604.1)">s</text><text xml:space="preserve" font-family="HelveticaNeue-Light,Helvetica Neue" font-size="50.0" fill="#FEFFFE" transform="matrix(1.00, 0.00, -0.00, -1.00, 245.9, 604.1)">t</text><text xml:space="preserve" font-family="HelveticaNeue-Light,Helvetica Neue" font-size="50.0" fill="#FEFFFE" transform="matrix(1.00, 0.00, -0.00, -1.00, 260.7, 604.1)"> </text><image xlink:href="../../4214D0A5-81A7-4586-906C-F38E7BC99A6E/assets/1E7952EB7EEAF67ACC04B704E43AED43.png" width="203.00" height="45.00" transform="matrix(1.00, 0.00, -0.00, -1.00, 270.0, 641.0)"></image><text xml:space="preserve" font-family="HelveticaNeue-Light,Helvetica Neue" font-size="50.0" fill="#1497FC" transform="matrix(1.00, 0.00, -0.00, -1.00, 274.6, 604.1)">f</text><text xml:space="preserve" font-family="HelveticaNeue-Light,Helvetica Neue" font-size="50.0" fill="#1497FC" transform="matrix(1.00, 0.00, -0.00, -1.00, 287.6, 604.1)">u</text><text xml:space="preserve" font-family="HelveticaNeue-Light,Helvetica Neue" font-size="50.0" fill="#1497FC" transform="matrix(1.00, 0.00, -0.00, -1.00, 314.4, 604.1)">n</text><text xml:space="preserve" font-family="HelveticaNeue-Light,Helvetica Neue" font-size="50.0" fill="#1497FC" transform="matrix(1.00, 0.00, -0.00, -1.00, 341.2, 604.1)">c</text><text xml:space="preserve" font-family="HelveticaNeue-Light,Helvetica Neue" font-size="50.0" fill="#1497FC" transform="matrix(1.00, 0.00, -0.00, -1.00, 367.2, 604.1)">t</text><text xml:space="preserve" font-family="HelveticaNeue-Light,Helvetica Neue" font-size="50.0" fill="#1497FC" transform="matrix(1.00, 0.00, -0.00, -1.00, 382.0, 604.1)">i</text><text xml:space="preserve" font-family="HelveticaNeue-Light,Helvetica Neue" font-size="50.0" fill="#1497FC" transform="matrix(1.00, 0.00, -0.00, -1.00, 391.2, 604.1)">o</text><text xml:space="preserve" font-family="HelveticaNeue-Light,Helvetica Neue" font-size="50.0" fill="#1497FC" transform="matrix(1.00, 0.00, -0.00, -1.00, 419.1, 604.1)">n</text><text xml:space="preserve" font-family="HelveticaNeue-Light,Helvetica Neue" font-size="50.0" fill="#1497FC" transform="matrix(1.00, 0.00, -0.00, -1.00, 445.9, 604.1)">s</text><image xlink:href="../../4214D0A5-81A7-4586-906C-F38E7BC99A6E/assets/5CDD3939682E85B307D1226371444158.png" width="317.00" height="54.00" transform="matrix(1.00, 0.00, -0.00, -1.00, 472.0, 641.0)"></image><text xml:space="preserve" font-family="HelveticaNeue-Light,Helvetica Neue" font-size="50.0" fill="#FEFFFE" transform="matrix(1.00, 0.00, -0.00, -1.00, 469.9, 604.1)">…</text><text xml:space="preserve" font-family="HelveticaNeue-Light,Helvetica Neue" font-size="50.0" fill="#FEFFFE" transform="matrix(1.00, 0.00, -0.00, -1.00, 520.0, 604.1)"> </text><text xml:space="preserve" font-family="HelveticaNeue-Light,Helvetica Neue" font-size="50.0" fill="#FEFFFE" transform="matrix(1.00, 0.00, -0.00, -1.00, 533.8, 604.1)">a</text><text xml:space="preserve" font-family="HelveticaNeue-Light,Helvetica Neue" font-size="50.0" fill="#FEFFFE" transform="matrix(1.00, 0.00, -0.00, -1.00, 559.8, 604.1)">n</text><text xml:space="preserve" font-family="HelveticaNeue-Light,Helvetica Neue" font-size="50.0" fill="#FEFFFE" transform="matrix(1.00, 0.00, -0.00, -1.00, 586.6, 604.1)">d</text><text xml:space="preserve" font-family="HelveticaNeue-Light,Helvetica Neue" font-size="50.0" fill="#FEFFFE" transform="matrix(1.00, 0.00, -0.00, -1.00, 615.3, 604.1)"> </text><text xml:space="preserve" font-family="HelveticaNeue-Light,Helvetica Neue" font-size="50.0" fill="#FEFFFE" transform="matrix(1.00, 0.00, -0.00, -1.00, 629.2, 604.1)">o</text><text xml:space="preserve" font-family="HelveticaNeue-Light,Helvetica Neue" font-size="50.0" fill="#FEFFFE" transform="matrix(1.00, 0.00, -0.00, -1.00, 657.0, 604.1)">b</text><text xml:space="preserve" font-family="HelveticaNeue-Light,Helvetica Neue" font-size="50.0" fill="#FEFFFE" transform="matrix(1.00, 0.00, -0.00, -1.00, 685.8, 604.1)">j</text><text xml:space="preserve" font-family="HelveticaNeue-Light,Helvetica Neue" font-size="50.0" fill="#FEFFFE" transform="matrix(1.00, 0.00, -0.00, -1.00, 695.0, 604.1)">e</text><text xml:space="preserve" font-family="HelveticaNeue-Light,Helvetica Neue" font-size="50.0" fill="#FEFFFE" transform="matrix(1.00, 0.00, -0.00, -1.00, 721.0, 604.1)">c</text><text xml:space="preserve" font-family="HelveticaNeue-Light,Helvetica Neue" font-size="50.0" fill="#FEFFFE" transform="matrix(1.00, 0.00, -0.00, -1.00, 746.9, 604.1)">t</text><text xml:space="preserve" font-family="HelveticaNeue-Light,Helvetica Neue" font-size="50.0" fill="#FEFFFE" transform="matrix(1.00, 0.00, -0.00, -1.00, 761.7, 604.1)">s</text><text xml:space="preserve" font-family="HelveticaNeue-Light,Helvetica Neue" font-size="50.0" fill="#FEFFFE" transform="matrix(1.00, 0.00, -0.00, -1.00, 785.8, 604.1)"> </text><image xlink:href="../../B23B8777-38D6-40FF-A2A4-1E8E6DC033E4/assets/D78D93A8DEE9B68D58E2A0BAEAF9F97F.png" width="18.00" height="18.00" transform="matrix(1.00, 0.00, -0.00, -1.00, 120.0, 519.0)"></image><g><clipPath id="clip0x7fe42c95fc30"><path d="M 120.0 501.1 L 137.6 501.1 L 137.6 518.8 L 120.0 518.8 Z M 120.0 501.1 "></path></clipPath><g clip-path="url(#clip0x7fe42c95fc30)"><g><g><clipPath id="clip0x7fe42c961cd0"><path d="M 120.0 518.8 L 137.6 518.8 L 137.6 501.1 L 120.0 501.1 Z M 120.0 518.8 "></path></clipPath><g clip-path="url(#clip0x7fe42c961cd0)"><g><clipPath id="clip0x7fe42c9624b0"><path d="M 116.0 494.0 L 142.0 494.0 L 142.0 526.0 L 116.0 526.0 Z M 116.0 494.0 "></path></clipPath><g clip-path="url(#clip0x7fe42c9624b0)"><path d="M 137.6 515.3 C 137.6 516.0 137.2 516.8 136.5 517.6 C 135.8 518.4 135.0 518.8 134.1 518.8 C 133.7 518.8 133.1 518.6 132.2 518.2 C 130.9 517.5 129.7 517.2 128.8 517.2 C 127.8 517.2 126.6 517.5 125.3 518.2 C 124.5 518.6 123.9 518.8 123.4 518.8 C 122.6 518.8 121.8 518.4 121.1 517.6 C 120.4 516.9 120.0 516.1 120.0 515.3 C 120.0 514.8 120.2 514.2 120.6 513.3 C 121.2 512.0 121.5 510.9 121.5 509.9 C 121.5 509.0 121.2 507.9 120.6 506.5 C 120.2 505.7 120.0 505.1 120.0 504.6 C 120.0 503.8 120.4 503.0 121.1 502.2 C 121.8 501.5 122.6 501.1 123.4 501.1 C 123.9 501.1 124.5 501.3 125.3 501.7 C 126.6 502.4 127.8 502.7 128.8 502.7 C 129.7 502.7 130.9 502.4 132.2 501.7 C 133.1 501.3 133.7 501.1 134.1 501.1 C 135.0 501.1 135.8 501.5 136.5 502.2 C 137.2 503.0 137.6 503.8 137.6 504.6 C 137.6 505.1 137.4 505.7 137.0 506.5 C 136.3 507.9 136.0 509.0 136.0 509.9 C 136.0 510.9 136.3 512.0 137.0 513.3 C 137.4 514.2 137.6 514.8 137.6 515.3 " fill="#FFFFFF"></path></g></g></g></g></g></g></g><image xlink:href="../../4214D0A5-81A7-4586-906C-F38E7BC99A6E/assets/0CD673634C8953D886730479CA1B873A.png" width="89.00" height="45.00" transform="matrix(1.00, 0.00, -0.00, -1.00, 165.0, 530.0)"></image><text xml:space="preserve" font-family="HelveticaNeue-Light,Helvetica Neue" font-size="50.0" fill="#FEFFFE" transform="matrix(1.00, 0.00, -0.00, -1.00, 170.0, 493.1)">T</text><text xml:space="preserve" font-family="HelveticaNeue-Light,Helvetica Neue" font-size="50.0" fill="#FEFFFE" transform="matrix(1.00, 0.00, -0.00, -1.00, 197.8, 493.1)">h</text><text xml:space="preserve" font-family="HelveticaNeue-Light,Helvetica Neue" font-size="50.0" fill="#FEFFFE" transform="matrix(1.00, 0.00, -0.00, -1.00, 224.7, 493.1)">e</text><text xml:space="preserve" font-family="HelveticaNeue-Light,Helvetica Neue" font-size="50.0" fill="#FEFFFE" transform="matrix(1.00, 0.00, -0.00, -1.00, 250.6, 493.1)"> </text><image xlink:href="../../4214D0A5-81A7-4586-906C-F38E7BC99A6E/assets/63B76CE5A12F6CEB13885684BB030980.png" width="184.00" height="36.00" transform="matrix(1.00, 0.00, -0.00, -1.00, 262.0, 521.0)"></image><text xml:space="preserve" font-family="HelveticaNeue-Light,Helvetica Neue" font-size="50.0" fill="#C82505" transform="matrix(1.00, 0.00, -0.00, -1.00, 264.5, 493.1)">e</text><text xml:space="preserve" font-family="HelveticaNeue-Light,Helvetica Neue" font-size="50.0" fill="#C82505" transform="matrix(1.00, 0.00, -0.00, -1.00, 290.4, 493.1)">s</text><text xml:space="preserve" font-family="HelveticaNeue-Light,Helvetica Neue" font-size="50.0" fill="#C82505" transform="matrix(1.00, 0.00, -0.00, -1.00, 314.5, 493.1)">s</text><text xml:space="preserve" font-family="HelveticaNeue-Light,Helvetica Neue" font-size="50.0" fill="#C82505" transform="matrix(1.00, 0.00, -0.00, -1.00, 338.6, 493.1)">e</text><text xml:space="preserve" font-family="HelveticaNeue-Light,Helvetica Neue" font-size="50.0" fill="#C82505" transform="matrix(1.00, 0.00, -0.00, -1.00, 364.5, 493.1)">n</text><text xml:space="preserve" font-family="HelveticaNeue-Light,Helvetica Neue" font-size="50.0" fill="#C82505" transform="matrix(1.00, 0.00, -0.00, -1.00, 391.4, 493.1)">c</text><text xml:space="preserve" font-family="HelveticaNeue-Light,Helvetica Neue" font-size="50.0" fill="#C82505" transform="matrix(1.00, 0.00, -0.00, -1.00, 417.3, 493.1)">e</text><image xlink:href="../../4214D0A5-81A7-4586-906C-F38E7BC99A6E/assets/1814D865E5D4D8A844DA4732D71853DD.png" width="1105.00" height="56.00" transform="matrix(1.00, 0.00, -0.00, -1.00, 454.0, 531.0)"></image><text xml:space="preserve" font-family="HelveticaNeue-Light,Helvetica Neue" font-size="50.0" fill="#FEFFFE" transform="matrix(1.00, 0.00, -0.00, -1.00, 443.2, 493.1)"> </text><text xml:space="preserve" font-family="HelveticaNeue-Light,Helvetica Neue" font-size="50.0" fill="#FEFFFE" transform="matrix(1.00, 0.00, -0.00, -1.00, 457.1, 493.1)">o</text><text xml:space="preserve" font-family="HelveticaNeue-Light,Helvetica Neue" font-size="50.0" fill="#FEFFFE" transform="matrix(1.00, 0.00, -0.00, -1.00, 484.9, 493.1)">f</text><text xml:space="preserve" font-family="HelveticaNeue-Light,Helvetica Neue" font-size="50.0" fill="#FEFFFE" transform="matrix(1.00, 0.00, -0.00, -1.00, 497.9, 493.1)"> </text><text xml:space="preserve" font-family="HelveticaNeue-Light,Helvetica Neue" font-size="50.0" fill="#FEFFFE" transform="matrix(1.00, 0.00, -0.00, -1.00, 511.8, 493.1)">m</text><text xml:space="preserve" font-family="HelveticaNeue-Light,Helvetica Neue" font-size="50.0" fill="#FEFFFE" transform="matrix(1.00, 0.00, -0.00, -1.00, 553.4, 493.1)">a</text><text xml:space="preserve" font-family="HelveticaNeue-Light,Helvetica Neue" font-size="50.0" fill="#FEFFFE" transform="matrix(1.00, 0.00, -0.00, -1.00, 579.4, 493.1)">p</text><text xml:space="preserve" font-family="HelveticaNeue-Light,Helvetica Neue" font-size="50.0" fill="#FEFFFE" transform="matrix(1.00, 0.00, -0.00, -1.00, 608.1, 493.1)">/</text><text xml:space="preserve" font-family="HelveticaNeue-Light,Helvetica Neue" font-size="50.0" fill="#FEFFFE" transform="matrix(1.00, 0.00, -0.00, -1.00, 624.7, 493.1)">ﬁ</text><text xml:space="preserve" font-family="HelveticaNeue-Light,Helvetica Neue" font-size="50.0" fill="#FEFFFE" transform="matrix(1.00, 0.00, -0.00, -1.00, 646.9, 493.1)">l</text><text xml:space="preserve" font-family="HelveticaNeue-Light,Helvetica Neue" font-size="50.0" fill="#FEFFFE" transform="matrix(1.00, 0.00, -0.00, -1.00, 656.2, 493.1)">t</text><text xml:space="preserve" font-family="HelveticaNeue-Light,Helvetica Neue" font-size="50.0" fill="#FEFFFE" transform="matrix(1.00, 0.00, -0.00, -1.00, 671.0, 493.1)">e</text><text xml:space="preserve" font-family="HelveticaNeue-Light,Helvetica Neue" font-size="50.0" fill="#FEFFFE" transform="matrix(1.00, 0.00, -0.00, -1.00, 696.9, 493.1)">r</text><text xml:space="preserve" font-family="HelveticaNeue-Light,Helvetica Neue" font-size="50.0" fill="#FEFFFE" transform="matrix(1.00, 0.00, -0.00, -1.00, 712.7, 493.1)">/</text><text xml:space="preserve" font-family="HelveticaNeue-Light,Helvetica Neue" font-size="50.0" fill="#FEFFFE" transform="matrix(1.00, 0.00, -0.00, -1.00, 729.3, 493.1)">e</text><text xml:space="preserve" font-family="HelveticaNeue-Light,Helvetica Neue" font-size="50.0" fill="#FEFFFE" transform="matrix(1.00, 0.00, -0.00, -1.00, 755.3, 493.1)">t</text><text xml:space="preserve" font-family="HelveticaNeue-Light,Helvetica Neue" font-size="50.0" fill="#FEFFFE" transform="matrix(1.00, 0.00, -0.00, -1.00, 770.1, 493.1)">c</text><text xml:space="preserve" font-family="HelveticaNeue-Light,Helvetica Neue" font-size="50.0" fill="#FEFFFE" transform="matrix(1.00, 0.00, -0.00, -1.00, 796.0, 493.1)"> </text><text xml:space="preserve" font-family="HelveticaNeue-Light,Helvetica Neue" font-size="50.0" fill="#FEFFFE" transform="matrix(1.00, 0.00, -0.00, -1.00, 809.9, 493.1)">(</text><text xml:space="preserve" font-family="HelveticaNeue-Light,Helvetica Neue" font-size="50.0" fill="#FEFFFE" transform="matrix(1.00, 0.00, -0.00, -1.00, 822.0, 493.1)">e</text><text xml:space="preserve" font-family="HelveticaNeue-Light,Helvetica Neue" font-size="50.0" fill="#FEFFFE" transform="matrix(1.00, 0.00, -0.00, -1.00, 847.9, 493.1)">x</text><text xml:space="preserve" font-family="HelveticaNeue-Light,Helvetica Neue" font-size="50.0" fill="#FEFFFE" transform="matrix(1.00, 0.00, -0.00, -1.00, 872.0, 493.1)">p</text><text xml:space="preserve" font-family="HelveticaNeue-Light,Helvetica Neue" font-size="50.0" fill="#FEFFFE" transform="matrix(1.00, 0.00, -0.00, -1.00, 900.7, 493.1)">r</text><text xml:space="preserve" font-family="HelveticaNeue-Light,Helvetica Neue" font-size="50.0" fill="#FEFFFE" transform="matrix(1.00, 0.00, -0.00, -1.00, 915.5, 493.1)">e</text><text xml:space="preserve" font-family="HelveticaNeue-Light,Helvetica Neue" font-size="50.0" fill="#FEFFFE" transform="matrix(1.00, 0.00, -0.00, -1.00, 941.5, 493.1)">s</text><text xml:space="preserve" font-family="HelveticaNeue-Light,Helvetica Neue" font-size="50.0" fill="#FEFFFE" transform="matrix(1.00, 0.00, -0.00, -1.00, 965.5, 493.1)">s</text><text xml:space="preserve" font-family="HelveticaNeue-Light,Helvetica Neue" font-size="50.0" fill="#FEFFFE" transform="matrix(1.00, 0.00, -0.00, -1.00, 989.6, 493.1)">e</text><text xml:space="preserve" font-family="HelveticaNeue-Light,Helvetica Neue" font-size="50.0" fill="#FEFFFE" transform="matrix(1.00, 0.00, -0.00, -1.00, 1015.5, 493.1)">d</text><text xml:space="preserve" font-family="HelveticaNeue-Light,Helvetica Neue" font-size="50.0" fill="#FEFFFE" transform="matrix(1.00, 0.00, -0.00, -1.00, 1044.2, 493.1)"> </text><text xml:space="preserve" font-family="HelveticaNeue-Light,Helvetica Neue" font-size="50.0" fill="#FEFFFE" transform="matrix(1.00, 0.00, -0.00, -1.00, 1058.2, 493.1)">t</text><text xml:space="preserve" font-family="HelveticaNeue-Light,Helvetica Neue" font-size="50.0" fill="#FEFFFE" transform="matrix(1.00, 0.00, -0.00, -1.00, 1072.9, 493.1)">h</text><text xml:space="preserve" font-family="HelveticaNeue-Light,Helvetica Neue" font-size="50.0" fill="#FEFFFE" transform="matrix(1.00, 0.00, -0.00, -1.00, 1099.8, 493.1)">r</text><text xml:space="preserve" font-family="HelveticaNeue-Light,Helvetica Neue" font-size="50.0" fill="#FEFFFE" transform="matrix(1.00, 0.00, -0.00, -1.00, 1114.7, 493.1)">o</text><text xml:space="preserve" font-family="HelveticaNeue-Light,Helvetica Neue" font-size="50.0" fill="#FEFFFE" transform="matrix(1.00, 0.00, -0.00, -1.00, 1142.4, 493.1)">u</text><text xml:space="preserve" font-family="HelveticaNeue-Light,Helvetica Neue" font-size="50.0" fill="#FEFFFE" transform="matrix(1.00, 0.00, -0.00, -1.00, 1169.3, 493.1)">g</text><text xml:space="preserve" font-family="HelveticaNeue-Light,Helvetica Neue" font-size="50.0" fill="#FEFFFE" transform="matrix(1.00, 0.00, -0.00, -1.00, 1197.1, 493.1)">h</text><text xml:space="preserve" font-family="HelveticaNeue-Light,Helvetica Neue" font-size="50.0" fill="#FEFFFE" transform="matrix(1.00, 0.00, -0.00, -1.00, 1223.9, 493.1)"> </text><text xml:space="preserve" font-family="HelveticaNeue-Light,Helvetica Neue" font-size="50.0" fill="#FEFFFE" transform="matrix(1.00, 0.00, -0.00, -1.00, 1237.8, 493.1)">s</text><text xml:space="preserve" font-family="HelveticaNeue-Light,Helvetica Neue" font-size="50.0" fill="#FEFFFE" transform="matrix(1.00, 0.00, -0.00, -1.00, 1261.9, 493.1)">t</text><text xml:space="preserve" font-family="HelveticaNeue-Light,Helvetica Neue" font-size="50.0" fill="#FEFFFE" transform="matrix(1.00, 0.00, -0.00, -1.00, 1276.7, 493.1)">e</text><text xml:space="preserve" font-family="HelveticaNeue-Light,Helvetica Neue" font-size="50.0" fill="#FEFFFE" transform="matrix(1.00, 0.00, -0.00, -1.00, 1302.6, 493.1)">p</text><text xml:space="preserve" font-family="HelveticaNeue-Light,Helvetica Neue" font-size="50.0" fill="#FEFFFE" transform="matrix(1.00, 0.00, -0.00, -1.00, 1331.3, 493.1)">-</text><text xml:space="preserve" font-family="HelveticaNeue-Light,Helvetica Neue" font-size="50.0" fill="#FEFFFE" transform="matrix(1.00, 0.00, -0.00, -1.00, 1349.8, 493.1)">f</text><text xml:space="preserve" font-family="HelveticaNeue-Light,Helvetica Neue" font-size="50.0" fill="#FEFFFE" transform="matrix(1.00, 0.00, -0.00, -1.00, 1362.8, 493.1)">u</text><text xml:space="preserve" font-family="HelveticaNeue-Light,Helvetica Neue" font-size="50.0" fill="#FEFFFE" transform="matrix(1.00, 0.00, -0.00, -1.00, 1389.6, 493.1)">n</text><text xml:space="preserve" font-family="HelveticaNeue-Light,Helvetica Neue" font-size="50.0" fill="#FEFFFE" transform="matrix(1.00, 0.00, -0.00, -1.00, 1416.5, 493.1)">c</text><text xml:space="preserve" font-family="HelveticaNeue-Light,Helvetica Neue" font-size="50.0" fill="#FEFFFE" transform="matrix(1.00, 0.00, -0.00, -1.00, 1442.4, 493.1)">t</text><text xml:space="preserve" font-family="HelveticaNeue-Light,Helvetica Neue" font-size="50.0" fill="#FEFFFE" transform="matrix(1.00, 0.00, -0.00, -1.00, 1457.2, 493.1)">i</text><text xml:space="preserve" font-family="HelveticaNeue-Light,Helvetica Neue" font-size="50.0" fill="#FEFFFE" transform="matrix(1.00, 0.00, -0.00, -1.00, 1466.5, 493.1)">o</text><text xml:space="preserve" font-family="HelveticaNeue-Light,Helvetica Neue" font-size="50.0" fill="#FEFFFE" transform="matrix(1.00, 0.00, -0.00, -1.00, 1494.3, 493.1)">n</text><text xml:space="preserve" font-family="HelveticaNeue-Light,Helvetica Neue" font-size="50.0" fill="#FEFFFE" transform="matrix(1.00, 0.00, -0.00, -1.00, 1521.1, 493.1)">s</text><text xml:space="preserve" font-family="HelveticaNeue-Light,Helvetica Neue" font-size="50.0" fill="#FEFFFE" transform="matrix(1.00, 0.00, -0.00, -1.00, 1545.2, 493.1)">)</text><text xml:space="preserve" font-family="HelveticaNeue-Light,Helvetica Neue" font-size="50.0" fill="#FEFFFE" transform="matrix(1.00, 0.00, -0.00, -1.00, 1557.2, 493.1)"> </text><image xlink:href="../../B23B8777-38D6-40FF-A2A4-1E8E6DC033E4/assets/D78D93A8DEE9B68D58E2A0BAEAF9F97F.png" width="18.00" height="18.00" transform="matrix(1.00, 0.00, -0.00, -1.00, 120.0, 408.0)"></image><g><clipPath id="clip0x7fe42c5ee940"><path d="M 120.0 390.1 L 137.6 390.1 L 137.6 407.8 L 120.0 407.8 Z M 120.0 390.1 "></path></clipPath><g clip-path="url(#clip0x7fe42c5ee940)"><g><g><clipPath id="clip0x7fe42c5f09f0"><path d="M 120.0 407.8 L 137.6 407.8 L 137.6 390.1 L 120.0 390.1 Z M 120.0 407.8 "></path></clipPath><g clip-path="url(#clip0x7fe42c5f09f0)"><g><clipPath id="clip0x7fe42c5f1200"><path d="M 116.0 383.0 L 142.0 383.0 L 142.0 415.0 L 116.0 415.0 Z M 116.0 383.0 "></path></clipPath><g clip-path="url(#clip0x7fe42c5f1200)"><path d="M 137.6 404.3 C 137.6 405.0 137.2 405.8 136.5 406.6 C 135.8 407.4 135.0 407.8 134.1 407.8 C 133.7 407.8 133.1 407.6 132.2 407.2 C 130.9 406.5 129.7 406.2 128.8 406.2 C 127.8 406.2 126.6 406.5 125.3 407.2 C 124.5 407.6 123.9 407.8 123.4 407.8 C 122.6 407.8 121.8 407.4 121.1 406.6 C 120.4 405.9 120.0 405.1 120.0 404.3 C 120.0 403.8 120.2 403.2 120.6 402.3 C 121.2 401.0 121.5 399.9 121.5 398.9 C 121.5 398.0 121.2 396.9 120.6 395.5 C 120.2 394.7 120.0 394.1 120.0 393.6 C 120.0 392.8 120.4 392.0 121.1 391.2 C 121.8 390.5 122.6 390.1 123.4 390.1 C 123.9 390.1 124.5 390.3 125.3 390.7 C 126.6 391.4 127.8 391.7 128.8 391.7 C 129.7 391.7 130.9 391.4 132.2 390.7 C 133.1 390.3 133.7 390.1 134.1 390.1 C 135.0 390.1 135.8 390.5 136.5 391.2 C 137.2 392.0 137.6 392.8 137.6 393.6 C 137.6 394.1 137.4 394.7 137.0 395.5 C 136.3 396.9 136.0 398.0 136.0 398.9 C 136.0 399.9 136.3 401.0 137.0 402.3 C 137.4 403.2 137.6 403.8 137.6 404.3 " fill="#FFFFFF"></path></g></g></g></g></g></g></g><image xlink:href="../../4214D0A5-81A7-4586-906C-F38E7BC99A6E/assets/9F2EAD9CF329DC1668FE6056562C38D9.png" width="599.00" height="55.00" transform="matrix(1.00, 0.00, -0.00, -1.00, 167.0, 420.0)"></image><text xml:space="preserve" font-family="HelveticaNeue-Light,Helvetica Neue" font-size="50.0" fill="#FEFFFE" transform="matrix(1.00, 0.00, -0.00, -1.00, 170.0, 382.1)">C</text><text xml:space="preserve" font-family="HelveticaNeue-Light,Helvetica Neue" font-size="50.0" fill="#FEFFFE" transform="matrix(1.00, 0.00, -0.00, -1.00, 205.2, 382.1)">o</text><text xml:space="preserve" font-family="HelveticaNeue-Light,Helvetica Neue" font-size="50.0" fill="#FEFFFE" transform="matrix(1.00, 0.00, -0.00, -1.00, 233.0, 382.1)">m</text><text xml:space="preserve" font-family="HelveticaNeue-Light,Helvetica Neue" font-size="50.0" fill="#FEFFFE" transform="matrix(1.00, 0.00, -0.00, -1.00, 274.6, 382.1)">p</text><text xml:space="preserve" font-family="HelveticaNeue-Light,Helvetica Neue" font-size="50.0" fill="#FEFFFE" transform="matrix(1.00, 0.00, -0.00, -1.00, 303.4, 382.1)">l</text><text xml:space="preserve" font-family="HelveticaNeue-Light,Helvetica Neue" font-size="50.0" fill="#FEFFFE" transform="matrix(1.00, 0.00, -0.00, -1.00, 312.6, 382.1)">e</text><text xml:space="preserve" font-family="HelveticaNeue-Light,Helvetica Neue" font-size="50.0" fill="#FEFFFE" transform="matrix(1.00, 0.00, -0.00, -1.00, 338.6, 382.1)">t</text><text xml:space="preserve" font-family="HelveticaNeue-Light,Helvetica Neue" font-size="50.0" fill="#FEFFFE" transform="matrix(1.00, 0.00, -0.00, -1.00, 353.4, 382.1)">e</text><text xml:space="preserve" font-family="HelveticaNeue-Light,Helvetica Neue" font-size="50.0" fill="#FEFFFE" transform="matrix(1.00, 0.00, -0.00, -1.00, 379.3, 382.1)">l</text><text xml:space="preserve" font-family="HelveticaNeue-Light,Helvetica Neue" font-size="50.0" fill="#FEFFFE" transform="matrix(1.00, 0.00, -0.00, -1.00, 388.6, 382.1)">y</text><text xml:space="preserve" font-family="HelveticaNeue-Light,Helvetica Neue" font-size="50.0" fill="#FEFFFE" transform="matrix(1.00, 0.00, -0.00, -1.00, 411.7, 382.1)"> </text><text xml:space="preserve" font-family="HelveticaNeue-Light,Helvetica Neue" font-size="50.0" fill="#FEFFFE" transform="matrix(1.00, 0.00, -0.00, -1.00, 425.6, 382.1)">d</text><text xml:space="preserve" font-family="HelveticaNeue-Light,Helvetica Neue" font-size="50.0" fill="#FEFFFE" transform="matrix(1.00, 0.00, -0.00, -1.00, 454.3, 382.1)">e</text><text xml:space="preserve" font-family="HelveticaNeue-Light,Helvetica Neue" font-size="50.0" fill="#FEFFFE" transform="matrix(1.00, 0.00, -0.00, -1.00, 480.2, 382.1)">c</text><text xml:space="preserve" font-family="HelveticaNeue-Light,Helvetica Neue" font-size="50.0" fill="#FEFFFE" transform="matrix(1.00, 0.00, -0.00, -1.00, 506.2, 382.1)">o</text><text xml:space="preserve" font-family="HelveticaNeue-Light,Helvetica Neue" font-size="50.0" fill="#FEFFFE" transform="matrix(1.00, 0.00, -0.00, -1.00, 534.0, 382.1)">u</text><text xml:space="preserve" font-family="HelveticaNeue-Light,Helvetica Neue" font-size="50.0" fill="#FEFFFE" transform="matrix(1.00, 0.00, -0.00, -1.00, 560.9, 382.1)">p</text><text xml:space="preserve" font-family="HelveticaNeue-Light,Helvetica Neue" font-size="50.0" fill="#FEFFFE" transform="matrix(1.00, 0.00, -0.00, -1.00, 589.5, 382.1)">l</text><text xml:space="preserve" font-family="HelveticaNeue-Light,Helvetica Neue" font-size="50.0" fill="#FEFFFE" transform="matrix(1.00, 0.00, -0.00, -1.00, 598.8, 382.1)">e</text><text xml:space="preserve" font-family="HelveticaNeue-Light,Helvetica Neue" font-size="50.0" fill="#FEFFFE" transform="matrix(1.00, 0.00, -0.00, -1.00, 624.8, 382.1)">d</text><text xml:space="preserve" font-family="HelveticaNeue-Light,Helvetica Neue" font-size="50.0" fill="#FEFFFE" transform="matrix(1.00, 0.00, -0.00, -1.00, 653.5, 382.1)"> </text><text xml:space="preserve" font-family="HelveticaNeue-Light,Helvetica Neue" font-size="50.0" fill="#FEFFFE" transform="matrix(1.00, 0.00, -0.00, -1.00, 667.3, 382.1)">f</text><text xml:space="preserve" font-family="HelveticaNeue-Light,Helvetica Neue" font-size="50.0" fill="#FEFFFE" transform="matrix(1.00, 0.00, -0.00, -1.00, 680.3, 382.1)">r</text><text xml:space="preserve" font-family="HelveticaNeue-Light,Helvetica Neue" font-size="50.0" fill="#FEFFFE" transform="matrix(1.00, 0.00, -0.00, -1.00, 695.1, 382.1)">o</text><text xml:space="preserve" font-family="HelveticaNeue-Light,Helvetica Neue" font-size="50.0" fill="#FEFFFE" transform="matrix(1.00, 0.00, -0.00, -1.00, 722.9, 382.1)">m</text><text xml:space="preserve" font-family="HelveticaNeue-Light,Helvetica Neue" font-size="50.0" fill="#FEFFFE" transform="matrix(1.00, 0.00, -0.00, -1.00, 764.6, 382.1)"> </text><image xlink:href="../../4214D0A5-81A7-4586-906C-F38E7BC99A6E/assets/7511EFA2229B922D70E3C9EB2C1484C1.png" width="135.00" height="54.00" transform="matrix(1.00, 0.00, -0.00, -1.00, 777.0, 419.0)"></image><text xml:space="preserve" font-family="HelveticaNeue-Light,Helvetica Neue" font-size="50.0" fill="#BD5A0C" transform="matrix(1.00, 0.00, -0.00, -1.00, 778.5, 382.1)">i</text><text xml:space="preserve" font-family="HelveticaNeue-Light,Helvetica Neue" font-size="50.0" fill="#BD5A0C" transform="matrix(1.00, 0.00, -0.00, -1.00, 787.8, 382.1)">n</text><text xml:space="preserve" font-family="HelveticaNeue-Light,Helvetica Neue" font-size="50.0" fill="#BD5A0C" transform="matrix(1.00, 0.00, -0.00, -1.00, 814.6, 382.1)">p</text><text xml:space="preserve" font-family="HelveticaNeue-Light,Helvetica Neue" font-size="50.0" fill="#BD5A0C" transform="matrix(1.00, 0.00, -0.00, -1.00, 843.3, 382.1)">u</text><text xml:space="preserve" font-family="HelveticaNeue-Light,Helvetica Neue" font-size="50.0" fill="#BD5A0C" transform="matrix(1.00, 0.00, -0.00, -1.00, 870.2, 382.1)">t</text><text xml:space="preserve" font-family="HelveticaNeue-Light,Helvetica Neue" font-size="50.0" fill="#BD5A0C" transform="matrix(1.00, 0.00, -0.00, -1.00, 885.0, 382.1)">s</text><image xlink:href="../../4214D0A5-81A7-4586-906C-F38E7BC99A6E/assets/6AB1B7C2AD9800A3DADDB7568A27355D.png" width="86.00" height="45.00" transform="matrix(1.00, 0.00, -0.00, -1.00, 920.0, 419.0)"></image><text xml:space="preserve" font-family="HelveticaNeue-Light,Helvetica Neue" font-size="50.0" fill="#FEFFFE" transform="matrix(1.00, 0.00, -0.00, -1.00, 909.0, 382.1)"> </text><text xml:space="preserve" font-family="HelveticaNeue-Light,Helvetica Neue" font-size="50.0" fill="#FEFFFE" transform="matrix(1.00, 0.00, -0.00, -1.00, 922.9, 382.1)">a</text><text xml:space="preserve" font-family="HelveticaNeue-Light,Helvetica Neue" font-size="50.0" fill="#FEFFFE" transform="matrix(1.00, 0.00, -0.00, -1.00, 948.9, 382.1)">n</text><text xml:space="preserve" font-family="HelveticaNeue-Light,Helvetica Neue" font-size="50.0" fill="#FEFFFE" transform="matrix(1.00, 0.00, -0.00, -1.00, 975.7, 382.1)">d</text><text xml:space="preserve" font-family="HelveticaNeue-Light,Helvetica Neue" font-size="50.0" fill="#FEFFFE" transform="matrix(1.00, 0.00, -0.00, -1.00, 1004.4, 382.1)"> </text><image xlink:href="../../4214D0A5-81A7-4586-906C-F38E7BC99A6E/assets/0290494CC782B88CAFD698754C36698B.png" width="170.00" height="52.00" transform="matrix(1.00, 0.00, -0.00, -1.00, 1015.0, 417.0)"></image><text xml:space="preserve" font-family="HelveticaNeue-Light,Helvetica Neue" font-size="50.0" fill="#BD5A0C" transform="matrix(1.00, 0.00, -0.00, -1.00, 1018.3, 382.1)">o</text><text xml:space="preserve" font-family="HelveticaNeue-Light,Helvetica Neue" font-size="50.0" fill="#BD5A0C" transform="matrix(1.00, 0.00, -0.00, -1.00, 1046.1, 382.1)">u</text><text xml:space="preserve" font-family="HelveticaNeue-Light,Helvetica Neue" font-size="50.0" fill="#BD5A0C" transform="matrix(1.00, 0.00, -0.00, -1.00, 1073.0, 382.1)">t</text><text xml:space="preserve" font-family="HelveticaNeue-Light,Helvetica Neue" font-size="50.0" fill="#BD5A0C" transform="matrix(1.00, 0.00, -0.00, -1.00, 1087.8, 382.1)">p</text><text xml:space="preserve" font-family="HelveticaNeue-Light,Helvetica Neue" font-size="50.0" fill="#BD5A0C" transform="matrix(1.00, 0.00, -0.00, -1.00, 1116.5, 382.1)">u</text><text xml:space="preserve" font-family="HelveticaNeue-Light,Helvetica Neue" font-size="50.0" fill="#BD5A0C" transform="matrix(1.00, 0.00, -0.00, -1.00, 1143.3, 382.1)">t</text><text xml:space="preserve" font-family="HelveticaNeue-Light,Helvetica Neue" font-size="50.0" fill="#BD5A0C" transform="matrix(1.00, 0.00, -0.00, -1.00, 1158.1, 382.1)">s</text><text xml:space="preserve" font-family="HelveticaNeue-Light,Helvetica Neue" font-size="50.0" fill="#BD5A0C" transform="matrix(1.00, 0.00, -0.00, -1.00, 1182.2, 382.1)"> </text><image xlink:href="../../B23B8777-38D6-40FF-A2A4-1E8E6DC033E4/assets/D78D93A8DEE9B68D58E2A0BAEAF9F97F.png" width="18.00" height="18.00" transform="matrix(1.00, 0.00, -0.00, -1.00, 120.0, 297.0)"></image><g><clipPath id="clip0x7fe42c983990"><path d="M 120.0 279.1 L 137.6 279.1 L 137.6 296.8 L 120.0 296.8 Z M 120.0 279.1 "></path></clipPath><g clip-path="url(#clip0x7fe42c983990)"><g><g><clipPath id="clip0x7fe42c985a30"><path d="M 120.0 296.8 L 137.6 296.8 L 137.6 279.1 L 120.0 279.1 Z M 120.0 296.8 "></path></clipPath><g clip-path="url(#clip0x7fe42c985a30)"><g><clipPath id="clip0x7fe42c9861c0"><path d="M 116.0 272.0 L 142.0 272.0 L 142.0 304.0 L 116.0 304.0 Z M 116.0 272.0 "></path></clipPath><g clip-path="url(#clip0x7fe42c9861c0)"><path d="M 137.6 293.3 C 137.6 294.0 137.2 294.8 136.5 295.6 C 135.8 296.4 135.0 296.8 134.1 296.8 C 133.7 296.8 133.1 296.6 132.2 296.2 C 130.9 295.5 129.7 295.2 128.8 295.2 C 127.8 295.2 126.6 295.5 125.3 296.2 C 124.5 296.6 123.9 296.8 123.4 296.8 C 122.6 296.8 121.8 296.4 121.1 295.6 C 120.4 294.9 120.0 294.1 120.0 293.3 C 120.0 292.8 120.2 292.2 120.6 291.3 C 121.2 290.0 121.5 288.9 121.5 287.9 C 121.5 287.0 121.2 285.9 120.6 284.5 C 120.2 283.7 120.0 283.1 120.0 282.6 C 120.0 281.8 120.4 281.0 121.1 280.2 C 121.8 279.5 122.6 279.1 123.4 279.1 C 123.9 279.1 124.5 279.3 125.3 279.7 C 126.6 280.4 127.8 280.7 128.8 280.7 C 129.7 280.7 130.9 280.4 132.2 279.7 C 133.1 279.3 133.7 279.1 134.1 279.1 C 135.0 279.1 135.8 279.5 136.5 280.2 C 137.2 281.0 137.6 281.8 137.6 282.6 C 137.6 283.1 137.4 283.7 137.0 284.5 C 136.3 285.9 136.0 287.0 136.0 287.9 C 136.0 288.9 136.3 290.0 137.0 291.3 C 137.4 292.2 137.6 292.8 137.6 293.3 " fill="#FFFFFF"></path></g></g></g></g></g></g></g><image xlink:href="../../4214D0A5-81A7-4586-906C-F38E7BC99A6E/assets/95E2DBAF356D36773CA6813F1DAF379A.png" width="281.00" height="55.00" transform="matrix(1.00, 0.00, -0.00, -1.00, 167.0, 309.0)"></image><text xml:space="preserve" font-family="HelveticaNeue-Light,Helvetica Neue" font-size="50.0" fill="#B26AE1" transform="matrix(1.00, 0.00, -0.00, -1.00, 170.0, 271.1)">C</text><text xml:space="preserve" font-family="HelveticaNeue-Light,Helvetica Neue" font-size="50.0" fill="#B26AE1" transform="matrix(1.00, 0.00, -0.00, -1.00, 205.2, 271.1)">o</text><text xml:space="preserve" font-family="HelveticaNeue-Light,Helvetica Neue" font-size="50.0" fill="#B26AE1" transform="matrix(1.00, 0.00, -0.00, -1.00, 233.0, 271.1)">m</text><text xml:space="preserve" font-family="HelveticaNeue-Light,Helvetica Neue" font-size="50.0" fill="#B26AE1" transform="matrix(1.00, 0.00, -0.00, -1.00, 274.6, 271.1)">p</text><text xml:space="preserve" font-family="HelveticaNeue-Light,Helvetica Neue" font-size="50.0" fill="#B26AE1" transform="matrix(1.00, 0.00, -0.00, -1.00, 303.4, 271.1)">o</text><text xml:space="preserve" font-family="HelveticaNeue-Light,Helvetica Neue" font-size="50.0" fill="#B26AE1" transform="matrix(1.00, 0.00, -0.00, -1.00, 331.2, 271.1)">s</text><text xml:space="preserve" font-family="HelveticaNeue-Light,Helvetica Neue" font-size="50.0" fill="#B26AE1" transform="matrix(1.00, 0.00, -0.00, -1.00, 355.2, 271.1)">a</text><text xml:space="preserve" font-family="HelveticaNeue-Light,Helvetica Neue" font-size="50.0" fill="#B26AE1" transform="matrix(1.00, 0.00, -0.00, -1.00, 381.2, 271.1)">b</text><text xml:space="preserve" font-family="HelveticaNeue-Light,Helvetica Neue" font-size="50.0" fill="#B26AE1" transform="matrix(1.00, 0.00, -0.00, -1.00, 409.9, 271.1)">l</text><text xml:space="preserve" font-family="HelveticaNeue-Light,Helvetica Neue" font-size="50.0" fill="#B26AE1" transform="matrix(1.00, 0.00, -0.00, -1.00, 419.1, 271.1)">e</text><text xml:space="preserve" font-family="HelveticaNeue-Light,Helvetica Neue" font-size="50.0" fill="#B26AE1" transform="matrix(1.00, 0.00, -0.00, -1.00, 445.1, 271.1)"> </text><image xlink:href="../../4214D0A5-81A7-4586-906C-F38E7BC99A6E/assets/410C5DCDA9BE6180D6989305C099068E.png" width="515.00" height="55.00" transform="matrix(1.00, 0.00, -0.00, -1.00, 455.0, 308.0)"></image><text xml:space="preserve" font-family="HelveticaNeue-Light,Helvetica Neue" font-size="50.0" fill="#FEFFFE" transform="matrix(1.00, 0.00, -0.00, -1.00, 458.9, 271.1)">w</text><text xml:space="preserve" font-family="HelveticaNeue-Light,Helvetica Neue" font-size="50.0" fill="#FEFFFE" transform="matrix(1.00, 0.00, -0.00, -1.00, 496.0, 271.1)">a</text><text xml:space="preserve" font-family="HelveticaNeue-Light,Helvetica Neue" font-size="50.0" fill="#FEFFFE" transform="matrix(1.00, 0.00, -0.00, -1.00, 522.0, 271.1)">y</text><text xml:space="preserve" font-family="HelveticaNeue-Light,Helvetica Neue" font-size="50.0" fill="#FEFFFE" transform="matrix(1.00, 0.00, -0.00, -1.00, 545.1, 271.1)"> </text><text xml:space="preserve" font-family="HelveticaNeue-Light,Helvetica Neue" font-size="50.0" fill="#FEFFFE" transform="matrix(1.00, 0.00, -0.00, -1.00, 559.0, 271.1)">t</text><text xml:space="preserve" font-family="HelveticaNeue-Light,Helvetica Neue" font-size="50.0" fill="#FEFFFE" transform="matrix(1.00, 0.00, -0.00, -1.00, 573.8, 271.1)">o</text><text xml:space="preserve" font-family="HelveticaNeue-Light,Helvetica Neue" font-size="50.0" fill="#FEFFFE" transform="matrix(1.00, 0.00, -0.00, -1.00, 601.6, 271.1)"> </text><text xml:space="preserve" font-family="HelveticaNeue-Light,Helvetica Neue" font-size="50.0" fill="#FEFFFE" transform="matrix(1.00, 0.00, -0.00, -1.00, 615.5, 271.1)">b</text><text xml:space="preserve" font-family="HelveticaNeue-Light,Helvetica Neue" font-size="50.0" fill="#FEFFFE" transform="matrix(1.00, 0.00, -0.00, -1.00, 644.2, 271.1)">u</text><text xml:space="preserve" font-family="HelveticaNeue-Light,Helvetica Neue" font-size="50.0" fill="#FEFFFE" transform="matrix(1.00, 0.00, -0.00, -1.00, 671.0, 271.1)">i</text><text xml:space="preserve" font-family="HelveticaNeue-Light,Helvetica Neue" font-size="50.0" fill="#FEFFFE" transform="matrix(1.00, 0.00, -0.00, -1.00, 680.3, 271.1)">l</text><text xml:space="preserve" font-family="HelveticaNeue-Light,Helvetica Neue" font-size="50.0" fill="#FEFFFE" transform="matrix(1.00, 0.00, -0.00, -1.00, 689.5, 271.1)">d</text><text xml:space="preserve" font-family="HelveticaNeue-Light,Helvetica Neue" font-size="50.0" fill="#FEFFFE" transform="matrix(1.00, 0.00, -0.00, -1.00, 718.2, 271.1)"> </text><text xml:space="preserve" font-family="HelveticaNeue-Light,Helvetica Neue" font-size="50.0" fill="#FEFFFE" transform="matrix(1.00, 0.00, -0.00, -1.00, 732.1, 271.1)">a</text><text xml:space="preserve" font-family="HelveticaNeue-Light,Helvetica Neue" font-size="50.0" fill="#FEFFFE" transform="matrix(1.00, 0.00, -0.00, -1.00, 758.1, 271.1)">l</text><text xml:space="preserve" font-family="HelveticaNeue-Light,Helvetica Neue" font-size="50.0" fill="#FEFFFE" transform="matrix(1.00, 0.00, -0.00, -1.00, 767.4, 271.1)">g</text><text xml:space="preserve" font-family="HelveticaNeue-Light,Helvetica Neue" font-size="50.0" fill="#FEFFFE" transform="matrix(1.00, 0.00, -0.00, -1.00, 795.1, 271.1)">o</text><text xml:space="preserve" font-family="HelveticaNeue-Light,Helvetica Neue" font-size="50.0" fill="#FEFFFE" transform="matrix(1.00, 0.00, -0.00, -1.00, 822.9, 271.1)">r</text><text xml:space="preserve" font-family="HelveticaNeue-Light,Helvetica Neue" font-size="50.0" fill="#FEFFFE" transform="matrix(1.00, 0.00, -0.00, -1.00, 838.7, 271.1)">i</text><text xml:space="preserve" font-family="HelveticaNeue-Light,Helvetica Neue" font-size="50.0" fill="#FEFFFE" transform="matrix(1.00, 0.00, -0.00, -1.00, 847.9, 271.1)">t</text><text xml:space="preserve" font-family="HelveticaNeue-Light,Helvetica Neue" font-size="50.0" fill="#FEFFFE" transform="matrix(1.00, 0.00, -0.00, -1.00, 862.7, 271.1)">h</text><text xml:space="preserve" font-family="HelveticaNeue-Light,Helvetica Neue" font-size="50.0" fill="#FEFFFE" transform="matrix(1.00, 0.00, -0.00, -1.00, 889.6, 271.1)">m</text><text xml:space="preserve" font-family="HelveticaNeue-Light,Helvetica Neue" font-size="50.0" fill="#FEFFFE" transform="matrix(1.00, 0.00, -0.00, -1.00, 931.2, 271.1)">i</text><text xml:space="preserve" font-family="HelveticaNeue-Light,Helvetica Neue" font-size="50.0" fill="#FEFFFE" transform="matrix(1.00, 0.00, -0.00, -1.00, 940.5, 271.1)">c</text><text xml:space="preserve" font-family="HelveticaNeue-Light,Helvetica Neue" font-size="50.0" fill="#FEFFFE" transform="matrix(1.00, 0.00, -0.00, -1.00, 966.4, 271.1)"> </text><image xlink:href="../../4214D0A5-81A7-4586-906C-F38E7BC99A6E/assets/47218E26860FC03957DF98F2BDB69C9D.png" width="342.00" height="45.00" transform="matrix(1.00, 0.00, -0.00, -1.00, 976.0, 308.0)"></image><text xml:space="preserve" font-family="HelveticaNeue-Light,Helvetica Neue" font-size="50.0" fill="#B26AE1" transform="matrix(1.00, 0.00, -0.00, -1.00, 980.4, 271.1)">t</text><text xml:space="preserve" font-family="HelveticaNeue-Light,Helvetica Neue" font-size="50.0" fill="#B26AE1" transform="matrix(1.00, 0.00, -0.00, -1.00, 995.1, 271.1)">r</text><text xml:space="preserve" font-family="HelveticaNeue-Light,Helvetica Neue" font-size="50.0" fill="#B26AE1" transform="matrix(1.00, 0.00, -0.00, -1.00, 1010.9, 271.1)">a</text><text xml:space="preserve" font-family="HelveticaNeue-Light,Helvetica Neue" font-size="50.0" fill="#B26AE1" transform="matrix(1.00, 0.00, -0.00, -1.00, 1036.8, 271.1)">n</text><text xml:space="preserve" font-family="HelveticaNeue-Light,Helvetica Neue" font-size="50.0" fill="#B26AE1" transform="matrix(1.00, 0.00, -0.00, -1.00, 1063.7, 271.1)">s</text><text xml:space="preserve" font-family="HelveticaNeue-Light,Helvetica Neue" font-size="50.0" fill="#B26AE1" transform="matrix(1.00, 0.00, -0.00, -1.00, 1087.8, 271.1)">f</text><text xml:space="preserve" font-family="HelveticaNeue-Light,Helvetica Neue" font-size="50.0" fill="#B26AE1" transform="matrix(1.00, 0.00, -0.00, -1.00, 1100.7, 271.1)">o</text><text xml:space="preserve" font-family="HelveticaNeue-Light,Helvetica Neue" font-size="50.0" fill="#B26AE1" transform="matrix(1.00, 0.00, -0.00, -1.00, 1128.5, 271.1)">r</text><text xml:space="preserve" font-family="HelveticaNeue-Light,Helvetica Neue" font-size="50.0" fill="#B26AE1" transform="matrix(1.00, 0.00, -0.00, -1.00, 1144.2, 271.1)">m</text><text xml:space="preserve" font-family="HelveticaNeue-Light,Helvetica Neue" font-size="50.0" fill="#B26AE1" transform="matrix(1.00, 0.00, -0.00, -1.00, 1185.9, 271.1)">a</text><text xml:space="preserve" font-family="HelveticaNeue-Light,Helvetica Neue" font-size="50.0" fill="#B26AE1" transform="matrix(1.00, 0.00, -0.00, -1.00, 1211.8, 271.1)">t</text><text xml:space="preserve" font-family="HelveticaNeue-Light,Helvetica Neue" font-size="50.0" fill="#B26AE1" transform="matrix(1.00, 0.00, -0.00, -1.00, 1226.6, 271.1)">i</text><text xml:space="preserve" font-family="HelveticaNeue-Light,Helvetica Neue" font-size="50.0" fill="#B26AE1" transform="matrix(1.00, 0.00, -0.00, -1.00, 1235.9, 271.1)">o</text><text xml:space="preserve" font-family="HelveticaNeue-Light,Helvetica Neue" font-size="50.0" fill="#B26AE1" transform="matrix(1.00, 0.00, -0.00, -1.00, 1263.7, 271.1)">n</text><text xml:space="preserve" font-family="HelveticaNeue-Light,Helvetica Neue" font-size="50.0" fill="#B26AE1" transform="matrix(1.00, 0.00, -0.00, -1.00, 1290.5, 271.1)">s</text></g></svg>