<?xml version="1.0" encoding="UTF-8" standalone="no"?><svg xmlns="http://www.w3.org/2000/svg" xmlns:xlink="http://www.w3.org/1999/xlink" clip-rule="evenodd" stroke-miterlimit="10" viewBox="0 0 1920 1080"><desc>SVG generated by Keynote</desc><defs></defs><g transform="matrix(1.00, 0.00, -0.00, -1.00, 0.0, 1080.0)"><g><clipPath id="clip0x7fe4287133d0"><path d="M 0.0 1080.0 L 1920.0 1080.0 L 1920.0 0.0 L 0.0 0.0 Z M 0.0 1080.0 "></path></clipPath><g clip-path="url(#clip0x7fe4287133d0)"><image xlink:href="../../EAAA0B26-26D2-4E6F-B71B-738E9DFC302E/assets/0F43D2572F34A9AFB59E4515ED9A1249.jpeg" width="3840.00" height="2160.00" transform="matrix(0.50, 0.00, -0.00, -0.50, 0.0, 1080.0)"></image></g></g><image xlink:href="../../41BB162D-1C4B-4A08-9AA5-F3CD3FD05BCD/assets/5E3B30BBEB39731F56D97D16D9680B09.png" width="411.00" height="82.00" transform="matrix(1.00, 0.00, -0.00, -1.00, 123.0, 952.0)"></image><text xml:space="preserve" font-family="HelveticaNeue-Light,Helvetica Neue" font-size="100.0" fill="#FEFFFE" transform="matrix(1.00, 0.00, -0.00, -1.00, 120.0, 879.2)">R</text><text xml:space="preserve" font-family="HelveticaNeue-Light,Helvetica Neue" font-size="100.0" fill="#FEFFFE" transform="matrix(1.00, 0.00, -0.00, -1.00, 186.7, 879.2)">e</text><text xml:space="preserve" font-family="HelveticaNeue-Light,Helvetica Neue" font-size="100.0" fill="#FEFFFE" transform="matrix(1.00, 0.00, -0.00, -1.00, 238.6, 879.2)">d</text><text xml:space="preserve" font-family="HelveticaNeue-Light,Helvetica Neue" font-size="100.0" fill="#FEFFFE" transform="matrix(1.00, 0.00, -0.00, -1.00, 296.0, 879.2)">u</text><text xml:space="preserve" font-family="HelveticaNeue-Light,Helvetica Neue" font-size="100.0" fill="#FEFFFE" transform="matrix(1.00, 0.00, -0.00, -1.00, 349.7, 879.2)">c</text><text xml:space="preserve" font-family="HelveticaNeue-Light,Helvetica Neue" font-size="100.0" fill="#FEFFFE" transform="matrix(1.00, 0.00, -0.00, -1.00, 401.6, 879.2)">e</text><text xml:space="preserve" font-family="HelveticaNeue-Light,Helvetica Neue" font-size="100.0" fill="#FEFFFE" transform="matrix(1.00, 0.00, -0.00, -1.00, 453.5, 879.2)">r</text><text xml:space="preserve" font-family="HelveticaNeue-Light,Helvetica Neue" font-size="100.0" fill="#FEFFFE" transform="matrix(1.00, 0.00, -0.00, -1.00, 485.0, 879.2)">s</text><text xml:space="preserve" font-family="Monaco,Monaco" font-size="50.0" fill="#FC4384" transform="matrix(1.00, 0.00, -0.00, -1.00, 120.0, 705.7)">v</text><text xml:space="preserve" font-family="Monaco,Monaco" font-size="50.0" fill="#FC4384" transform="matrix(1.00, 0.00, -0.00, -1.00, 150.0, 705.7)">a</text><text xml:space="preserve" font-family="Monaco,Monaco" font-size="50.0" fill="#FC4384" transform="matrix(1.00, 0.00, -0.00, -1.00, 180.0, 705.7)">r</text><text xml:space="preserve" font-family="Monaco,Monaco" font-size="50.0" fill="#000000" transform="matrix(1.00, 0.00, -0.00, -1.00, 210.0, 705.7)"> </text><text xml:space="preserve" font-family="Monaco,Monaco" font-size="50.0" fill="#F9F9F4" transform="matrix(1.00, 0.00, -0.00, -1.00, 240.0, 705.7)">m</text><text xml:space="preserve" font-family="Monaco,Monaco" font-size="50.0" fill="#F9F9F4" transform="matrix(1.00, 0.00, -0.00, -1.00, 270.0, 705.7)">a</text><text xml:space="preserve" font-family="Monaco,Monaco" font-size="50.0" fill="#F9F9F4" transform="matrix(1.00, 0.00, -0.00, -1.00, 300.0, 705.7)">p</text><text xml:space="preserve" font-family="Monaco,Monaco" font-size="50.0" fill="#000000" transform="matrix(1.00, 0.00, -0.00, -1.00, 330.0, 705.7)"> </text><text xml:space="preserve" font-family="Monaco,Monaco" font-size="50.0" fill="#F9F9F4" transform="matrix(1.00, 0.00, -0.00, -1.00, 360.0, 705.7)">=</text><text xml:space="preserve" font-family="Monaco,Monaco" font-size="50.0" fill="#000000" transform="matrix(1.00, 0.00, -0.00, -1.00, 390.0, 705.7)"> </text><text xml:space="preserve" font-family="Monaco,Monaco" font-size="50.0" fill="#FC4384" transform="matrix(1.00, 0.00, -0.00, -1.00, 420.0, 705.7)">f</text><text xml:space="preserve" font-family="Monaco,Monaco" font-size="50.0" fill="#FC4384" transform="matrix(1.00, 0.00, -0.00, -1.00, 450.1, 705.7)">u</text><text xml:space="preserve" font-family="Monaco,Monaco" font-size="50.0" fill="#FC4384" transform="matrix(1.00, 0.00, -0.00, -1.00, 480.1, 705.7)">n</text><text xml:space="preserve" font-family="Monaco,Monaco" font-size="50.0" fill="#FC4384" transform="matrix(1.00, 0.00, -0.00, -1.00, 510.1, 705.7)">c</text><text xml:space="preserve" font-family="Monaco,Monaco" font-size="50.0" fill="#FC4384" transform="matrix(1.00, 0.00, -0.00, -1.00, 540.1, 705.7)">t</text><text xml:space="preserve" font-family="Monaco,Monaco" font-size="50.0" fill="#FC4384" transform="matrix(1.00, 0.00, -0.00, -1.00, 570.1, 705.7)">i</text><text xml:space="preserve" font-family="Monaco,Monaco" font-size="50.0" fill="#FC4384" transform="matrix(1.00, 0.00, -0.00, -1.00, 600.1, 705.7)">o</text><text xml:space="preserve" font-family="Monaco,Monaco" font-size="50.0" fill="#FC4384" transform="matrix(1.00, 0.00, -0.00, -1.00, 630.1, 705.7)">n</text><text xml:space="preserve" font-family="Monaco,Monaco" font-size="50.0" fill="#F9F9F4" transform="matrix(1.00, 0.00, -0.00, -1.00, 660.1, 705.7)">(</text><text xml:space="preserve" font-family="Monaco,Monaco" font-size="50.0" fill="#F9F9F4" transform="matrix(1.00, 0.00, -0.00, -1.00, 690.1, 705.7)">f</text><text xml:space="preserve" font-family="Monaco,Monaco" font-size="50.0" fill="#F9F9F4" transform="matrix(1.00, 0.00, -0.00, -1.00, 720.1, 705.7)">n</text><text xml:space="preserve" font-family="Monaco,Monaco" font-size="50.0" fill="#F9F9F4" transform="matrix(1.00, 0.00, -0.00, -1.00, 750.1, 705.7)">,</text><text xml:space="preserve" font-family="Monaco,Monaco" font-size="50.0" fill="#000000" transform="matrix(1.00, 0.00, -0.00, -1.00, 780.1, 705.7)"> </text><text xml:space="preserve" font-family="Monaco,Monaco" font-size="50.0" fill="#F9F9F4" transform="matrix(1.00, 0.00, -0.00, -1.00, 810.1, 705.7)">c</text><text xml:space="preserve" font-family="Monaco,Monaco" font-size="50.0" fill="#F9F9F4" transform="matrix(1.00, 0.00, -0.00, -1.00, 840.1, 705.7)">o</text><text xml:space="preserve" font-family="Monaco,Monaco" font-size="50.0" fill="#F9F9F4" transform="matrix(1.00, 0.00, -0.00, -1.00, 870.1, 705.7)">l</text><text xml:space="preserve" font-family="Monaco,Monaco" font-size="50.0" fill="#F9F9F4" transform="matrix(1.00, 0.00, -0.00, -1.00, 900.1, 705.7)">l</text><text xml:space="preserve" font-family="Monaco,Monaco" font-size="50.0" fill="#F9F9F4" transform="matrix(1.00, 0.00, -0.00, -1.00, 930.2, 705.7)">)</text><text xml:space="preserve" font-family="Monaco,Monaco" font-size="50.0" fill="#F9F9F4" transform="matrix(1.00, 0.00, -0.00, -1.00, 960.2, 705.7)"> </text><text xml:space="preserve" font-family="Monaco,Monaco" font-size="50.0" fill="#F9F9F4" transform="matrix(1.00, 0.00, -0.00, -1.00, 990.2, 705.7)">{</text><text xml:space="preserve" font-family="Monaco,Monaco" font-size="50.0" fill="#000000" transform="matrix(1.00, 0.00, -0.00, -1.00, 120.0, 638.7)"> </text><text xml:space="preserve" font-family="Monaco,Monaco" font-size="50.0" fill="#000000" transform="matrix(1.00, 0.00, -0.00, -1.00, 150.0, 638.7)"> </text><text xml:space="preserve" font-family="Monaco,Monaco" font-size="50.0" fill="#FC4384" transform="matrix(1.00, 0.00, -0.00, -1.00, 180.0, 638.7)">r</text><text xml:space="preserve" font-family="Monaco,Monaco" font-size="50.0" fill="#FC4384" transform="matrix(1.00, 0.00, -0.00, -1.00, 210.0, 638.7)">e</text><text xml:space="preserve" font-family="Monaco,Monaco" font-size="50.0" fill="#FC4384" transform="matrix(1.00, 0.00, -0.00, -1.00, 240.0, 638.7)">t</text><text xml:space="preserve" font-family="Monaco,Monaco" font-size="50.0" fill="#FC4384" transform="matrix(1.00, 0.00, -0.00, -1.00, 270.0, 638.7)">u</text><text xml:space="preserve" font-family="Monaco,Monaco" font-size="50.0" fill="#FC4384" transform="matrix(1.00, 0.00, -0.00, -1.00, 300.0, 638.7)">r</text><text xml:space="preserve" font-family="Monaco,Monaco" font-size="50.0" fill="#FC4384" transform="matrix(1.00, 0.00, -0.00, -1.00, 330.1, 638.7)">n</text><text xml:space="preserve" font-family="Monaco,Monaco" font-size="50.0" fill="#000000" transform="matrix(1.00, 0.00, -0.00, -1.00, 360.0, 638.7)"> </text><text xml:space="preserve" font-family="Monaco,Monaco" font-size="50.0" fill="#F9F9F4" transform="matrix(1.00, 0.00, -0.00, -1.00, 390.0, 638.7)">{</text><text xml:space="preserve" font-family="Monaco,Monaco" font-size="50.0" fill="#F9F9F4" transform="matrix(1.00, 0.00, -0.00, -1.00, 120.0, 571.7)"> </text><text xml:space="preserve" font-family="Monaco,Monaco" font-size="50.0" fill="#F9F9F4" transform="matrix(1.00, 0.00, -0.00, -1.00, 150.0, 571.7)"> </text><text xml:space="preserve" font-family="Monaco,Monaco" font-size="50.0" fill="#F9F9F4" transform="matrix(1.00, 0.00, -0.00, -1.00, 180.0, 571.7)"> </text><text xml:space="preserve" font-family="Monaco,Monaco" font-size="50.0" fill="#F9F9F4" transform="matrix(1.00, 0.00, -0.00, -1.00, 210.0, 571.7)"> </text><text xml:space="preserve" font-family="Monaco,Monaco" font-size="50.0" fill="#F9F9F4" transform="matrix(1.00, 0.00, -0.00, -1.00, 240.0, 571.7)">r</text><text xml:space="preserve" font-family="Monaco,Monaco" font-size="50.0" fill="#F9F9F4" transform="matrix(1.00, 0.00, -0.00, -1.00, 270.0, 571.7)">e</text><text xml:space="preserve" font-family="Monaco,Monaco" font-size="50.0" fill="#F9F9F4" transform="matrix(1.00, 0.00, -0.00, -1.00, 300.1, 571.7)">d</text><text xml:space="preserve" font-family="Monaco,Monaco" font-size="50.0" fill="#F9F9F4" transform="matrix(1.00, 0.00, -0.00, -1.00, 330.1, 571.7)">u</text><text xml:space="preserve" font-family="Monaco,Monaco" font-size="50.0" fill="#F9F9F4" transform="matrix(1.00, 0.00, -0.00, -1.00, 360.1, 571.7)">c</text><text xml:space="preserve" font-family="Monaco,Monaco" font-size="50.0" fill="#F9F9F4" transform="matrix(1.00, 0.00, -0.00, -1.00, 390.1, 571.7)">e</text><text xml:space="preserve" font-family="Monaco,Monaco" font-size="50.0" fill="#F9F9F4" transform="matrix(1.00, 0.00, -0.00, -1.00, 420.1, 571.7)">:</text><text xml:space="preserve" font-family="Monaco,Monaco" font-size="50.0" fill="#000000" transform="matrix(1.00, 0.00, -0.00, -1.00, 450.1, 571.7)"> </text><text xml:space="preserve" font-family="Monaco,Monaco" font-size="50.0" fill="#FC4384" transform="matrix(1.00, 0.00, -0.00, -1.00, 480.1, 571.7)">f</text><text xml:space="preserve" font-family="Monaco,Monaco" font-size="50.0" fill="#FC4384" transform="matrix(1.00, 0.00, -0.00, -1.00, 510.1, 571.7)">u</text><text xml:space="preserve" font-family="Monaco,Monaco" font-size="50.0" fill="#FC4384" transform="matrix(1.00, 0.00, -0.00, -1.00, 540.1, 571.7)">n</text><text xml:space="preserve" font-family="Monaco,Monaco" font-size="50.0" fill="#FC4384" transform="matrix(1.00, 0.00, -0.00, -1.00, 570.1, 571.7)">c</text><text xml:space="preserve" font-family="Monaco,Monaco" font-size="50.0" fill="#FC4384" transform="matrix(1.00, 0.00, -0.00, -1.00, 600.1, 571.7)">t</text><text xml:space="preserve" font-family="Monaco,Monaco" font-size="50.0" fill="#FC4384" transform="matrix(1.00, 0.00, -0.00, -1.00, 630.1, 571.7)">i</text><text xml:space="preserve" font-family="Monaco,Monaco" font-size="50.0" fill="#FC4384" transform="matrix(1.00, 0.00, -0.00, -1.00, 660.1, 571.7)">o</text><text xml:space="preserve" font-family="Monaco,Monaco" font-size="50.0" fill="#FC4384" transform="matrix(1.00, 0.00, -0.00, -1.00, 690.1, 571.7)">n</text><text xml:space="preserve" font-family="Monaco,Monaco" font-size="50.0" fill="#F9F9F4" transform="matrix(1.00, 0.00, -0.00, -1.00, 720.1, 571.7)">(</text><text xml:space="preserve" font-family="Monaco,Monaco" font-size="50.0" fill="#F9F9F4" transform="matrix(1.00, 0.00, -0.00, -1.00, 750.1, 571.7)">s</text><text xml:space="preserve" font-family="Monaco,Monaco" font-size="50.0" fill="#F9F9F4" transform="matrix(1.00, 0.00, -0.00, -1.00, 780.1, 571.7)">t</text><text xml:space="preserve" font-family="Monaco,Monaco" font-size="50.0" fill="#F9F9F4" transform="matrix(1.00, 0.00, -0.00, -1.00, 810.1, 571.7)">e</text><text xml:space="preserve" font-family="Monaco,Monaco" font-size="50.0" fill="#F9F9F4" transform="matrix(1.00, 0.00, -0.00, -1.00, 840.1, 571.7)">p</text><text xml:space="preserve" font-family="Monaco,Monaco" font-size="50.0" fill="#F9F9F4" transform="matrix(1.00, 0.00, -0.00, -1.00, 870.1, 571.7)">,</text><text xml:space="preserve" font-family="Monaco,Monaco" font-size="50.0" fill="#000000" transform="matrix(1.00, 0.00, -0.00, -1.00, 900.1, 571.7)"> </text><text xml:space="preserve" font-family="Monaco,Monaco" font-size="50.0" fill="#F9F9F4" transform="matrix(1.00, 0.00, -0.00, -1.00, 930.1, 571.7)">i</text><text xml:space="preserve" font-family="Monaco,Monaco" font-size="50.0" fill="#F9F9F4" transform="matrix(1.00, 0.00, -0.00, -1.00, 960.1, 571.7)">n</text><text xml:space="preserve" font-family="Monaco,Monaco" font-size="50.0" fill="#F9F9F4" transform="matrix(1.00, 0.00, -0.00, -1.00, 990.2, 571.7)">i</text><text xml:space="preserve" font-family="Monaco,Monaco" font-size="50.0" fill="#F9F9F4" transform="matrix(1.00, 0.00, -0.00, -1.00, 1020.2, 571.7)">t</text><text xml:space="preserve" font-family="Monaco,Monaco" font-size="50.0" fill="#F9F9F4" transform="matrix(1.00, 0.00, -0.00, -1.00, 1050.2, 571.7)">i</text><text xml:space="preserve" font-family="Monaco,Monaco" font-size="50.0" fill="#F9F9F4" transform="matrix(1.00, 0.00, -0.00, -1.00, 1080.2, 571.7)">a</text><text xml:space="preserve" font-family="Monaco,Monaco" font-size="50.0" fill="#F9F9F4" transform="matrix(1.00, 0.00, -0.00, -1.00, 1110.2, 571.7)">l</text><text xml:space="preserve" font-family="Monaco,Monaco" font-size="50.0" fill="#F9F9F4" transform="matrix(1.00, 0.00, -0.00, -1.00, 1140.2, 571.7)">)</text><text xml:space="preserve" font-family="Monaco,Monaco" font-size="50.0" fill="#F9F9F4" transform="matrix(1.00, 0.00, -0.00, -1.00, 1170.2, 571.7)"> </text><text xml:space="preserve" font-family="Monaco,Monaco" font-size="50.0" fill="#F9F9F4" transform="matrix(1.00, 0.00, -0.00, -1.00, 1200.2, 571.7)">{</text><text xml:space="preserve" font-family="Monaco,Monaco" font-size="50.0" fill="#000000" transform="matrix(1.00, 0.00, -0.00, -1.00, 120.0, 504.7)"> </text><text xml:space="preserve" font-family="Monaco,Monaco" font-size="50.0" fill="#000000" transform="matrix(1.00, 0.00, -0.00, -1.00, 150.0, 504.7)"> </text><text xml:space="preserve" font-family="Monaco,Monaco" font-size="50.0" fill="#000000" transform="matrix(1.00, 0.00, -0.00, -1.00, 180.0, 504.7)"> </text><text xml:space="preserve" font-family="Monaco,Monaco" font-size="50.0" fill="#000000" transform="matrix(1.00, 0.00, -0.00, -1.00, 210.0, 504.7)"> </text><text xml:space="preserve" font-family="Monaco,Monaco" font-size="50.0" fill="#000000" transform="matrix(1.00, 0.00, -0.00, -1.00, 240.0, 504.7)"> </text><text xml:space="preserve" font-family="Monaco,Monaco" font-size="50.0" fill="#000000" transform="matrix(1.00, 0.00, -0.00, -1.00, 270.0, 504.7)"> </text><text xml:space="preserve" font-family="Monaco,Monaco" font-size="50.0" fill="#FC4384" transform="matrix(1.00, 0.00, -0.00, -1.00, 300.0, 504.7)">r</text><text xml:space="preserve" font-family="Monaco,Monaco" font-size="50.0" fill="#FC4384" transform="matrix(1.00, 0.00, -0.00, -1.00, 330.0, 504.7)">e</text><text xml:space="preserve" font-family="Monaco,Monaco" font-size="50.0" fill="#FC4384" transform="matrix(1.00, 0.00, -0.00, -1.00, 360.0, 504.7)">t</text><text xml:space="preserve" font-family="Monaco,Monaco" font-size="50.0" fill="#FC4384" transform="matrix(1.00, 0.00, -0.00, -1.00, 390.1, 504.7)">u</text><text xml:space="preserve" font-family="Monaco,Monaco" font-size="50.0" fill="#FC4384" transform="matrix(1.00, 0.00, -0.00, -1.00, 420.1, 504.7)">r</text><text xml:space="preserve" font-family="Monaco,Monaco" font-size="50.0" fill="#FC4384" transform="matrix(1.00, 0.00, -0.00, -1.00, 450.1, 504.7)">n</text><text xml:space="preserve" font-family="Monaco,Monaco" font-size="50.0" fill="#000000" transform="matrix(1.00, 0.00, -0.00, -1.00, 480.1, 504.7)"> </text><text xml:space="preserve" font-family="Monaco,Monaco" font-size="50.0" fill="#F9F9F4" transform="matrix(1.00, 0.00, -0.00, -1.00, 510.1, 504.7)">c</text><text xml:space="preserve" font-family="Monaco,Monaco" font-size="50.0" fill="#F9F9F4" transform="matrix(1.00, 0.00, -0.00, -1.00, 540.1, 504.7)">o</text><text xml:space="preserve" font-family="Monaco,Monaco" font-size="50.0" fill="#F9F9F4" transform="matrix(1.00, 0.00, -0.00, -1.00, 570.1, 504.7)">l</text><text xml:space="preserve" font-family="Monaco,Monaco" font-size="50.0" fill="#F9F9F4" transform="matrix(1.00, 0.00, -0.00, -1.00, 600.1, 504.7)">l</text><text xml:space="preserve" font-family="Monaco,Monaco" font-size="50.0" fill="#F9F9F4" transform="matrix(1.00, 0.00, -0.00, -1.00, 630.1, 504.7)">.</text><text xml:space="preserve" font-family="Monaco,Monaco" font-size="50.0" fill="#13F7BA" transform="matrix(1.00, 0.00, -0.00, -1.00, 660.1, 504.7)">r</text><text xml:space="preserve" font-family="Monaco,Monaco" font-size="50.0" fill="#13F7BA" transform="matrix(1.00, 0.00, -0.00, -1.00, 690.1, 504.7)">e</text><text xml:space="preserve" font-family="Monaco,Monaco" font-size="50.0" fill="#13F7BA" transform="matrix(1.00, 0.00, -0.00, -1.00, 720.1, 504.7)">d</text><text xml:space="preserve" font-family="Monaco,Monaco" font-size="50.0" fill="#13F7BA" transform="matrix(1.00, 0.00, -0.00, -1.00, 750.1, 504.7)">u</text><text xml:space="preserve" font-family="Monaco,Monaco" font-size="50.0" fill="#13F7BA" transform="matrix(1.00, 0.00, -0.00, -1.00, 780.1, 504.7)">c</text><text xml:space="preserve" font-family="Monaco,Monaco" font-size="50.0" fill="#13F7BA" transform="matrix(1.00, 0.00, -0.00, -1.00, 810.1, 504.7)">e</text><text xml:space="preserve" font-family="Monaco,Monaco" font-size="50.0" fill="#F9F9F4" transform="matrix(1.00, 0.00, -0.00, -1.00, 840.1, 504.7)">(</text><text xml:space="preserve" font-family="Monaco,Monaco" font-size="50.0" fill="#FC4384" transform="matrix(1.00, 0.00, -0.00, -1.00, 870.1, 504.7)">f</text><text xml:space="preserve" font-family="Monaco,Monaco" font-size="50.0" fill="#FC4384" transform="matrix(1.00, 0.00, -0.00, -1.00, 900.1, 504.7)">u</text><text xml:space="preserve" font-family="Monaco,Monaco" font-size="50.0" fill="#FC4384" transform="matrix(1.00, 0.00, -0.00, -1.00, 930.1, 504.7)">n</text><text xml:space="preserve" font-family="Monaco,Monaco" font-size="50.0" fill="#FC4384" transform="matrix(1.00, 0.00, -0.00, -1.00, 960.2, 504.7)">c</text><text xml:space="preserve" font-family="Monaco,Monaco" font-size="50.0" fill="#FC4384" transform="matrix(1.00, 0.00, -0.00, -1.00, 990.2, 504.7)">t</text><text xml:space="preserve" font-family="Monaco,Monaco" font-size="50.0" fill="#FC4384" transform="matrix(1.00, 0.00, -0.00, -1.00, 1020.2, 504.7)">i</text><text xml:space="preserve" font-family="Monaco,Monaco" font-size="50.0" fill="#FC4384" transform="matrix(1.00, 0.00, -0.00, -1.00, 1050.2, 504.7)">o</text><text xml:space="preserve" font-family="Monaco,Monaco" font-size="50.0" fill="#FC4384" transform="matrix(1.00, 0.00, -0.00, -1.00, 1080.2, 504.7)">n</text><text xml:space="preserve" font-family="Monaco,Monaco" font-size="50.0" fill="#F9F9F4" transform="matrix(1.00, 0.00, -0.00, -1.00, 1110.2, 504.7)">(</text><text xml:space="preserve" font-family="Monaco,Monaco" font-size="50.0" fill="#F9F9F4" transform="matrix(1.00, 0.00, -0.00, -1.00, 1140.2, 504.7)">a</text><text xml:space="preserve" font-family="Monaco,Monaco" font-size="50.0" fill="#F9F9F4" transform="matrix(1.00, 0.00, -0.00, -1.00, 1170.2, 504.7)">c</text><text xml:space="preserve" font-family="Monaco,Monaco" font-size="50.0" fill="#F9F9F4" transform="matrix(1.00, 0.00, -0.00, -1.00, 1200.2, 504.7)">c</text><text xml:space="preserve" font-family="Monaco,Monaco" font-size="50.0" fill="#F9F9F4" transform="matrix(1.00, 0.00, -0.00, -1.00, 1230.2, 504.7)">,</text><text xml:space="preserve" font-family="Monaco,Monaco" font-size="50.0" fill="#000000" transform="matrix(1.00, 0.00, -0.00, -1.00, 1260.2, 504.7)"> </text><text xml:space="preserve" font-family="Monaco,Monaco" font-size="50.0" fill="#F9F9F4" transform="matrix(1.00, 0.00, -0.00, -1.00, 1290.2, 504.7)">e</text><text xml:space="preserve" font-family="Monaco,Monaco" font-size="50.0" fill="#F9F9F4" transform="matrix(1.00, 0.00, -0.00, -1.00, 1320.2, 504.7)">l</text><text xml:space="preserve" font-family="Monaco,Monaco" font-size="50.0" fill="#F9F9F4" transform="matrix(1.00, 0.00, -0.00, -1.00, 1350.2, 504.7)">e</text><text xml:space="preserve" font-family="Monaco,Monaco" font-size="50.0" fill="#F9F9F4" transform="matrix(1.00, 0.00, -0.00, -1.00, 1380.2, 504.7)">m</text><text xml:space="preserve" font-family="Monaco,Monaco" font-size="50.0" fill="#F9F9F4" transform="matrix(1.00, 0.00, -0.00, -1.00, 1410.2, 504.7)">e</text><text xml:space="preserve" font-family="Monaco,Monaco" font-size="50.0" fill="#F9F9F4" transform="matrix(1.00, 0.00, -0.00, -1.00, 1440.2, 504.7)">n</text><text xml:space="preserve" font-family="Monaco,Monaco" font-size="50.0" fill="#F9F9F4" transform="matrix(1.00, 0.00, -0.00, -1.00, 1470.2, 504.7)">t</text><text xml:space="preserve" font-family="Monaco,Monaco" font-size="50.0" fill="#F9F9F4" transform="matrix(1.00, 0.00, -0.00, -1.00, 1500.3, 504.7)">)</text><text xml:space="preserve" font-family="Monaco,Monaco" font-size="50.0" fill="#F9F9F4" transform="matrix(1.00, 0.00, -0.00, -1.00, 1530.3, 504.7)"> </text><text xml:space="preserve" font-family="Monaco,Monaco" font-size="50.0" fill="#F9F9F4" transform="matrix(1.00, 0.00, -0.00, -1.00, 1560.3, 504.7)">{</text><text xml:space="preserve" font-family="Monaco,Monaco" font-size="50.0" fill="#000000" transform="matrix(1.00, 0.00, -0.00, -1.00, 120.0, 437.7)"> </text><text xml:space="preserve" font-family="Monaco,Monaco" font-size="50.0" fill="#000000" transform="matrix(1.00, 0.00, -0.00, -1.00, 150.0, 437.7)"> </text><text xml:space="preserve" font-family="Monaco,Monaco" font-size="50.0" fill="#000000" transform="matrix(1.00, 0.00, -0.00, -1.00, 180.0, 437.7)"> </text><text xml:space="preserve" font-family="Monaco,Monaco" font-size="50.0" fill="#000000" transform="matrix(1.00, 0.00, -0.00, -1.00, 210.0, 437.7)"> </text><text xml:space="preserve" font-family="Monaco,Monaco" font-size="50.0" fill="#000000" transform="matrix(1.00, 0.00, -0.00, -1.00, 240.0, 437.7)"> </text><text xml:space="preserve" font-family="Monaco,Monaco" font-size="50.0" fill="#000000" transform="matrix(1.00, 0.00, -0.00, -1.00, 270.0, 437.7)"> </text><text xml:space="preserve" font-family="Monaco,Monaco" font-size="50.0" fill="#000000" transform="matrix(1.00, 0.00, -0.00, -1.00, 300.1, 437.7)"> </text><text xml:space="preserve" font-family="Monaco,Monaco" font-size="50.0" fill="#000000" transform="matrix(1.00, 0.00, -0.00, -1.00, 330.1, 437.7)"> </text><text xml:space="preserve" font-family="Monaco,Monaco" font-size="50.0" fill="#FC4384" transform="matrix(1.00, 0.00, -0.00, -1.00, 360.0, 437.7)">r</text><text xml:space="preserve" font-family="Monaco,Monaco" font-size="50.0" fill="#FC4384" transform="matrix(1.00, 0.00, -0.00, -1.00, 390.0, 437.7)">e</text><text xml:space="preserve" font-family="Monaco,Monaco" font-size="50.0" fill="#FC4384" transform="matrix(1.00, 0.00, -0.00, -1.00, 420.1, 437.7)">t</text><text xml:space="preserve" font-family="Monaco,Monaco" font-size="50.0" fill="#FC4384" transform="matrix(1.00, 0.00, -0.00, -1.00, 450.1, 437.7)">u</text><text xml:space="preserve" font-family="Monaco,Monaco" font-size="50.0" fill="#FC4384" transform="matrix(1.00, 0.00, -0.00, -1.00, 480.1, 437.7)">r</text><text xml:space="preserve" font-family="Monaco,Monaco" font-size="50.0" fill="#FC4384" transform="matrix(1.00, 0.00, -0.00, -1.00, 510.1, 437.7)">n</text><text xml:space="preserve" font-family="Monaco,Monaco" font-size="50.0" fill="#000000" transform="matrix(1.00, 0.00, -0.00, -1.00, 540.1, 437.7)"> </text><text xml:space="preserve" font-family="Monaco,Monaco" font-size="50.0" fill="#13F7BA" transform="matrix(1.00, 0.00, -0.00, -1.00, 570.1, 437.7)">s</text><text xml:space="preserve" font-family="Monaco,Monaco" font-size="50.0" fill="#13F7BA" transform="matrix(1.00, 0.00, -0.00, -1.00, 600.1, 437.7)">t</text><text xml:space="preserve" font-family="Monaco,Monaco" font-size="50.0" fill="#13F7BA" transform="matrix(1.00, 0.00, -0.00, -1.00, 630.1, 437.7)">e</text><text xml:space="preserve" font-family="Monaco,Monaco" font-size="50.0" fill="#13F7BA" transform="matrix(1.00, 0.00, -0.00, -1.00, 660.1, 437.7)">p</text><text xml:space="preserve" font-family="Monaco,Monaco" font-size="50.0" fill="#F9F9F4" transform="matrix(1.00, 0.00, -0.00, -1.00, 690.1, 437.7)">(</text><text xml:space="preserve" font-family="Monaco,Monaco" font-size="50.0" fill="#F9F9F4" transform="matrix(1.00, 0.00, -0.00, -1.00, 720.1, 437.7)">a</text><text xml:space="preserve" font-family="Monaco,Monaco" font-size="50.0" fill="#F9F9F4" transform="matrix(1.00, 0.00, -0.00, -1.00, 750.1, 437.7)">c</text><text xml:space="preserve" font-family="Monaco,Monaco" font-size="50.0" fill="#F9F9F4" transform="matrix(1.00, 0.00, -0.00, -1.00, 780.1, 437.7)">c</text><text xml:space="preserve" font-family="Monaco,Monaco" font-size="50.0" fill="#F9F9F4" transform="matrix(1.00, 0.00, -0.00, -1.00, 810.1, 437.7)">,</text><text xml:space="preserve" font-family="Monaco,Monaco" font-size="50.0" fill="#000000" transform="matrix(1.00, 0.00, -0.00, -1.00, 840.1, 437.7)"> </text><text xml:space="preserve" font-family="Monaco,Monaco" font-size="50.0" fill="#13F7BA" transform="matrix(1.00, 0.00, -0.00, -1.00, 870.1, 437.7)">f</text><text xml:space="preserve" font-family="Monaco,Monaco" font-size="50.0" fill="#13F7BA" transform="matrix(1.00, 0.00, -0.00, -1.00, 900.1, 437.7)">n</text><text xml:space="preserve" font-family="Monaco,Monaco" font-size="50.0" fill="#F9F9F4" transform="matrix(1.00, 0.00, -0.00, -1.00, 930.1, 437.7)">(</text><text xml:space="preserve" font-family="Monaco,Monaco" font-size="50.0" fill="#F9F9F4" transform="matrix(1.00, 0.00, -0.00, -1.00, 960.1, 437.7)">e</text><text xml:space="preserve" font-family="Monaco,Monaco" font-size="50.0" fill="#F9F9F4" transform="matrix(1.00, 0.00, -0.00, -1.00, 990.2, 437.7)">l</text><text xml:space="preserve" font-family="Monaco,Monaco" font-size="50.0" fill="#F9F9F4" transform="matrix(1.00, 0.00, -0.00, -1.00, 1020.2, 437.7)">e</text><text xml:space="preserve" font-family="Monaco,Monaco" font-size="50.0" fill="#F9F9F4" transform="matrix(1.00, 0.00, -0.00, -1.00, 1050.2, 437.7)">m</text><text xml:space="preserve" font-family="Monaco,Monaco" font-size="50.0" fill="#F9F9F4" transform="matrix(1.00, 0.00, -0.00, -1.00, 1080.2, 437.7)">e</text><text xml:space="preserve" font-family="Monaco,Monaco" font-size="50.0" fill="#F9F9F4" transform="matrix(1.00, 0.00, -0.00, -1.00, 1110.2, 437.7)">n</text><text xml:space="preserve" font-family="Monaco,Monaco" font-size="50.0" fill="#F9F9F4" transform="matrix(1.00, 0.00, -0.00, -1.00, 1140.2, 437.7)">t</text><text xml:space="preserve" font-family="Monaco,Monaco" font-size="50.0" fill="#F9F9F4" transform="matrix(1.00, 0.00, -0.00, -1.00, 1170.2, 437.7)">)</text><text xml:space="preserve" font-family="Monaco,Monaco" font-size="50.0" fill="#F9F9F4" transform="matrix(1.00, 0.00, -0.00, -1.00, 1200.2, 437.7)">)</text><text xml:space="preserve" font-family="Monaco,Monaco" font-size="50.0" fill="#F9F9F4" transform="matrix(1.00, 0.00, -0.00, -1.00, 1230.2, 437.7)">;</text><text xml:space="preserve" font-family="Monaco,Monaco" font-size="50.0" fill="#000000" transform="matrix(1.00, 0.00, -0.00, -1.00, 120.0, 370.7)"> </text><text xml:space="preserve" font-family="Monaco,Monaco" font-size="50.0" fill="#000000" transform="matrix(1.00, 0.00, -0.00, -1.00, 150.0, 370.7)"> </text><text xml:space="preserve" font-family="Monaco,Monaco" font-size="50.0" fill="#000000" transform="matrix(1.00, 0.00, -0.00, -1.00, 180.0, 370.7)"> </text><text xml:space="preserve" font-family="Monaco,Monaco" font-size="50.0" fill="#000000" transform="matrix(1.00, 0.00, -0.00, -1.00, 210.0, 370.7)"> </text><text xml:space="preserve" font-family="Monaco,Monaco" font-size="50.0" fill="#000000" transform="matrix(1.00, 0.00, -0.00, -1.00, 240.0, 370.7)"> </text><text xml:space="preserve" font-family="Monaco,Monaco" font-size="50.0" fill="#000000" transform="matrix(1.00, 0.00, -0.00, -1.00, 270.0, 370.7)"> </text><text xml:space="preserve" font-family="Monaco,Monaco" font-size="50.0" fill="#F9F9F4" transform="matrix(1.00, 0.00, -0.00, -1.00, 300.0, 370.7)">}</text><text xml:space="preserve" font-family="Monaco,Monaco" font-size="50.0" fill="#F9F9F4" transform="matrix(1.00, 0.00, -0.00, -1.00, 330.0, 370.7)">,</text><text xml:space="preserve" font-family="Monaco,Monaco" font-size="50.0" fill="#000000" transform="matrix(1.00, 0.00, -0.00, -1.00, 360.0, 370.7)"> </text><text xml:space="preserve" font-family="Monaco,Monaco" font-size="50.0" fill="#F9F9F4" transform="matrix(1.00, 0.00, -0.00, -1.00, 390.0, 370.7)">i</text><text xml:space="preserve" font-family="Monaco,Monaco" font-size="50.0" fill="#F9F9F4" transform="matrix(1.00, 0.00, -0.00, -1.00, 420.1, 370.7)">n</text><text xml:space="preserve" font-family="Monaco,Monaco" font-size="50.0" fill="#F9F9F4" transform="matrix(1.00, 0.00, -0.00, -1.00, 450.1, 370.7)">i</text><text xml:space="preserve" font-family="Monaco,Monaco" font-size="50.0" fill="#F9F9F4" transform="matrix(1.00, 0.00, -0.00, -1.00, 480.1, 370.7)">t</text><text xml:space="preserve" font-family="Monaco,Monaco" font-size="50.0" fill="#F9F9F4" transform="matrix(1.00, 0.00, -0.00, -1.00, 510.1, 370.7)">i</text><text xml:space="preserve" font-family="Monaco,Monaco" font-size="50.0" fill="#F9F9F4" transform="matrix(1.00, 0.00, -0.00, -1.00, 540.1, 370.7)">a</text><text xml:space="preserve" font-family="Monaco,Monaco" font-size="50.0" fill="#F9F9F4" transform="matrix(1.00, 0.00, -0.00, -1.00, 570.1, 370.7)">l</text><text xml:space="preserve" font-family="Monaco,Monaco" font-size="50.0" fill="#F9F9F4" transform="matrix(1.00, 0.00, -0.00, -1.00, 600.1, 370.7)">)</text><text xml:space="preserve" font-family="Monaco,Monaco" font-size="50.0" fill="#F9F9F4" transform="matrix(1.00, 0.00, -0.00, -1.00, 630.1, 370.7)">;</text><text xml:space="preserve" font-family="Monaco,Monaco" font-size="50.0" fill="#000000" transform="matrix(1.00, 0.00, -0.00, -1.00, 120.0, 303.7)"> </text><text xml:space="preserve" font-family="Monaco,Monaco" font-size="50.0" fill="#000000" transform="matrix(1.00, 0.00, -0.00, -1.00, 150.0, 303.7)"> </text><text xml:space="preserve" font-family="Monaco,Monaco" font-size="50.0" fill="#000000" transform="matrix(1.00, 0.00, -0.00, -1.00, 180.0, 303.7)"> </text><text xml:space="preserve" font-family="Monaco,Monaco" font-size="50.0" fill="#000000" transform="matrix(1.00, 0.00, -0.00, -1.00, 210.0, 303.7)"> </text><text xml:space="preserve" font-family="Monaco,Monaco" font-size="50.0" fill="#F9F9F4" transform="matrix(1.00, 0.00, -0.00, -1.00, 240.0, 303.7)">}</text><text xml:space="preserve" font-family="Monaco,Monaco" font-size="50.0" fill="#000000" transform="matrix(1.00, 0.00, -0.00, -1.00, 120.0, 236.7)"> </text><text xml:space="preserve" font-family="Monaco,Monaco" font-size="50.0" fill="#000000" transform="matrix(1.00, 0.00, -0.00, -1.00, 150.0, 236.7)"> </text><text xml:space="preserve" font-family="Monaco,Monaco" font-size="50.0" fill="#F9F9F4" transform="matrix(1.00, 0.00, -0.00, -1.00, 180.0, 236.7)">}</text><text xml:space="preserve" font-family="Monaco,Monaco" font-size="50.0" fill="#F9F9F4" transform="matrix(1.00, 0.00, -0.00, -1.00, 210.0, 236.7)">;</text><text xml:space="preserve" font-family="Monaco,Monaco" font-size="50.0" fill="#F9F9F4" transform="matrix(1.00, 0.00, -0.00, -1.00, 120.0, 169.7)">}</text><text xml:space="preserve" font-family="Monaco,Monaco" font-size="50.0" fill="#F9F9F4" transform="matrix(1.00, 0.00, -0.00, -1.00, 150.0, 169.7)">;</text></g></svg>