<?xml version="1.0" encoding="UTF-8" standalone="no"?><svg xmlns="http://www.w3.org/2000/svg" xmlns:xlink="http://www.w3.org/1999/xlink" clip-rule="evenodd" stroke-miterlimit="10" viewBox="0 0 1920 1080"><desc>SVG generated by Keynote</desc><defs></defs><g transform="matrix(1.00, 0.00, -0.00, -1.00, 0.0, 1080.0)"><g><clipPath id="clip0x7fe428156fd0"><path d="M 0.0 1080.0 L 1920.0 1080.0 L 1920.0 0.0 L 0.0 0.0 Z M 0.0 1080.0 "></path></clipPath><g clip-path="url(#clip0x7fe428156fd0)"><image xlink:href="../../EAAA0B26-26D2-4E6F-B71B-738E9DFC302E/assets/0F43D2572F34A9AFB59E4515ED9A1249.jpeg" width="3840.00" height="2160.00" transform="matrix(0.50, 0.00, -0.00, -0.50, 0.0, 1080.0)"></image></g></g><image xlink:href="D6B78D554472D4F9B01232FBCAD7D687.png" width="562.00" height="82.00" transform="matrix(1.00, 0.00, -0.00, -1.00, 123.0, 769.0)"></image><text xml:space="preserve" font-family="HelveticaNeue-Light,Helvetica Neue" font-size="100.0" fill="#FEFFFE" transform="matrix(1.00, 0.00, -0.00, -1.00, 120.0, 696.2)">P</text><text xml:space="preserve" font-family="HelveticaNeue-Light,Helvetica Neue" font-size="100.0" fill="#FEFFFE" transform="matrix(1.00, 0.00, -0.00, -1.00, 183.0, 696.2)">a</text><text xml:space="preserve" font-family="HelveticaNeue-Light,Helvetica Neue" font-size="100.0" fill="#FEFFFE" transform="matrix(1.00, 0.00, -0.00, -1.00, 234.9, 696.2)">v</text><text xml:space="preserve" font-family="HelveticaNeue-Light,Helvetica Neue" font-size="100.0" fill="#FEFFFE" transform="matrix(1.00, 0.00, -0.00, -1.00, 281.2, 696.2)">e</text><text xml:space="preserve" font-family="HelveticaNeue-Light,Helvetica Neue" font-size="100.0" fill="#FEFFFE" transform="matrix(1.00, 0.00, -0.00, -1.00, 333.1, 696.2)">l</text><text xml:space="preserve" font-family="HelveticaNeue-Light,Helvetica Neue" font-size="100.0" fill="#FEFFFE" transform="matrix(1.00, 0.00, -0.00, -1.00, 351.6, 696.2)"> </text><text xml:space="preserve" font-family="HelveticaNeue-Light,Helvetica Neue" font-size="100.0" fill="#FEFFFE" transform="matrix(1.00, 0.00, -0.00, -1.00, 379.4, 696.2)">F</text><text xml:space="preserve" font-family="HelveticaNeue-Light,Helvetica Neue" font-size="100.0" fill="#FEFFFE" transform="matrix(1.00, 0.00, -0.00, -1.00, 433.1, 696.2)">o</text><text xml:space="preserve" font-family="HelveticaNeue-Light,Helvetica Neue" font-size="100.0" fill="#FEFFFE" transform="matrix(1.00, 0.00, -0.00, -1.00, 488.7, 696.2)">r</text><text xml:space="preserve" font-family="HelveticaNeue-Light,Helvetica Neue" font-size="100.0" fill="#FEFFFE" transform="matrix(1.00, 0.00, -0.00, -1.00, 520.2, 696.2)">k</text><text xml:space="preserve" font-family="HelveticaNeue-Light,Helvetica Neue" font-size="100.0" fill="#FEFFFE" transform="matrix(1.00, 0.00, -0.00, -1.00, 570.2, 696.2)">e</text><text xml:space="preserve" font-family="HelveticaNeue-Light,Helvetica Neue" font-size="100.0" fill="#FEFFFE" transform="matrix(1.00, 0.00, -0.00, -1.00, 622.1, 696.2)">r</text><text xml:space="preserve" font-family="HelveticaNeue-Light,Helvetica Neue" font-size="100.0" fill="#FEFFFE" transform="matrix(1.00, 0.00, -0.00, -1.00, 653.6, 696.2)">t</text><text xml:space="preserve" font-family="HelveticaNeue-Light,Helvetica Neue" font-size="100.0" fill="#FEFFFE" transform="matrix(1.00, 0.00, -0.00, -1.00, 683.2, 696.2)"> </text><image xlink:href="C113075A129857F73A5BB8AEF4F00387.png" width="666.00" height="62.00" transform="matrix(1.00, 0.00, -0.00, -1.00, 120.0, 406.0)"></image><text xml:space="preserve" font-family="HelveticaNeue-Light,Helvetica Neue" font-size="58.0" fill="#73BFFF" transform="matrix(1.00, 0.00, -0.00, -1.00, 120.0, 363.5)">P</text><text xml:space="preserve" font-family="HelveticaNeue-Light,Helvetica Neue" font-size="58.0" fill="#73BFFF" transform="matrix(1.00, 0.00, -0.00, -1.00, 156.5, 363.5)">r</text><text xml:space="preserve" font-family="HelveticaNeue-Light,Helvetica Neue" font-size="58.0" fill="#73BFFF" transform="matrix(1.00, 0.00, -0.00, -1.00, 173.8, 363.5)">o</text><text xml:space="preserve" font-family="HelveticaNeue-Light,Helvetica Neue" font-size="58.0" fill="#73BFFF" transform="matrix(1.00, 0.00, -0.00, -1.00, 206.0, 363.5)">g</text><text xml:space="preserve" font-family="HelveticaNeue-Light,Helvetica Neue" font-size="58.0" fill="#73BFFF" transform="matrix(1.00, 0.00, -0.00, -1.00, 238.3, 363.5)">r</text><text xml:space="preserve" font-family="HelveticaNeue-Light,Helvetica Neue" font-size="58.0" fill="#73BFFF" transform="matrix(1.00, 0.00, -0.00, -1.00, 256.5, 363.5)">a</text><text xml:space="preserve" font-family="HelveticaNeue-Light,Helvetica Neue" font-size="58.0" fill="#73BFFF" transform="matrix(1.00, 0.00, -0.00, -1.00, 286.6, 363.5)">m</text><text xml:space="preserve" font-family="HelveticaNeue-Light,Helvetica Neue" font-size="58.0" fill="#73BFFF" transform="matrix(1.00, 0.00, -0.00, -1.00, 334.9, 363.5)">m</text><text xml:space="preserve" font-family="HelveticaNeue-Light,Helvetica Neue" font-size="58.0" fill="#73BFFF" transform="matrix(1.00, 0.00, -0.00, -1.00, 383.3, 363.5)">i</text><text xml:space="preserve" font-family="HelveticaNeue-Light,Helvetica Neue" font-size="58.0" fill="#73BFFF" transform="matrix(1.00, 0.00, -0.00, -1.00, 394.0, 363.5)">n</text><text xml:space="preserve" font-family="HelveticaNeue-Light,Helvetica Neue" font-size="58.0" fill="#73BFFF" transform="matrix(1.00, 0.00, -0.00, -1.00, 425.1, 363.5)">g</text><text xml:space="preserve" font-family="HelveticaNeue-Light,Helvetica Neue" font-size="58.0" fill="#73BFFF" transform="matrix(1.00, 0.00, -0.00, -1.00, 457.4, 363.5)"> </text><text xml:space="preserve" font-family="HelveticaNeue-Light,Helvetica Neue" font-size="58.0" fill="#73BFFF" transform="matrix(1.00, 0.00, -0.00, -1.00, 473.5, 363.5)">l</text><text xml:space="preserve" font-family="HelveticaNeue-Light,Helvetica Neue" font-size="58.0" fill="#73BFFF" transform="matrix(1.00, 0.00, -0.00, -1.00, 484.2, 363.5)">a</text><text xml:space="preserve" font-family="HelveticaNeue-Light,Helvetica Neue" font-size="58.0" fill="#73BFFF" transform="matrix(1.00, 0.00, -0.00, -1.00, 514.3, 363.5)">n</text><text xml:space="preserve" font-family="HelveticaNeue-Light,Helvetica Neue" font-size="58.0" fill="#73BFFF" transform="matrix(1.00, 0.00, -0.00, -1.00, 545.5, 363.5)">g</text><text xml:space="preserve" font-family="HelveticaNeue-Light,Helvetica Neue" font-size="58.0" fill="#73BFFF" transform="matrix(1.00, 0.00, -0.00, -1.00, 577.7, 363.5)">u</text><text xml:space="preserve" font-family="HelveticaNeue-Light,Helvetica Neue" font-size="58.0" fill="#73BFFF" transform="matrix(1.00, 0.00, -0.00, -1.00, 608.9, 363.5)">a</text><text xml:space="preserve" font-family="HelveticaNeue-Light,Helvetica Neue" font-size="58.0" fill="#73BFFF" transform="matrix(1.00, 0.00, -0.00, -1.00, 639.0, 363.5)">g</text><text xml:space="preserve" font-family="HelveticaNeue-Light,Helvetica Neue" font-size="58.0" fill="#73BFFF" transform="matrix(1.00, 0.00, -0.00, -1.00, 671.2, 363.5)">e</text><text xml:space="preserve" font-family="HelveticaNeue-Light,Helvetica Neue" font-size="58.0" fill="#73BFFF" transform="matrix(1.00, 0.00, -0.00, -1.00, 701.3, 363.5)">s</text><text xml:space="preserve" font-family="HelveticaNeue-Light,Helvetica Neue" font-size="58.0" fill="#73BFFF" transform="matrix(1.00, 0.00, -0.00, -1.00, 729.2, 363.5)"> </text><text xml:space="preserve" font-family="HelveticaNeue-Light,Helvetica Neue" font-size="58.0" fill="#73BFFF" transform="matrix(1.00, 0.00, -0.00, -1.00, 745.4, 363.5)">&amp;</text><text xml:space="preserve" font-family="HelveticaNeue-Light,Helvetica Neue" font-size="58.0" fill="#73BFFF" transform="matrix(1.00, 0.00, -0.00, -1.00, 780.8, 363.5)"> </text><image xlink:href="B05BE854803977C0EB38C0D517E593A9.png" width="532.00" height="62.00" transform="matrix(1.00, 0.00, -0.00, -1.00, 118.0, 336.0)"></image><text xml:space="preserve" font-family="HelveticaNeue-Light,Helvetica Neue" font-size="58.0" fill="#73BFFF" transform="matrix(1.00, 0.00, -0.00, -1.00, 120.0, 293.5)">d</text><text xml:space="preserve" font-family="HelveticaNeue-Light,Helvetica Neue" font-size="58.0" fill="#73BFFF" transform="matrix(1.00, 0.00, -0.00, -1.00, 153.3, 293.5)">e</text><text xml:space="preserve" font-family="HelveticaNeue-Light,Helvetica Neue" font-size="58.0" fill="#73BFFF" transform="matrix(1.00, 0.00, -0.00, -1.00, 183.4, 293.5)">s</text><text xml:space="preserve" font-family="HelveticaNeue-Light,Helvetica Neue" font-size="58.0" fill="#73BFFF" transform="matrix(1.00, 0.00, -0.00, -1.00, 211.3, 293.5)">i</text><text xml:space="preserve" font-family="HelveticaNeue-Light,Helvetica Neue" font-size="58.0" fill="#73BFFF" transform="matrix(1.00, 0.00, -0.00, -1.00, 222.0, 293.5)">g</text><text xml:space="preserve" font-family="HelveticaNeue-Light,Helvetica Neue" font-size="58.0" fill="#73BFFF" transform="matrix(1.00, 0.00, -0.00, -1.00, 254.3, 293.5)">n</text><text xml:space="preserve" font-family="HelveticaNeue-Light,Helvetica Neue" font-size="58.0" fill="#73BFFF" transform="matrix(1.00, 0.00, -0.00, -1.00, 285.4, 293.5)"> </text><text xml:space="preserve" font-family="HelveticaNeue-Light,Helvetica Neue" font-size="58.0" fill="#73BFFF" transform="matrix(1.00, 0.00, -0.00, -1.00, 301.5, 293.5)">p</text><text xml:space="preserve" font-family="HelveticaNeue-Light,Helvetica Neue" font-size="58.0" fill="#73BFFF" transform="matrix(1.00, 0.00, -0.00, -1.00, 334.8, 293.5)">a</text><text xml:space="preserve" font-family="HelveticaNeue-Light,Helvetica Neue" font-size="58.0" fill="#73BFFF" transform="matrix(1.00, 0.00, -0.00, -1.00, 364.9, 293.5)">t</text><text xml:space="preserve" font-family="HelveticaNeue-Light,Helvetica Neue" font-size="58.0" fill="#73BFFF" transform="matrix(1.00, 0.00, -0.00, -1.00, 382.1, 293.5)">t</text><text xml:space="preserve" font-family="HelveticaNeue-Light,Helvetica Neue" font-size="58.0" fill="#73BFFF" transform="matrix(1.00, 0.00, -0.00, -1.00, 399.3, 293.5)">e</text><text xml:space="preserve" font-family="HelveticaNeue-Light,Helvetica Neue" font-size="58.0" fill="#73BFFF" transform="matrix(1.00, 0.00, -0.00, -1.00, 429.4, 293.5)">r</text><text xml:space="preserve" font-family="HelveticaNeue-Light,Helvetica Neue" font-size="58.0" fill="#73BFFF" transform="matrix(1.00, 0.00, -0.00, -1.00, 448.7, 293.5)">n</text><text xml:space="preserve" font-family="HelveticaNeue-Light,Helvetica Neue" font-size="58.0" fill="#73BFFF" transform="matrix(1.00, 0.00, -0.00, -1.00, 479.8, 293.5)">s</text><text xml:space="preserve" font-family="HelveticaNeue-Light,Helvetica Neue" font-size="58.0" fill="#73BFFF" transform="matrix(1.00, 0.00, -0.00, -1.00, 507.7, 293.5)"> </text><text xml:space="preserve" font-family="HelveticaNeue-Light,Helvetica Neue" font-size="58.0" fill="#73BFFF" transform="matrix(1.00, 0.00, -0.00, -1.00, 523.9, 293.5)">g</text><text xml:space="preserve" font-family="HelveticaNeue-Light,Helvetica Neue" font-size="58.0" fill="#73BFFF" transform="matrix(1.00, 0.00, -0.00, -1.00, 556.1, 293.5)">e</text><text xml:space="preserve" font-family="HelveticaNeue-Light,Helvetica Neue" font-size="58.0" fill="#73BFFF" transform="matrix(1.00, 0.00, -0.00, -1.00, 586.2, 293.5)">e</text><text xml:space="preserve" font-family="HelveticaNeue-Light,Helvetica Neue" font-size="58.0" fill="#73BFFF" transform="matrix(1.00, 0.00, -0.00, -1.00, 616.3, 293.5)">k</text><image xlink:href="A015FA7E5766584AFA653FD3DDA7509F.png" width="791.00" height="1024.00" transform="matrix(0.36, 0.00, -0.00, -0.36, 965.0, 968.0)"></image><image xlink:href="ED35395508A01250075FA7C2AE1E3A74.jpeg" width="550.00" height="550.00" transform="matrix(0.51, 0.00, -0.00, -0.51, 1011.0, 324.0)"></image><image xlink:href="6C8819F68C277FC68FAA6F13A4489383.png" width="1052.00" height="1052.00" transform="matrix(0.29, 0.00, -0.00, -0.29, 1308.0, 395.0)"></image><g><clipPath id="clip0x7fe427c83750"><path d="M 1549.6 666.8 L 1832.7 666.8 L 1832.7 950.0 L 1549.6 950.0 Z M 1549.6 666.8 "></path></clipPath><g clip-path="url(#clip0x7fe427c83750)"><path d="M 1551.0 949.0 L 1832.0 949.0 L 1832.0 668.0 L 1551.0 668.0 Z M 1550.6 949.0 " fill="#DCDDE0"></path></g></g><g><clipPath id="clip0x7fe428015b10"><path d="M 1551.0 949.0 L 1832.0 949.0 L 1832.0 668.0 L 1551.0 668.0 Z M 1550.6 949.0 "></path></clipPath><g clip-path="url(#clip0x7fe428015b10)"><g><clipPath id="clip0x7fe427a80470"><path d="M 1550.6 667.8 L 1831.7 667.8 L 1831.7 949.0 L 1550.6 949.0 Z M 1550.6 667.8 "></path></clipPath><g clip-path="url(#clip0x7fe427a80470)"><image xlink:href="5F74E88CAE13F97411B93DFECBA2A86F.png" width="518.00" height="518.00" transform="matrix(0.54, 0.00, -0.00, -0.54, 1551.0, 949.0)"></image></g></g></g></g><image xlink:href="5E82DE1B960B24DD421A5A1A316DAD70.png" width="600.00" height="600.00" transform="matrix(0.65, 0.00, -0.00, -0.65, 1555.0, 730.0)"></image><image xlink:href="119A3F8D781962BC7C2B5D6BB2A8054D.png" width="995.00" height="996.00" transform="matrix(0.38, 0.00, -0.00, -0.38, 1225.0, 727.0)"></image><image xlink:href="FA5F4AAFFA859488F024F61A266961EF.png" width="588.00" height="588.00" transform="matrix(1.00, 0.00, -0.00, -1.00, 764.7, 741.0)" opacity="0.70"></image><image xlink:href="916DC3AEFFD7A89BBDEAB248B178EA80.png" width="1024.00" height="1024.00" transform="matrix(0.38, 0.00, -0.00, -0.38, 865.0, 641.0)"></image><image xlink:href="../../EAAA0B26-26D2-4E6F-B71B-738E9DFC302E/assets/B061E4C15B2B718EC350D507A5CCFEB7.png" width="512.00" height="538.00" transform="matrix(0.81, 0.00, -0.00, -0.81, 1234.0, 1108.0)"></image><image xlink:href="98808D2D82F9C37460335DE2A3A3FD02.png" width="346.00" height="340.00" transform="matrix(1.00, 0.00, -0.00, -1.00, 1582.0, 372.0)"></image></g></svg>