<?xml version="1.0" encoding="UTF-8" standalone="no"?><svg xmlns="http://www.w3.org/2000/svg" xmlns:xlink="http://www.w3.org/1999/xlink" clip-rule="evenodd" stroke-miterlimit="10" viewBox="0 0 1321 456"><desc>SVG generated by Keynote</desc><defs></defs><g transform="matrix(1.00, 0.00, -0.00, -1.00, 0.0, 456.0)"><text xml:space="preserve" font-family="Monaco,Monaco" font-size="50.0" fill="#FC4384" transform="matrix(1.00, 0.00, -0.00, -1.00, 0.0, 414.7)">f</text><text xml:space="preserve" font-family="Monaco,Monaco" font-size="50.0" fill="#FC4384" transform="matrix(1.00, 0.00, -0.00, -1.00, 30.0, 414.7)">u</text><text xml:space="preserve" font-family="Monaco,Monaco" font-size="50.0" fill="#FC4384" transform="matrix(1.00, 0.00, -0.00, -1.00, 60.0, 414.7)">n</text><text xml:space="preserve" font-family="Monaco,Monaco" font-size="50.0" fill="#FC4384" transform="matrix(1.00, 0.00, -0.00, -1.00, 90.0, 414.7)">c</text><text xml:space="preserve" font-family="Monaco,Monaco" font-size="50.0" fill="#FC4384" transform="matrix(1.00, 0.00, -0.00, -1.00, 120.0, 414.7)">t</text><text xml:space="preserve" font-family="Monaco,Monaco" font-size="50.0" fill="#FC4384" transform="matrix(1.00, 0.00, -0.00, -1.00, 150.0, 414.7)">i</text><text xml:space="preserve" font-family="Monaco,Monaco" font-size="50.0" fill="#FC4384" transform="matrix(1.00, 0.00, -0.00, -1.00, 180.1, 414.7)">o</text><text xml:space="preserve" font-family="Monaco,Monaco" font-size="50.0" fill="#FC4384" transform="matrix(1.00, 0.00, -0.00, -1.00, 210.1, 414.7)">n</text><text xml:space="preserve" font-family="Monaco,Monaco" font-size="50.0" fill="#000000" transform="matrix(1.00, 0.00, -0.00, -1.00, 240.0, 414.7)"> </text><text xml:space="preserve" font-family="Monaco,Monaco" font-size="50.0" fill="#13F7BA" transform="matrix(1.00, 0.00, -0.00, -1.00, 270.0, 414.7)">m</text><text xml:space="preserve" font-family="Monaco,Monaco" font-size="50.0" fill="#13F7BA" transform="matrix(1.00, 0.00, -0.00, -1.00, 300.1, 414.7)">a</text><text xml:space="preserve" font-family="Monaco,Monaco" font-size="50.0" fill="#13F7BA" transform="matrix(1.00, 0.00, -0.00, -1.00, 330.1, 414.7)">p</text><text xml:space="preserve" font-family="Monaco,Monaco" font-size="50.0" fill="#F9F9F4" transform="matrix(1.00, 0.00, -0.00, -1.00, 360.1, 414.7)">(</text><text xml:space="preserve" font-family="Monaco,Monaco" font-size="50.0" fill="#F9F9F4" transform="matrix(1.00, 0.00, -0.00, -1.00, 390.1, 414.7)">f</text><text xml:space="preserve" font-family="Monaco,Monaco" font-size="50.0" fill="#F9F9F4" transform="matrix(1.00, 0.00, -0.00, -1.00, 420.1, 414.7)">n</text><text xml:space="preserve" font-family="Monaco,Monaco" font-size="50.0" fill="#F9F9F4" transform="matrix(1.00, 0.00, -0.00, -1.00, 450.1, 414.7)">)</text><text xml:space="preserve" font-family="Monaco,Monaco" font-size="50.0" fill="#F9F9F4" transform="matrix(1.00, 0.00, -0.00, -1.00, 480.1, 414.7)"> </text><text xml:space="preserve" font-family="Monaco,Monaco" font-size="50.0" fill="#F9F9F4" transform="matrix(1.00, 0.00, -0.00, -1.00, 510.1, 414.7)">{</text><text xml:space="preserve" font-family="Monaco,Monaco" font-size="50.0" fill="#000000" transform="matrix(1.00, 0.00, -0.00, -1.00, 0.0, 347.7)"> </text><text xml:space="preserve" font-family="Monaco,Monaco" font-size="50.0" fill="#000000" transform="matrix(1.00, 0.00, -0.00, -1.00, 30.0, 347.7)"> </text><text xml:space="preserve" font-family="Monaco,Monaco" font-size="50.0" fill="#FC4384" transform="matrix(1.00, 0.00, -0.00, -1.00, 60.0, 347.7)">r</text><text xml:space="preserve" font-family="Monaco,Monaco" font-size="50.0" fill="#FC4384" transform="matrix(1.00, 0.00, -0.00, -1.00, 90.0, 347.7)">e</text><text xml:space="preserve" font-family="Monaco,Monaco" font-size="50.0" fill="#FC4384" transform="matrix(1.00, 0.00, -0.00, -1.00, 120.0, 347.7)">t</text><text xml:space="preserve" font-family="Monaco,Monaco" font-size="50.0" fill="#FC4384" transform="matrix(1.00, 0.00, -0.00, -1.00, 150.0, 347.7)">u</text><text xml:space="preserve" font-family="Monaco,Monaco" font-size="50.0" fill="#FC4384" transform="matrix(1.00, 0.00, -0.00, -1.00, 180.0, 347.7)">r</text><text xml:space="preserve" font-family="Monaco,Monaco" font-size="50.0" fill="#FC4384" transform="matrix(1.00, 0.00, -0.00, -1.00, 210.1, 347.7)">n</text><text xml:space="preserve" font-family="Monaco,Monaco" font-size="50.0" fill="#FC4384" transform="matrix(1.00, 0.00, -0.00, -1.00, 240.1, 347.7)"> </text><text xml:space="preserve" font-family="Monaco,Monaco" font-size="50.0" fill="#FC4384" transform="matrix(1.00, 0.00, -0.00, -1.00, 270.1, 347.7)">f</text><text xml:space="preserve" font-family="Monaco,Monaco" font-size="50.0" fill="#FC4384" transform="matrix(1.00, 0.00, -0.00, -1.00, 300.1, 347.7)">u</text><text xml:space="preserve" font-family="Monaco,Monaco" font-size="50.0" fill="#FC4384" transform="matrix(1.00, 0.00, -0.00, -1.00, 330.1, 347.7)">n</text><text xml:space="preserve" font-family="Monaco,Monaco" font-size="50.0" fill="#FC4384" transform="matrix(1.00, 0.00, -0.00, -1.00, 360.1, 347.7)">c</text><text xml:space="preserve" font-family="Monaco,Monaco" font-size="50.0" fill="#FC4384" transform="matrix(1.00, 0.00, -0.00, -1.00, 390.1, 347.7)">t</text><text xml:space="preserve" font-family="Monaco,Monaco" font-size="50.0" fill="#FC4384" transform="matrix(1.00, 0.00, -0.00, -1.00, 420.1, 347.7)">i</text><text xml:space="preserve" font-family="Monaco,Monaco" font-size="50.0" fill="#FC4384" transform="matrix(1.00, 0.00, -0.00, -1.00, 450.1, 347.7)">o</text><text xml:space="preserve" font-family="Monaco,Monaco" font-size="50.0" fill="#FC4384" transform="matrix(1.00, 0.00, -0.00, -1.00, 480.1, 347.7)">n</text><text xml:space="preserve" font-family="Monaco,Monaco" font-size="50.0" fill="#F9F9F4" transform="matrix(1.00, 0.00, -0.00, -1.00, 510.1, 347.7)">(</text><text xml:space="preserve" font-family="Monaco,Monaco" font-size="50.0" fill="#F9F9F4" transform="matrix(1.00, 0.00, -0.00, -1.00, 540.1, 347.7)">s</text><text xml:space="preserve" font-family="Monaco,Monaco" font-size="50.0" fill="#F9F9F4" transform="matrix(1.00, 0.00, -0.00, -1.00, 570.1, 347.7)">t</text><text xml:space="preserve" font-family="Monaco,Monaco" font-size="50.0" fill="#F9F9F4" transform="matrix(1.00, 0.00, -0.00, -1.00, 600.1, 347.7)">e</text><text xml:space="preserve" font-family="Monaco,Monaco" font-size="50.0" fill="#F9F9F4" transform="matrix(1.00, 0.00, -0.00, -1.00, 630.1, 347.7)">p</text><text xml:space="preserve" font-family="Monaco,Monaco" font-size="50.0" fill="#F9F9F4" transform="matrix(1.00, 0.00, -0.00, -1.00, 660.1, 347.7)">)</text><text xml:space="preserve" font-family="Monaco,Monaco" font-size="50.0" fill="#F9F9F4" transform="matrix(1.00, 0.00, -0.00, -1.00, 690.1, 347.7)"> </text><text xml:space="preserve" font-family="Monaco,Monaco" font-size="50.0" fill="#F9F9F4" transform="matrix(1.00, 0.00, -0.00, -1.00, 720.2, 347.7)">{</text><text xml:space="preserve" font-family="Monaco,Monaco" font-size="50.0" fill="#000000" transform="matrix(1.00, 0.00, -0.00, -1.00, 0.0, 280.7)"> </text><text xml:space="preserve" font-family="Monaco,Monaco" font-size="50.0" fill="#000000" transform="matrix(1.00, 0.00, -0.00, -1.00, 30.0, 280.7)"> </text><text xml:space="preserve" font-family="Monaco,Monaco" font-size="50.0" fill="#000000" transform="matrix(1.00, 0.00, -0.00, -1.00, 60.0, 280.7)"> </text><text xml:space="preserve" font-family="Monaco,Monaco" font-size="50.0" fill="#000000" transform="matrix(1.00, 0.00, -0.00, -1.00, 90.0, 280.7)"> </text><text xml:space="preserve" font-family="Monaco,Monaco" font-size="50.0" fill="#FC4384" transform="matrix(1.00, 0.00, -0.00, -1.00, 120.0, 280.7)">r</text><text xml:space="preserve" font-family="Monaco,Monaco" font-size="50.0" fill="#FC4384" transform="matrix(1.00, 0.00, -0.00, -1.00, 150.0, 280.7)">e</text><text xml:space="preserve" font-family="Monaco,Monaco" font-size="50.0" fill="#FC4384" transform="matrix(1.00, 0.00, -0.00, -1.00, 180.0, 280.7)">t</text><text xml:space="preserve" font-family="Monaco,Monaco" font-size="50.0" fill="#FC4384" transform="matrix(1.00, 0.00, -0.00, -1.00, 210.0, 280.7)">u</text><text xml:space="preserve" font-family="Monaco,Monaco" font-size="50.0" fill="#FC4384" transform="matrix(1.00, 0.00, -0.00, -1.00, 240.1, 280.7)">r</text><text xml:space="preserve" font-family="Monaco,Monaco" font-size="50.0" fill="#FC4384" transform="matrix(1.00, 0.00, -0.00, -1.00, 270.1, 280.7)">n</text><text xml:space="preserve" font-family="Monaco,Monaco" font-size="50.0" fill="#FC4384" transform="matrix(1.00, 0.00, -0.00, -1.00, 300.1, 280.7)"> </text><text xml:space="preserve" font-family="Monaco,Monaco" font-size="50.0" fill="#FC4384" transform="matrix(1.00, 0.00, -0.00, -1.00, 330.1, 280.7)">f</text><text xml:space="preserve" font-family="Monaco,Monaco" font-size="50.0" fill="#FC4384" transform="matrix(1.00, 0.00, -0.00, -1.00, 360.1, 280.7)">u</text><text xml:space="preserve" font-family="Monaco,Monaco" font-size="50.0" fill="#FC4384" transform="matrix(1.00, 0.00, -0.00, -1.00, 390.1, 280.7)">n</text><text xml:space="preserve" font-family="Monaco,Monaco" font-size="50.0" fill="#FC4384" transform="matrix(1.00, 0.00, -0.00, -1.00, 420.1, 280.7)">c</text><text xml:space="preserve" font-family="Monaco,Monaco" font-size="50.0" fill="#FC4384" transform="matrix(1.00, 0.00, -0.00, -1.00, 450.1, 280.7)">t</text><text xml:space="preserve" font-family="Monaco,Monaco" font-size="50.0" fill="#FC4384" transform="matrix(1.00, 0.00, -0.00, -1.00, 480.1, 280.7)">i</text><text xml:space="preserve" font-family="Monaco,Monaco" font-size="50.0" fill="#FC4384" transform="matrix(1.00, 0.00, -0.00, -1.00, 510.1, 280.7)">o</text><text xml:space="preserve" font-family="Monaco,Monaco" font-size="50.0" fill="#FC4384" transform="matrix(1.00, 0.00, -0.00, -1.00, 540.2, 280.7)">n</text><text xml:space="preserve" font-family="Monaco,Monaco" font-size="50.0" fill="#F9F9F4" transform="matrix(1.00, 0.00, -0.00, -1.00, 570.1, 280.7)">(</text><text xml:space="preserve" font-family="Monaco,Monaco" font-size="50.0" fill="#F9F9F4" transform="matrix(1.00, 0.00, -0.00, -1.00, 600.1, 280.7)">a</text><text xml:space="preserve" font-family="Monaco,Monaco" font-size="50.0" fill="#F9F9F4" transform="matrix(1.00, 0.00, -0.00, -1.00, 630.1, 280.7)">c</text><text xml:space="preserve" font-family="Monaco,Monaco" font-size="50.0" fill="#F9F9F4" transform="matrix(1.00, 0.00, -0.00, -1.00, 660.1, 280.7)">c</text><text xml:space="preserve" font-family="Monaco,Monaco" font-size="50.0" fill="#F9F9F4" transform="matrix(1.00, 0.00, -0.00, -1.00, 690.1, 280.7)">u</text><text xml:space="preserve" font-family="Monaco,Monaco" font-size="50.0" fill="#F9F9F4" transform="matrix(1.00, 0.00, -0.00, -1.00, 720.1, 280.7)">m</text><text xml:space="preserve" font-family="Monaco,Monaco" font-size="50.0" fill="#F9F9F4" transform="matrix(1.00, 0.00, -0.00, -1.00, 750.2, 280.7)">u</text><text xml:space="preserve" font-family="Monaco,Monaco" font-size="50.0" fill="#F9F9F4" transform="matrix(1.00, 0.00, -0.00, -1.00, 780.2, 280.7)">l</text><text xml:space="preserve" font-family="Monaco,Monaco" font-size="50.0" fill="#F9F9F4" transform="matrix(1.00, 0.00, -0.00, -1.00, 810.2, 280.7)">a</text><text xml:space="preserve" font-family="Monaco,Monaco" font-size="50.0" fill="#F9F9F4" transform="matrix(1.00, 0.00, -0.00, -1.00, 840.2, 280.7)">t</text><text xml:space="preserve" font-family="Monaco,Monaco" font-size="50.0" fill="#F9F9F4" transform="matrix(1.00, 0.00, -0.00, -1.00, 870.2, 280.7)">o</text><text xml:space="preserve" font-family="Monaco,Monaco" font-size="50.0" fill="#F9F9F4" transform="matrix(1.00, 0.00, -0.00, -1.00, 900.2, 280.7)">r</text><text xml:space="preserve" font-family="Monaco,Monaco" font-size="50.0" fill="#F9F9F4" transform="matrix(1.00, 0.00, -0.00, -1.00, 930.2, 280.7)">,</text><text xml:space="preserve" font-family="Monaco,Monaco" font-size="50.0" fill="#000000" transform="matrix(1.00, 0.00, -0.00, -1.00, 960.2, 280.7)"> </text><text xml:space="preserve" font-family="Monaco,Monaco" font-size="50.0" fill="#F9F9F4" transform="matrix(1.00, 0.00, -0.00, -1.00, 990.2, 280.7)">e</text><text xml:space="preserve" font-family="Monaco,Monaco" font-size="50.0" fill="#F9F9F4" transform="matrix(1.00, 0.00, -0.00, -1.00, 1020.2, 280.7)">l</text><text xml:space="preserve" font-family="Monaco,Monaco" font-size="50.0" fill="#F9F9F4" transform="matrix(1.00, 0.00, -0.00, -1.00, 1050.2, 280.7)">e</text><text xml:space="preserve" font-family="Monaco,Monaco" font-size="50.0" fill="#F9F9F4" transform="matrix(1.00, 0.00, -0.00, -1.00, 1080.2, 280.7)">m</text><text xml:space="preserve" font-family="Monaco,Monaco" font-size="50.0" fill="#F9F9F4" transform="matrix(1.00, 0.00, -0.00, -1.00, 1110.2, 280.7)">e</text><text xml:space="preserve" font-family="Monaco,Monaco" font-size="50.0" fill="#F9F9F4" transform="matrix(1.00, 0.00, -0.00, -1.00, 1140.2, 280.7)">n</text><text xml:space="preserve" font-family="Monaco,Monaco" font-size="50.0" fill="#F9F9F4" transform="matrix(1.00, 0.00, -0.00, -1.00, 1170.2, 280.7)">t</text><text xml:space="preserve" font-family="Monaco,Monaco" font-size="50.0" fill="#F9F9F4" transform="matrix(1.00, 0.00, -0.00, -1.00, 1200.2, 280.7)">)</text><text xml:space="preserve" font-family="Monaco,Monaco" font-size="50.0" fill="#F9F9F4" transform="matrix(1.00, 0.00, -0.00, -1.00, 1230.2, 280.7)"> </text><text xml:space="preserve" font-family="Monaco,Monaco" font-size="50.0" fill="#F9F9F4" transform="matrix(1.00, 0.00, -0.00, -1.00, 1260.3, 280.7)">{</text><text xml:space="preserve" font-family="Monaco,Monaco" font-size="50.0" fill="#000000" transform="matrix(1.00, 0.00, -0.00, -1.00, 0.0, 213.7)"> </text><text xml:space="preserve" font-family="Monaco,Monaco" font-size="50.0" fill="#000000" transform="matrix(1.00, 0.00, -0.00, -1.00, 30.0, 213.7)"> </text><text xml:space="preserve" font-family="Monaco,Monaco" font-size="50.0" fill="#000000" transform="matrix(1.00, 0.00, -0.00, -1.00, 60.0, 213.7)"> </text><text xml:space="preserve" font-family="Monaco,Monaco" font-size="50.0" fill="#000000" transform="matrix(1.00, 0.00, -0.00, -1.00, 90.0, 213.7)"> </text><text xml:space="preserve" font-family="Monaco,Monaco" font-size="50.0" fill="#000000" transform="matrix(1.00, 0.00, -0.00, -1.00, 120.0, 213.7)"> </text><text xml:space="preserve" font-family="Monaco,Monaco" font-size="50.0" fill="#000000" transform="matrix(1.00, 0.00, -0.00, -1.00, 150.0, 213.7)"> </text><text xml:space="preserve" font-family="Monaco,Monaco" font-size="50.0" fill="#FC4384" transform="matrix(1.00, 0.00, -0.00, -1.00, 180.0, 213.7)">r</text><text xml:space="preserve" font-family="Monaco,Monaco" font-size="50.0" fill="#FC4384" transform="matrix(1.00, 0.00, -0.00, -1.00, 210.0, 213.7)">e</text><text xml:space="preserve" font-family="Monaco,Monaco" font-size="50.0" fill="#FC4384" transform="matrix(1.00, 0.00, -0.00, -1.00, 240.0, 213.7)">t</text><text xml:space="preserve" font-family="Monaco,Monaco" font-size="50.0" fill="#FC4384" transform="matrix(1.00, 0.00, -0.00, -1.00, 270.1, 213.7)">u</text><text xml:space="preserve" font-family="Monaco,Monaco" font-size="50.0" fill="#FC4384" transform="matrix(1.00, 0.00, -0.00, -1.00, 300.1, 213.7)">r</text><text xml:space="preserve" font-family="Monaco,Monaco" font-size="50.0" fill="#FC4384" transform="matrix(1.00, 0.00, -0.00, -1.00, 330.1, 213.7)">n</text><text xml:space="preserve" font-family="Monaco,Monaco" font-size="50.0" fill="#000000" transform="matrix(1.00, 0.00, -0.00, -1.00, 360.1, 213.7)"> </text><text xml:space="preserve" font-family="Monaco,Monaco" font-size="50.0" fill="#13F7BA" transform="matrix(1.00, 0.00, -0.00, -1.00, 390.1, 213.7)">s</text><text xml:space="preserve" font-family="Monaco,Monaco" font-size="50.0" fill="#13F7BA" transform="matrix(1.00, 0.00, -0.00, -1.00, 420.1, 213.7)">t</text><text xml:space="preserve" font-family="Monaco,Monaco" font-size="50.0" fill="#13F7BA" transform="matrix(1.00, 0.00, -0.00, -1.00, 450.1, 213.7)">e</text><text xml:space="preserve" font-family="Monaco,Monaco" font-size="50.0" fill="#13F7BA" transform="matrix(1.00, 0.00, -0.00, -1.00, 480.1, 213.7)">p</text><text xml:space="preserve" font-family="Monaco,Monaco" font-size="50.0" fill="#F9F9F4" transform="matrix(1.00, 0.00, -0.00, -1.00, 510.1, 213.7)">(</text><text xml:space="preserve" font-family="Monaco,Monaco" font-size="50.0" fill="#F9F9F4" transform="matrix(1.00, 0.00, -0.00, -1.00, 540.1, 213.7)">a</text><text xml:space="preserve" font-family="Monaco,Monaco" font-size="50.0" fill="#F9F9F4" transform="matrix(1.00, 0.00, -0.00, -1.00, 570.1, 213.7)">c</text><text xml:space="preserve" font-family="Monaco,Monaco" font-size="50.0" fill="#F9F9F4" transform="matrix(1.00, 0.00, -0.00, -1.00, 600.1, 213.7)">c</text><text xml:space="preserve" font-family="Monaco,Monaco" font-size="50.0" fill="#F9F9F4" transform="matrix(1.00, 0.00, -0.00, -1.00, 630.1, 213.7)">u</text><text xml:space="preserve" font-family="Monaco,Monaco" font-size="50.0" fill="#F9F9F4" transform="matrix(1.00, 0.00, -0.00, -1.00, 660.1, 213.7)">m</text><text xml:space="preserve" font-family="Monaco,Monaco" font-size="50.0" fill="#F9F9F4" transform="matrix(1.00, 0.00, -0.00, -1.00, 690.1, 213.7)">u</text><text xml:space="preserve" font-family="Monaco,Monaco" font-size="50.0" fill="#F9F9F4" transform="matrix(1.00, 0.00, -0.00, -1.00, 720.2, 213.7)">l</text><text xml:space="preserve" font-family="Monaco,Monaco" font-size="50.0" fill="#F9F9F4" transform="matrix(1.00, 0.00, -0.00, -1.00, 750.2, 213.7)">a</text><text xml:space="preserve" font-family="Monaco,Monaco" font-size="50.0" fill="#F9F9F4" transform="matrix(1.00, 0.00, -0.00, -1.00, 780.2, 213.7)">t</text><text xml:space="preserve" font-family="Monaco,Monaco" font-size="50.0" fill="#F9F9F4" transform="matrix(1.00, 0.00, -0.00, -1.00, 810.2, 213.7)">o</text><text xml:space="preserve" font-family="Monaco,Monaco" font-size="50.0" fill="#F9F9F4" transform="matrix(1.00, 0.00, -0.00, -1.00, 840.2, 213.7)">r</text><text xml:space="preserve" font-family="Monaco,Monaco" font-size="50.0" fill="#F9F9F4" transform="matrix(1.00, 0.00, -0.00, -1.00, 870.2, 213.7)">,</text><text xml:space="preserve" font-family="Monaco,Monaco" font-size="50.0" fill="#000000" transform="matrix(1.00, 0.00, -0.00, -1.00, 900.1, 213.7)"> </text><text xml:space="preserve" font-family="Monaco,Monaco" font-size="50.0" fill="#13F7BA" transform="matrix(1.00, 0.00, -0.00, -1.00, 930.2, 213.7)">f</text><text xml:space="preserve" font-family="Monaco,Monaco" font-size="50.0" fill="#13F7BA" transform="matrix(1.00, 0.00, -0.00, -1.00, 960.2, 213.7)">n</text><text xml:space="preserve" font-family="Monaco,Monaco" font-size="50.0" fill="#F9F9F4" transform="matrix(1.00, 0.00, -0.00, -1.00, 990.2, 213.7)">(</text><text xml:space="preserve" font-family="Monaco,Monaco" font-size="50.0" fill="#F9F9F4" transform="matrix(1.00, 0.00, -0.00, -1.00, 1020.2, 213.7)">e</text><text xml:space="preserve" font-family="Monaco,Monaco" font-size="50.0" fill="#F9F9F4" transform="matrix(1.00, 0.00, -0.00, -1.00, 1050.2, 213.7)">l</text><text xml:space="preserve" font-family="Monaco,Monaco" font-size="50.0" fill="#F9F9F4" transform="matrix(1.00, 0.00, -0.00, -1.00, 1080.2, 213.7)">e</text><text xml:space="preserve" font-family="Monaco,Monaco" font-size="50.0" fill="#F9F9F4" transform="matrix(1.00, 0.00, -0.00, -1.00, 1110.2, 213.7)">m</text><text xml:space="preserve" font-family="Monaco,Monaco" font-size="50.0" fill="#F9F9F4" transform="matrix(1.00, 0.00, -0.00, -1.00, 1140.2, 213.7)">e</text><text xml:space="preserve" font-family="Monaco,Monaco" font-size="50.0" fill="#F9F9F4" transform="matrix(1.00, 0.00, -0.00, -1.00, 1170.2, 213.7)">n</text><text xml:space="preserve" font-family="Monaco,Monaco" font-size="50.0" fill="#F9F9F4" transform="matrix(1.00, 0.00, -0.00, -1.00, 1200.2, 213.7)">t</text><text xml:space="preserve" font-family="Monaco,Monaco" font-size="50.0" fill="#F9F9F4" transform="matrix(1.00, 0.00, -0.00, -1.00, 1230.2, 213.7)">)</text><text xml:space="preserve" font-family="Monaco,Monaco" font-size="50.0" fill="#F9F9F4" transform="matrix(1.00, 0.00, -0.00, -1.00, 1260.3, 213.7)">)</text><text xml:space="preserve" font-family="Monaco,Monaco" font-size="50.0" fill="#F9F9F4" transform="matrix(1.00, 0.00, -0.00, -1.00, 1290.3, 213.7)">;</text><text xml:space="preserve" font-family="Monaco,Monaco" font-size="50.0" fill="#000000" transform="matrix(1.00, 0.00, -0.00, -1.00, 0.0, 146.7)"> </text><text xml:space="preserve" font-family="Monaco,Monaco" font-size="50.0" fill="#000000" transform="matrix(1.00, 0.00, -0.00, -1.00, 30.0, 146.7)"> </text><text xml:space="preserve" font-family="Monaco,Monaco" font-size="50.0" fill="#000000" transform="matrix(1.00, 0.00, -0.00, -1.00, 60.0, 146.7)"> </text><text xml:space="preserve" font-family="Monaco,Monaco" font-size="50.0" fill="#000000" transform="matrix(1.00, 0.00, -0.00, -1.00, 90.0, 146.7)"> </text><text xml:space="preserve" font-family="Monaco,Monaco" font-size="50.0" fill="#F9F9F4" transform="matrix(1.00, 0.00, -0.00, -1.00, 120.0, 146.7)">}</text><text xml:space="preserve" font-family="Monaco,Monaco" font-size="50.0" fill="#F9F9F4" transform="matrix(1.00, 0.00, -0.00, -1.00, 150.0, 146.7)">;</text><text xml:space="preserve" font-family="Monaco,Monaco" font-size="50.0" fill="#000000" transform="matrix(1.00, 0.00, -0.00, -1.00, 0.0, 79.7)"> </text><text xml:space="preserve" font-family="Monaco,Monaco" font-size="50.0" fill="#000000" transform="matrix(1.00, 0.00, -0.00, -1.00, 30.0, 79.7)"> </text><text xml:space="preserve" font-family="Monaco,Monaco" font-size="50.0" fill="#F9F9F4" transform="matrix(1.00, 0.00, -0.00, -1.00, 60.0, 79.7)">}</text><text xml:space="preserve" font-family="Monaco,Monaco" font-size="50.0" fill="#F9F9F4" transform="matrix(1.00, 0.00, -0.00, -1.00, 90.0, 79.7)">;</text><text xml:space="preserve" font-family="Monaco,Monaco" font-size="50.0" fill="#F9F9F4" transform="matrix(1.00, 0.00, -0.00, -1.00, 0.0, 12.7)">}</text><text xml:space="preserve" font-family="Monaco,Monaco" font-size="50.0" fill="#F9F9F4" transform="matrix(1.00, 0.00, -0.00, -1.00, 30.0, 12.7)">;</text></g></svg>