<?xml version="1.0" encoding="UTF-8" standalone="no"?><svg xmlns="http://www.w3.org/2000/svg" xmlns:xlink="http://www.w3.org/1999/xlink" clip-rule="evenodd" stroke-miterlimit="10" viewBox="0 0 1920 1080"><desc>SVG generated by Keynote</desc><defs></defs><g transform="matrix(1.00, 0.00, -0.00, -1.00, 0.0, 1080.0)"><g><clipPath id="clip0x7fe4285e00f0"><path d="M 0.0 1080.0 L 1920.0 1080.0 L 1920.0 0.0 L 0.0 0.0 Z M 0.0 1080.0 "></path></clipPath><g clip-path="url(#clip0x7fe4285e00f0)"><image xlink:href="../../EAAA0B26-26D2-4E6F-B71B-738E9DFC302E/assets/0F43D2572F34A9AFB59E4515ED9A1249.jpeg" width="3840.00" height="2160.00" transform="matrix(0.50, 0.00, -0.00, -0.50, 0.0, 1080.0)"></image></g></g><image xlink:href="94F0526A7AFB3239C4E8A303B1522C71.png" width="24.00" height="9.00" transform="matrix(1.00, 0.00, -0.00, -1.00, 866.0, 350.0)"></image><text xml:space="preserve" font-family="HelveticaNeue-Italic,Helvetica Neue" font-style="italic" font-size="32.0" fill="#73BFFF" transform="matrix(1.00, 0.00, -0.00, -1.00, 868.4, 338.7)">–</text><image xlink:href="08EA1DA8E098CE718319F06FDD8950F6.png" width="176.00" height="36.00" transform="matrix(1.00, 0.00, -0.00, -1.00, 883.0, 363.0)"></image><text xml:space="preserve" font-family="HelveticaNeue-Italic,Helvetica Neue" font-style="italic" font-size="32.0" fill="#73BFFF" transform="matrix(1.00, 0.00, -0.00, -1.00, 884.4, 338.7)">R</text><text xml:space="preserve" font-family="HelveticaNeue-Italic,Helvetica Neue" font-style="italic" font-size="32.0" fill="#73BFFF" transform="matrix(1.00, 0.00, -0.00, -1.00, 906.3, 338.7)">i</text><text xml:space="preserve" font-family="HelveticaNeue-Italic,Helvetica Neue" font-style="italic" font-size="32.0" fill="#73BFFF" transform="matrix(1.00, 0.00, -0.00, -1.00, 913.4, 338.7)">c</text><text xml:space="preserve" font-family="HelveticaNeue-Italic,Helvetica Neue" font-style="italic" font-size="32.0" fill="#73BFFF" transform="matrix(1.00, 0.00, -0.00, -1.00, 930.6, 338.7)">h</text><text xml:space="preserve" font-family="HelveticaNeue-Italic,Helvetica Neue" font-style="italic" font-size="32.0" fill="#73BFFF" transform="matrix(1.00, 0.00, -0.00, -1.00, 948.4, 338.7)"> </text><text xml:space="preserve" font-family="HelveticaNeue-Italic,Helvetica Neue" font-style="italic" font-size="32.0" fill="#73BFFF" transform="matrix(1.00, 0.00, -0.00, -1.00, 957.3, 338.7)">H</text><text xml:space="preserve" font-family="HelveticaNeue-Italic,Helvetica Neue" font-style="italic" font-size="32.0" fill="#73BFFF" transform="matrix(1.00, 0.00, -0.00, -1.00, 980.4, 338.7)">i</text><text xml:space="preserve" font-family="HelveticaNeue-Italic,Helvetica Neue" font-style="italic" font-size="32.0" fill="#73BFFF" transform="matrix(1.00, 0.00, -0.00, -1.00, 987.5, 338.7)">c</text><text xml:space="preserve" font-family="HelveticaNeue-Italic,Helvetica Neue" font-style="italic" font-size="32.0" fill="#73BFFF" transform="matrix(1.00, 0.00, -0.00, -1.00, 1004.7, 338.7)">k</text><text xml:space="preserve" font-family="HelveticaNeue-Italic,Helvetica Neue" font-style="italic" font-size="32.0" fill="#73BFFF" transform="matrix(1.00, 0.00, -0.00, -1.00, 1020.1, 338.7)">e</text><text xml:space="preserve" font-family="HelveticaNeue-Italic,Helvetica Neue" font-style="italic" font-size="32.0" fill="#73BFFF" transform="matrix(1.00, 0.00, -0.00, -1.00, 1037.2, 338.7)">y</text><image xlink:href="C77524CB9481A62DFC04289988DCFAAE.png" width="1343.00" height="80.00" transform="matrix(1.00, 0.00, -0.00, -1.00, 292.0, 597.0)"></image><text xml:space="preserve" font-family="HelveticaNeue-Light,Helvetica Neue" font-size="80.0" fill="#FEFFFE" transform="matrix(1.00, 0.00, -0.00, -1.00, 287.9, 539.6)">“</text><text xml:space="preserve" font-family="HelveticaNeue-Light,Helvetica Neue" font-size="80.0" fill="#FEFFFE" transform="matrix(1.00, 0.00, -0.00, -1.00, 317.5, 539.6)">U</text><text xml:space="preserve" font-family="HelveticaNeue-Light,Helvetica Neue" font-size="80.0" fill="#FEFFFE" transform="matrix(1.00, 0.00, -0.00, -1.00, 372.3, 539.6)">s</text><text xml:space="preserve" font-family="HelveticaNeue-Light,Helvetica Neue" font-size="80.0" fill="#FEFFFE" transform="matrix(1.00, 0.00, -0.00, -1.00, 410.7, 539.6)">i</text><text xml:space="preserve" font-family="HelveticaNeue-Light,Helvetica Neue" font-size="80.0" fill="#FEFFFE" transform="matrix(1.00, 0.00, -0.00, -1.00, 425.5, 539.6)">n</text><text xml:space="preserve" font-family="HelveticaNeue-Light,Helvetica Neue" font-size="80.0" fill="#FEFFFE" transform="matrix(1.00, 0.00, -0.00, -1.00, 468.5, 539.6)">g</text><text xml:space="preserve" font-family="HelveticaNeue-Light,Helvetica Neue" font-size="80.0" fill="#FEFFFE" transform="matrix(1.00, 0.00, -0.00, -1.00, 513.0, 539.6)"> </text><text xml:space="preserve" font-family="HelveticaNeue-Light,Helvetica Neue" font-size="80.0" fill="#FEFFFE" transform="matrix(1.00, 0.00, -0.00, -1.00, 535.2, 539.6)">t</text><text xml:space="preserve" font-family="HelveticaNeue-Light,Helvetica Neue" font-size="80.0" fill="#FEFFFE" transform="matrix(1.00, 0.00, -0.00, -1.00, 558.9, 539.6)">h</text><text xml:space="preserve" font-family="HelveticaNeue-Light,Helvetica Neue" font-size="80.0" fill="#FEFFFE" transform="matrix(1.00, 0.00, -0.00, -1.00, 601.9, 539.6)">e</text><text xml:space="preserve" font-family="HelveticaNeue-Light,Helvetica Neue" font-size="80.0" fill="#FEFFFE" transform="matrix(1.00, 0.00, -0.00, -1.00, 643.4, 539.6)">s</text><text xml:space="preserve" font-family="HelveticaNeue-Light,Helvetica Neue" font-size="80.0" fill="#FEFFFE" transform="matrix(1.00, 0.00, -0.00, -1.00, 681.9, 539.6)">e</text><text xml:space="preserve" font-family="HelveticaNeue-Light,Helvetica Neue" font-size="80.0" fill="#FEFFFE" transform="matrix(1.00, 0.00, -0.00, -1.00, 723.4, 539.6)"> </text><text xml:space="preserve" font-family="HelveticaNeue-Light,Helvetica Neue" font-size="80.0" fill="#FEFFFE" transform="matrix(1.00, 0.00, -0.00, -1.00, 745.6, 539.6)">d</text><text xml:space="preserve" font-family="HelveticaNeue-Light,Helvetica Neue" font-size="80.0" fill="#FEFFFE" transform="matrix(1.00, 0.00, -0.00, -1.00, 791.5, 539.6)">i</text><text xml:space="preserve" font-family="HelveticaNeue-Light,Helvetica Neue" font-size="80.0" fill="#FEFFFE" transform="matrix(1.00, 0.00, -0.00, -1.00, 806.3, 539.6)">r</text><text xml:space="preserve" font-family="HelveticaNeue-Light,Helvetica Neue" font-size="80.0" fill="#FEFFFE" transform="matrix(1.00, 0.00, -0.00, -1.00, 830.1, 539.6)">e</text><text xml:space="preserve" font-family="HelveticaNeue-Light,Helvetica Neue" font-size="80.0" fill="#FEFFFE" transform="matrix(1.00, 0.00, -0.00, -1.00, 871.6, 539.6)">c</text><text xml:space="preserve" font-family="HelveticaNeue-Light,Helvetica Neue" font-size="80.0" fill="#FEFFFE" transform="matrix(1.00, 0.00, -0.00, -1.00, 913.1, 539.6)">t</text><text xml:space="preserve" font-family="HelveticaNeue-Light,Helvetica Neue" font-size="80.0" fill="#FEFFFE" transform="matrix(1.00, 0.00, -0.00, -1.00, 936.8, 539.6)">l</text><text xml:space="preserve" font-family="HelveticaNeue-Light,Helvetica Neue" font-size="80.0" fill="#FEFFFE" transform="matrix(1.00, 0.00, -0.00, -1.00, 951.6, 539.6)">y</text><text xml:space="preserve" font-family="HelveticaNeue-Light,Helvetica Neue" font-size="80.0" fill="#FEFFFE" transform="matrix(1.00, 0.00, -0.00, -1.00, 988.7, 539.6)"> </text><text xml:space="preserve" font-family="HelveticaNeue-Light,Helvetica Neue" font-size="80.0" fill="#FEFFFE" transform="matrix(1.00, 0.00, -0.00, -1.00, 1010.9, 539.6)">i</text><text xml:space="preserve" font-family="HelveticaNeue-Light,Helvetica Neue" font-size="80.0" fill="#FEFFFE" transform="matrix(1.00, 0.00, -0.00, -1.00, 1025.7, 539.6)">s</text><text xml:space="preserve" font-family="HelveticaNeue-Light,Helvetica Neue" font-size="80.0" fill="#FEFFFE" transform="matrix(1.00, 0.00, -0.00, -1.00, 1064.2, 539.6)"> </text><text xml:space="preserve" font-family="HelveticaNeue-Light,Helvetica Neue" font-size="80.0" fill="#FEFFFE" transform="matrix(1.00, 0.00, -0.00, -1.00, 1086.4, 539.6)">s</text><text xml:space="preserve" font-family="HelveticaNeue-Light,Helvetica Neue" font-size="80.0" fill="#FEFFFE" transform="matrix(1.00, 0.00, -0.00, -1.00, 1124.9, 539.6)">o</text><text xml:space="preserve" font-family="HelveticaNeue-Light,Helvetica Neue" font-size="80.0" fill="#FEFFFE" transform="matrix(1.00, 0.00, -0.00, -1.00, 1169.4, 539.6)">m</text><text xml:space="preserve" font-family="HelveticaNeue-Light,Helvetica Neue" font-size="80.0" fill="#FEFFFE" transform="matrix(1.00, 0.00, -0.00, -1.00, 1236.0, 539.6)">e</text><text xml:space="preserve" font-family="HelveticaNeue-Light,Helvetica Neue" font-size="80.0" fill="#FEFFFE" transform="matrix(1.00, 0.00, -0.00, -1.00, 1277.5, 539.6)">w</text><text xml:space="preserve" font-family="HelveticaNeue-Light,Helvetica Neue" font-size="80.0" fill="#FEFFFE" transform="matrix(1.00, 0.00, -0.00, -1.00, 1336.8, 539.6)">h</text><text xml:space="preserve" font-family="HelveticaNeue-Light,Helvetica Neue" font-size="80.0" fill="#FEFFFE" transform="matrix(1.00, 0.00, -0.00, -1.00, 1379.8, 539.6)">a</text><text xml:space="preserve" font-family="HelveticaNeue-Light,Helvetica Neue" font-size="80.0" fill="#FEFFFE" transform="matrix(1.00, 0.00, -0.00, -1.00, 1421.3, 539.6)">t</text><text xml:space="preserve" font-family="HelveticaNeue-Light,Helvetica Neue" font-size="80.0" fill="#FEFFFE" transform="matrix(1.00, 0.00, -0.00, -1.00, 1445.0, 539.6)"> </text><text xml:space="preserve" font-family="HelveticaNeue-Light,Helvetica Neue" font-size="80.0" fill="#FEFFFE" transform="matrix(1.00, 0.00, -0.00, -1.00, 1467.2, 539.6)">o</text><text xml:space="preserve" font-family="HelveticaNeue-Light,Helvetica Neue" font-size="80.0" fill="#FEFFFE" transform="matrix(1.00, 0.00, -0.00, -1.00, 1511.7, 539.6)">d</text><text xml:space="preserve" font-family="HelveticaNeue-Light,Helvetica Neue" font-size="80.0" fill="#FEFFFE" transform="matrix(1.00, 0.00, -0.00, -1.00, 1557.6, 539.6)">d</text><text xml:space="preserve" font-family="HelveticaNeue-Light,Helvetica Neue" font-size="80.0" fill="#FEFFFE" transform="matrix(1.00, 0.00, -0.00, -1.00, 1603.5, 539.6)">”</text><text xml:space="preserve" font-family="HelveticaNeue-Light,Helvetica Neue" font-size="80.0" fill="#FEFFFE" transform="matrix(1.00, 0.00, -0.00, -1.00, 1633.1, 539.6)"> </text></g></svg>