<?xml version="1.0" encoding="UTF-8" standalone="no"?><svg xmlns="http://www.w3.org/2000/svg" xmlns:xlink="http://www.w3.org/1999/xlink" clip-rule="evenodd" stroke-miterlimit="10" viewBox="0 0 1920 1080"><desc>SVG generated by Keynote</desc><defs></defs><g transform="matrix(1.00, 0.00, -0.00, -1.00, 0.0, 1080.0)"><g><clipPath id="clip0x7fe42cbcdf30"><path d="M 0.0 1080.0 L 1920.0 1080.0 L 1920.0 0.0 L 0.0 0.0 Z M 0.0 1080.0 "></path></clipPath><g clip-path="url(#clip0x7fe42cbcdf30)"><image xlink:href="../../EAAA0B26-26D2-4E6F-B71B-738E9DFC302E/assets/0F43D2572F34A9AFB59E4515ED9A1249.jpeg" width="3840.00" height="2160.00" transform="matrix(0.50, 0.00, -0.00, -0.50, 0.0, 1080.0)"></image></g></g><g><clipPath id="clip0x7fe42c7649f0"><path d="M 1111.0 1002.0 L 1763.0 1002.0 L 1763.0 80.0 L 1111.0 80.0 Z M 1111.3 1002.0 "></path></clipPath><g clip-path="url(#clip0x7fe42c7649f0)"><image xlink:href="../../A83C4E81-1412-41D7-81F0-B0DB475F1F16/assets/95AD90C87D7814CA689DDBEA23589D64.jpeg" width="236.00" height="334.00" transform="matrix(2.76, 0.00, -0.00, -2.76, 1111.0, 1002.0)"></image></g></g><image xlink:href="../../A83C4E81-1412-41D7-81F0-B0DB475F1F16/assets/6227ABD5FA9974441078AD6B2A8D041B.png" width="682.00" height="954.00" transform="matrix(1.00, 0.00, -0.00, 1.00, 1096.3, 63.0)"></image><image xlink:href="../../A83C4E81-1412-41D7-81F0-B0DB475F1F16/assets/DC414D5E0072117F0F653C8B0C4C4466.png" width="319.00" height="82.00" transform="matrix(1.00, 0.00, -0.00, -1.00, 115.0, 952.0)"></image><text xml:space="preserve" font-family="HelveticaNeue-Light,Helvetica Neue" font-size="100.0" fill="#FEFFFE" transform="matrix(1.00, 0.00, -0.00, -1.00, 120.0, 879.2)">T</text><text xml:space="preserve" font-family="HelveticaNeue-Light,Helvetica Neue" font-size="100.0" fill="#FEFFFE" transform="matrix(1.00, 0.00, -0.00, -1.00, 175.6, 879.2)">h</text><text xml:space="preserve" font-family="HelveticaNeue-Light,Helvetica Neue" font-size="100.0" fill="#FEFFFE" transform="matrix(1.00, 0.00, -0.00, -1.00, 229.3, 879.2)">a</text><text xml:space="preserve" font-family="HelveticaNeue-Light,Helvetica Neue" font-size="100.0" fill="#FEFFFE" transform="matrix(1.00, 0.00, -0.00, -1.00, 281.2, 879.2)">n</text><text xml:space="preserve" font-family="HelveticaNeue-Light,Helvetica Neue" font-size="100.0" fill="#FEFFFE" transform="matrix(1.00, 0.00, -0.00, -1.00, 334.9, 879.2)">k</text><text xml:space="preserve" font-family="HelveticaNeue-Light,Helvetica Neue" font-size="100.0" fill="#FEFFFE" transform="matrix(1.00, 0.00, -0.00, -1.00, 384.9, 879.2)">s</text><image xlink:href="../../B23B8777-38D6-40FF-A2A4-1E8E6DC033E4/assets/D78D93A8DEE9B68D58E2A0BAEAF9F97F.png" width="18.00" height="18.00" transform="matrix(1.00, 0.00, -0.00, -1.00, 120.0, 630.0)"></image><g><clipPath id="clip0x7fe42cd35160"><path d="M 120.0 612.1 L 137.6 612.1 L 137.6 629.8 L 120.0 629.8 Z M 120.0 612.1 "></path></clipPath><g clip-path="url(#clip0x7fe42cd35160)"><g><g><clipPath id="clip0x7fe42cd37220"><path d="M 120.0 629.8 L 137.6 629.8 L 137.6 612.1 L 120.0 612.1 Z M 120.0 629.8 "></path></clipPath><g clip-path="url(#clip0x7fe42cd37220)"><g><clipPath id="clip0x7fe42cd379b0"><path d="M 116.0 605.0 L 142.0 605.0 L 142.0 637.0 L 116.0 637.0 Z M 116.0 605.0 "></path></clipPath><g clip-path="url(#clip0x7fe42cd379b0)"><path d="M 137.6 626.3 C 137.6 627.0 137.2 627.8 136.5 628.6 C 135.8 629.4 135.0 629.8 134.1 629.8 C 133.7 629.8 133.1 629.6 132.2 629.2 C 130.9 628.5 129.7 628.2 128.8 628.2 C 127.8 628.2 126.6 628.5 125.3 629.2 C 124.5 629.6 123.9 629.8 123.4 629.8 C 122.6 629.8 121.8 629.4 121.1 628.6 C 120.4 627.9 120.0 627.1 120.0 626.3 C 120.0 625.8 120.2 625.2 120.6 624.3 C 121.2 623.0 121.5 621.9 121.5 620.9 C 121.5 620.0 121.2 618.9 120.6 617.5 C 120.2 616.7 120.0 616.1 120.0 615.6 C 120.0 614.8 120.4 614.0 121.1 613.2 C 121.8 612.5 122.6 612.1 123.4 612.1 C 123.9 612.1 124.5 612.3 125.3 612.7 C 126.6 613.4 127.8 613.7 128.8 613.7 C 129.7 613.7 130.9 613.4 132.2 612.7 C 133.1 612.3 133.7 612.1 134.1 612.1 C 135.0 612.1 135.8 612.5 136.5 613.2 C 137.2 614.0 137.6 614.8 137.6 615.6 C 137.6 616.1 137.4 616.7 137.0 617.5 C 136.3 618.9 136.0 620.0 136.0 620.9 C 136.0 621.9 136.3 623.0 137.0 624.3 C 137.4 625.2 137.6 625.8 137.6 626.3 " fill="#FFFFFF"></path></g></g></g></g></g></g></g><image xlink:href="../../A83C4E81-1412-41D7-81F0-B0DB475F1F16/assets/00EDBF1F890408C2C2555C89841F8A19.png" width="221.00" height="55.00" transform="matrix(1.00, 0.00, -0.00, -1.00, 168.0, 642.0)"></image><text xml:space="preserve" font-family="HelveticaNeue-Light,Helvetica Neue" font-size="50.0" fill="#FEFFFE" transform="matrix(1.00, 0.00, -0.00, -1.00, 170.0, 604.1)">@</text><text xml:space="preserve" font-family="HelveticaNeue-Light,Helvetica Neue" font-size="50.0" fill="#FEFFFE" transform="matrix(1.00, 0.00, -0.00, -1.00, 210.0, 604.1)">f</text><text xml:space="preserve" font-family="HelveticaNeue-Light,Helvetica Neue" font-size="50.0" fill="#FEFFFE" transform="matrix(1.00, 0.00, -0.00, -1.00, 222.9, 604.1)">x</text><text xml:space="preserve" font-family="HelveticaNeue-Light,Helvetica Neue" font-size="50.0" fill="#FEFFFE" transform="matrix(1.00, 0.00, -0.00, -1.00, 247.0, 604.1)">p</text><text xml:space="preserve" font-family="HelveticaNeue-Light,Helvetica Neue" font-size="50.0" fill="#FEFFFE" transform="matrix(1.00, 0.00, -0.00, -1.00, 275.7, 604.1)">o</text><text xml:space="preserve" font-family="HelveticaNeue-Light,Helvetica Neue" font-size="50.0" fill="#FEFFFE" transform="matrix(1.00, 0.00, -0.00, -1.00, 303.5, 604.1)">s</text><text xml:space="preserve" font-family="HelveticaNeue-Light,Helvetica Neue" font-size="50.0" fill="#FEFFFE" transform="matrix(1.00, 0.00, -0.00, -1.00, 327.6, 604.1)">t</text><text xml:space="preserve" font-family="HelveticaNeue-Light,Helvetica Neue" font-size="50.0" fill="#FEFFFE" transform="matrix(1.00, 0.00, -0.00, -1.00, 342.4, 604.1)">e</text><text xml:space="preserve" font-family="HelveticaNeue-Light,Helvetica Neue" font-size="50.0" fill="#FEFFFE" transform="matrix(1.00, 0.00, -0.00, -1.00, 368.3, 604.1)">r</text><text xml:space="preserve" font-family="HelveticaNeue-Light,Helvetica Neue" font-size="50.0" fill="#FEFFFE" transform="matrix(1.00, 0.00, -0.00, -1.00, 384.1, 604.1)"> </text><g><clipPath id="clip0x7fe42ce3fe30"><path d="M 169.0 596.9 L 384.1 596.9 L 384.1 601.4 L 169.0 601.4 Z M 169.0 596.9 "></path></clipPath><g clip-path="url(#clip0x7fe42ce3fe30)"><path d="M 54.0 173.9 L 268.1 173.9 " fill="none" stroke="#FEFFFE" stroke-width="2.50" transform="matrix(1.00, 0.00, 0.00, -1.00, 116.0, 773.0)"></path></g></g><image xlink:href="../../B23B8777-38D6-40FF-A2A4-1E8E6DC033E4/assets/D78D93A8DEE9B68D58E2A0BAEAF9F97F.png" width="18.00" height="18.00" transform="matrix(1.00, 0.00, -0.00, -1.00, 120.0, 519.0)"></image><g><clipPath id="clip0x7fe42ce42060"><path d="M 120.0 501.1 L 137.6 501.1 L 137.6 518.8 L 120.0 518.8 Z M 120.0 501.1 "></path></clipPath><g clip-path="url(#clip0x7fe42ce42060)"><g><g><clipPath id="clip0x7fe42ce44100"><path d="M 120.0 518.8 L 137.6 518.8 L 137.6 501.1 L 120.0 501.1 Z M 120.0 518.8 "></path></clipPath><g clip-path="url(#clip0x7fe42ce44100)"><g><clipPath id="clip0x7fe42ce44890"><path d="M 116.0 494.0 L 142.0 494.0 L 142.0 526.0 L 116.0 526.0 Z M 116.0 494.0 "></path></clipPath><g clip-path="url(#clip0x7fe42ce44890)"><path d="M 137.6 515.3 C 137.6 516.0 137.2 516.8 136.5 517.6 C 135.8 518.4 135.0 518.8 134.1 518.8 C 133.7 518.8 133.1 518.6 132.2 518.2 C 130.9 517.5 129.7 517.2 128.8 517.2 C 127.8 517.2 126.6 517.5 125.3 518.2 C 124.5 518.6 123.9 518.8 123.4 518.8 C 122.6 518.8 121.8 518.4 121.1 517.6 C 120.4 516.9 120.0 516.1 120.0 515.3 C 120.0 514.8 120.2 514.2 120.6 513.3 C 121.2 512.0 121.5 510.9 121.5 509.9 C 121.5 509.0 121.2 507.9 120.6 506.5 C 120.2 505.7 120.0 505.1 120.0 504.6 C 120.0 503.8 120.4 503.0 121.1 502.2 C 121.8 501.5 122.6 501.1 123.4 501.1 C 123.9 501.1 124.5 501.3 125.3 501.7 C 126.6 502.4 127.8 502.7 128.8 502.7 C 129.7 502.7 130.9 502.4 132.2 501.7 C 133.1 501.3 133.7 501.1 134.1 501.1 C 135.0 501.1 135.8 501.5 136.5 502.2 C 137.2 503.0 137.6 503.8 137.6 504.6 C 137.6 505.1 137.4 505.7 137.0 506.5 C 136.3 507.9 136.0 509.0 136.0 509.9 C 136.0 510.9 136.3 512.0 137.0 513.3 C 137.4 514.2 137.6 514.8 137.6 515.3 " fill="#FFFFFF"></path></g></g></g></g></g></g></g><image xlink:href="../../A83C4E81-1412-41D7-81F0-B0DB475F1F16/assets/DC4436A36C34148EE650D13748C05F30.png" width="442.00" height="56.00" transform="matrix(1.00, 0.00, -0.00, -1.00, 167.0, 531.0)"></image><text xml:space="preserve" font-family="HelveticaNeue-Light,Helvetica Neue" font-size="50.0" fill="#FEFFFE" transform="matrix(1.00, 0.00, -0.00, -1.00, 170.0, 493.1)">g</text><text xml:space="preserve" font-family="HelveticaNeue-Light,Helvetica Neue" font-size="50.0" fill="#FEFFFE" transform="matrix(1.00, 0.00, -0.00, -1.00, 197.8, 493.1)">i</text><text xml:space="preserve" font-family="HelveticaNeue-Light,Helvetica Neue" font-size="50.0" fill="#FEFFFE" transform="matrix(1.00, 0.00, -0.00, -1.00, 207.1, 493.1)">t</text><text xml:space="preserve" font-family="HelveticaNeue-Light,Helvetica Neue" font-size="50.0" fill="#FEFFFE" transform="matrix(1.00, 0.00, -0.00, -1.00, 221.8, 493.1)">h</text><text xml:space="preserve" font-family="HelveticaNeue-Light,Helvetica Neue" font-size="50.0" fill="#FEFFFE" transform="matrix(1.00, 0.00, -0.00, -1.00, 248.7, 493.1)">u</text><text xml:space="preserve" font-family="HelveticaNeue-Light,Helvetica Neue" font-size="50.0" fill="#FEFFFE" transform="matrix(1.00, 0.00, -0.00, -1.00, 275.5, 493.1)">b</text><text xml:space="preserve" font-family="HelveticaNeue-Light,Helvetica Neue" font-size="50.0" fill="#FEFFFE" transform="matrix(1.00, 0.00, -0.00, -1.00, 304.2, 493.1)">.</text><text xml:space="preserve" font-family="HelveticaNeue-Light,Helvetica Neue" font-size="50.0" fill="#FEFFFE" transform="matrix(1.00, 0.00, -0.00, -1.00, 318.1, 493.1)">c</text><text xml:space="preserve" font-family="HelveticaNeue-Light,Helvetica Neue" font-size="50.0" fill="#FEFFFE" transform="matrix(1.00, 0.00, -0.00, -1.00, 344.1, 493.1)">o</text><text xml:space="preserve" font-family="HelveticaNeue-Light,Helvetica Neue" font-size="50.0" fill="#FEFFFE" transform="matrix(1.00, 0.00, -0.00, -1.00, 371.9, 493.1)">m</text><text xml:space="preserve" font-family="HelveticaNeue-Light,Helvetica Neue" font-size="50.0" fill="#FEFFFE" transform="matrix(1.00, 0.00, -0.00, -1.00, 413.6, 493.1)">/</text><text xml:space="preserve" font-family="HelveticaNeue-Light,Helvetica Neue" font-size="50.0" fill="#FEFFFE" transform="matrix(1.00, 0.00, -0.00, -1.00, 430.2, 493.1)">f</text><text xml:space="preserve" font-family="HelveticaNeue-Light,Helvetica Neue" font-size="50.0" fill="#FEFFFE" transform="matrix(1.00, 0.00, -0.00, -1.00, 443.2, 493.1)">x</text><text xml:space="preserve" font-family="HelveticaNeue-Light,Helvetica Neue" font-size="50.0" fill="#FEFFFE" transform="matrix(1.00, 0.00, -0.00, -1.00, 467.2, 493.1)">p</text><text xml:space="preserve" font-family="HelveticaNeue-Light,Helvetica Neue" font-size="50.0" fill="#FEFFFE" transform="matrix(1.00, 0.00, -0.00, -1.00, 495.9, 493.1)">o</text><text xml:space="preserve" font-family="HelveticaNeue-Light,Helvetica Neue" font-size="50.0" fill="#FEFFFE" transform="matrix(1.00, 0.00, -0.00, -1.00, 523.7, 493.1)">s</text><text xml:space="preserve" font-family="HelveticaNeue-Light,Helvetica Neue" font-size="50.0" fill="#FEFFFE" transform="matrix(1.00, 0.00, -0.00, -1.00, 547.8, 493.1)">t</text><text xml:space="preserve" font-family="HelveticaNeue-Light,Helvetica Neue" font-size="50.0" fill="#FEFFFE" transform="matrix(1.00, 0.00, -0.00, -1.00, 562.6, 493.1)">e</text><text xml:space="preserve" font-family="HelveticaNeue-Light,Helvetica Neue" font-size="50.0" fill="#FEFFFE" transform="matrix(1.00, 0.00, -0.00, -1.00, 588.5, 493.1)">r</text><text xml:space="preserve" font-family="HelveticaNeue-Light,Helvetica Neue" font-size="50.0" fill="#FEFFFE" transform="matrix(1.00, 0.00, -0.00, -1.00, 604.2, 493.1)"> </text><g><clipPath id="clip0x7fe42ce4f1e0"><path d="M 169.0 485.9 L 604.2 485.9 L 604.2 490.4 L 169.0 490.4 Z M 169.0 485.9 "></path></clipPath><g clip-path="url(#clip0x7fe42ce4f1e0)"><path d="M 54.0 284.9 L 488.2 284.9 " fill="none" stroke="#FEFFFE" stroke-width="2.50" transform="matrix(1.00, 0.00, 0.00, -1.00, 116.0, 773.0)"></path></g></g><image xlink:href="../../B23B8777-38D6-40FF-A2A4-1E8E6DC033E4/assets/D78D93A8DEE9B68D58E2A0BAEAF9F97F.png" width="18.00" height="18.00" transform="matrix(1.00, 0.00, -0.00, -1.00, 120.0, 408.0)"></image><g><clipPath id="clip0x7fe42ce513e0"><path d="M 120.0 390.1 L 137.6 390.1 L 137.6 407.8 L 120.0 407.8 Z M 120.0 390.1 "></path></clipPath><g clip-path="url(#clip0x7fe42ce513e0)"><g><g><clipPath id="clip0x7fe42ce53490"><path d="M 120.0 407.8 L 137.6 407.8 L 137.6 390.1 L 120.0 390.1 Z M 120.0 407.8 "></path></clipPath><g clip-path="url(#clip0x7fe42ce53490)"><g><clipPath id="clip0x7fe42ce53c20"><path d="M 116.0 383.0 L 142.0 383.0 L 142.0 415.0 L 116.0 415.0 Z M 116.0 383.0 "></path></clipPath><g clip-path="url(#clip0x7fe42ce53c20)"><path d="M 137.6 404.3 C 137.6 405.0 137.2 405.8 136.5 406.6 C 135.8 407.4 135.0 407.8 134.1 407.8 C 133.7 407.8 133.1 407.6 132.2 407.2 C 130.9 406.5 129.7 406.2 128.8 406.2 C 127.8 406.2 126.6 406.5 125.3 407.2 C 124.5 407.6 123.9 407.8 123.4 407.8 C 122.6 407.8 121.8 407.4 121.1 406.6 C 120.4 405.9 120.0 405.1 120.0 404.3 C 120.0 403.8 120.2 403.2 120.6 402.3 C 121.2 401.0 121.5 399.9 121.5 398.9 C 121.5 398.0 121.2 396.9 120.6 395.5 C 120.2 394.7 120.0 394.1 120.0 393.6 C 120.0 392.8 120.4 392.0 121.1 391.2 C 121.8 390.5 122.6 390.1 123.4 390.1 C 123.9 390.1 124.5 390.3 125.3 390.7 C 126.6 391.4 127.8 391.7 128.8 391.7 C 129.7 391.7 130.9 391.4 132.2 390.7 C 133.1 390.3 133.7 390.1 134.1 390.1 C 135.0 390.1 135.8 390.5 136.5 391.2 C 137.2 392.0 137.6 392.8 137.6 393.6 C 137.6 394.1 137.4 394.7 137.0 395.5 C 136.3 396.9 136.0 398.0 136.0 398.9 C 136.0 399.9 136.3 401.0 137.0 402.3 C 137.4 403.2 137.6 403.8 137.6 404.3 " fill="#FFFFFF"></path></g></g></g></g></g></g></g><image xlink:href="../../A83C4E81-1412-41D7-81F0-B0DB475F1F16/assets/9A4E3380ADE766375E88BF849A7F8A1B.png" width="365.00" height="55.00" transform="matrix(1.00, 0.00, -0.00, -1.00, 169.0, 419.0)"></image><text xml:space="preserve" font-family="HelveticaNeue-Light,Helvetica Neue" font-size="50.0" fill="#FEFFFE" transform="matrix(1.00, 0.00, -0.00, -1.00, 170.0, 382.1)">b</text><text xml:space="preserve" font-family="HelveticaNeue-Light,Helvetica Neue" font-size="50.0" fill="#FEFFFE" transform="matrix(1.00, 0.00, -0.00, -1.00, 198.7, 382.1)">l</text><text xml:space="preserve" font-family="HelveticaNeue-Light,Helvetica Neue" font-size="50.0" fill="#FEFFFE" transform="matrix(1.00, 0.00, -0.00, -1.00, 207.9, 382.1)">o</text><text xml:space="preserve" font-family="HelveticaNeue-Light,Helvetica Neue" font-size="50.0" fill="#FEFFFE" transform="matrix(1.00, 0.00, -0.00, -1.00, 235.8, 382.1)">g</text><text xml:space="preserve" font-family="HelveticaNeue-Light,Helvetica Neue" font-size="50.0" fill="#FEFFFE" transform="matrix(1.00, 0.00, -0.00, -1.00, 263.6, 382.1)">.</text><text xml:space="preserve" font-family="HelveticaNeue-Light,Helvetica Neue" font-size="50.0" fill="#FEFFFE" transform="matrix(1.00, 0.00, -0.00, -1.00, 277.4, 382.1)">f</text><text xml:space="preserve" font-family="HelveticaNeue-Light,Helvetica Neue" font-size="50.0" fill="#FEFFFE" transform="matrix(1.00, 0.00, -0.00, -1.00, 290.4, 382.1)">x</text><text xml:space="preserve" font-family="HelveticaNeue-Light,Helvetica Neue" font-size="50.0" fill="#FEFFFE" transform="matrix(1.00, 0.00, -0.00, -1.00, 314.5, 382.1)">p</text><text xml:space="preserve" font-family="HelveticaNeue-Light,Helvetica Neue" font-size="50.0" fill="#FEFFFE" transform="matrix(1.00, 0.00, -0.00, -1.00, 343.2, 382.1)">o</text><text xml:space="preserve" font-family="HelveticaNeue-Light,Helvetica Neue" font-size="50.0" fill="#FEFFFE" transform="matrix(1.00, 0.00, -0.00, -1.00, 371.0, 382.1)">s</text><text xml:space="preserve" font-family="HelveticaNeue-Light,Helvetica Neue" font-size="50.0" fill="#FEFFFE" transform="matrix(1.00, 0.00, -0.00, -1.00, 395.0, 382.1)">t</text><text xml:space="preserve" font-family="HelveticaNeue-Light,Helvetica Neue" font-size="50.0" fill="#FEFFFE" transform="matrix(1.00, 0.00, -0.00, -1.00, 409.8, 382.1)">e</text><text xml:space="preserve" font-family="HelveticaNeue-Light,Helvetica Neue" font-size="50.0" fill="#FEFFFE" transform="matrix(1.00, 0.00, -0.00, -1.00, 435.8, 382.1)">r</text><text xml:space="preserve" font-family="HelveticaNeue-Light,Helvetica Neue" font-size="50.0" fill="#FEFFFE" transform="matrix(1.00, 0.00, -0.00, -1.00, 446.9, 382.1)">.</text><text xml:space="preserve" font-family="HelveticaNeue-Light,Helvetica Neue" font-size="50.0" fill="#FEFFFE" transform="matrix(1.00, 0.00, -0.00, -1.00, 460.8, 382.1)">o</text><text xml:space="preserve" font-family="HelveticaNeue-Light,Helvetica Neue" font-size="50.0" fill="#FEFFFE" transform="matrix(1.00, 0.00, -0.00, -1.00, 488.6, 382.1)">r</text><text xml:space="preserve" font-family="HelveticaNeue-Light,Helvetica Neue" font-size="50.0" fill="#FEFFFE" transform="matrix(1.00, 0.00, -0.00, -1.00, 504.4, 382.1)">g</text><text xml:space="preserve" font-family="HelveticaNeue-Light,Helvetica Neue" font-size="50.0" fill="#FEFFFE" transform="matrix(1.00, 0.00, -0.00, -1.00, 532.2, 382.1)"> </text><g><clipPath id="clip0x7fe42cd41cf0"><path d="M 169.0 374.9 L 532.2 374.9 L 532.2 379.4 L 169.0 379.4 Z M 169.0 374.9 "></path></clipPath><g clip-path="url(#clip0x7fe42cd41cf0)"><path d="M 54.0 395.9 L 416.2 395.9 " fill="none" stroke="#FEFFFE" stroke-width="2.50" transform="matrix(1.00, 0.00, 0.00, -1.00, 116.0, 773.0)"></path></g></g><image xlink:href="../../B23B8777-38D6-40FF-A2A4-1E8E6DC033E4/assets/D78D93A8DEE9B68D58E2A0BAEAF9F97F.png" width="18.00" height="18.00" transform="matrix(1.00, 0.00, -0.00, -1.00, 120.0, 297.0)"></image><g><clipPath id="clip0x7fe42cd43ee0"><path d="M 120.0 279.1 L 137.6 279.1 L 137.6 296.8 L 120.0 296.8 Z M 120.0 279.1 "></path></clipPath><g clip-path="url(#clip0x7fe42cd43ee0)"><g><g><clipPath id="clip0x7fe42cd45f80"><path d="M 120.0 296.8 L 137.6 296.8 L 137.6 279.1 L 120.0 279.1 Z M 120.0 296.8 "></path></clipPath><g clip-path="url(#clip0x7fe42cd45f80)"><g><clipPath id="clip0x7fe42cd46710"><path d="M 116.0 272.0 L 142.0 272.0 L 142.0 304.0 L 116.0 304.0 Z M 116.0 272.0 "></path></clipPath><g clip-path="url(#clip0x7fe42cd46710)"><path d="M 137.6 293.3 C 137.6 294.0 137.2 294.8 136.5 295.6 C 135.8 296.4 135.0 296.8 134.1 296.8 C 133.7 296.8 133.1 296.6 132.2 296.2 C 130.9 295.5 129.7 295.2 128.8 295.2 C 127.8 295.2 126.6 295.5 125.3 296.2 C 124.5 296.6 123.9 296.8 123.4 296.8 C 122.6 296.8 121.8 296.4 121.1 295.6 C 120.4 294.9 120.0 294.1 120.0 293.3 C 120.0 292.8 120.2 292.2 120.6 291.3 C 121.2 290.0 121.5 288.9 121.5 287.9 C 121.5 287.0 121.2 285.9 120.6 284.5 C 120.2 283.7 120.0 283.1 120.0 282.6 C 120.0 281.8 120.4 281.0 121.1 280.2 C 121.8 279.5 122.6 279.1 123.4 279.1 C 123.9 279.1 124.5 279.3 125.3 279.7 C 126.6 280.4 127.8 280.7 128.8 280.7 C 129.7 280.7 130.9 280.4 132.2 279.7 C 133.1 279.3 133.7 279.1 134.1 279.1 C 135.0 279.1 135.8 279.5 136.5 280.2 C 137.2 281.0 137.6 281.8 137.6 282.6 C 137.6 283.1 137.4 283.7 137.0 284.5 C 136.3 285.9 136.0 287.0 136.0 287.9 C 136.0 288.9 136.3 290.0 137.0 291.3 C 137.4 292.2 137.6 292.8 137.6 293.3 " fill="#FFFFFF"></path></g></g></g></g></g></g></g><image xlink:href="../../A83C4E81-1412-41D7-81F0-B0DB475F1F16/assets/2496D672C326C91DDBAB0BA93D24F62F.png" width="443.00" height="56.00" transform="matrix(1.00, 0.00, -0.00, -1.00, 166.0, 309.0)"></image><text xml:space="preserve" font-family="HelveticaNeue-Light,Helvetica Neue" font-size="50.0" fill="#FEFFFE" transform="matrix(1.00, 0.00, -0.00, -1.00, 170.0, 271.1)">f</text><text xml:space="preserve" font-family="HelveticaNeue-Light,Helvetica Neue" font-size="50.0" fill="#FEFFFE" transform="matrix(1.00, 0.00, -0.00, -1.00, 182.9, 271.1)">x</text><text xml:space="preserve" font-family="HelveticaNeue-Light,Helvetica Neue" font-size="50.0" fill="#FEFFFE" transform="matrix(1.00, 0.00, -0.00, -1.00, 207.0, 271.1)">p</text><text xml:space="preserve" font-family="HelveticaNeue-Light,Helvetica Neue" font-size="50.0" fill="#FEFFFE" transform="matrix(1.00, 0.00, -0.00, -1.00, 235.7, 271.1)">o</text><text xml:space="preserve" font-family="HelveticaNeue-Light,Helvetica Neue" font-size="50.0" fill="#FEFFFE" transform="matrix(1.00, 0.00, -0.00, -1.00, 263.5, 271.1)">s</text><text xml:space="preserve" font-family="HelveticaNeue-Light,Helvetica Neue" font-size="50.0" fill="#FEFFFE" transform="matrix(1.00, 0.00, -0.00, -1.00, 287.6, 271.1)">t</text><text xml:space="preserve" font-family="HelveticaNeue-Light,Helvetica Neue" font-size="50.0" fill="#FEFFFE" transform="matrix(1.00, 0.00, -0.00, -1.00, 302.4, 271.1)">e</text><text xml:space="preserve" font-family="HelveticaNeue-Light,Helvetica Neue" font-size="50.0" fill="#FEFFFE" transform="matrix(1.00, 0.00, -0.00, -1.00, 328.3, 271.1)">r</text><text xml:space="preserve" font-family="HelveticaNeue-Light,Helvetica Neue" font-size="50.0" fill="#FEFFFE" transform="matrix(1.00, 0.00, -0.00, -1.00, 344.1, 271.1)">@</text><text xml:space="preserve" font-family="HelveticaNeue-Light,Helvetica Neue" font-size="50.0" fill="#FEFFFE" transform="matrix(1.00, 0.00, -0.00, -1.00, 384.1, 271.1)">g</text><text xml:space="preserve" font-family="HelveticaNeue-Light,Helvetica Neue" font-size="50.0" fill="#FEFFFE" transform="matrix(1.00, 0.00, -0.00, -1.00, 411.9, 271.1)">m</text><text xml:space="preserve" font-family="HelveticaNeue-Light,Helvetica Neue" font-size="50.0" fill="#FEFFFE" transform="matrix(1.00, 0.00, -0.00, -1.00, 453.5, 271.1)">a</text><text xml:space="preserve" font-family="HelveticaNeue-Light,Helvetica Neue" font-size="50.0" fill="#FEFFFE" transform="matrix(1.00, 0.00, -0.00, -1.00, 479.4, 271.1)">i</text><text xml:space="preserve" font-family="HelveticaNeue-Light,Helvetica Neue" font-size="50.0" fill="#FEFFFE" transform="matrix(1.00, 0.00, -0.00, -1.00, 488.7, 271.1)">l</text><text xml:space="preserve" font-family="HelveticaNeue-Light,Helvetica Neue" font-size="50.0" fill="#FEFFFE" transform="matrix(1.00, 0.00, -0.00, -1.00, 497.9, 271.1)">.</text><text xml:space="preserve" font-family="HelveticaNeue-Light,Helvetica Neue" font-size="50.0" fill="#FEFFFE" transform="matrix(1.00, 0.00, -0.00, -1.00, 511.8, 271.1)">c</text><text xml:space="preserve" font-family="HelveticaNeue-Light,Helvetica Neue" font-size="50.0" fill="#FEFFFE" transform="matrix(1.00, 0.00, -0.00, -1.00, 537.8, 271.1)">o</text><text xml:space="preserve" font-family="HelveticaNeue-Light,Helvetica Neue" font-size="50.0" fill="#FEFFFE" transform="matrix(1.00, 0.00, -0.00, -1.00, 565.6, 271.1)">m</text><g><clipPath id="clip0x7fe42ccc1a20"><path d="M 169.0 263.9 L 607.2 263.9 L 607.2 268.4 L 169.0 268.4 Z M 169.0 263.9 "></path></clipPath><g clip-path="url(#clip0x7fe42ccc1a20)"><path d="M 54.0 506.9 L 491.2 506.9 " fill="none" stroke="#FEFFFE" stroke-width="2.50" transform="matrix(1.00, 0.00, 0.00, -1.00, 116.0, 773.0)"></path></g></g></g></svg>