<?xml version="1.0" encoding="UTF-8" standalone="no"?><svg xmlns="http://www.w3.org/2000/svg" xmlns:xlink="http://www.w3.org/1999/xlink" clip-rule="evenodd" stroke-miterlimit="10" viewBox="0 0 1920 1080"><desc>SVG generated by Keynote</desc><defs></defs><g transform="matrix(1.00, 0.00, -0.00, -1.00, 0.0, 1080.0)"><g><clipPath id="clip0x7fe427f61320"><path d="M 0.0 1080.0 L 1920.0 1080.0 L 1920.0 0.0 L 0.0 0.0 Z M 0.0 1080.0 "></path></clipPath><g clip-path="url(#clip0x7fe427f61320)"><image xlink:href="../../EAAA0B26-26D2-4E6F-B71B-738E9DFC302E/assets/0F43D2572F34A9AFB59E4515ED9A1249.jpeg" width="3840.00" height="2160.00" transform="matrix(0.50, 0.00, -0.00, -0.50, 0.0, 1080.0)"></image></g></g><image xlink:href="1ED387C2508D5ECC148D280B38A8A1AF.png" width="191.00" height="81.00" transform="matrix(1.00, 0.00, -0.00, -1.00, 122.0, 934.0)"></image><text xml:space="preserve" font-family="HelveticaNeue-Light,Helvetica Neue" font-size="100.0" fill="#FEFFFE" transform="matrix(1.00, 0.00, -0.00, -1.00, 120.0, 879.2)">m</text><text xml:space="preserve" font-family="HelveticaNeue-Light,Helvetica Neue" font-size="100.0" fill="#FEFFFE" transform="matrix(1.00, 0.00, -0.00, -1.00, 203.3, 879.2)">a</text><text xml:space="preserve" font-family="HelveticaNeue-Light,Helvetica Neue" font-size="100.0" fill="#FEFFFE" transform="matrix(1.00, 0.00, -0.00, -1.00, 255.2, 879.2)">p</text><text xml:space="preserve" font-family="Monaco,Monaco" font-size="50.0" fill="#F9F9F4" transform="matrix(1.00, 0.00, -0.00, -1.00, 120.0, 537.7)">[</text><text xml:space="preserve" font-family="Monaco,Monaco" font-size="50.0" fill="#BC99FF" transform="matrix(1.00, 0.00, -0.00, -1.00, 150.0, 537.7)">1</text><text xml:space="preserve" font-family="Monaco,Monaco" font-size="50.0" fill="#F9F9F4" transform="matrix(1.00, 0.00, -0.00, -1.00, 180.0, 537.7)">,</text><text xml:space="preserve" font-family="Monaco,Monaco" font-size="50.0" fill="#000000" transform="matrix(1.00, 0.00, -0.00, -1.00, 210.0, 537.7)"> </text><text xml:space="preserve" font-family="Monaco,Monaco" font-size="50.0" fill="#BC99FF" transform="matrix(1.00, 0.00, -0.00, -1.00, 240.0, 537.7)">2</text><text xml:space="preserve" font-family="Monaco,Monaco" font-size="50.0" fill="#F9F9F4" transform="matrix(1.00, 0.00, -0.00, -1.00, 270.0, 537.7)">,</text><text xml:space="preserve" font-family="Monaco,Monaco" font-size="50.0" fill="#000000" transform="matrix(1.00, 0.00, -0.00, -1.00, 300.0, 537.7)"> </text><text xml:space="preserve" font-family="Monaco,Monaco" font-size="50.0" fill="#BC99FF" transform="matrix(1.00, 0.00, -0.00, -1.00, 330.0, 537.7)">3</text><text xml:space="preserve" font-family="Monaco,Monaco" font-size="50.0" fill="#F9F9F4" transform="matrix(1.00, 0.00, -0.00, -1.00, 360.0, 537.7)">,</text><text xml:space="preserve" font-family="Monaco,Monaco" font-size="50.0" fill="#000000" transform="matrix(1.00, 0.00, -0.00, -1.00, 390.0, 537.7)"> </text><text xml:space="preserve" font-family="Monaco,Monaco" font-size="50.0" fill="#BC99FF" transform="matrix(1.00, 0.00, -0.00, -1.00, 420.0, 537.7)">4</text><text xml:space="preserve" font-family="Monaco,Monaco" font-size="50.0" fill="#F9F9F4" transform="matrix(1.00, 0.00, -0.00, -1.00, 450.1, 537.7)">,</text><text xml:space="preserve" font-family="Monaco,Monaco" font-size="50.0" fill="#000000" transform="matrix(1.00, 0.00, -0.00, -1.00, 480.1, 537.7)"> </text><text xml:space="preserve" font-family="Monaco,Monaco" font-size="50.0" fill="#BC99FF" transform="matrix(1.00, 0.00, -0.00, -1.00, 510.1, 537.7)">5</text><text xml:space="preserve" font-family="Monaco,Monaco" font-size="50.0" fill="#F9F9F4" transform="matrix(1.00, 0.00, -0.00, -1.00, 540.1, 537.7)">]</text><text xml:space="preserve" font-family="Monaco,Monaco" font-size="50.0" fill="#F9F9F4" transform="matrix(1.00, 0.00, -0.00, -1.00, 570.1, 537.7)">.</text><text xml:space="preserve" font-family="Monaco,Monaco" font-size="50.0" fill="#13F7BA" transform="matrix(1.00, 0.00, -0.00, -1.00, 600.1, 537.7)">m</text><text xml:space="preserve" font-family="Monaco,Monaco" font-size="50.0" fill="#13F7BA" transform="matrix(1.00, 0.00, -0.00, -1.00, 630.1, 537.7)">a</text><text xml:space="preserve" font-family="Monaco,Monaco" font-size="50.0" fill="#13F7BA" transform="matrix(1.00, 0.00, -0.00, -1.00, 660.1, 537.7)">p</text><text xml:space="preserve" font-family="Monaco,Monaco" font-size="50.0" fill="#F9F9F4" transform="matrix(1.00, 0.00, -0.00, -1.00, 690.1, 537.7)">(</text><text xml:space="preserve" font-family="Monaco,Monaco" font-size="50.0" fill="#FC4384" transform="matrix(1.00, 0.00, -0.00, -1.00, 720.1, 537.7)">f</text><text xml:space="preserve" font-family="Monaco,Monaco" font-size="50.0" fill="#FC4384" transform="matrix(1.00, 0.00, -0.00, -1.00, 750.1, 537.7)">u</text><text xml:space="preserve" font-family="Monaco,Monaco" font-size="50.0" fill="#FC4384" transform="matrix(1.00, 0.00, -0.00, -1.00, 780.1, 537.7)">n</text><text xml:space="preserve" font-family="Monaco,Monaco" font-size="50.0" fill="#FC4384" transform="matrix(1.00, 0.00, -0.00, -1.00, 810.1, 537.7)">c</text><text xml:space="preserve" font-family="Monaco,Monaco" font-size="50.0" fill="#FC4384" transform="matrix(1.00, 0.00, -0.00, -1.00, 840.1, 537.7)">t</text><text xml:space="preserve" font-family="Monaco,Monaco" font-size="50.0" fill="#FC4384" transform="matrix(1.00, 0.00, -0.00, -1.00, 870.1, 537.7)">i</text><text xml:space="preserve" font-family="Monaco,Monaco" font-size="50.0" fill="#FC4384" transform="matrix(1.00, 0.00, -0.00, -1.00, 900.2, 537.7)">o</text><text xml:space="preserve" font-family="Monaco,Monaco" font-size="50.0" fill="#FC4384" transform="matrix(1.00, 0.00, -0.00, -1.00, 930.2, 537.7)">n</text><text xml:space="preserve" font-family="Monaco,Monaco" font-size="50.0" fill="#F9F9F4" transform="matrix(1.00, 0.00, -0.00, -1.00, 960.1, 537.7)">(</text><text xml:space="preserve" font-family="Monaco,Monaco" font-size="50.0" fill="#F9F9F4" transform="matrix(1.00, 0.00, -0.00, -1.00, 990.1, 537.7)">e</text><text xml:space="preserve" font-family="Monaco,Monaco" font-size="50.0" fill="#F9F9F4" transform="matrix(1.00, 0.00, -0.00, -1.00, 1020.2, 537.7)">l</text><text xml:space="preserve" font-family="Monaco,Monaco" font-size="50.0" fill="#F9F9F4" transform="matrix(1.00, 0.00, -0.00, -1.00, 1050.2, 537.7)">e</text><text xml:space="preserve" font-family="Monaco,Monaco" font-size="50.0" fill="#F9F9F4" transform="matrix(1.00, 0.00, -0.00, -1.00, 1080.2, 537.7)">m</text><text xml:space="preserve" font-family="Monaco,Monaco" font-size="50.0" fill="#F9F9F4" transform="matrix(1.00, 0.00, -0.00, -1.00, 1110.2, 537.7)">e</text><text xml:space="preserve" font-family="Monaco,Monaco" font-size="50.0" fill="#F9F9F4" transform="matrix(1.00, 0.00, -0.00, -1.00, 1140.2, 537.7)">n</text><text xml:space="preserve" font-family="Monaco,Monaco" font-size="50.0" fill="#F9F9F4" transform="matrix(1.00, 0.00, -0.00, -1.00, 1170.2, 537.7)">t</text><text xml:space="preserve" font-family="Monaco,Monaco" font-size="50.0" fill="#F9F9F4" transform="matrix(1.00, 0.00, -0.00, -1.00, 1200.2, 537.7)">)</text><text xml:space="preserve" font-family="Monaco,Monaco" font-size="50.0" fill="#F9F9F4" transform="matrix(1.00, 0.00, -0.00, -1.00, 1230.2, 537.7)"> </text><text xml:space="preserve" font-family="Monaco,Monaco" font-size="50.0" fill="#F9F9F4" transform="matrix(1.00, 0.00, -0.00, -1.00, 1260.2, 537.7)">{</text><text xml:space="preserve" font-family="Monaco,Monaco" font-size="50.0" fill="#000000" transform="matrix(1.00, 0.00, -0.00, -1.00, 120.0, 470.7)"> </text><text xml:space="preserve" font-family="Monaco,Monaco" font-size="50.0" fill="#000000" transform="matrix(1.00, 0.00, -0.00, -1.00, 150.0, 470.7)"> </text><text xml:space="preserve" font-family="Monaco,Monaco" font-size="50.0" fill="#FC4384" transform="matrix(1.00, 0.00, -0.00, -1.00, 180.0, 470.7)">r</text><text xml:space="preserve" font-family="Monaco,Monaco" font-size="50.0" fill="#FC4384" transform="matrix(1.00, 0.00, -0.00, -1.00, 210.0, 470.7)">e</text><text xml:space="preserve" font-family="Monaco,Monaco" font-size="50.0" fill="#FC4384" transform="matrix(1.00, 0.00, -0.00, -1.00, 240.0, 470.7)">t</text><text xml:space="preserve" font-family="Monaco,Monaco" font-size="50.0" fill="#FC4384" transform="matrix(1.00, 0.00, -0.00, -1.00, 270.0, 470.7)">u</text><text xml:space="preserve" font-family="Monaco,Monaco" font-size="50.0" fill="#FC4384" transform="matrix(1.00, 0.00, -0.00, -1.00, 300.0, 470.7)">r</text><text xml:space="preserve" font-family="Monaco,Monaco" font-size="50.0" fill="#FC4384" transform="matrix(1.00, 0.00, -0.00, -1.00, 330.1, 470.7)">n</text><text xml:space="preserve" font-family="Monaco,Monaco" font-size="50.0" fill="#000000" transform="matrix(1.00, 0.00, -0.00, -1.00, 360.0, 470.7)"> </text><text xml:space="preserve" font-family="Monaco,Monaco" font-size="50.0" fill="#F9F9F4" transform="matrix(1.00, 0.00, -0.00, -1.00, 390.0, 470.7)">e</text><text xml:space="preserve" font-family="Monaco,Monaco" font-size="50.0" fill="#F9F9F4" transform="matrix(1.00, 0.00, -0.00, -1.00, 420.1, 470.7)">l</text><text xml:space="preserve" font-family="Monaco,Monaco" font-size="50.0" fill="#F9F9F4" transform="matrix(1.00, 0.00, -0.00, -1.00, 450.1, 470.7)">e</text><text xml:space="preserve" font-family="Monaco,Monaco" font-size="50.0" fill="#F9F9F4" transform="matrix(1.00, 0.00, -0.00, -1.00, 480.1, 470.7)">m</text><text xml:space="preserve" font-family="Monaco,Monaco" font-size="50.0" fill="#F9F9F4" transform="matrix(1.00, 0.00, -0.00, -1.00, 510.1, 470.7)">e</text><text xml:space="preserve" font-family="Monaco,Monaco" font-size="50.0" fill="#F9F9F4" transform="matrix(1.00, 0.00, -0.00, -1.00, 540.1, 470.7)">n</text><text xml:space="preserve" font-family="Monaco,Monaco" font-size="50.0" fill="#F9F9F4" transform="matrix(1.00, 0.00, -0.00, -1.00, 570.1, 470.7)">t</text><text xml:space="preserve" font-family="Monaco,Monaco" font-size="50.0" fill="#000000" transform="matrix(1.00, 0.00, -0.00, -1.00, 600.1, 470.7)"> </text><text xml:space="preserve" font-family="Monaco,Monaco" font-size="50.0" fill="#F9F9F4" transform="matrix(1.00, 0.00, -0.00, -1.00, 630.1, 470.7)">*</text><text xml:space="preserve" font-family="Monaco,Monaco" font-size="50.0" fill="#000000" transform="matrix(1.00, 0.00, -0.00, -1.00, 660.1, 470.7)"> </text><text xml:space="preserve" font-family="Monaco,Monaco" font-size="50.0" fill="#BC99FF" transform="matrix(1.00, 0.00, -0.00, -1.00, 690.1, 470.7)">2</text><text xml:space="preserve" font-family="Monaco,Monaco" font-size="50.0" fill="#F9F9F4" transform="matrix(1.00, 0.00, -0.00, -1.00, 720.1, 470.7)">;</text><text xml:space="preserve" font-family="Monaco,Monaco" font-size="50.0" fill="#F9F9F4" transform="matrix(1.00, 0.00, -0.00, -1.00, 120.0, 403.7)">}</text><text xml:space="preserve" font-family="Monaco,Monaco" font-size="50.0" fill="#F9F9F4" transform="matrix(1.00, 0.00, -0.00, -1.00, 150.0, 403.7)">)</text><text xml:space="preserve" font-family="Monaco,Monaco" font-size="50.0" fill="#F9F9F4" transform="matrix(1.00, 0.00, -0.00, -1.00, 180.0, 403.7)">;</text><text xml:space="preserve" font-family="Monaco,Monaco" font-size="50.0" fill="#FEFFFE" transform="matrix(1.00, 0.00, -0.00, -1.00, 120.0, 336.7)">=</text><text xml:space="preserve" font-family="Monaco,Monaco" font-size="50.0" fill="#FEFFFE" transform="matrix(1.00, 0.00, -0.00, -1.00, 150.0, 336.7)">&gt;</text><text xml:space="preserve" font-family="Monaco,Monaco" font-size="50.0" fill="#FEFFFE" transform="matrix(1.00, 0.00, -0.00, -1.00, 180.0, 336.7)"> </text><text xml:space="preserve" font-family="Monaco,Monaco" font-size="50.0" fill="#F9F9F4" transform="matrix(1.00, 0.00, -0.00, -1.00, 210.0, 336.7)">[</text><text xml:space="preserve" font-family="Monaco,Monaco" font-size="50.0" fill="#BC99FF" transform="matrix(1.00, 0.00, -0.00, -1.00, 240.0, 336.7)">2</text><text xml:space="preserve" font-family="Monaco,Monaco" font-size="50.0" fill="#F9F9F4" transform="matrix(1.00, 0.00, -0.00, -1.00, 270.0, 336.7)">,</text><text xml:space="preserve" font-family="Monaco,Monaco" font-size="50.0" fill="#000000" transform="matrix(1.00, 0.00, -0.00, -1.00, 300.0, 336.7)"> </text><text xml:space="preserve" font-family="Monaco,Monaco" font-size="50.0" fill="#BC99FF" transform="matrix(1.00, 0.00, -0.00, -1.00, 330.0, 336.7)">4</text><text xml:space="preserve" font-family="Monaco,Monaco" font-size="50.0" fill="#F9F9F4" transform="matrix(1.00, 0.00, -0.00, -1.00, 360.0, 336.7)">,</text><text xml:space="preserve" font-family="Monaco,Monaco" font-size="50.0" fill="#000000" transform="matrix(1.00, 0.00, -0.00, -1.00, 390.0, 336.7)"> </text><text xml:space="preserve" font-family="Monaco,Monaco" font-size="50.0" fill="#BC99FF" transform="matrix(1.00, 0.00, -0.00, -1.00, 420.0, 336.7)">6</text><text xml:space="preserve" font-family="Monaco,Monaco" font-size="50.0" fill="#F9F9F4" transform="matrix(1.00, 0.00, -0.00, -1.00, 450.1, 336.7)">,</text><text xml:space="preserve" font-family="Monaco,Monaco" font-size="50.0" fill="#000000" transform="matrix(1.00, 0.00, -0.00, -1.00, 480.1, 336.7)"> </text><text xml:space="preserve" font-family="Monaco,Monaco" font-size="50.0" fill="#BC99FF" transform="matrix(1.00, 0.00, -0.00, -1.00, 510.1, 336.7)">8</text><text xml:space="preserve" font-family="Monaco,Monaco" font-size="50.0" fill="#F9F9F4" transform="matrix(1.00, 0.00, -0.00, -1.00, 540.1, 336.7)">,</text><text xml:space="preserve" font-family="Monaco,Monaco" font-size="50.0" fill="#000000" transform="matrix(1.00, 0.00, -0.00, -1.00, 570.1, 336.7)"> </text><text xml:space="preserve" font-family="Monaco,Monaco" font-size="50.0" fill="#BC99FF" transform="matrix(1.00, 0.00, -0.00, -1.00, 600.1, 336.7)">1</text><text xml:space="preserve" font-family="Monaco,Monaco" font-size="50.0" fill="#BC99FF" transform="matrix(1.00, 0.00, -0.00, -1.00, 630.1, 336.7)">0</text><text xml:space="preserve" font-family="Monaco,Monaco" font-size="50.0" fill="#F9F9F4" transform="matrix(1.00, 0.00, -0.00, -1.00, 660.1, 336.7)">]</text></g></svg>