<?xml version="1.0" encoding="UTF-8" standalone="no"?><svg xmlns="http://www.w3.org/2000/svg" xmlns:xlink="http://www.w3.org/1999/xlink" clip-rule="evenodd" stroke-miterlimit="10" viewBox="0 0 1920 1080"><desc>SVG generated by Keynote</desc><defs></defs><g transform="matrix(1.00, 0.00, -0.00, -1.00, 0.0, 1080.0)"><g><clipPath id="clip0x7fe42b87fbf0"><path d="M 0.0 1080.0 L 1920.0 1080.0 L 1920.0 0.0 L 0.0 0.0 Z M 0.0 1080.0 "></path></clipPath><g clip-path="url(#clip0x7fe42b87fbf0)"><image xlink:href="../../EAAA0B26-26D2-4E6F-B71B-738E9DFC302E/assets/0F43D2572F34A9AFB59E4515ED9A1249.jpeg" width="3840.00" height="2160.00" transform="matrix(0.50, 0.00, -0.00, -0.50, 0.0, 1080.0)"></image></g></g><image xlink:href="../../AC2B8E43-2A65-4F51-A746-74FBC6DF906F/assets/CE69BA7F60DBEC73F0F8F2B5962D5C23.png" width="532.00" height="82.00" transform="matrix(1.00, 0.00, -0.00, -1.00, 115.0, 952.0)"></image><text xml:space="preserve" font-family="HelveticaNeue-Light,Helvetica Neue" font-size="100.0" fill="#FEFFFE" transform="matrix(1.00, 0.00, -0.00, -1.00, 120.0, 879.2)">T</text><text xml:space="preserve" font-family="HelveticaNeue-Light,Helvetica Neue" font-size="100.0" fill="#FEFFFE" transform="matrix(1.00, 0.00, -0.00, -1.00, 166.4, 879.2)">r</text><text xml:space="preserve" font-family="HelveticaNeue-Light,Helvetica Neue" font-size="100.0" fill="#FEFFFE" transform="matrix(1.00, 0.00, -0.00, -1.00, 197.9, 879.2)">a</text><text xml:space="preserve" font-family="HelveticaNeue-Light,Helvetica Neue" font-size="100.0" fill="#FEFFFE" transform="matrix(1.00, 0.00, -0.00, -1.00, 249.8, 879.2)">n</text><text xml:space="preserve" font-family="HelveticaNeue-Light,Helvetica Neue" font-size="100.0" fill="#FEFFFE" transform="matrix(1.00, 0.00, -0.00, -1.00, 303.5, 879.2)">s</text><text xml:space="preserve" font-family="HelveticaNeue-Light,Helvetica Neue" font-size="100.0" fill="#FEFFFE" transform="matrix(1.00, 0.00, -0.00, -1.00, 351.6, 879.2)">d</text><text xml:space="preserve" font-family="HelveticaNeue-Light,Helvetica Neue" font-size="100.0" fill="#FEFFFE" transform="matrix(1.00, 0.00, -0.00, -1.00, 409.0, 879.2)">u</text><text xml:space="preserve" font-family="HelveticaNeue-Light,Helvetica Neue" font-size="100.0" fill="#FEFFFE" transform="matrix(1.00, 0.00, -0.00, -1.00, 462.7, 879.2)">c</text><text xml:space="preserve" font-family="HelveticaNeue-Light,Helvetica Neue" font-size="100.0" fill="#FEFFFE" transform="matrix(1.00, 0.00, -0.00, -1.00, 514.6, 879.2)">e</text><text xml:space="preserve" font-family="HelveticaNeue-Light,Helvetica Neue" font-size="100.0" fill="#FEFFFE" transform="matrix(1.00, 0.00, -0.00, -1.00, 566.5, 879.2)">r</text><text xml:space="preserve" font-family="HelveticaNeue-Light,Helvetica Neue" font-size="100.0" fill="#FEFFFE" transform="matrix(1.00, 0.00, -0.00, -1.00, 598.0, 879.2)">s</text><text xml:space="preserve" font-family="Monaco,Monaco" font-size="50.0" fill="#13F7BA" transform="matrix(1.00, 0.00, -0.00, -1.00, 120.0, 571.7)">t</text><text xml:space="preserve" font-family="Monaco,Monaco" font-size="50.0" fill="#13F7BA" transform="matrix(1.00, 0.00, -0.00, -1.00, 150.0, 571.7)">r</text><text xml:space="preserve" font-family="Monaco,Monaco" font-size="50.0" fill="#13F7BA" transform="matrix(1.00, 0.00, -0.00, -1.00, 180.0, 571.7)">a</text><text xml:space="preserve" font-family="Monaco,Monaco" font-size="50.0" fill="#13F7BA" transform="matrix(1.00, 0.00, -0.00, -1.00, 210.0, 571.7)">n</text><text xml:space="preserve" font-family="Monaco,Monaco" font-size="50.0" fill="#13F7BA" transform="matrix(1.00, 0.00, -0.00, -1.00, 240.0, 571.7)">s</text><text xml:space="preserve" font-family="Monaco,Monaco" font-size="50.0" fill="#13F7BA" transform="matrix(1.00, 0.00, -0.00, -1.00, 270.0, 571.7)">d</text><text xml:space="preserve" font-family="Monaco,Monaco" font-size="50.0" fill="#13F7BA" transform="matrix(1.00, 0.00, -0.00, -1.00, 300.1, 571.7)">u</text><text xml:space="preserve" font-family="Monaco,Monaco" font-size="50.0" fill="#13F7BA" transform="matrix(1.00, 0.00, -0.00, -1.00, 330.1, 571.7)">c</text><text xml:space="preserve" font-family="Monaco,Monaco" font-size="50.0" fill="#13F7BA" transform="matrix(1.00, 0.00, -0.00, -1.00, 360.1, 571.7)">e</text><text xml:space="preserve" font-family="Monaco,Monaco" font-size="50.0" fill="#F9F9F4" transform="matrix(1.00, 0.00, -0.00, -1.00, 390.0, 571.7)">(</text><text xml:space="preserve" font-family="Monaco,Monaco" font-size="50.0" fill="#000000" transform="matrix(1.00, 0.00, -0.00, -1.00, 120.0, 504.7)"> </text><text xml:space="preserve" font-family="Monaco,Monaco" font-size="50.0" fill="#000000" transform="matrix(1.00, 0.00, -0.00, -1.00, 150.0, 504.7)"> </text><text xml:space="preserve" font-family="Monaco,Monaco" font-size="50.0" fill="#13F7BA" transform="matrix(1.00, 0.00, -0.00, -1.00, 180.0, 504.7)">m</text><text xml:space="preserve" font-family="Monaco,Monaco" font-size="50.0" fill="#13F7BA" transform="matrix(1.00, 0.00, -0.00, -1.00, 210.0, 504.7)">a</text><text xml:space="preserve" font-family="Monaco,Monaco" font-size="50.0" fill="#13F7BA" transform="matrix(1.00, 0.00, -0.00, -1.00, 240.0, 504.7)">p</text><text xml:space="preserve" font-family="Monaco,Monaco" font-size="50.0" fill="#F9F9F4" transform="matrix(1.00, 0.00, -0.00, -1.00, 270.0, 504.7)">(</text><text xml:space="preserve" font-family="Monaco,Monaco" font-size="50.0" fill="#F9F9F4" transform="matrix(1.00, 0.00, -0.00, -1.00, 300.0, 504.7)">p</text><text xml:space="preserve" font-family="Monaco,Monaco" font-size="50.0" fill="#F9F9F4" transform="matrix(1.00, 0.00, -0.00, -1.00, 330.0, 504.7)">o</text><text xml:space="preserve" font-family="Monaco,Monaco" font-size="50.0" fill="#F9F9F4" transform="matrix(1.00, 0.00, -0.00, -1.00, 360.1, 504.7)">w</text><text xml:space="preserve" font-family="Monaco,Monaco" font-size="50.0" fill="#F9F9F4" transform="matrix(1.00, 0.00, -0.00, -1.00, 390.1, 504.7)">e</text><text xml:space="preserve" font-family="Monaco,Monaco" font-size="50.0" fill="#F9F9F4" transform="matrix(1.00, 0.00, -0.00, -1.00, 420.1, 504.7)">r</text><text xml:space="preserve" font-family="Monaco,Monaco" font-size="50.0" fill="#F9F9F4" transform="matrix(1.00, 0.00, -0.00, -1.00, 450.1, 504.7)">O</text><text xml:space="preserve" font-family="Monaco,Monaco" font-size="50.0" fill="#F9F9F4" transform="matrix(1.00, 0.00, -0.00, -1.00, 480.1, 504.7)">f</text><text xml:space="preserve" font-family="Monaco,Monaco" font-size="50.0" fill="#F9F9F4" transform="matrix(1.00, 0.00, -0.00, -1.00, 510.1, 504.7)">T</text><text xml:space="preserve" font-family="Monaco,Monaco" font-size="50.0" fill="#F9F9F4" transform="matrix(1.00, 0.00, -0.00, -1.00, 540.1, 504.7)">w</text><text xml:space="preserve" font-family="Monaco,Monaco" font-size="50.0" fill="#F9F9F4" transform="matrix(1.00, 0.00, -0.00, -1.00, 570.1, 504.7)">o</text><text xml:space="preserve" font-family="Monaco,Monaco" font-size="50.0" fill="#F9F9F4" transform="matrix(1.00, 0.00, -0.00, -1.00, 600.1, 504.7)">)</text><text xml:space="preserve" font-family="Monaco,Monaco" font-size="50.0" fill="#F9F9F4" transform="matrix(1.00, 0.00, -0.00, -1.00, 630.1, 504.7)">,</text><text xml:space="preserve" font-family="Monaco,Monaco" font-size="50.0" fill="#000000" transform="matrix(1.00, 0.00, -0.00, -1.00, 120.0, 437.7)"> </text><text xml:space="preserve" font-family="Monaco,Monaco" font-size="50.0" fill="#000000" transform="matrix(1.00, 0.00, -0.00, -1.00, 150.0, 437.7)"> </text><text xml:space="preserve" font-family="Monaco,Monaco" font-size="50.0" fill="#FC4384" transform="matrix(1.00, 0.00, -0.00, -1.00, 180.0, 437.7)">f</text><text xml:space="preserve" font-family="Monaco,Monaco" font-size="50.0" fill="#FC4384" transform="matrix(1.00, 0.00, -0.00, -1.00, 210.0, 437.7)">u</text><text xml:space="preserve" font-family="Monaco,Monaco" font-size="50.0" fill="#FC4384" transform="matrix(1.00, 0.00, -0.00, -1.00, 240.0, 437.7)">n</text><text xml:space="preserve" font-family="Monaco,Monaco" font-size="50.0" fill="#FC4384" transform="matrix(1.00, 0.00, -0.00, -1.00, 270.0, 437.7)">c</text><text xml:space="preserve" font-family="Monaco,Monaco" font-size="50.0" fill="#FC4384" transform="matrix(1.00, 0.00, -0.00, -1.00, 300.0, 437.7)">t</text><text xml:space="preserve" font-family="Monaco,Monaco" font-size="50.0" fill="#FC4384" transform="matrix(1.00, 0.00, -0.00, -1.00, 330.1, 437.7)">i</text><text xml:space="preserve" font-family="Monaco,Monaco" font-size="50.0" fill="#FC4384" transform="matrix(1.00, 0.00, -0.00, -1.00, 360.1, 437.7)">o</text><text xml:space="preserve" font-family="Monaco,Monaco" font-size="50.0" fill="#FC4384" transform="matrix(1.00, 0.00, -0.00, -1.00, 390.1, 437.7)">n</text><text xml:space="preserve" font-family="Monaco,Monaco" font-size="50.0" fill="#F9F9F4" transform="matrix(1.00, 0.00, -0.00, -1.00, 420.0, 437.7)">(</text><text xml:space="preserve" font-family="Monaco,Monaco" font-size="50.0" fill="#F9F9F4" transform="matrix(1.00, 0.00, -0.00, -1.00, 450.1, 437.7)">a</text><text xml:space="preserve" font-family="Monaco,Monaco" font-size="50.0" fill="#F9F9F4" transform="matrix(1.00, 0.00, -0.00, -1.00, 480.1, 437.7)">c</text><text xml:space="preserve" font-family="Monaco,Monaco" font-size="50.0" fill="#F9F9F4" transform="matrix(1.00, 0.00, -0.00, -1.00, 510.1, 437.7)">c</text><text xml:space="preserve" font-family="Monaco,Monaco" font-size="50.0" fill="#F9F9F4" transform="matrix(1.00, 0.00, -0.00, -1.00, 540.1, 437.7)">,</text><text xml:space="preserve" font-family="Monaco,Monaco" font-size="50.0" fill="#000000" transform="matrix(1.00, 0.00, -0.00, -1.00, 570.1, 437.7)"> </text><text xml:space="preserve" font-family="Monaco,Monaco" font-size="50.0" fill="#F9F9F4" transform="matrix(1.00, 0.00, -0.00, -1.00, 600.1, 437.7)">e</text><text xml:space="preserve" font-family="Monaco,Monaco" font-size="50.0" fill="#F9F9F4" transform="matrix(1.00, 0.00, -0.00, -1.00, 630.1, 437.7)">l</text><text xml:space="preserve" font-family="Monaco,Monaco" font-size="50.0" fill="#F9F9F4" transform="matrix(1.00, 0.00, -0.00, -1.00, 660.1, 437.7)">e</text><text xml:space="preserve" font-family="Monaco,Monaco" font-size="50.0" fill="#F9F9F4" transform="matrix(1.00, 0.00, -0.00, -1.00, 690.1, 437.7)">m</text><text xml:space="preserve" font-family="Monaco,Monaco" font-size="50.0" fill="#F9F9F4" transform="matrix(1.00, 0.00, -0.00, -1.00, 720.1, 437.7)">e</text><text xml:space="preserve" font-family="Monaco,Monaco" font-size="50.0" fill="#F9F9F4" transform="matrix(1.00, 0.00, -0.00, -1.00, 750.1, 437.7)">n</text><text xml:space="preserve" font-family="Monaco,Monaco" font-size="50.0" fill="#F9F9F4" transform="matrix(1.00, 0.00, -0.00, -1.00, 780.1, 437.7)">t</text><text xml:space="preserve" font-family="Monaco,Monaco" font-size="50.0" fill="#F9F9F4" transform="matrix(1.00, 0.00, -0.00, -1.00, 810.1, 437.7)">)</text><text xml:space="preserve" font-family="Monaco,Monaco" font-size="50.0" fill="#F9F9F4" transform="matrix(1.00, 0.00, -0.00, -1.00, 840.2, 437.7)"> </text><text xml:space="preserve" font-family="Monaco,Monaco" font-size="50.0" fill="#F9F9F4" transform="matrix(1.00, 0.00, -0.00, -1.00, 870.2, 437.7)">{</text><text xml:space="preserve" font-family="Monaco,Monaco" font-size="50.0" fill="#000000" transform="matrix(1.00, 0.00, -0.00, -1.00, 900.1, 437.7)"> </text><text xml:space="preserve" font-family="Monaco,Monaco" font-size="50.0" fill="#FC4384" transform="matrix(1.00, 0.00, -0.00, -1.00, 930.1, 437.7)">r</text><text xml:space="preserve" font-family="Monaco,Monaco" font-size="50.0" fill="#FC4384" transform="matrix(1.00, 0.00, -0.00, -1.00, 960.1, 437.7)">e</text><text xml:space="preserve" font-family="Monaco,Monaco" font-size="50.0" fill="#FC4384" transform="matrix(1.00, 0.00, -0.00, -1.00, 990.2, 437.7)">t</text><text xml:space="preserve" font-family="Monaco,Monaco" font-size="50.0" fill="#FC4384" transform="matrix(1.00, 0.00, -0.00, -1.00, 1020.2, 437.7)">u</text><text xml:space="preserve" font-family="Monaco,Monaco" font-size="50.0" fill="#FC4384" transform="matrix(1.00, 0.00, -0.00, -1.00, 1050.2, 437.7)">r</text><text xml:space="preserve" font-family="Monaco,Monaco" font-size="50.0" fill="#FC4384" transform="matrix(1.00, 0.00, -0.00, -1.00, 1080.2, 437.7)">n</text><text xml:space="preserve" font-family="Monaco,Monaco" font-size="50.0" fill="#000000" transform="matrix(1.00, 0.00, -0.00, -1.00, 1110.2, 437.7)"> </text><text xml:space="preserve" font-family="Monaco,Monaco" font-size="50.0" fill="#F9F9F4" transform="matrix(1.00, 0.00, -0.00, -1.00, 1140.2, 437.7)">a</text><text xml:space="preserve" font-family="Monaco,Monaco" font-size="50.0" fill="#F9F9F4" transform="matrix(1.00, 0.00, -0.00, -1.00, 1170.2, 437.7)">c</text><text xml:space="preserve" font-family="Monaco,Monaco" font-size="50.0" fill="#F9F9F4" transform="matrix(1.00, 0.00, -0.00, -1.00, 1200.2, 437.7)">c</text><text xml:space="preserve" font-family="Monaco,Monaco" font-size="50.0" fill="#000000" transform="matrix(1.00, 0.00, -0.00, -1.00, 1230.2, 437.7)"> </text><text xml:space="preserve" font-family="Monaco,Monaco" font-size="50.0" fill="#F9F9F4" transform="matrix(1.00, 0.00, -0.00, -1.00, 1260.2, 437.7)">+</text><text xml:space="preserve" font-family="Monaco,Monaco" font-size="50.0" fill="#000000" transform="matrix(1.00, 0.00, -0.00, -1.00, 1290.2, 437.7)"> </text><text xml:space="preserve" font-family="Monaco,Monaco" font-size="50.0" fill="#F9F9F4" transform="matrix(1.00, 0.00, -0.00, -1.00, 1320.2, 437.7)">e</text><text xml:space="preserve" font-family="Monaco,Monaco" font-size="50.0" fill="#F9F9F4" transform="matrix(1.00, 0.00, -0.00, -1.00, 1350.2, 437.7)">l</text><text xml:space="preserve" font-family="Monaco,Monaco" font-size="50.0" fill="#F9F9F4" transform="matrix(1.00, 0.00, -0.00, -1.00, 1380.2, 437.7)">e</text><text xml:space="preserve" font-family="Monaco,Monaco" font-size="50.0" fill="#F9F9F4" transform="matrix(1.00, 0.00, -0.00, -1.00, 1410.2, 437.7)">m</text><text xml:space="preserve" font-family="Monaco,Monaco" font-size="50.0" fill="#F9F9F4" transform="matrix(1.00, 0.00, -0.00, -1.00, 1440.2, 437.7)">e</text><text xml:space="preserve" font-family="Monaco,Monaco" font-size="50.0" fill="#F9F9F4" transform="matrix(1.00, 0.00, -0.00, -1.00, 1470.2, 437.7)">n</text><text xml:space="preserve" font-family="Monaco,Monaco" font-size="50.0" fill="#F9F9F4" transform="matrix(1.00, 0.00, -0.00, -1.00, 1500.3, 437.7)">t</text><text xml:space="preserve" font-family="Monaco,Monaco" font-size="50.0" fill="#F9F9F4" transform="matrix(1.00, 0.00, -0.00, -1.00, 1530.3, 437.7)">;</text><text xml:space="preserve" font-family="Monaco,Monaco" font-size="50.0" fill="#F9F9F4" transform="matrix(1.00, 0.00, -0.00, -1.00, 1560.3, 437.7)"> </text><text xml:space="preserve" font-family="Monaco,Monaco" font-size="50.0" fill="#F9F9F4" transform="matrix(1.00, 0.00, -0.00, -1.00, 1590.3, 437.7)">}</text><text xml:space="preserve" font-family="Monaco,Monaco" font-size="50.0" fill="#F9F9F4" transform="matrix(1.00, 0.00, -0.00, -1.00, 1620.3, 437.7)">,</text><text xml:space="preserve" font-family="Monaco,Monaco" font-size="50.0" fill="#000000" transform="matrix(1.00, 0.00, -0.00, -1.00, 120.0, 370.7)"> </text><text xml:space="preserve" font-family="Monaco,Monaco" font-size="50.0" fill="#000000" transform="matrix(1.00, 0.00, -0.00, -1.00, 150.0, 370.7)"> </text><text xml:space="preserve" font-family="Monaco,Monaco" font-size="50.0" fill="#BC99FF" transform="matrix(1.00, 0.00, -0.00, -1.00, 180.0, 370.7)">0</text><text xml:space="preserve" font-family="Monaco,Monaco" font-size="50.0" fill="#F9F9F4" transform="matrix(1.00, 0.00, -0.00, -1.00, 210.0, 370.7)">,</text><text xml:space="preserve" font-family="Monaco,Monaco" font-size="50.0" fill="#000000" transform="matrix(1.00, 0.00, -0.00, -1.00, 120.0, 303.7)"> </text><text xml:space="preserve" font-family="Monaco,Monaco" font-size="50.0" fill="#000000" transform="matrix(1.00, 0.00, -0.00, -1.00, 150.0, 303.7)"> </text><text xml:space="preserve" font-family="Monaco,Monaco" font-size="50.0" fill="#F9F9F4" transform="matrix(1.00, 0.00, -0.00, -1.00, 180.0, 303.7)">[</text><text xml:space="preserve" font-family="Monaco,Monaco" font-size="50.0" fill="#BC99FF" transform="matrix(1.00, 0.00, -0.00, -1.00, 210.0, 303.7)">0</text><text xml:space="preserve" font-family="Monaco,Monaco" font-size="50.0" fill="#F9F9F4" transform="matrix(1.00, 0.00, -0.00, -1.00, 240.0, 303.7)">,</text><text xml:space="preserve" font-family="Monaco,Monaco" font-size="50.0" fill="#000000" transform="matrix(1.00, 0.00, -0.00, -1.00, 270.0, 303.7)"> </text><text xml:space="preserve" font-family="Monaco,Monaco" font-size="50.0" fill="#BC99FF" transform="matrix(1.00, 0.00, -0.00, -1.00, 300.0, 303.7)">1</text><text xml:space="preserve" font-family="Monaco,Monaco" font-size="50.0" fill="#F9F9F4" transform="matrix(1.00, 0.00, -0.00, -1.00, 330.0, 303.7)">,</text><text xml:space="preserve" font-family="Monaco,Monaco" font-size="50.0" fill="#000000" transform="matrix(1.00, 0.00, -0.00, -1.00, 360.0, 303.7)"> </text><text xml:space="preserve" font-family="Monaco,Monaco" font-size="50.0" fill="#BC99FF" transform="matrix(1.00, 0.00, -0.00, -1.00, 390.0, 303.7)">2</text><text xml:space="preserve" font-family="Monaco,Monaco" font-size="50.0" fill="#F9F9F4" transform="matrix(1.00, 0.00, -0.00, -1.00, 420.0, 303.7)">,</text><text xml:space="preserve" font-family="Monaco,Monaco" font-size="50.0" fill="#000000" transform="matrix(1.00, 0.00, -0.00, -1.00, 450.1, 303.7)"> </text><text xml:space="preserve" font-family="Monaco,Monaco" font-size="50.0" fill="#BC99FF" transform="matrix(1.00, 0.00, -0.00, -1.00, 480.1, 303.7)">3</text><text xml:space="preserve" font-family="Monaco,Monaco" font-size="50.0" fill="#F9F9F4" transform="matrix(1.00, 0.00, -0.00, -1.00, 510.1, 303.7)">,</text><text xml:space="preserve" font-family="Monaco,Monaco" font-size="50.0" fill="#000000" transform="matrix(1.00, 0.00, -0.00, -1.00, 540.1, 303.7)"> </text><text xml:space="preserve" font-family="Monaco,Monaco" font-size="50.0" fill="#BC99FF" transform="matrix(1.00, 0.00, -0.00, -1.00, 570.1, 303.7)">4</text><text xml:space="preserve" font-family="Monaco,Monaco" font-size="50.0" fill="#F9F9F4" transform="matrix(1.00, 0.00, -0.00, -1.00, 600.1, 303.7)">,</text><text xml:space="preserve" font-family="Monaco,Monaco" font-size="50.0" fill="#000000" transform="matrix(1.00, 0.00, -0.00, -1.00, 630.1, 303.7)"> </text><text xml:space="preserve" font-family="Monaco,Monaco" font-size="50.0" fill="#BC99FF" transform="matrix(1.00, 0.00, -0.00, -1.00, 660.1, 303.7)">5</text><text xml:space="preserve" font-family="Monaco,Monaco" font-size="50.0" fill="#F9F9F4" transform="matrix(1.00, 0.00, -0.00, -1.00, 690.1, 303.7)">,</text><text xml:space="preserve" font-family="Monaco,Monaco" font-size="50.0" fill="#000000" transform="matrix(1.00, 0.00, -0.00, -1.00, 720.1, 303.7)"> </text><text xml:space="preserve" font-family="Monaco,Monaco" font-size="50.0" fill="#BC99FF" transform="matrix(1.00, 0.00, -0.00, -1.00, 750.1, 303.7)">6</text><text xml:space="preserve" font-family="Monaco,Monaco" font-size="50.0" fill="#F9F9F4" transform="matrix(1.00, 0.00, -0.00, -1.00, 780.1, 303.7)">,</text><text xml:space="preserve" font-family="Monaco,Monaco" font-size="50.0" fill="#000000" transform="matrix(1.00, 0.00, -0.00, -1.00, 810.1, 303.7)"> </text><text xml:space="preserve" font-family="Monaco,Monaco" font-size="50.0" fill="#BC99FF" transform="matrix(1.00, 0.00, -0.00, -1.00, 840.1, 303.7)">7</text><text xml:space="preserve" font-family="Monaco,Monaco" font-size="50.0" fill="#F9F9F4" transform="matrix(1.00, 0.00, -0.00, -1.00, 870.1, 303.7)">]</text><text xml:space="preserve" font-family="Monaco,Monaco" font-size="50.0" fill="#F9F9F4" transform="matrix(1.00, 0.00, -0.00, -1.00, 900.1, 303.7)">)</text><text xml:space="preserve" font-family="Monaco,Monaco" font-size="50.0" fill="#F9F9F4" transform="matrix(1.00, 0.00, -0.00, -1.00, 930.1, 303.7)">;</text><image xlink:href="../../5032E01D-A112-4CB0-B4F8-53AF61F5F4BC/assets/28ECEB2A2D70C6E619FFA9018FB840EC.png" width="1216.00" height="63.00" transform="matrix(1.00, 0.00, -0.00, -1.00, 353.0, 115.0)"></image><text xml:space="preserve" font-family="HelveticaNeue-Light,Helvetica Neue" font-size="58.0" fill="#FEFFFE" transform="matrix(1.00, 0.00, -0.00, -1.00, 353.7, 71.0)">h</text><text xml:space="preserve" font-family="HelveticaNeue-Light,Helvetica Neue" font-size="58.0" fill="#FEFFFE" transform="matrix(1.00, 0.00, -0.00, -1.00, 384.9, 71.0)">t</text><text xml:space="preserve" font-family="HelveticaNeue-Light,Helvetica Neue" font-size="58.0" fill="#FEFFFE" transform="matrix(1.00, 0.00, -0.00, -1.00, 402.0, 71.0)">t</text><text xml:space="preserve" font-family="HelveticaNeue-Light,Helvetica Neue" font-size="58.0" fill="#FEFFFE" transform="matrix(1.00, 0.00, -0.00, -1.00, 419.2, 71.0)">p</text><text xml:space="preserve" font-family="HelveticaNeue-Light,Helvetica Neue" font-size="58.0" fill="#FEFFFE" transform="matrix(1.00, 0.00, -0.00, -1.00, 452.5, 71.0)">s</text><text xml:space="preserve" font-family="HelveticaNeue-Light,Helvetica Neue" font-size="58.0" fill="#FEFFFE" transform="matrix(1.00, 0.00, -0.00, -1.00, 480.4, 71.0)">:</text><text xml:space="preserve" font-family="HelveticaNeue-Light,Helvetica Neue" font-size="58.0" fill="#FEFFFE" transform="matrix(1.00, 0.00, -0.00, -1.00, 496.5, 71.0)">/</text><text xml:space="preserve" font-family="HelveticaNeue-Light,Helvetica Neue" font-size="58.0" fill="#FEFFFE" transform="matrix(1.00, 0.00, -0.00, -1.00, 515.8, 71.0)">/</text><text xml:space="preserve" font-family="HelveticaNeue-Light,Helvetica Neue" font-size="58.0" fill="#FEFFFE" transform="matrix(1.00, 0.00, -0.00, -1.00, 535.1, 71.0)">g</text><text xml:space="preserve" font-family="HelveticaNeue-Light,Helvetica Neue" font-size="58.0" fill="#FEFFFE" transform="matrix(1.00, 0.00, -0.00, -1.00, 567.4, 71.0)">i</text><text xml:space="preserve" font-family="HelveticaNeue-Light,Helvetica Neue" font-size="58.0" fill="#FEFFFE" transform="matrix(1.00, 0.00, -0.00, -1.00, 578.1, 71.0)">t</text><text xml:space="preserve" font-family="HelveticaNeue-Light,Helvetica Neue" font-size="58.0" fill="#FEFFFE" transform="matrix(1.00, 0.00, -0.00, -1.00, 595.3, 71.0)">h</text><text xml:space="preserve" font-family="HelveticaNeue-Light,Helvetica Neue" font-size="58.0" fill="#FEFFFE" transform="matrix(1.00, 0.00, -0.00, -1.00, 626.4, 71.0)">u</text><text xml:space="preserve" font-family="HelveticaNeue-Light,Helvetica Neue" font-size="58.0" fill="#FEFFFE" transform="matrix(1.00, 0.00, -0.00, -1.00, 657.6, 71.0)">b</text><text xml:space="preserve" font-family="HelveticaNeue-Light,Helvetica Neue" font-size="58.0" fill="#FEFFFE" transform="matrix(1.00, 0.00, -0.00, -1.00, 690.9, 71.0)">.</text><text xml:space="preserve" font-family="HelveticaNeue-Light,Helvetica Neue" font-size="58.0" fill="#FEFFFE" transform="matrix(1.00, 0.00, -0.00, -1.00, 707.0, 71.0)">c</text><text xml:space="preserve" font-family="HelveticaNeue-Light,Helvetica Neue" font-size="58.0" fill="#FEFFFE" transform="matrix(1.00, 0.00, -0.00, -1.00, 737.1, 71.0)">o</text><text xml:space="preserve" font-family="HelveticaNeue-Light,Helvetica Neue" font-size="58.0" fill="#FEFFFE" transform="matrix(1.00, 0.00, -0.00, -1.00, 769.4, 71.0)">m</text><text xml:space="preserve" font-family="HelveticaNeue-Light,Helvetica Neue" font-size="58.0" fill="#FEFFFE" transform="matrix(1.00, 0.00, -0.00, -1.00, 817.7, 71.0)">/</text><text xml:space="preserve" font-family="HelveticaNeue-Light,Helvetica Neue" font-size="58.0" fill="#FEFFFE" transform="matrix(1.00, 0.00, -0.00, -1.00, 837.0, 71.0)">c</text><text xml:space="preserve" font-family="HelveticaNeue-Light,Helvetica Neue" font-size="58.0" fill="#FEFFFE" transform="matrix(1.00, 0.00, -0.00, -1.00, 867.1, 71.0)">o</text><text xml:space="preserve" font-family="HelveticaNeue-Light,Helvetica Neue" font-size="58.0" fill="#FEFFFE" transform="matrix(1.00, 0.00, -0.00, -1.00, 899.3, 71.0)">g</text><text xml:space="preserve" font-family="HelveticaNeue-Light,Helvetica Neue" font-size="58.0" fill="#FEFFFE" transform="matrix(1.00, 0.00, -0.00, -1.00, 931.6, 71.0)">n</text><text xml:space="preserve" font-family="HelveticaNeue-Light,Helvetica Neue" font-size="58.0" fill="#FEFFFE" transform="matrix(1.00, 0.00, -0.00, -1.00, 962.7, 71.0)">i</text><text xml:space="preserve" font-family="HelveticaNeue-Light,Helvetica Neue" font-size="58.0" fill="#FEFFFE" transform="matrix(1.00, 0.00, -0.00, -1.00, 973.5, 71.0)">t</text><text xml:space="preserve" font-family="HelveticaNeue-Light,Helvetica Neue" font-size="58.0" fill="#FEFFFE" transform="matrix(1.00, 0.00, -0.00, -1.00, 990.6, 71.0)">e</text><text xml:space="preserve" font-family="HelveticaNeue-Light,Helvetica Neue" font-size="58.0" fill="#FEFFFE" transform="matrix(1.00, 0.00, -0.00, -1.00, 1020.7, 71.0)">c</text><text xml:space="preserve" font-family="HelveticaNeue-Light,Helvetica Neue" font-size="58.0" fill="#FEFFFE" transform="matrix(1.00, 0.00, -0.00, -1.00, 1050.8, 71.0)">t</text><text xml:space="preserve" font-family="HelveticaNeue-Light,Helvetica Neue" font-size="58.0" fill="#FEFFFE" transform="matrix(1.00, 0.00, -0.00, -1.00, 1068.0, 71.0)">-</text><text xml:space="preserve" font-family="HelveticaNeue-Light,Helvetica Neue" font-size="58.0" fill="#FEFFFE" transform="matrix(1.00, 0.00, -0.00, -1.00, 1089.5, 71.0)">l</text><text xml:space="preserve" font-family="HelveticaNeue-Light,Helvetica Neue" font-size="58.0" fill="#FEFFFE" transform="matrix(1.00, 0.00, -0.00, -1.00, 1100.2, 71.0)">a</text><text xml:space="preserve" font-family="HelveticaNeue-Light,Helvetica Neue" font-size="58.0" fill="#FEFFFE" transform="matrix(1.00, 0.00, -0.00, -1.00, 1130.3, 71.0)">b</text><text xml:space="preserve" font-family="HelveticaNeue-Light,Helvetica Neue" font-size="58.0" fill="#FEFFFE" transform="matrix(1.00, 0.00, -0.00, -1.00, 1163.6, 71.0)">s</text><text xml:space="preserve" font-family="HelveticaNeue-Light,Helvetica Neue" font-size="58.0" fill="#FEFFFE" transform="matrix(1.00, 0.00, -0.00, -1.00, 1191.5, 71.0)">/</text><text xml:space="preserve" font-family="HelveticaNeue-Light,Helvetica Neue" font-size="58.0" fill="#FEFFFE" transform="matrix(1.00, 0.00, -0.00, -1.00, 1210.8, 71.0)">t</text><text xml:space="preserve" font-family="HelveticaNeue-Light,Helvetica Neue" font-size="58.0" fill="#FEFFFE" transform="matrix(1.00, 0.00, -0.00, -1.00, 1228.0, 71.0)">r</text><text xml:space="preserve" font-family="HelveticaNeue-Light,Helvetica Neue" font-size="58.0" fill="#FEFFFE" transform="matrix(1.00, 0.00, -0.00, -1.00, 1246.2, 71.0)">a</text><text xml:space="preserve" font-family="HelveticaNeue-Light,Helvetica Neue" font-size="58.0" fill="#FEFFFE" transform="matrix(1.00, 0.00, -0.00, -1.00, 1276.3, 71.0)">n</text><text xml:space="preserve" font-family="HelveticaNeue-Light,Helvetica Neue" font-size="58.0" fill="#FEFFFE" transform="matrix(1.00, 0.00, -0.00, -1.00, 1307.5, 71.0)">s</text><text xml:space="preserve" font-family="HelveticaNeue-Light,Helvetica Neue" font-size="58.0" fill="#FEFFFE" transform="matrix(1.00, 0.00, -0.00, -1.00, 1335.4, 71.0)">d</text><text xml:space="preserve" font-family="HelveticaNeue-Light,Helvetica Neue" font-size="58.0" fill="#FEFFFE" transform="matrix(1.00, 0.00, -0.00, -1.00, 1368.7, 71.0)">u</text><text xml:space="preserve" font-family="HelveticaNeue-Light,Helvetica Neue" font-size="58.0" fill="#FEFFFE" transform="matrix(1.00, 0.00, -0.00, -1.00, 1399.8, 71.0)">c</text><text xml:space="preserve" font-family="HelveticaNeue-Light,Helvetica Neue" font-size="58.0" fill="#FEFFFE" transform="matrix(1.00, 0.00, -0.00, -1.00, 1429.9, 71.0)">e</text><text xml:space="preserve" font-family="HelveticaNeue-Light,Helvetica Neue" font-size="58.0" fill="#FEFFFE" transform="matrix(1.00, 0.00, -0.00, -1.00, 1460.0, 71.0)">r</text><text xml:space="preserve" font-family="HelveticaNeue-Light,Helvetica Neue" font-size="58.0" fill="#FEFFFE" transform="matrix(1.00, 0.00, -0.00, -1.00, 1478.3, 71.0)">s</text><text xml:space="preserve" font-family="HelveticaNeue-Light,Helvetica Neue" font-size="58.0" fill="#FEFFFE" transform="matrix(1.00, 0.00, -0.00, -1.00, 1506.2, 71.0)">-</text><text xml:space="preserve" font-family="HelveticaNeue-Light,Helvetica Neue" font-size="58.0" fill="#FEFFFE" transform="matrix(1.00, 0.00, -0.00, -1.00, 1527.6, 71.0)">j</text><text xml:space="preserve" font-family="HelveticaNeue-Light,Helvetica Neue" font-size="58.0" fill="#FEFFFE" transform="matrix(1.00, 0.00, -0.00, -1.00, 1538.4, 71.0)">s</text></g></svg>