<?xml version="1.0" encoding="UTF-8" standalone="no"?><svg xmlns="http://www.w3.org/2000/svg" xmlns:xlink="http://www.w3.org/1999/xlink" clip-rule="evenodd" stroke-miterlimit="10" viewBox="0 0 1920 1080"><desc>SVG generated by Keynote</desc><defs></defs><g transform="matrix(1.00, 0.00, -0.00, -1.00, 0.0, 1080.0)"><g><clipPath id="clip0x7fe42b8e2100"><path d="M 0.0 1080.0 L 1920.0 1080.0 L 1920.0 0.0 L 0.0 0.0 Z M 0.0 1080.0 "></path></clipPath><g clip-path="url(#clip0x7fe42b8e2100)"><image xlink:href="../../EAAA0B26-26D2-4E6F-B71B-738E9DFC302E/assets/0F43D2572F34A9AFB59E4515ED9A1249.jpeg" width="3840.00" height="2160.00" transform="matrix(0.50, 0.00, -0.00, -0.50, 0.0, 1080.0)"></image></g></g><image xlink:href="../../2E8046A9-91DA-4897-A864-C2CCE9F7217C/assets/B9F18F53643BED193E9DC7ADCFAE1525.png" width="1213.00" height="82.00" transform="matrix(1.00, 0.00, -0.00, -1.00, 123.0, 952.0)"></image><text xml:space="preserve" font-family="HelveticaNeue-Light,Helvetica Neue" font-size="100.0" fill="#FEFFFE" transform="matrix(1.00, 0.00, -0.00, -1.00, 120.0, 879.2)">R</text><text xml:space="preserve" font-family="HelveticaNeue-Light,Helvetica Neue" font-size="100.0" fill="#FEFFFE" transform="matrix(1.00, 0.00, -0.00, -1.00, 186.7, 879.2)">e</text><text xml:space="preserve" font-family="HelveticaNeue-Light,Helvetica Neue" font-size="100.0" fill="#FEFFFE" transform="matrix(1.00, 0.00, -0.00, -1.00, 238.6, 879.2)">d</text><text xml:space="preserve" font-family="HelveticaNeue-Light,Helvetica Neue" font-size="100.0" fill="#FEFFFE" transform="matrix(1.00, 0.00, -0.00, -1.00, 296.0, 879.2)">u</text><text xml:space="preserve" font-family="HelveticaNeue-Light,Helvetica Neue" font-size="100.0" fill="#FEFFFE" transform="matrix(1.00, 0.00, -0.00, -1.00, 349.7, 879.2)">c</text><text xml:space="preserve" font-family="HelveticaNeue-Light,Helvetica Neue" font-size="100.0" fill="#FEFFFE" transform="matrix(1.00, 0.00, -0.00, -1.00, 401.6, 879.2)">e</text><text xml:space="preserve" font-family="HelveticaNeue-Light,Helvetica Neue" font-size="100.0" fill="#FEFFFE" transform="matrix(1.00, 0.00, -0.00, -1.00, 453.5, 879.2)"> </text><text xml:space="preserve" font-family="HelveticaNeue-Light,Helvetica Neue" font-size="100.0" fill="#FEFFFE" transform="matrix(1.00, 0.00, -0.00, -1.00, 481.3, 879.2)">a</text><text xml:space="preserve" font-family="HelveticaNeue-Light,Helvetica Neue" font-size="100.0" fill="#FEFFFE" transform="matrix(1.00, 0.00, -0.00, -1.00, 533.2, 879.2)">s</text><text xml:space="preserve" font-family="HelveticaNeue-Light,Helvetica Neue" font-size="100.0" fill="#FEFFFE" transform="matrix(1.00, 0.00, -0.00, -1.00, 581.3, 879.2)"> </text><text xml:space="preserve" font-family="HelveticaNeue-Light,Helvetica Neue" font-size="100.0" fill="#FEFFFE" transform="matrix(1.00, 0.00, -0.00, -1.00, 609.1, 879.2)">c</text><text xml:space="preserve" font-family="HelveticaNeue-Light,Helvetica Neue" font-size="100.0" fill="#FEFFFE" transform="matrix(1.00, 0.00, -0.00, -1.00, 661.0, 879.2)">o</text><text xml:space="preserve" font-family="HelveticaNeue-Light,Helvetica Neue" font-size="100.0" fill="#FEFFFE" transform="matrix(1.00, 0.00, -0.00, -1.00, 716.6, 879.2)">l</text><text xml:space="preserve" font-family="HelveticaNeue-Light,Helvetica Neue" font-size="100.0" fill="#FEFFFE" transform="matrix(1.00, 0.00, -0.00, -1.00, 735.1, 879.2)">l</text><text xml:space="preserve" font-family="HelveticaNeue-Light,Helvetica Neue" font-size="100.0" fill="#FEFFFE" transform="matrix(1.00, 0.00, -0.00, -1.00, 753.6, 879.2)">e</text><text xml:space="preserve" font-family="HelveticaNeue-Light,Helvetica Neue" font-size="100.0" fill="#FEFFFE" transform="matrix(1.00, 0.00, -0.00, -1.00, 805.5, 879.2)">c</text><text xml:space="preserve" font-family="HelveticaNeue-Light,Helvetica Neue" font-size="100.0" fill="#FEFFFE" transform="matrix(1.00, 0.00, -0.00, -1.00, 857.4, 879.2)">t</text><text xml:space="preserve" font-family="HelveticaNeue-Light,Helvetica Neue" font-size="100.0" fill="#FEFFFE" transform="matrix(1.00, 0.00, -0.00, -1.00, 887.0, 879.2)">i</text><text xml:space="preserve" font-family="HelveticaNeue-Light,Helvetica Neue" font-size="100.0" fill="#FEFFFE" transform="matrix(1.00, 0.00, -0.00, -1.00, 905.5, 879.2)">o</text><text xml:space="preserve" font-family="HelveticaNeue-Light,Helvetica Neue" font-size="100.0" fill="#FEFFFE" transform="matrix(1.00, 0.00, -0.00, -1.00, 961.1, 879.2)">n</text><text xml:space="preserve" font-family="HelveticaNeue-Light,Helvetica Neue" font-size="100.0" fill="#FEFFFE" transform="matrix(1.00, 0.00, -0.00, -1.00, 1014.8, 879.2)"> </text><text xml:space="preserve" font-family="HelveticaNeue-Light,Helvetica Neue" font-size="100.0" fill="#FEFFFE" transform="matrix(1.00, 0.00, -0.00, -1.00, 1042.6, 879.2)">b</text><text xml:space="preserve" font-family="HelveticaNeue-Light,Helvetica Neue" font-size="100.0" fill="#FEFFFE" transform="matrix(1.00, 0.00, -0.00, -1.00, 1100.0, 879.2)">u</text><text xml:space="preserve" font-family="HelveticaNeue-Light,Helvetica Neue" font-size="100.0" fill="#FEFFFE" transform="matrix(1.00, 0.00, -0.00, -1.00, 1153.7, 879.2)">i</text><text xml:space="preserve" font-family="HelveticaNeue-Light,Helvetica Neue" font-size="100.0" fill="#FEFFFE" transform="matrix(1.00, 0.00, -0.00, -1.00, 1172.2, 879.2)">l</text><text xml:space="preserve" font-family="HelveticaNeue-Light,Helvetica Neue" font-size="100.0" fill="#FEFFFE" transform="matrix(1.00, 0.00, -0.00, -1.00, 1190.7, 879.2)">d</text><text xml:space="preserve" font-family="HelveticaNeue-Light,Helvetica Neue" font-size="100.0" fill="#FEFFFE" transform="matrix(1.00, 0.00, -0.00, -1.00, 1248.1, 879.2)">e</text><text xml:space="preserve" font-family="HelveticaNeue-Light,Helvetica Neue" font-size="100.0" fill="#FEFFFE" transform="matrix(1.00, 0.00, -0.00, -1.00, 1300.0, 879.2)">r</text><text xml:space="preserve" font-family="Monaco,Monaco" font-size="46.0" fill="#FC4384" transform="matrix(1.00, 0.00, -0.00, -1.00, 120.0, 718.3)">v</text><text xml:space="preserve" font-family="Monaco,Monaco" font-size="46.0" fill="#FC4384" transform="matrix(1.00, 0.00, -0.00, -1.00, 147.6, 718.3)">a</text><text xml:space="preserve" font-family="Monaco,Monaco" font-size="46.0" fill="#FC4384" transform="matrix(1.00, 0.00, -0.00, -1.00, 175.2, 718.3)">r</text><text xml:space="preserve" font-family="Monaco,Monaco" font-size="46.0" fill="#000000" transform="matrix(1.00, 0.00, -0.00, -1.00, 202.8, 718.3)"> </text><text xml:space="preserve" font-family="Monaco,Monaco" font-size="46.0" fill="#F9F9F4" transform="matrix(1.00, 0.00, -0.00, -1.00, 230.4, 718.3)">a</text><text xml:space="preserve" font-family="Monaco,Monaco" font-size="46.0" fill="#F9F9F4" transform="matrix(1.00, 0.00, -0.00, -1.00, 258.0, 718.3)">p</text><text xml:space="preserve" font-family="Monaco,Monaco" font-size="46.0" fill="#F9F9F4" transform="matrix(1.00, 0.00, -0.00, -1.00, 285.6, 718.3)">p</text><text xml:space="preserve" font-family="Monaco,Monaco" font-size="46.0" fill="#F9F9F4" transform="matrix(1.00, 0.00, -0.00, -1.00, 313.2, 718.3)">e</text><text xml:space="preserve" font-family="Monaco,Monaco" font-size="46.0" fill="#F9F9F4" transform="matrix(1.00, 0.00, -0.00, -1.00, 340.9, 718.3)">n</text><text xml:space="preserve" font-family="Monaco,Monaco" font-size="46.0" fill="#F9F9F4" transform="matrix(1.00, 0.00, -0.00, -1.00, 368.5, 718.3)">d</text><text xml:space="preserve" font-family="Monaco,Monaco" font-size="46.0" fill="#000000" transform="matrix(1.00, 0.00, -0.00, -1.00, 396.0, 718.3)"> </text><text xml:space="preserve" font-family="Monaco,Monaco" font-size="46.0" fill="#F9F9F4" transform="matrix(1.00, 0.00, -0.00, -1.00, 423.6, 718.3)">=</text><text xml:space="preserve" font-family="Monaco,Monaco" font-size="46.0" fill="#000000" transform="matrix(1.00, 0.00, -0.00, -1.00, 451.3, 718.3)"> </text><text xml:space="preserve" font-family="Monaco,Monaco" font-size="46.0" fill="#FC4384" transform="matrix(1.00, 0.00, -0.00, -1.00, 478.9, 718.3)">f</text><text xml:space="preserve" font-family="Monaco,Monaco" font-size="46.0" fill="#FC4384" transform="matrix(1.00, 0.00, -0.00, -1.00, 506.5, 718.3)">u</text><text xml:space="preserve" font-family="Monaco,Monaco" font-size="46.0" fill="#FC4384" transform="matrix(1.00, 0.00, -0.00, -1.00, 534.1, 718.3)">n</text><text xml:space="preserve" font-family="Monaco,Monaco" font-size="46.0" fill="#FC4384" transform="matrix(1.00, 0.00, -0.00, -1.00, 561.7, 718.3)">c</text><text xml:space="preserve" font-family="Monaco,Monaco" font-size="46.0" fill="#FC4384" transform="matrix(1.00, 0.00, -0.00, -1.00, 589.3, 718.3)">t</text><text xml:space="preserve" font-family="Monaco,Monaco" font-size="46.0" fill="#FC4384" transform="matrix(1.00, 0.00, -0.00, -1.00, 616.9, 718.3)">i</text><text xml:space="preserve" font-family="Monaco,Monaco" font-size="46.0" fill="#FC4384" transform="matrix(1.00, 0.00, -0.00, -1.00, 644.5, 718.3)">o</text><text xml:space="preserve" font-family="Monaco,Monaco" font-size="46.0" fill="#FC4384" transform="matrix(1.00, 0.00, -0.00, -1.00, 672.1, 718.3)">n</text><text xml:space="preserve" font-family="Monaco,Monaco" font-size="46.0" fill="#F9F9F4" transform="matrix(1.00, 0.00, -0.00, -1.00, 699.7, 718.3)">(</text><text xml:space="preserve" font-family="Monaco,Monaco" font-size="46.0" fill="#F9F9F4" transform="matrix(1.00, 0.00, -0.00, -1.00, 727.3, 718.3)">a</text><text xml:space="preserve" font-family="Monaco,Monaco" font-size="46.0" fill="#F9F9F4" transform="matrix(1.00, 0.00, -0.00, -1.00, 754.9, 718.3)">c</text><text xml:space="preserve" font-family="Monaco,Monaco" font-size="46.0" fill="#F9F9F4" transform="matrix(1.00, 0.00, -0.00, -1.00, 782.5, 718.3)">c</text><text xml:space="preserve" font-family="Monaco,Monaco" font-size="46.0" fill="#F9F9F4" transform="matrix(1.00, 0.00, -0.00, -1.00, 810.1, 718.3)">,</text><text xml:space="preserve" font-family="Monaco,Monaco" font-size="46.0" fill="#000000" transform="matrix(1.00, 0.00, -0.00, -1.00, 837.7, 718.3)"> </text><text xml:space="preserve" font-family="Monaco,Monaco" font-size="46.0" fill="#F9F9F4" transform="matrix(1.00, 0.00, -0.00, -1.00, 865.3, 718.3)">e</text><text xml:space="preserve" font-family="Monaco,Monaco" font-size="46.0" fill="#F9F9F4" transform="matrix(1.00, 0.00, -0.00, -1.00, 892.9, 718.3)">l</text><text xml:space="preserve" font-family="Monaco,Monaco" font-size="46.0" fill="#F9F9F4" transform="matrix(1.00, 0.00, -0.00, -1.00, 920.5, 718.3)">e</text><text xml:space="preserve" font-family="Monaco,Monaco" font-size="46.0" fill="#F9F9F4" transform="matrix(1.00, 0.00, -0.00, -1.00, 948.1, 718.3)">m</text><text xml:space="preserve" font-family="Monaco,Monaco" font-size="46.0" fill="#F9F9F4" transform="matrix(1.00, 0.00, -0.00, -1.00, 975.8, 718.3)">e</text><text xml:space="preserve" font-family="Monaco,Monaco" font-size="46.0" fill="#F9F9F4" transform="matrix(1.00, 0.00, -0.00, -1.00, 1003.4, 718.3)">n</text><text xml:space="preserve" font-family="Monaco,Monaco" font-size="46.0" fill="#F9F9F4" transform="matrix(1.00, 0.00, -0.00, -1.00, 1031.0, 718.3)">t</text><text xml:space="preserve" font-family="Monaco,Monaco" font-size="46.0" fill="#F9F9F4" transform="matrix(1.00, 0.00, -0.00, -1.00, 1058.6, 718.3)">)</text><text xml:space="preserve" font-family="Monaco,Monaco" font-size="46.0" fill="#F9F9F4" transform="matrix(1.00, 0.00, -0.00, -1.00, 1086.2, 718.3)"> </text><text xml:space="preserve" font-family="Monaco,Monaco" font-size="46.0" fill="#F9F9F4" transform="matrix(1.00, 0.00, -0.00, -1.00, 1113.8, 718.3)">{</text><text xml:space="preserve" font-family="Monaco,Monaco" font-size="46.0" fill="#000000" transform="matrix(1.00, 0.00, -0.00, -1.00, 120.0, 656.3)"> </text><text xml:space="preserve" font-family="Monaco,Monaco" font-size="46.0" fill="#000000" transform="matrix(1.00, 0.00, -0.00, -1.00, 147.6, 656.3)"> </text><text xml:space="preserve" font-family="Monaco,Monaco" font-size="46.0" fill="#F9F9F4" transform="matrix(1.00, 0.00, -0.00, -1.00, 175.2, 656.3)">a</text><text xml:space="preserve" font-family="Monaco,Monaco" font-size="46.0" fill="#F9F9F4" transform="matrix(1.00, 0.00, -0.00, -1.00, 202.8, 656.3)">c</text><text xml:space="preserve" font-family="Monaco,Monaco" font-size="46.0" fill="#F9F9F4" transform="matrix(1.00, 0.00, -0.00, -1.00, 230.4, 656.3)">c</text><text xml:space="preserve" font-family="Monaco,Monaco" font-size="46.0" fill="#F9F9F4" transform="matrix(1.00, 0.00, -0.00, -1.00, 258.0, 656.3)">.</text><text xml:space="preserve" font-family="Monaco,Monaco" font-size="46.0" fill="#13F7BA" transform="matrix(1.00, 0.00, -0.00, -1.00, 285.6, 656.3)">p</text><text xml:space="preserve" font-family="Monaco,Monaco" font-size="46.0" fill="#13F7BA" transform="matrix(1.00, 0.00, -0.00, -1.00, 313.2, 656.3)">u</text><text xml:space="preserve" font-family="Monaco,Monaco" font-size="46.0" fill="#13F7BA" transform="matrix(1.00, 0.00, -0.00, -1.00, 340.8, 656.3)">s</text><text xml:space="preserve" font-family="Monaco,Monaco" font-size="46.0" fill="#13F7BA" transform="matrix(1.00, 0.00, -0.00, -1.00, 368.5, 656.3)">h</text><text xml:space="preserve" font-family="Monaco,Monaco" font-size="46.0" fill="#F9F9F4" transform="matrix(1.00, 0.00, -0.00, -1.00, 396.0, 656.3)">(</text><text xml:space="preserve" font-family="Monaco,Monaco" font-size="46.0" fill="#F9F9F4" transform="matrix(1.00, 0.00, -0.00, -1.00, 423.7, 656.3)">e</text><text xml:space="preserve" font-family="Monaco,Monaco" font-size="46.0" fill="#F9F9F4" transform="matrix(1.00, 0.00, -0.00, -1.00, 451.3, 656.3)">l</text><text xml:space="preserve" font-family="Monaco,Monaco" font-size="46.0" fill="#F9F9F4" transform="matrix(1.00, 0.00, -0.00, -1.00, 478.9, 656.3)">e</text><text xml:space="preserve" font-family="Monaco,Monaco" font-size="46.0" fill="#F9F9F4" transform="matrix(1.00, 0.00, -0.00, -1.00, 506.5, 656.3)">m</text><text xml:space="preserve" font-family="Monaco,Monaco" font-size="46.0" fill="#F9F9F4" transform="matrix(1.00, 0.00, -0.00, -1.00, 534.1, 656.3)">e</text><text xml:space="preserve" font-family="Monaco,Monaco" font-size="46.0" fill="#F9F9F4" transform="matrix(1.00, 0.00, -0.00, -1.00, 561.7, 656.3)">n</text><text xml:space="preserve" font-family="Monaco,Monaco" font-size="46.0" fill="#F9F9F4" transform="matrix(1.00, 0.00, -0.00, -1.00, 589.3, 656.3)">t</text><text xml:space="preserve" font-family="Monaco,Monaco" font-size="46.0" fill="#F9F9F4" transform="matrix(1.00, 0.00, -0.00, -1.00, 616.9, 656.3)">)</text><text xml:space="preserve" font-family="Monaco,Monaco" font-size="46.0" fill="#F9F9F4" transform="matrix(1.00, 0.00, -0.00, -1.00, 644.5, 656.3)">;</text><text xml:space="preserve" font-family="Monaco,Monaco" font-size="46.0" fill="#000000" transform="matrix(1.00, 0.00, -0.00, -1.00, 120.0, 594.3)"> </text><text xml:space="preserve" font-family="Monaco,Monaco" font-size="46.0" fill="#000000" transform="matrix(1.00, 0.00, -0.00, -1.00, 147.6, 594.3)"> </text><text xml:space="preserve" font-family="Monaco,Monaco" font-size="46.0" fill="#FC4384" transform="matrix(1.00, 0.00, -0.00, -1.00, 175.2, 594.3)">r</text><text xml:space="preserve" font-family="Monaco,Monaco" font-size="46.0" fill="#FC4384" transform="matrix(1.00, 0.00, -0.00, -1.00, 202.8, 594.3)">e</text><text xml:space="preserve" font-family="Monaco,Monaco" font-size="46.0" fill="#FC4384" transform="matrix(1.00, 0.00, -0.00, -1.00, 230.4, 594.3)">t</text><text xml:space="preserve" font-family="Monaco,Monaco" font-size="46.0" fill="#FC4384" transform="matrix(1.00, 0.00, -0.00, -1.00, 258.0, 594.3)">u</text><text xml:space="preserve" font-family="Monaco,Monaco" font-size="46.0" fill="#FC4384" transform="matrix(1.00, 0.00, -0.00, -1.00, 285.6, 594.3)">r</text><text xml:space="preserve" font-family="Monaco,Monaco" font-size="46.0" fill="#FC4384" transform="matrix(1.00, 0.00, -0.00, -1.00, 313.3, 594.3)">n</text><text xml:space="preserve" font-family="Monaco,Monaco" font-size="46.0" fill="#000000" transform="matrix(1.00, 0.00, -0.00, -1.00, 340.8, 594.3)"> </text><text xml:space="preserve" font-family="Monaco,Monaco" font-size="46.0" fill="#F9F9F4" transform="matrix(1.00, 0.00, -0.00, -1.00, 368.4, 594.3)">a</text><text xml:space="preserve" font-family="Monaco,Monaco" font-size="46.0" fill="#F9F9F4" transform="matrix(1.00, 0.00, -0.00, -1.00, 396.0, 594.3)">c</text><text xml:space="preserve" font-family="Monaco,Monaco" font-size="46.0" fill="#F9F9F4" transform="matrix(1.00, 0.00, -0.00, -1.00, 423.7, 594.3)">c</text><text xml:space="preserve" font-family="Monaco,Monaco" font-size="46.0" fill="#F9F9F4" transform="matrix(1.00, 0.00, -0.00, -1.00, 451.3, 594.3)">;</text><text xml:space="preserve" font-family="Monaco,Monaco" font-size="46.0" fill="#F9F9F4" transform="matrix(1.00, 0.00, -0.00, -1.00, 120.0, 532.3)">}</text><text xml:space="preserve" font-family="Monaco,Monaco" font-size="46.0" fill="#F9F9F4" transform="matrix(1.00, 0.00, -0.00, -1.00, 147.6, 532.3)">;</text><text xml:space="preserve" font-family="Monaco,Monaco" font-size="46.0" fill="#13F7BA" transform="matrix(1.00, 0.00, -0.00, -1.00, 120.0, 408.3)">r</text><text xml:space="preserve" font-family="Monaco,Monaco" font-size="46.0" fill="#13F7BA" transform="matrix(1.00, 0.00, -0.00, -1.00, 147.6, 408.3)">e</text><text xml:space="preserve" font-family="Monaco,Monaco" font-size="46.0" fill="#13F7BA" transform="matrix(1.00, 0.00, -0.00, -1.00, 175.2, 408.3)">d</text><text xml:space="preserve" font-family="Monaco,Monaco" font-size="46.0" fill="#13F7BA" transform="matrix(1.00, 0.00, -0.00, -1.00, 202.8, 408.3)">u</text><text xml:space="preserve" font-family="Monaco,Monaco" font-size="46.0" fill="#13F7BA" transform="matrix(1.00, 0.00, -0.00, -1.00, 230.4, 408.3)">c</text><text xml:space="preserve" font-family="Monaco,Monaco" font-size="46.0" fill="#13F7BA" transform="matrix(1.00, 0.00, -0.00, -1.00, 258.0, 408.3)">e</text><text xml:space="preserve" font-family="Monaco,Monaco" font-size="46.0" fill="#F9F9F4" transform="matrix(1.00, 0.00, -0.00, -1.00, 285.6, 408.3)">(</text><text xml:space="preserve" font-family="Monaco,Monaco" font-size="46.0" fill="#F9F9F4" transform="matrix(1.00, 0.00, -0.00, -1.00, 120.0, 346.3)"> </text><text xml:space="preserve" font-family="Monaco,Monaco" font-size="46.0" fill="#F9F9F4" transform="matrix(1.00, 0.00, -0.00, -1.00, 147.6, 346.3)"> </text><text xml:space="preserve" font-family="Monaco,Monaco" font-size="46.0" fill="#F9F9F4" transform="matrix(1.00, 0.00, -0.00, -1.00, 175.2, 346.3)">a</text><text xml:space="preserve" font-family="Monaco,Monaco" font-size="46.0" fill="#F9F9F4" transform="matrix(1.00, 0.00, -0.00, -1.00, 202.8, 346.3)">p</text><text xml:space="preserve" font-family="Monaco,Monaco" font-size="46.0" fill="#F9F9F4" transform="matrix(1.00, 0.00, -0.00, -1.00, 230.4, 346.3)">p</text><text xml:space="preserve" font-family="Monaco,Monaco" font-size="46.0" fill="#F9F9F4" transform="matrix(1.00, 0.00, -0.00, -1.00, 258.0, 346.3)">e</text><text xml:space="preserve" font-family="Monaco,Monaco" font-size="46.0" fill="#F9F9F4" transform="matrix(1.00, 0.00, -0.00, -1.00, 285.7, 346.3)">n</text><text xml:space="preserve" font-family="Monaco,Monaco" font-size="46.0" fill="#F9F9F4" transform="matrix(1.00, 0.00, -0.00, -1.00, 313.3, 346.3)">d</text><text xml:space="preserve" font-family="Monaco,Monaco" font-size="46.0" fill="#F9F9F4" transform="matrix(1.00, 0.00, -0.00, -1.00, 340.9, 346.3)">,</text><text xml:space="preserve" font-family="Monaco,Monaco" font-size="46.0" fill="#000000" transform="matrix(1.00, 0.00, -0.00, -1.00, 120.0, 284.3)"> </text><text xml:space="preserve" font-family="Monaco,Monaco" font-size="46.0" fill="#000000" transform="matrix(1.00, 0.00, -0.00, -1.00, 147.6, 284.3)"> </text><text xml:space="preserve" font-family="Monaco,Monaco" font-size="46.0" fill="#F9F9F4" transform="matrix(1.00, 0.00, -0.00, -1.00, 175.2, 284.3)">[</text><text xml:space="preserve" font-family="Monaco,Monaco" font-size="46.0" fill="#F9F9F4" transform="matrix(1.00, 0.00, -0.00, -1.00, 202.8, 284.3)">]</text><text xml:space="preserve" font-family="Monaco,Monaco" font-size="46.0" fill="#F9F9F4" transform="matrix(1.00, 0.00, -0.00, -1.00, 230.4, 284.3)">,</text><text xml:space="preserve" font-family="Monaco,Monaco" font-size="46.0" fill="#000000" transform="matrix(1.00, 0.00, -0.00, -1.00, 120.0, 222.3)"> </text><text xml:space="preserve" font-family="Monaco,Monaco" font-size="46.0" fill="#000000" transform="matrix(1.00, 0.00, -0.00, -1.00, 147.6, 222.3)"> </text><text xml:space="preserve" font-family="Monaco,Monaco" font-size="46.0" fill="#F9F9F4" transform="matrix(1.00, 0.00, -0.00, -1.00, 175.2, 222.3)">[</text><text xml:space="preserve" font-family="Monaco,Monaco" font-size="46.0" fill="#BC99FF" transform="matrix(1.00, 0.00, -0.00, -1.00, 202.8, 222.3)">0</text><text xml:space="preserve" font-family="Monaco,Monaco" font-size="46.0" fill="#F9F9F4" transform="matrix(1.00, 0.00, -0.00, -1.00, 230.4, 222.3)">,</text><text xml:space="preserve" font-family="Monaco,Monaco" font-size="46.0" fill="#000000" transform="matrix(1.00, 0.00, -0.00, -1.00, 258.0, 222.3)"> </text><text xml:space="preserve" font-family="Monaco,Monaco" font-size="46.0" fill="#BC99FF" transform="matrix(1.00, 0.00, -0.00, -1.00, 285.6, 222.3)">1</text><text xml:space="preserve" font-family="Monaco,Monaco" font-size="46.0" fill="#F9F9F4" transform="matrix(1.00, 0.00, -0.00, -1.00, 313.2, 222.3)">,</text><text xml:space="preserve" font-family="Monaco,Monaco" font-size="46.0" fill="#000000" transform="matrix(1.00, 0.00, -0.00, -1.00, 340.8, 222.3)"> </text><text xml:space="preserve" font-family="Monaco,Monaco" font-size="46.0" fill="#BC99FF" transform="matrix(1.00, 0.00, -0.00, -1.00, 368.4, 222.3)">2</text><text xml:space="preserve" font-family="Monaco,Monaco" font-size="46.0" fill="#F9F9F4" transform="matrix(1.00, 0.00, -0.00, -1.00, 396.0, 222.3)">,</text><text xml:space="preserve" font-family="Monaco,Monaco" font-size="46.0" fill="#000000" transform="matrix(1.00, 0.00, -0.00, -1.00, 423.6, 222.3)"> </text><text xml:space="preserve" font-family="Monaco,Monaco" font-size="46.0" fill="#BC99FF" transform="matrix(1.00, 0.00, -0.00, -1.00, 451.3, 222.3)">3</text><text xml:space="preserve" font-family="Monaco,Monaco" font-size="46.0" fill="#F9F9F4" transform="matrix(1.00, 0.00, -0.00, -1.00, 478.9, 222.3)">,</text><text xml:space="preserve" font-family="Monaco,Monaco" font-size="46.0" fill="#000000" transform="matrix(1.00, 0.00, -0.00, -1.00, 506.5, 222.3)"> </text><text xml:space="preserve" font-family="Monaco,Monaco" font-size="46.0" fill="#BC99FF" transform="matrix(1.00, 0.00, -0.00, -1.00, 534.1, 222.3)">4</text><text xml:space="preserve" font-family="Monaco,Monaco" font-size="46.0" fill="#F9F9F4" transform="matrix(1.00, 0.00, -0.00, -1.00, 561.7, 222.3)">,</text><text xml:space="preserve" font-family="Monaco,Monaco" font-size="46.0" fill="#000000" transform="matrix(1.00, 0.00, -0.00, -1.00, 589.3, 222.3)"> </text><text xml:space="preserve" font-family="Monaco,Monaco" font-size="46.0" fill="#BC99FF" transform="matrix(1.00, 0.00, -0.00, -1.00, 616.9, 222.3)">5</text><text xml:space="preserve" font-family="Monaco,Monaco" font-size="46.0" fill="#F9F9F4" transform="matrix(1.00, 0.00, -0.00, -1.00, 644.5, 222.3)">,</text><text xml:space="preserve" font-family="Monaco,Monaco" font-size="46.0" fill="#000000" transform="matrix(1.00, 0.00, -0.00, -1.00, 672.1, 222.3)"> </text><text xml:space="preserve" font-family="Monaco,Monaco" font-size="46.0" fill="#BC99FF" transform="matrix(1.00, 0.00, -0.00, -1.00, 699.7, 222.3)">6</text><text xml:space="preserve" font-family="Monaco,Monaco" font-size="46.0" fill="#F9F9F4" transform="matrix(1.00, 0.00, -0.00, -1.00, 727.3, 222.3)">,</text><text xml:space="preserve" font-family="Monaco,Monaco" font-size="46.0" fill="#000000" transform="matrix(1.00, 0.00, -0.00, -1.00, 754.9, 222.3)"> </text><text xml:space="preserve" font-family="Monaco,Monaco" font-size="46.0" fill="#BC99FF" transform="matrix(1.00, 0.00, -0.00, -1.00, 782.5, 222.3)">7</text><text xml:space="preserve" font-family="Monaco,Monaco" font-size="46.0" fill="#F9F9F4" transform="matrix(1.00, 0.00, -0.00, -1.00, 810.1, 222.3)">]</text><text xml:space="preserve" font-family="Monaco,Monaco" font-size="46.0" fill="#F9F9F4" transform="matrix(1.00, 0.00, -0.00, -1.00, 837.7, 222.3)">)</text><text xml:space="preserve" font-family="Monaco,Monaco" font-size="46.0" fill="#F9F9F4" transform="matrix(1.00, 0.00, -0.00, -1.00, 865.3, 222.3)">;</text><text xml:space="preserve" font-family="Monaco,Monaco" font-size="46.0" fill="#F9F9F4" transform="matrix(1.00, 0.00, -0.00, -1.00, 892.9, 222.3)"> </text><text xml:space="preserve" font-family="Monaco,Monaco" font-size="46.0" fill="#F9F9F4" transform="matrix(1.00, 0.00, -0.00, -1.00, 120.0, 160.3)">=</text><text xml:space="preserve" font-family="Monaco,Monaco" font-size="46.0" fill="#F9F9F4" transform="matrix(1.00, 0.00, -0.00, -1.00, 147.6, 160.3)">&gt;</text><text xml:space="preserve" font-family="Monaco,Monaco" font-size="46.0" fill="#F9F9F4" transform="matrix(1.00, 0.00, -0.00, -1.00, 175.2, 160.3)"> </text><text xml:space="preserve" font-family="Monaco,Monaco" font-size="46.0" fill="#F9F9F4" transform="matrix(1.00, 0.00, -0.00, -1.00, 202.8, 160.3)">[</text><text xml:space="preserve" font-family="Monaco,Monaco" font-size="46.0" fill="#BC99FF" transform="matrix(1.00, 0.00, -0.00, -1.00, 230.4, 160.3)">0</text><text xml:space="preserve" font-family="Monaco,Monaco" font-size="46.0" fill="#F9F9F4" transform="matrix(1.00, 0.00, -0.00, -1.00, 258.0, 160.3)">,</text><text xml:space="preserve" font-family="Monaco,Monaco" font-size="46.0" fill="#000000" transform="matrix(1.00, 0.00, -0.00, -1.00, 285.6, 160.3)"> </text><text xml:space="preserve" font-family="Monaco,Monaco" font-size="46.0" fill="#BC99FF" transform="matrix(1.00, 0.00, -0.00, -1.00, 313.2, 160.3)">1</text><text xml:space="preserve" font-family="Monaco,Monaco" font-size="46.0" fill="#F9F9F4" transform="matrix(1.00, 0.00, -0.00, -1.00, 340.8, 160.3)">,</text><text xml:space="preserve" font-family="Monaco,Monaco" font-size="46.0" fill="#000000" transform="matrix(1.00, 0.00, -0.00, -1.00, 368.4, 160.3)"> </text><text xml:space="preserve" font-family="Monaco,Monaco" font-size="46.0" fill="#BC99FF" transform="matrix(1.00, 0.00, -0.00, -1.00, 396.0, 160.3)">2</text><text xml:space="preserve" font-family="Monaco,Monaco" font-size="46.0" fill="#F9F9F4" transform="matrix(1.00, 0.00, -0.00, -1.00, 423.6, 160.3)">,</text><text xml:space="preserve" font-family="Monaco,Monaco" font-size="46.0" fill="#000000" transform="matrix(1.00, 0.00, -0.00, -1.00, 451.3, 160.3)"> </text><text xml:space="preserve" font-family="Monaco,Monaco" font-size="46.0" fill="#BC99FF" transform="matrix(1.00, 0.00, -0.00, -1.00, 478.9, 160.3)">3</text><text xml:space="preserve" font-family="Monaco,Monaco" font-size="46.0" fill="#F9F9F4" transform="matrix(1.00, 0.00, -0.00, -1.00, 506.5, 160.3)">,</text><text xml:space="preserve" font-family="Monaco,Monaco" font-size="46.0" fill="#000000" transform="matrix(1.00, 0.00, -0.00, -1.00, 534.1, 160.3)"> </text><text xml:space="preserve" font-family="Monaco,Monaco" font-size="46.0" fill="#BC99FF" transform="matrix(1.00, 0.00, -0.00, -1.00, 561.7, 160.3)">4</text><text xml:space="preserve" font-family="Monaco,Monaco" font-size="46.0" fill="#F9F9F4" transform="matrix(1.00, 0.00, -0.00, -1.00, 589.3, 160.3)">,</text><text xml:space="preserve" font-family="Monaco,Monaco" font-size="46.0" fill="#000000" transform="matrix(1.00, 0.00, -0.00, -1.00, 616.9, 160.3)"> </text><text xml:space="preserve" font-family="Monaco,Monaco" font-size="46.0" fill="#BC99FF" transform="matrix(1.00, 0.00, -0.00, -1.00, 644.5, 160.3)">5</text><text xml:space="preserve" font-family="Monaco,Monaco" font-size="46.0" fill="#F9F9F4" transform="matrix(1.00, 0.00, -0.00, -1.00, 672.1, 160.3)">,</text><text xml:space="preserve" font-family="Monaco,Monaco" font-size="46.0" fill="#000000" transform="matrix(1.00, 0.00, -0.00, -1.00, 699.7, 160.3)"> </text><text xml:space="preserve" font-family="Monaco,Monaco" font-size="46.0" fill="#BC99FF" transform="matrix(1.00, 0.00, -0.00, -1.00, 727.3, 160.3)">6</text><text xml:space="preserve" font-family="Monaco,Monaco" font-size="46.0" fill="#F9F9F4" transform="matrix(1.00, 0.00, -0.00, -1.00, 754.9, 160.3)">,</text><text xml:space="preserve" font-family="Monaco,Monaco" font-size="46.0" fill="#000000" transform="matrix(1.00, 0.00, -0.00, -1.00, 782.5, 160.3)"> </text><text xml:space="preserve" font-family="Monaco,Monaco" font-size="46.0" fill="#BC99FF" transform="matrix(1.00, 0.00, -0.00, -1.00, 810.1, 160.3)">7</text><text xml:space="preserve" font-family="Monaco,Monaco" font-size="46.0" fill="#F9F9F4" transform="matrix(1.00, 0.00, -0.00, -1.00, 837.7, 160.3)">]</text></g></svg>