<?xml version="1.0" encoding="UTF-8" standalone="no"?><svg xmlns="http://www.w3.org/2000/svg" xmlns:xlink="http://www.w3.org/1999/xlink" clip-rule="evenodd" stroke-miterlimit="10" viewBox="0 0 1920 1080"><desc>SVG generated by Keynote</desc><defs></defs><g transform="matrix(1.00, 0.00, -0.00, -1.00, 0.0, 1080.0)"><g><clipPath id="clip0x7fe42b463b80"><path d="M 0.0 1080.0 L 1920.0 1080.0 L 1920.0 0.0 L 0.0 0.0 Z M 0.0 1080.0 "></path></clipPath><g clip-path="url(#clip0x7fe42b463b80)"><image xlink:href="../../EAAA0B26-26D2-4E6F-B71B-738E9DFC302E/assets/0F43D2572F34A9AFB59E4515ED9A1249.jpeg" width="3840.00" height="2160.00" transform="matrix(0.50, 0.00, -0.00, -0.50, 0.0, 1080.0)"></image></g></g><image xlink:href="../../6530D123-D3DD-4BCF-83FE-CFD21B37F3B1/assets/36656A6709A8ED87E665BDD5EEA65991.png" width="326.00" height="112.00" transform="matrix(1.00, 0.00, -0.00, -1.00, 608.0, 659.0)"></image><text xml:space="preserve" font-family="HelveticaNeue-Light,Helvetica Neue" font-size="150.0" fill="#7BCA25" transform="matrix(1.00, 0.00, -0.00, -1.00, 611.5, 556.9)">t</text><text xml:space="preserve" font-family="HelveticaNeue-Light,Helvetica Neue" font-size="150.0" fill="#7BCA25" transform="matrix(1.00, 0.00, -0.00, -1.00, 655.9, 556.9)">r</text><text xml:space="preserve" font-family="HelveticaNeue-Light,Helvetica Neue" font-size="150.0" fill="#7BCA25" transform="matrix(1.00, 0.00, -0.00, -1.00, 703.2, 556.9)">a</text><text xml:space="preserve" font-family="HelveticaNeue-Light,Helvetica Neue" font-size="150.0" fill="#7BCA25" transform="matrix(1.00, 0.00, -0.00, -1.00, 781.0, 556.9)">n</text><text xml:space="preserve" font-family="HelveticaNeue-Light,Helvetica Neue" font-size="150.0" fill="#7BCA25" transform="matrix(1.00, 0.00, -0.00, -1.00, 861.6, 556.9)">s</text><image xlink:href="../../6530D123-D3DD-4BCF-83FE-CFD21B37F3B1/assets/A45A1C3A94E3F52C65552A0479901277.png" width="440.00" height="118.00" transform="matrix(1.00, 0.00, -0.00, -1.00, 935.0, 665.0)"></image><text xml:space="preserve" font-family="HelveticaNeue-Light,Helvetica Neue" font-size="150.0" fill="#1497FC" transform="matrix(1.00, 0.00, -0.00, -1.00, 933.7, 556.9)">d</text><text xml:space="preserve" font-family="HelveticaNeue-Light,Helvetica Neue" font-size="150.0" fill="#1497FC" transform="matrix(1.00, 0.00, -0.00, -1.00, 1019.8, 556.9)">u</text><text xml:space="preserve" font-family="HelveticaNeue-Light,Helvetica Neue" font-size="150.0" fill="#1497FC" transform="matrix(1.00, 0.00, -0.00, -1.00, 1100.4, 556.9)">c</text><text xml:space="preserve" font-family="HelveticaNeue-Light,Helvetica Neue" font-size="150.0" fill="#1497FC" transform="matrix(1.00, 0.00, -0.00, -1.00, 1178.2, 556.9)">e</text><text xml:space="preserve" font-family="HelveticaNeue-Light,Helvetica Neue" font-size="150.0" fill="#1497FC" transform="matrix(1.00, 0.00, -0.00, -1.00, 1256.1, 556.9)">r</text><text xml:space="preserve" font-family="HelveticaNeue-Light,Helvetica Neue" font-size="150.0" fill="#1497FC" transform="matrix(1.00, 0.00, -0.00, -1.00, 1303.3, 556.9)">s</text><image xlink:href="../../6530D123-D3DD-4BCF-83FE-CFD21B37F3B1/assets/FE4C1CC1553C8FFB385291A95C0C659A.png" width="541.00" height="101.00" transform="matrix(1.00, 0.00, -0.00, -1.00, 384.0, 502.0)"></image><text xml:space="preserve" font-family="HelveticaNeue-Light,Helvetica Neue" font-size="100.0" fill="#7BCA25" transform="matrix(1.00, 0.00, -0.00, -1.00, 388.1, 428.8)">t</text><text xml:space="preserve" font-family="HelveticaNeue-Light,Helvetica Neue" font-size="100.0" fill="#7BCA25" transform="matrix(1.00, 0.00, -0.00, -1.00, 417.7, 428.8)">r</text><text xml:space="preserve" font-family="HelveticaNeue-Light,Helvetica Neue" font-size="100.0" fill="#7BCA25" transform="matrix(1.00, 0.00, -0.00, -1.00, 449.2, 428.8)">a</text><text xml:space="preserve" font-family="HelveticaNeue-Light,Helvetica Neue" font-size="100.0" fill="#7BCA25" transform="matrix(1.00, 0.00, -0.00, -1.00, 501.1, 428.8)">n</text><text xml:space="preserve" font-family="HelveticaNeue-Light,Helvetica Neue" font-size="100.0" fill="#7BCA25" transform="matrix(1.00, 0.00, -0.00, -1.00, 554.8, 428.8)">s</text><text xml:space="preserve" font-family="HelveticaNeue-Light,Helvetica Neue" font-size="100.0" fill="#7BCA25" transform="matrix(1.00, 0.00, -0.00, -1.00, 602.9, 428.8)">f</text><text xml:space="preserve" font-family="HelveticaNeue-Light,Helvetica Neue" font-size="100.0" fill="#7BCA25" transform="matrix(1.00, 0.00, -0.00, -1.00, 628.8, 428.8)">o</text><text xml:space="preserve" font-family="HelveticaNeue-Light,Helvetica Neue" font-size="100.0" fill="#7BCA25" transform="matrix(1.00, 0.00, -0.00, -1.00, 684.4, 428.8)">r</text><text xml:space="preserve" font-family="HelveticaNeue-Light,Helvetica Neue" font-size="100.0" fill="#7BCA25" transform="matrix(1.00, 0.00, -0.00, -1.00, 715.9, 428.8)">m</text><text xml:space="preserve" font-family="HelveticaNeue-Light,Helvetica Neue" font-size="100.0" fill="#7BCA25" transform="matrix(1.00, 0.00, -0.00, -1.00, 799.2, 428.8)">i</text><text xml:space="preserve" font-family="HelveticaNeue-Light,Helvetica Neue" font-size="100.0" fill="#7BCA25" transform="matrix(1.00, 0.00, -0.00, -1.00, 817.7, 428.8)">n</text><text xml:space="preserve" font-family="HelveticaNeue-Light,Helvetica Neue" font-size="100.0" fill="#7BCA25" transform="matrix(1.00, 0.00, -0.00, -1.00, 871.4, 428.8)">g</text><image xlink:href="../../6530D123-D3DD-4BCF-83FE-CFD21B37F3B1/assets/C6CA402AB3C9F4745D23FC2E4CB56598.png" width="375.00" height="81.00" transform="matrix(1.00, 0.00, -0.00, -1.00, 946.0, 501.0)"></image><text xml:space="preserve" font-family="HelveticaNeue-Light,Helvetica Neue" font-size="100.0" fill="#1497FC" transform="matrix(1.00, 0.00, -0.00, -1.00, 944.0, 428.6)">r</text><text xml:space="preserve" font-family="HelveticaNeue-Light,Helvetica Neue" font-size="100.0" fill="#1497FC" transform="matrix(1.00, 0.00, -0.00, -1.00, 973.7, 428.6)">e</text><text xml:space="preserve" font-family="HelveticaNeue-Light,Helvetica Neue" font-size="100.0" fill="#1497FC" transform="matrix(1.00, 0.00, -0.00, -1.00, 1025.6, 428.6)">d</text><text xml:space="preserve" font-family="HelveticaNeue-Light,Helvetica Neue" font-size="100.0" fill="#1497FC" transform="matrix(1.00, 0.00, -0.00, -1.00, 1083.0, 428.6)">u</text><text xml:space="preserve" font-family="HelveticaNeue-Light,Helvetica Neue" font-size="100.0" fill="#1497FC" transform="matrix(1.00, 0.00, -0.00, -1.00, 1136.7, 428.6)">c</text><text xml:space="preserve" font-family="HelveticaNeue-Light,Helvetica Neue" font-size="100.0" fill="#1497FC" transform="matrix(1.00, 0.00, -0.00, -1.00, 1188.6, 428.6)">e</text><text xml:space="preserve" font-family="HelveticaNeue-Light,Helvetica Neue" font-size="100.0" fill="#1497FC" transform="matrix(1.00, 0.00, -0.00, -1.00, 1240.5, 428.6)">r</text><text xml:space="preserve" font-family="HelveticaNeue-Light,Helvetica Neue" font-size="100.0" fill="#1497FC" transform="matrix(1.00, 0.00, -0.00, -1.00, 1272.0, 428.6)">s</text><path d="M 0.1 0.0 L 270.1 0.0 " fill="none" stroke="#F5D327" stroke-width="1.00" transform="matrix(0.00, 1.00, 1.00, 0.00, 935.5, 393.9)"></path></g></svg>