<?xml version="1.0" encoding="UTF-8" standalone="no"?><svg xmlns="http://www.w3.org/2000/svg" xmlns:xlink="http://www.w3.org/1999/xlink" clip-rule="evenodd" stroke-miterlimit="10" viewBox="0 0 1920 1080"><desc>SVG generated by Keynote</desc><defs></defs><g transform="matrix(1.00, 0.00, -0.00, -1.00, 0.0, 1080.0)"><g><clipPath id="clip0x7fe42c0c50f0"><path d="M 0.0 1080.0 L 1920.0 1080.0 L 1920.0 0.0 L 0.0 0.0 Z M 0.0 1080.0 "></path></clipPath><g clip-path="url(#clip0x7fe42c0c50f0)"><image xlink:href="../../EAAA0B26-26D2-4E6F-B71B-738E9DFC302E/assets/0F43D2572F34A9AFB59E4515ED9A1249.jpeg" width="3840.00" height="2160.00" transform="matrix(0.50, 0.00, -0.00, -0.50, 0.0, 1080.0)"></image></g></g><image xlink:href="21741BEEDCA75A50D13B6E47DEDAFC91.png" width="1523.00" height="101.00" transform="matrix(1.00, 0.00, -0.00, -1.00, 123.0, 1013.0)"></image><text xml:space="preserve" font-family="HelveticaNeue-Light,Helvetica Neue" font-size="100.0" fill="#FEFFFE" transform="matrix(1.00, 0.00, -0.00, -1.00, 120.0, 940.2)">E</text><text xml:space="preserve" font-family="HelveticaNeue-Light,Helvetica Neue" font-size="100.0" fill="#FEFFFE" transform="matrix(1.00, 0.00, -0.00, -1.00, 179.3, 940.2)">x</text><text xml:space="preserve" font-family="HelveticaNeue-Light,Helvetica Neue" font-size="100.0" fill="#FEFFFE" transform="matrix(1.00, 0.00, -0.00, -1.00, 227.4, 940.2)">t</text><text xml:space="preserve" font-family="HelveticaNeue-Light,Helvetica Neue" font-size="100.0" fill="#FEFFFE" transform="matrix(1.00, 0.00, -0.00, -1.00, 257.0, 940.2)">r</text><text xml:space="preserve" font-family="HelveticaNeue-Light,Helvetica Neue" font-size="100.0" fill="#FEFFFE" transform="matrix(1.00, 0.00, -0.00, -1.00, 288.5, 940.2)">a</text><text xml:space="preserve" font-family="HelveticaNeue-Light,Helvetica Neue" font-size="100.0" fill="#FEFFFE" transform="matrix(1.00, 0.00, -0.00, -1.00, 340.4, 940.2)">c</text><text xml:space="preserve" font-family="HelveticaNeue-Light,Helvetica Neue" font-size="100.0" fill="#FEFFFE" transform="matrix(1.00, 0.00, -0.00, -1.00, 392.3, 940.2)">t</text><text xml:space="preserve" font-family="HelveticaNeue-Light,Helvetica Neue" font-size="100.0" fill="#FEFFFE" transform="matrix(1.00, 0.00, -0.00, -1.00, 421.9, 940.2)"> </text><text xml:space="preserve" font-family="HelveticaNeue-Light,Helvetica Neue" font-size="100.0" fill="#FEFFFE" transform="matrix(1.00, 0.00, -0.00, -1.00, 449.7, 940.2)">l</text><text xml:space="preserve" font-family="HelveticaNeue-Light,Helvetica Neue" font-size="100.0" fill="#FEFFFE" transform="matrix(1.00, 0.00, -0.00, -1.00, 468.2, 940.2)">i</text><text xml:space="preserve" font-family="HelveticaNeue-Light,Helvetica Neue" font-size="100.0" fill="#FEFFFE" transform="matrix(1.00, 0.00, -0.00, -1.00, 486.7, 940.2)">n</text><text xml:space="preserve" font-family="HelveticaNeue-Light,Helvetica Neue" font-size="100.0" fill="#FEFFFE" transform="matrix(1.00, 0.00, -0.00, -1.00, 540.4, 940.2)">e</text><text xml:space="preserve" font-family="HelveticaNeue-Light,Helvetica Neue" font-size="100.0" fill="#FEFFFE" transform="matrix(1.00, 0.00, -0.00, -1.00, 592.3, 940.2)">s</text><text xml:space="preserve" font-family="HelveticaNeue-Light,Helvetica Neue" font-size="100.0" fill="#FEFFFE" transform="matrix(1.00, 0.00, -0.00, -1.00, 640.4, 940.2)"> </text><text xml:space="preserve" font-family="HelveticaNeue-Light,Helvetica Neue" font-size="100.0" fill="#FEFFFE" transform="matrix(1.00, 0.00, -0.00, -1.00, 668.2, 940.2)">t</text><text xml:space="preserve" font-family="HelveticaNeue-Light,Helvetica Neue" font-size="100.0" fill="#FEFFFE" transform="matrix(1.00, 0.00, -0.00, -1.00, 697.8, 940.2)">h</text><text xml:space="preserve" font-family="HelveticaNeue-Light,Helvetica Neue" font-size="100.0" fill="#FEFFFE" transform="matrix(1.00, 0.00, -0.00, -1.00, 751.5, 940.2)">a</text><text xml:space="preserve" font-family="HelveticaNeue-Light,Helvetica Neue" font-size="100.0" fill="#FEFFFE" transform="matrix(1.00, 0.00, -0.00, -1.00, 803.4, 940.2)">t</text><text xml:space="preserve" font-family="HelveticaNeue-Light,Helvetica Neue" font-size="100.0" fill="#FEFFFE" transform="matrix(1.00, 0.00, -0.00, -1.00, 833.0, 940.2)"> </text><text xml:space="preserve" font-family="HelveticaNeue-Light,Helvetica Neue" font-size="100.0" fill="#FEFFFE" transform="matrix(1.00, 0.00, -0.00, -1.00, 860.8, 940.2)">a</text><text xml:space="preserve" font-family="HelveticaNeue-Light,Helvetica Neue" font-size="100.0" fill="#FEFFFE" transform="matrix(1.00, 0.00, -0.00, -1.00, 912.7, 940.2)">r</text><text xml:space="preserve" font-family="HelveticaNeue-Light,Helvetica Neue" font-size="100.0" fill="#FEFFFE" transform="matrix(1.00, 0.00, -0.00, -1.00, 942.4, 940.2)">e</text><text xml:space="preserve" font-family="HelveticaNeue-Light,Helvetica Neue" font-size="100.0" fill="#FEFFFE" transform="matrix(1.00, 0.00, -0.00, -1.00, 994.3, 940.2)"> </text><text xml:space="preserve" font-family="HelveticaNeue-Light,Helvetica Neue" font-size="100.0" fill="#FEFFFE" transform="matrix(1.00, 0.00, -0.00, -1.00, 1022.1, 940.2)">l</text><text xml:space="preserve" font-family="HelveticaNeue-Light,Helvetica Neue" font-size="100.0" fill="#FEFFFE" transform="matrix(1.00, 0.00, -0.00, -1.00, 1040.6, 940.2)">o</text><text xml:space="preserve" font-family="HelveticaNeue-Light,Helvetica Neue" font-size="100.0" fill="#FEFFFE" transform="matrix(1.00, 0.00, -0.00, -1.00, 1096.2, 940.2)">n</text><text xml:space="preserve" font-family="HelveticaNeue-Light,Helvetica Neue" font-size="100.0" fill="#FEFFFE" transform="matrix(1.00, 0.00, -0.00, -1.00, 1149.9, 940.2)">g</text><text xml:space="preserve" font-family="HelveticaNeue-Light,Helvetica Neue" font-size="100.0" fill="#FEFFFE" transform="matrix(1.00, 0.00, -0.00, -1.00, 1205.5, 940.2)">e</text><text xml:space="preserve" font-family="HelveticaNeue-Light,Helvetica Neue" font-size="100.0" fill="#FEFFFE" transform="matrix(1.00, 0.00, -0.00, -1.00, 1257.4, 940.2)">r</text><text xml:space="preserve" font-family="HelveticaNeue-Light,Helvetica Neue" font-size="100.0" fill="#FEFFFE" transform="matrix(1.00, 0.00, -0.00, -1.00, 1288.9, 940.2)"> </text><text xml:space="preserve" font-family="HelveticaNeue-Light,Helvetica Neue" font-size="100.0" fill="#FEFFFE" transform="matrix(1.00, 0.00, -0.00, -1.00, 1316.7, 940.2)">t</text><text xml:space="preserve" font-family="HelveticaNeue-Light,Helvetica Neue" font-size="100.0" fill="#FEFFFE" transform="matrix(1.00, 0.00, -0.00, -1.00, 1346.3, 940.2)">h</text><text xml:space="preserve" font-family="HelveticaNeue-Light,Helvetica Neue" font-size="100.0" fill="#FEFFFE" transform="matrix(1.00, 0.00, -0.00, -1.00, 1400.0, 940.2)">a</text><text xml:space="preserve" font-family="HelveticaNeue-Light,Helvetica Neue" font-size="100.0" fill="#FEFFFE" transform="matrix(1.00, 0.00, -0.00, -1.00, 1451.9, 940.2)">n</text><text xml:space="preserve" font-family="HelveticaNeue-Light,Helvetica Neue" font-size="100.0" fill="#FEFFFE" transform="matrix(1.00, 0.00, -0.00, -1.00, 1505.6, 940.2)"> </text><text xml:space="preserve" font-family="HelveticaNeue-Light,Helvetica Neue" font-size="100.0" fill="#FEFFFE" transform="matrix(1.00, 0.00, -0.00, -1.00, 1533.4, 940.2)">8</text><text xml:space="preserve" font-family="HelveticaNeue-Light,Helvetica Neue" font-size="100.0" fill="#FEFFFE" transform="matrix(1.00, 0.00, -0.00, -1.00, 1589.0, 940.2)">0</text><text xml:space="preserve" font-family="HelveticaNeue-Light,Helvetica Neue" font-size="100.0" fill="#FEFFFE" transform="matrix(1.00, 0.00, -0.00, -1.00, 1644.6, 940.2)"> </text><image xlink:href="20EB44520BAE1F5A177CC158E6CACEE1.png" width="1041.00" height="82.00" transform="matrix(1.00, 0.00, -0.00, -1.00, 119.0, 892.0)"></image><text xml:space="preserve" font-family="HelveticaNeue-Light,Helvetica Neue" font-size="100.0" fill="#FEFFFE" transform="matrix(1.00, 0.00, -0.00, -1.00, 120.0, 819.2)">c</text><text xml:space="preserve" font-family="HelveticaNeue-Light,Helvetica Neue" font-size="100.0" fill="#FEFFFE" transform="matrix(1.00, 0.00, -0.00, -1.00, 171.9, 819.2)">h</text><text xml:space="preserve" font-family="HelveticaNeue-Light,Helvetica Neue" font-size="100.0" fill="#FEFFFE" transform="matrix(1.00, 0.00, -0.00, -1.00, 225.6, 819.2)">a</text><text xml:space="preserve" font-family="HelveticaNeue-Light,Helvetica Neue" font-size="100.0" fill="#FEFFFE" transform="matrix(1.00, 0.00, -0.00, -1.00, 277.5, 819.2)">r</text><text xml:space="preserve" font-family="HelveticaNeue-Light,Helvetica Neue" font-size="100.0" fill="#FEFFFE" transform="matrix(1.00, 0.00, -0.00, -1.00, 309.0, 819.2)">s</text><text xml:space="preserve" font-family="HelveticaNeue-Light,Helvetica Neue" font-size="100.0" fill="#FEFFFE" transform="matrix(1.00, 0.00, -0.00, -1.00, 357.1, 819.2)"> </text><text xml:space="preserve" font-family="HelveticaNeue-Light,Helvetica Neue" font-size="100.0" fill="#FEFFFE" transform="matrix(1.00, 0.00, -0.00, -1.00, 384.9, 819.2)">f</text><text xml:space="preserve" font-family="HelveticaNeue-Light,Helvetica Neue" font-size="100.0" fill="#FEFFFE" transform="matrix(1.00, 0.00, -0.00, -1.00, 410.8, 819.2)">r</text><text xml:space="preserve" font-family="HelveticaNeue-Light,Helvetica Neue" font-size="100.0" fill="#FEFFFE" transform="matrix(1.00, 0.00, -0.00, -1.00, 440.5, 819.2)">o</text><text xml:space="preserve" font-family="HelveticaNeue-Light,Helvetica Neue" font-size="100.0" fill="#FEFFFE" transform="matrix(1.00, 0.00, -0.00, -1.00, 496.1, 819.2)">m</text><text xml:space="preserve" font-family="HelveticaNeue-Light,Helvetica Neue" font-size="100.0" fill="#FEFFFE" transform="matrix(1.00, 0.00, -0.00, -1.00, 579.4, 819.2)"> </text><text xml:space="preserve" font-family="HelveticaNeue-Light,Helvetica Neue" font-size="100.0" fill="#FEFFFE" transform="matrix(1.00, 0.00, -0.00, -1.00, 607.2, 819.2)">s</text><text xml:space="preserve" font-family="HelveticaNeue-Light,Helvetica Neue" font-size="100.0" fill="#FEFFFE" transform="matrix(1.00, 0.00, -0.00, -1.00, 655.3, 819.2)">e</text><text xml:space="preserve" font-family="HelveticaNeue-Light,Helvetica Neue" font-size="100.0" fill="#FEFFFE" transform="matrix(1.00, 0.00, -0.00, -1.00, 707.2, 819.2)">l</text><text xml:space="preserve" font-family="HelveticaNeue-Light,Helvetica Neue" font-size="100.0" fill="#FEFFFE" transform="matrix(1.00, 0.00, -0.00, -1.00, 725.7, 819.2)">e</text><text xml:space="preserve" font-family="HelveticaNeue-Light,Helvetica Neue" font-size="100.0" fill="#FEFFFE" transform="matrix(1.00, 0.00, -0.00, -1.00, 777.6, 819.2)">c</text><text xml:space="preserve" font-family="HelveticaNeue-Light,Helvetica Neue" font-size="100.0" fill="#FEFFFE" transform="matrix(1.00, 0.00, -0.00, -1.00, 829.5, 819.2)">t</text><text xml:space="preserve" font-family="HelveticaNeue-Light,Helvetica Neue" font-size="100.0" fill="#FEFFFE" transform="matrix(1.00, 0.00, -0.00, -1.00, 859.1, 819.2)">e</text><text xml:space="preserve" font-family="HelveticaNeue-Light,Helvetica Neue" font-size="100.0" fill="#FEFFFE" transform="matrix(1.00, 0.00, -0.00, -1.00, 911.0, 819.2)">d</text><text xml:space="preserve" font-family="HelveticaNeue-Light,Helvetica Neue" font-size="100.0" fill="#FEFFFE" transform="matrix(1.00, 0.00, -0.00, -1.00, 968.4, 819.2)"> </text><text xml:space="preserve" font-family="HelveticaNeue-Light,Helvetica Neue" font-size="100.0" fill="#FEFFFE" transform="matrix(1.00, 0.00, -0.00, -1.00, 996.2, 819.2)">ï¬</text><text xml:space="preserve" font-family="HelveticaNeue-Light,Helvetica Neue" font-size="100.0" fill="#FEFFFE" transform="matrix(1.00, 0.00, -0.00, -1.00, 1040.6, 819.2)">l</text><text xml:space="preserve" font-family="HelveticaNeue-Light,Helvetica Neue" font-size="100.0" fill="#FEFFFE" transform="matrix(1.00, 0.00, -0.00, -1.00, 1059.1, 819.2)">e</text><text xml:space="preserve" font-family="HelveticaNeue-Light,Helvetica Neue" font-size="100.0" fill="#FEFFFE" transform="matrix(1.00, 0.00, -0.00, -1.00, 1111.0, 819.2)">s</text><text xml:space="preserve" font-family="Monaco,Monaco" font-size="49.5" fill="#FC4384" transform="matrix(1.00, 0.00, -0.00, -1.00, 120.0, 714.5)">v</text><text xml:space="preserve" font-family="Monaco,Monaco" font-size="49.5" fill="#FC4384" transform="matrix(1.00, 0.00, -0.00, -1.00, 149.7, 714.5)">a</text><text xml:space="preserve" font-family="Monaco,Monaco" font-size="49.5" fill="#FC4384" transform="matrix(1.00, 0.00, -0.00, -1.00, 179.4, 714.5)">r</text><text xml:space="preserve" font-family="Monaco,Monaco" font-size="49.5" fill="#000000" transform="matrix(1.00, 0.00, -0.00, -1.00, 209.1, 714.5)"> </text><text xml:space="preserve" font-family="Monaco,Monaco" font-size="49.5" fill="#F9F9F4" transform="matrix(1.00, 0.00, -0.00, -1.00, 238.8, 714.5)">e</text><text xml:space="preserve" font-family="Monaco,Monaco" font-size="49.5" fill="#F9F9F4" transform="matrix(1.00, 0.00, -0.00, -1.00, 268.5, 714.5)">x</text><text xml:space="preserve" font-family="Monaco,Monaco" font-size="49.5" fill="#F9F9F4" transform="matrix(1.00, 0.00, -0.00, -1.00, 298.2, 714.5)">t</text><text xml:space="preserve" font-family="Monaco,Monaco" font-size="49.5" fill="#F9F9F4" transform="matrix(1.00, 0.00, -0.00, -1.00, 327.9, 714.5)">r</text><text xml:space="preserve" font-family="Monaco,Monaco" font-size="49.5" fill="#F9F9F4" transform="matrix(1.00, 0.00, -0.00, -1.00, 357.7, 714.5)">a</text><text xml:space="preserve" font-family="Monaco,Monaco" font-size="49.5" fill="#F9F9F4" transform="matrix(1.00, 0.00, -0.00, -1.00, 387.4, 714.5)">c</text><text xml:space="preserve" font-family="Monaco,Monaco" font-size="49.5" fill="#F9F9F4" transform="matrix(1.00, 0.00, -0.00, -1.00, 417.1, 714.5)">t</text><text xml:space="preserve" font-family="Monaco,Monaco" font-size="49.5" fill="#F9F9F4" transform="matrix(1.00, 0.00, -0.00, -1.00, 446.8, 714.5)">L</text><text xml:space="preserve" font-family="Monaco,Monaco" font-size="49.5" fill="#F9F9F4" transform="matrix(1.00, 0.00, -0.00, -1.00, 476.5, 714.5)">i</text><text xml:space="preserve" font-family="Monaco,Monaco" font-size="49.5" fill="#F9F9F4" transform="matrix(1.00, 0.00, -0.00, -1.00, 506.2, 714.5)">n</text><text xml:space="preserve" font-family="Monaco,Monaco" font-size="49.5" fill="#F9F9F4" transform="matrix(1.00, 0.00, -0.00, -1.00, 535.9, 714.5)">e</text><text xml:space="preserve" font-family="Monaco,Monaco" font-size="49.5" fill="#F9F9F4" transform="matrix(1.00, 0.00, -0.00, -1.00, 565.6, 714.5)">s</text><text xml:space="preserve" font-family="Monaco,Monaco" font-size="49.5" fill="#000000" transform="matrix(1.00, 0.00, -0.00, -1.00, 595.3, 714.5)"> </text><text xml:space="preserve" font-family="Monaco,Monaco" font-size="49.5" fill="#F9F9F4" transform="matrix(1.00, 0.00, -0.00, -1.00, 625.0, 714.5)">=</text><text xml:space="preserve" font-family="Monaco,Monaco" font-size="49.5" fill="#000000" transform="matrix(1.00, 0.00, -0.00, -1.00, 654.7, 714.5)"> </text><text xml:space="preserve" font-family="Monaco,Monaco" font-size="49.5" fill="#F9F9F4" transform="matrix(1.00, 0.00, -0.00, -1.00, 684.4, 714.5)">t</text><text xml:space="preserve" font-family="Monaco,Monaco" font-size="49.5" fill="#F9F9F4" transform="matrix(1.00, 0.00, -0.00, -1.00, 714.1, 714.5)">a</text><text xml:space="preserve" font-family="Monaco,Monaco" font-size="49.5" fill="#F9F9F4" transform="matrix(1.00, 0.00, -0.00, -1.00, 743.8, 714.5)">.</text><text xml:space="preserve" font-family="Monaco,Monaco" font-size="49.5" fill="#13F7BA" transform="matrix(1.00, 0.00, -0.00, -1.00, 773.5, 714.5)">c</text><text xml:space="preserve" font-family="Monaco,Monaco" font-size="49.5" fill="#13F7BA" transform="matrix(1.00, 0.00, -0.00, -1.00, 803.2, 714.5)">o</text><text xml:space="preserve" font-family="Monaco,Monaco" font-size="49.5" fill="#13F7BA" transform="matrix(1.00, 0.00, -0.00, -1.00, 832.9, 714.5)">m</text><text xml:space="preserve" font-family="Monaco,Monaco" font-size="49.5" fill="#13F7BA" transform="matrix(1.00, 0.00, -0.00, -1.00, 862.6, 714.5)">p</text><text xml:space="preserve" font-family="Monaco,Monaco" font-size="49.5" fill="#13F7BA" transform="matrix(1.00, 0.00, -0.00, -1.00, 892.3, 714.5)">o</text><text xml:space="preserve" font-family="Monaco,Monaco" font-size="49.5" fill="#13F7BA" transform="matrix(1.00, 0.00, -0.00, -1.00, 922.1, 714.5)">s</text><text xml:space="preserve" font-family="Monaco,Monaco" font-size="49.5" fill="#13F7BA" transform="matrix(1.00, 0.00, -0.00, -1.00, 951.8, 714.5)">e</text><text xml:space="preserve" font-family="Monaco,Monaco" font-size="49.5" fill="#F9F9F4" transform="matrix(1.00, 0.00, -0.00, -1.00, 981.4, 714.5)">(</text><text xml:space="preserve" font-family="Monaco,Monaco" font-size="49.5" fill="#000000" transform="matrix(1.00, 0.00, -0.00, -1.00, 120.0, 648.5)"> </text><text xml:space="preserve" font-family="Monaco,Monaco" font-size="49.5" fill="#000000" transform="matrix(1.00, 0.00, -0.00, -1.00, 149.7, 648.5)"> </text><text xml:space="preserve" font-family="Monaco,Monaco" font-size="49.5" fill="#13F7BA" transform="matrix(1.00, 0.00, -0.00, -1.00, 179.4, 648.5)">m</text><text xml:space="preserve" font-family="Monaco,Monaco" font-size="49.5" fill="#13F7BA" transform="matrix(1.00, 0.00, -0.00, -1.00, 209.1, 648.5)">a</text><text xml:space="preserve" font-family="Monaco,Monaco" font-size="49.5" fill="#13F7BA" transform="matrix(1.00, 0.00, -0.00, -1.00, 238.8, 648.5)">p</text><text xml:space="preserve" font-family="Monaco,Monaco" font-size="49.5" fill="#F9F9F4" transform="matrix(1.00, 0.00, -0.00, -1.00, 268.5, 648.5)">(</text><text xml:space="preserve" font-family="Monaco,Monaco" font-size="49.5" fill="#FC4384" transform="matrix(1.00, 0.00, -0.00, -1.00, 298.2, 648.5)">f</text><text xml:space="preserve" font-family="Monaco,Monaco" font-size="49.5" fill="#FC4384" transform="matrix(1.00, 0.00, -0.00, -1.00, 327.9, 648.5)">u</text><text xml:space="preserve" font-family="Monaco,Monaco" font-size="49.5" fill="#FC4384" transform="matrix(1.00, 0.00, -0.00, -1.00, 357.6, 648.5)">n</text><text xml:space="preserve" font-family="Monaco,Monaco" font-size="49.5" fill="#FC4384" transform="matrix(1.00, 0.00, -0.00, -1.00, 387.4, 648.5)">c</text><text xml:space="preserve" font-family="Monaco,Monaco" font-size="49.5" fill="#FC4384" transform="matrix(1.00, 0.00, -0.00, -1.00, 417.1, 648.5)">t</text><text xml:space="preserve" font-family="Monaco,Monaco" font-size="49.5" fill="#FC4384" transform="matrix(1.00, 0.00, -0.00, -1.00, 446.8, 648.5)">i</text><text xml:space="preserve" font-family="Monaco,Monaco" font-size="49.5" fill="#FC4384" transform="matrix(1.00, 0.00, -0.00, -1.00, 476.5, 648.5)">o</text><text xml:space="preserve" font-family="Monaco,Monaco" font-size="49.5" fill="#FC4384" transform="matrix(1.00, 0.00, -0.00, -1.00, 506.2, 648.5)">n</text><text xml:space="preserve" font-family="Monaco,Monaco" font-size="49.5" fill="#F9F9F4" transform="matrix(1.00, 0.00, -0.00, -1.00, 535.9, 648.5)">(</text><text xml:space="preserve" font-family="Monaco,Monaco" font-size="49.5" fill="#F9F9F4" transform="matrix(1.00, 0.00, -0.00, -1.00, 565.6, 648.5)">f</text><text xml:space="preserve" font-family="Monaco,Monaco" font-size="49.5" fill="#F9F9F4" transform="matrix(1.00, 0.00, -0.00, -1.00, 595.3, 648.5)">i</text><text xml:space="preserve" font-family="Monaco,Monaco" font-size="49.5" fill="#F9F9F4" transform="matrix(1.00, 0.00, -0.00, -1.00, 625.0, 648.5)">l</text><text xml:space="preserve" font-family="Monaco,Monaco" font-size="49.5" fill="#F9F9F4" transform="matrix(1.00, 0.00, -0.00, -1.00, 654.7, 648.5)">e</text><text xml:space="preserve" font-family="Monaco,Monaco" font-size="49.5" fill="#F9F9F4" transform="matrix(1.00, 0.00, -0.00, -1.00, 684.4, 648.5)">N</text><text xml:space="preserve" font-family="Monaco,Monaco" font-size="49.5" fill="#F9F9F4" transform="matrix(1.00, 0.00, -0.00, -1.00, 714.1, 648.5)">a</text><text xml:space="preserve" font-family="Monaco,Monaco" font-size="49.5" fill="#F9F9F4" transform="matrix(1.00, 0.00, -0.00, -1.00, 743.8, 648.5)">m</text><text xml:space="preserve" font-family="Monaco,Monaco" font-size="49.5" fill="#F9F9F4" transform="matrix(1.00, 0.00, -0.00, -1.00, 773.5, 648.5)">e</text><text xml:space="preserve" font-family="Monaco,Monaco" font-size="49.5" fill="#F9F9F4" transform="matrix(1.00, 0.00, -0.00, -1.00, 803.3, 648.5)">)</text><text xml:space="preserve" font-family="Monaco,Monaco" font-size="49.5" fill="#F9F9F4" transform="matrix(1.00, 0.00, -0.00, -1.00, 833.0, 648.5)"> </text><text xml:space="preserve" font-family="Monaco,Monaco" font-size="49.5" fill="#F9F9F4" transform="matrix(1.00, 0.00, -0.00, -1.00, 862.7, 648.5)">{</text><text xml:space="preserve" font-family="Monaco,Monaco" font-size="49.5" fill="#000000" transform="matrix(1.00, 0.00, -0.00, -1.00, 120.0, 582.5)"> </text><text xml:space="preserve" font-family="Monaco,Monaco" font-size="49.5" fill="#000000" transform="matrix(1.00, 0.00, -0.00, -1.00, 149.7, 582.5)"> </text><text xml:space="preserve" font-family="Monaco,Monaco" font-size="49.5" fill="#000000" transform="matrix(1.00, 0.00, -0.00, -1.00, 179.4, 582.5)"> </text><text xml:space="preserve" font-family="Monaco,Monaco" font-size="49.5" fill="#000000" transform="matrix(1.00, 0.00, -0.00, -1.00, 209.1, 582.5)"> </text><text xml:space="preserve" font-family="Monaco,Monaco" font-size="49.5" fill="#FC4384" transform="matrix(1.00, 0.00, -0.00, -1.00, 238.8, 582.5)">r</text><text xml:space="preserve" font-family="Monaco,Monaco" font-size="49.5" fill="#FC4384" transform="matrix(1.00, 0.00, -0.00, -1.00, 268.5, 582.5)">e</text><text xml:space="preserve" font-family="Monaco,Monaco" font-size="49.5" fill="#FC4384" transform="matrix(1.00, 0.00, -0.00, -1.00, 298.2, 582.5)">t</text><text xml:space="preserve" font-family="Monaco,Monaco" font-size="49.5" fill="#FC4384" transform="matrix(1.00, 0.00, -0.00, -1.00, 327.9, 582.5)">u</text><text xml:space="preserve" font-family="Monaco,Monaco" font-size="49.5" fill="#FC4384" transform="matrix(1.00, 0.00, -0.00, -1.00, 357.7, 582.5)">r</text><text xml:space="preserve" font-family="Monaco,Monaco" font-size="49.5" fill="#FC4384" transform="matrix(1.00, 0.00, -0.00, -1.00, 387.4, 582.5)">n</text><text xml:space="preserve" font-family="Monaco,Monaco" font-size="49.5" fill="#000000" transform="matrix(1.00, 0.00, -0.00, -1.00, 417.0, 582.5)"> </text><text xml:space="preserve" font-family="Monaco,Monaco" font-size="49.5" fill="#F9F9F4" transform="matrix(1.00, 0.00, -0.00, -1.00, 446.8, 582.5)">f</text><text xml:space="preserve" font-family="Monaco,Monaco" font-size="49.5" fill="#F9F9F4" transform="matrix(1.00, 0.00, -0.00, -1.00, 476.5, 582.5)">s</text><text xml:space="preserve" font-family="Monaco,Monaco" font-size="49.5" fill="#F9F9F4" transform="matrix(1.00, 0.00, -0.00, -1.00, 506.2, 582.5)">.</text><text xml:space="preserve" font-family="Monaco,Monaco" font-size="49.5" fill="#13F7BA" transform="matrix(1.00, 0.00, -0.00, -1.00, 535.9, 582.5)">r</text><text xml:space="preserve" font-family="Monaco,Monaco" font-size="49.5" fill="#13F7BA" transform="matrix(1.00, 0.00, -0.00, -1.00, 565.6, 582.5)">e</text><text xml:space="preserve" font-family="Monaco,Monaco" font-size="49.5" fill="#13F7BA" transform="matrix(1.00, 0.00, -0.00, -1.00, 595.3, 582.5)">a</text><text xml:space="preserve" font-family="Monaco,Monaco" font-size="49.5" fill="#13F7BA" transform="matrix(1.00, 0.00, -0.00, -1.00, 625.0, 582.5)">d</text><text xml:space="preserve" font-family="Monaco,Monaco" font-size="49.5" fill="#13F7BA" transform="matrix(1.00, 0.00, -0.00, -1.00, 654.7, 582.5)">F</text><text xml:space="preserve" font-family="Monaco,Monaco" font-size="49.5" fill="#13F7BA" transform="matrix(1.00, 0.00, -0.00, -1.00, 684.4, 582.5)">i</text><text xml:space="preserve" font-family="Monaco,Monaco" font-size="49.5" fill="#13F7BA" transform="matrix(1.00, 0.00, -0.00, -1.00, 714.1, 582.5)">l</text><text xml:space="preserve" font-family="Monaco,Monaco" font-size="49.5" fill="#13F7BA" transform="matrix(1.00, 0.00, -0.00, -1.00, 743.8, 582.5)">e</text><text xml:space="preserve" font-family="Monaco,Monaco" font-size="49.5" fill="#13F7BA" transform="matrix(1.00, 0.00, -0.00, -1.00, 773.5, 582.5)">A</text><text xml:space="preserve" font-family="Monaco,Monaco" font-size="49.5" fill="#13F7BA" transform="matrix(1.00, 0.00, -0.00, -1.00, 803.3, 582.5)">s</text><text xml:space="preserve" font-family="Monaco,Monaco" font-size="49.5" fill="#13F7BA" transform="matrix(1.00, 0.00, -0.00, -1.00, 833.0, 582.5)">y</text><text xml:space="preserve" font-family="Monaco,Monaco" font-size="49.5" fill="#13F7BA" transform="matrix(1.00, 0.00, -0.00, -1.00, 862.7, 582.5)">n</text><text xml:space="preserve" font-family="Monaco,Monaco" font-size="49.5" fill="#13F7BA" transform="matrix(1.00, 0.00, -0.00, -1.00, 892.4, 582.5)">c</text><text xml:space="preserve" font-family="Monaco,Monaco" font-size="49.5" fill="#F9F9F4" transform="matrix(1.00, 0.00, -0.00, -1.00, 922.0, 582.5)">(</text><text xml:space="preserve" font-family="Monaco,Monaco" font-size="49.5" fill="#F9F9F4" transform="matrix(1.00, 0.00, -0.00, -1.00, 951.7, 582.5)">f</text><text xml:space="preserve" font-family="Monaco,Monaco" font-size="49.5" fill="#F9F9F4" transform="matrix(1.00, 0.00, -0.00, -1.00, 981.5, 582.5)">i</text><text xml:space="preserve" font-family="Monaco,Monaco" font-size="49.5" fill="#F9F9F4" transform="matrix(1.00, 0.00, -0.00, -1.00, 1011.2, 582.5)">l</text><text xml:space="preserve" font-family="Monaco,Monaco" font-size="49.5" fill="#F9F9F4" transform="matrix(1.00, 0.00, -0.00, -1.00, 1040.9, 582.5)">e</text><text xml:space="preserve" font-family="Monaco,Monaco" font-size="49.5" fill="#F9F9F4" transform="matrix(1.00, 0.00, -0.00, -1.00, 1070.6, 582.5)">N</text><text xml:space="preserve" font-family="Monaco,Monaco" font-size="49.5" fill="#F9F9F4" transform="matrix(1.00, 0.00, -0.00, -1.00, 1100.3, 582.5)">a</text><text xml:space="preserve" font-family="Monaco,Monaco" font-size="49.5" fill="#F9F9F4" transform="matrix(1.00, 0.00, -0.00, -1.00, 1130.0, 582.5)">m</text><text xml:space="preserve" font-family="Monaco,Monaco" font-size="49.5" fill="#F9F9F4" transform="matrix(1.00, 0.00, -0.00, -1.00, 1159.7, 582.5)">e</text><text xml:space="preserve" font-family="Monaco,Monaco" font-size="49.5" fill="#F9F9F4" transform="matrix(1.00, 0.00, -0.00, -1.00, 1189.4, 582.5)">,</text><text xml:space="preserve" font-family="Monaco,Monaco" font-size="49.5" fill="#000000" transform="matrix(1.00, 0.00, -0.00, -1.00, 1219.1, 582.5)"> </text><text xml:space="preserve" font-family="Monaco,Monaco" font-size="49.5" fill="#EBDF86" transform="matrix(1.00, 0.00, -0.00, -1.00, 1248.8, 582.5)">'</text><text xml:space="preserve" font-family="Monaco,Monaco" font-size="49.5" fill="#EBDF86" transform="matrix(1.00, 0.00, -0.00, -1.00, 1278.5, 582.5)">u</text><text xml:space="preserve" font-family="Monaco,Monaco" font-size="49.5" fill="#EBDF86" transform="matrix(1.00, 0.00, -0.00, -1.00, 1308.2, 582.5)">t</text><text xml:space="preserve" font-family="Monaco,Monaco" font-size="49.5" fill="#EBDF86" transform="matrix(1.00, 0.00, -0.00, -1.00, 1337.9, 582.5)">f</text><text xml:space="preserve" font-family="Monaco,Monaco" font-size="49.5" fill="#EBDF86" transform="matrix(1.00, 0.00, -0.00, -1.00, 1367.6, 582.5)">8</text><text xml:space="preserve" font-family="Monaco,Monaco" font-size="49.5" fill="#EBDF86" transform="matrix(1.00, 0.00, -0.00, -1.00, 1397.3, 582.5)">'</text><text xml:space="preserve" font-family="Monaco,Monaco" font-size="49.5" fill="#F9F9F4" transform="matrix(1.00, 0.00, -0.00, -1.00, 1427.0, 582.5)">)</text><text xml:space="preserve" font-family="Monaco,Monaco" font-size="49.5" fill="#F9F9F4" transform="matrix(1.00, 0.00, -0.00, -1.00, 1456.7, 582.5)">;</text><text xml:space="preserve" font-family="Monaco,Monaco" font-size="49.5" fill="#000000" transform="matrix(1.00, 0.00, -0.00, -1.00, 120.0, 516.5)"> </text><text xml:space="preserve" font-family="Monaco,Monaco" font-size="49.5" fill="#000000" transform="matrix(1.00, 0.00, -0.00, -1.00, 149.7, 516.5)"> </text><text xml:space="preserve" font-family="Monaco,Monaco" font-size="49.5" fill="#F9F9F4" transform="matrix(1.00, 0.00, -0.00, -1.00, 179.4, 516.5)">}</text><text xml:space="preserve" font-family="Monaco,Monaco" font-size="49.5" fill="#F9F9F4" transform="matrix(1.00, 0.00, -0.00, -1.00, 209.1, 516.5)">)</text><text xml:space="preserve" font-family="Monaco,Monaco" font-size="49.5" fill="#F9F9F4" transform="matrix(1.00, 0.00, -0.00, -1.00, 238.8, 516.5)">,</text><text xml:space="preserve" font-family="Monaco,Monaco" font-size="49.5" fill="#000000" transform="matrix(1.00, 0.00, -0.00, -1.00, 120.0, 450.5)"> </text><text xml:space="preserve" font-family="Monaco,Monaco" font-size="49.5" fill="#000000" transform="matrix(1.00, 0.00, -0.00, -1.00, 149.7, 450.5)"> </text><text xml:space="preserve" font-family="Monaco,Monaco" font-size="49.5" fill="#13F7BA" transform="matrix(1.00, 0.00, -0.00, -1.00, 179.4, 450.5)">m</text><text xml:space="preserve" font-family="Monaco,Monaco" font-size="49.5" fill="#13F7BA" transform="matrix(1.00, 0.00, -0.00, -1.00, 209.1, 450.5)">a</text><text xml:space="preserve" font-family="Monaco,Monaco" font-size="49.5" fill="#13F7BA" transform="matrix(1.00, 0.00, -0.00, -1.00, 238.8, 450.5)">p</text><text xml:space="preserve" font-family="Monaco,Monaco" font-size="49.5" fill="#13F7BA" transform="matrix(1.00, 0.00, -0.00, -1.00, 268.5, 450.5)">c</text><text xml:space="preserve" font-family="Monaco,Monaco" font-size="49.5" fill="#13F7BA" transform="matrix(1.00, 0.00, -0.00, -1.00, 298.2, 450.5)">a</text><text xml:space="preserve" font-family="Monaco,Monaco" font-size="49.5" fill="#13F7BA" transform="matrix(1.00, 0.00, -0.00, -1.00, 328.0, 450.5)">t</text><text xml:space="preserve" font-family="Monaco,Monaco" font-size="49.5" fill="#F9F9F4" transform="matrix(1.00, 0.00, -0.00, -1.00, 357.6, 450.5)">(</text><text xml:space="preserve" font-family="Monaco,Monaco" font-size="49.5" fill="#FC4384" transform="matrix(1.00, 0.00, -0.00, -1.00, 387.3, 450.5)">f</text><text xml:space="preserve" font-family="Monaco,Monaco" font-size="49.5" fill="#FC4384" transform="matrix(1.00, 0.00, -0.00, -1.00, 417.1, 450.5)">u</text><text xml:space="preserve" font-family="Monaco,Monaco" font-size="49.5" fill="#FC4384" transform="matrix(1.00, 0.00, -0.00, -1.00, 446.8, 450.5)">n</text><text xml:space="preserve" font-family="Monaco,Monaco" font-size="49.5" fill="#FC4384" transform="matrix(1.00, 0.00, -0.00, -1.00, 476.5, 450.5)">c</text><text xml:space="preserve" font-family="Monaco,Monaco" font-size="49.5" fill="#FC4384" transform="matrix(1.00, 0.00, -0.00, -1.00, 506.2, 450.5)">t</text><text xml:space="preserve" font-family="Monaco,Monaco" font-size="49.5" fill="#FC4384" transform="matrix(1.00, 0.00, -0.00, -1.00, 535.9, 450.5)">i</text><text xml:space="preserve" font-family="Monaco,Monaco" font-size="49.5" fill="#FC4384" transform="matrix(1.00, 0.00, -0.00, -1.00, 565.6, 450.5)">o</text><text xml:space="preserve" font-family="Monaco,Monaco" font-size="49.5" fill="#FC4384" transform="matrix(1.00, 0.00, -0.00, -1.00, 595.3, 450.5)">n</text><text xml:space="preserve" font-family="Monaco,Monaco" font-size="49.5" fill="#F9F9F4" transform="matrix(1.00, 0.00, -0.00, -1.00, 625.0, 450.5)">(</text><text xml:space="preserve" font-family="Monaco,Monaco" font-size="49.5" fill="#F9F9F4" transform="matrix(1.00, 0.00, -0.00, -1.00, 654.7, 450.5)">c</text><text xml:space="preserve" font-family="Monaco,Monaco" font-size="49.5" fill="#F9F9F4" transform="matrix(1.00, 0.00, -0.00, -1.00, 684.4, 450.5)">o</text><text xml:space="preserve" font-family="Monaco,Monaco" font-size="49.5" fill="#F9F9F4" transform="matrix(1.00, 0.00, -0.00, -1.00, 714.1, 450.5)">n</text><text xml:space="preserve" font-family="Monaco,Monaco" font-size="49.5" fill="#F9F9F4" transform="matrix(1.00, 0.00, -0.00, -1.00, 743.8, 450.5)">t</text><text xml:space="preserve" font-family="Monaco,Monaco" font-size="49.5" fill="#F9F9F4" transform="matrix(1.00, 0.00, -0.00, -1.00, 773.5, 450.5)">e</text><text xml:space="preserve" font-family="Monaco,Monaco" font-size="49.5" fill="#F9F9F4" transform="matrix(1.00, 0.00, -0.00, -1.00, 803.2, 450.5)">n</text><text xml:space="preserve" font-family="Monaco,Monaco" font-size="49.5" fill="#F9F9F4" transform="matrix(1.00, 0.00, -0.00, -1.00, 833.0, 450.5)">t</text><text xml:space="preserve" font-family="Monaco,Monaco" font-size="49.5" fill="#F9F9F4" transform="matrix(1.00, 0.00, -0.00, -1.00, 862.7, 450.5)">s</text><text xml:space="preserve" font-family="Monaco,Monaco" font-size="49.5" fill="#F9F9F4" transform="matrix(1.00, 0.00, -0.00, -1.00, 892.4, 450.5)">)</text><text xml:space="preserve" font-family="Monaco,Monaco" font-size="49.5" fill="#F9F9F4" transform="matrix(1.00, 0.00, -0.00, -1.00, 922.1, 450.5)"> </text><text xml:space="preserve" font-family="Monaco,Monaco" font-size="49.5" fill="#F9F9F4" transform="matrix(1.00, 0.00, -0.00, -1.00, 951.8, 450.5)">{</text><text xml:space="preserve" font-family="Monaco,Monaco" font-size="49.5" fill="#000000" transform="matrix(1.00, 0.00, -0.00, -1.00, 120.0, 384.5)"> </text><text xml:space="preserve" font-family="Monaco,Monaco" font-size="49.5" fill="#000000" transform="matrix(1.00, 0.00, -0.00, -1.00, 149.7, 384.5)"> </text><text xml:space="preserve" font-family="Monaco,Monaco" font-size="49.5" fill="#000000" transform="matrix(1.00, 0.00, -0.00, -1.00, 179.4, 384.5)"> </text><text xml:space="preserve" font-family="Monaco,Monaco" font-size="49.5" fill="#000000" transform="matrix(1.00, 0.00, -0.00, -1.00, 209.1, 384.5)"> </text><text xml:space="preserve" font-family="Monaco,Monaco" font-size="49.5" fill="#FC4384" transform="matrix(1.00, 0.00, -0.00, -1.00, 238.8, 384.5)">r</text><text xml:space="preserve" font-family="Monaco,Monaco" font-size="49.5" fill="#FC4384" transform="matrix(1.00, 0.00, -0.00, -1.00, 268.5, 384.5)">e</text><text xml:space="preserve" font-family="Monaco,Monaco" font-size="49.5" fill="#FC4384" transform="matrix(1.00, 0.00, -0.00, -1.00, 298.2, 384.5)">t</text><text xml:space="preserve" font-family="Monaco,Monaco" font-size="49.5" fill="#FC4384" transform="matrix(1.00, 0.00, -0.00, -1.00, 327.9, 384.5)">u</text><text xml:space="preserve" font-family="Monaco,Monaco" font-size="49.5" fill="#FC4384" transform="matrix(1.00, 0.00, -0.00, -1.00, 357.7, 384.5)">r</text><text xml:space="preserve" font-family="Monaco,Monaco" font-size="49.5" fill="#FC4384" transform="matrix(1.00, 0.00, -0.00, -1.00, 387.4, 384.5)">n</text><text xml:space="preserve" font-family="Monaco,Monaco" font-size="49.5" fill="#000000" transform="matrix(1.00, 0.00, -0.00, -1.00, 417.0, 384.5)"> </text><text xml:space="preserve" font-family="Monaco,Monaco" font-size="49.5" fill="#F9F9F4" transform="matrix(1.00, 0.00, -0.00, -1.00, 446.8, 384.5)">c</text><text xml:space="preserve" font-family="Monaco,Monaco" font-size="49.5" fill="#F9F9F4" transform="matrix(1.00, 0.00, -0.00, -1.00, 476.5, 384.5)">o</text><text xml:space="preserve" font-family="Monaco,Monaco" font-size="49.5" fill="#F9F9F4" transform="matrix(1.00, 0.00, -0.00, -1.00, 506.2, 384.5)">n</text><text xml:space="preserve" font-family="Monaco,Monaco" font-size="49.5" fill="#F9F9F4" transform="matrix(1.00, 0.00, -0.00, -1.00, 535.9, 384.5)">t</text><text xml:space="preserve" font-family="Monaco,Monaco" font-size="49.5" fill="#F9F9F4" transform="matrix(1.00, 0.00, -0.00, -1.00, 565.6, 384.5)">e</text><text xml:space="preserve" font-family="Monaco,Monaco" font-size="49.5" fill="#F9F9F4" transform="matrix(1.00, 0.00, -0.00, -1.00, 595.3, 384.5)">n</text><text xml:space="preserve" font-family="Monaco,Monaco" font-size="49.5" fill="#F9F9F4" transform="matrix(1.00, 0.00, -0.00, -1.00, 625.0, 384.5)">t</text><text xml:space="preserve" font-family="Monaco,Monaco" font-size="49.5" fill="#F9F9F4" transform="matrix(1.00, 0.00, -0.00, -1.00, 654.7, 384.5)">s</text><text xml:space="preserve" font-family="Monaco,Monaco" font-size="49.5" fill="#F9F9F4" transform="matrix(1.00, 0.00, -0.00, -1.00, 684.4, 384.5)">.</text><text xml:space="preserve" font-family="Monaco,Monaco" font-size="49.5" fill="#13F7BA" transform="matrix(1.00, 0.00, -0.00, -1.00, 714.1, 384.5)">s</text><text xml:space="preserve" font-family="Monaco,Monaco" font-size="49.5" fill="#13F7BA" transform="matrix(1.00, 0.00, -0.00, -1.00, 743.8, 384.5)">p</text><text xml:space="preserve" font-family="Monaco,Monaco" font-size="49.5" fill="#13F7BA" transform="matrix(1.00, 0.00, -0.00, -1.00, 773.5, 384.5)">l</text><text xml:space="preserve" font-family="Monaco,Monaco" font-size="49.5" fill="#13F7BA" transform="matrix(1.00, 0.00, -0.00, -1.00, 803.2, 384.5)">i</text><text xml:space="preserve" font-family="Monaco,Monaco" font-size="49.5" fill="#13F7BA" transform="matrix(1.00, 0.00, -0.00, -1.00, 832.9, 384.5)">t</text><text xml:space="preserve" font-family="Monaco,Monaco" font-size="49.5" fill="#F9F9F4" transform="matrix(1.00, 0.00, -0.00, -1.00, 862.6, 384.5)">(</text><text xml:space="preserve" font-family="Monaco,Monaco" font-size="49.5" fill="#EBDF86" transform="matrix(1.00, 0.00, -0.00, -1.00, 892.3, 384.5)">"</text><text xml:space="preserve" font-family="Monaco,Monaco" font-size="49.5" fill="#75DFF2" transform="matrix(1.00, 0.00, -0.00, -1.00, 922.0, 384.5)">\</text><text xml:space="preserve" font-family="Monaco,Monaco" font-size="49.5" fill="#75DFF2" transform="matrix(1.00, 0.00, -0.00, -1.00, 951.7, 384.5)">n</text><text xml:space="preserve" font-family="Monaco,Monaco" font-size="49.5" fill="#EBDF86" transform="matrix(1.00, 0.00, -0.00, -1.00, 981.4, 384.5)">"</text><text xml:space="preserve" font-family="Monaco,Monaco" font-size="49.5" fill="#F9F9F4" transform="matrix(1.00, 0.00, -0.00, -1.00, 1011.1, 384.5)">)</text><text xml:space="preserve" font-family="Monaco,Monaco" font-size="49.5" fill="#F9F9F4" transform="matrix(1.00, 0.00, -0.00, -1.00, 1040.9, 384.5)">;</text><text xml:space="preserve" font-family="Monaco,Monaco" font-size="49.5" fill="#000000" transform="matrix(1.00, 0.00, -0.00, -1.00, 120.0, 318.5)"> </text><text xml:space="preserve" font-family="Monaco,Monaco" font-size="49.5" fill="#000000" transform="matrix(1.00, 0.00, -0.00, -1.00, 149.7, 318.5)"> </text><text xml:space="preserve" font-family="Monaco,Monaco" font-size="49.5" fill="#F9F9F4" transform="matrix(1.00, 0.00, -0.00, -1.00, 179.4, 318.5)">}</text><text xml:space="preserve" font-family="Monaco,Monaco" font-size="49.5" fill="#F9F9F4" transform="matrix(1.00, 0.00, -0.00, -1.00, 209.1, 318.5)">)</text><text xml:space="preserve" font-family="Monaco,Monaco" font-size="49.5" fill="#F9F9F4" transform="matrix(1.00, 0.00, -0.00, -1.00, 238.8, 318.5)">,</text><text xml:space="preserve" font-family="Monaco,Monaco" font-size="49.5" fill="#000000" transform="matrix(1.00, 0.00, -0.00, -1.00, 120.0, 252.5)"> </text><text xml:space="preserve" font-family="Monaco,Monaco" font-size="49.5" fill="#000000" transform="matrix(1.00, 0.00, -0.00, -1.00, 149.7, 252.5)"> </text><text xml:space="preserve" font-family="Monaco,Monaco" font-size="49.5" fill="#13F7BA" transform="matrix(1.00, 0.00, -0.00, -1.00, 179.4, 252.5)">f</text><text xml:space="preserve" font-family="Monaco,Monaco" font-size="49.5" fill="#13F7BA" transform="matrix(1.00, 0.00, -0.00, -1.00, 209.1, 252.5)">i</text><text xml:space="preserve" font-family="Monaco,Monaco" font-size="49.5" fill="#13F7BA" transform="matrix(1.00, 0.00, -0.00, -1.00, 238.8, 252.5)">l</text><text xml:space="preserve" font-family="Monaco,Monaco" font-size="49.5" fill="#13F7BA" transform="matrix(1.00, 0.00, -0.00, -1.00, 268.5, 252.5)">t</text><text xml:space="preserve" font-family="Monaco,Monaco" font-size="49.5" fill="#13F7BA" transform="matrix(1.00, 0.00, -0.00, -1.00, 298.2, 252.5)">e</text><text xml:space="preserve" font-family="Monaco,Monaco" font-size="49.5" fill="#13F7BA" transform="matrix(1.00, 0.00, -0.00, -1.00, 328.0, 252.5)">r</text><text xml:space="preserve" font-family="Monaco,Monaco" font-size="49.5" fill="#F9F9F4" transform="matrix(1.00, 0.00, -0.00, -1.00, 357.6, 252.5)">(</text><text xml:space="preserve" font-family="Monaco,Monaco" font-size="49.5" fill="#FC4384" transform="matrix(1.00, 0.00, -0.00, -1.00, 387.3, 252.5)">f</text><text xml:space="preserve" font-family="Monaco,Monaco" font-size="49.5" fill="#FC4384" transform="matrix(1.00, 0.00, -0.00, -1.00, 417.1, 252.5)">u</text><text xml:space="preserve" font-family="Monaco,Monaco" font-size="49.5" fill="#FC4384" transform="matrix(1.00, 0.00, -0.00, -1.00, 446.8, 252.5)">n</text><text xml:space="preserve" font-family="Monaco,Monaco" font-size="49.5" fill="#FC4384" transform="matrix(1.00, 0.00, -0.00, -1.00, 476.5, 252.5)">c</text><text xml:space="preserve" font-family="Monaco,Monaco" font-size="49.5" fill="#FC4384" transform="matrix(1.00, 0.00, -0.00, -1.00, 506.2, 252.5)">t</text><text xml:space="preserve" font-family="Monaco,Monaco" font-size="49.5" fill="#FC4384" transform="matrix(1.00, 0.00, -0.00, -1.00, 535.9, 252.5)">i</text><text xml:space="preserve" font-family="Monaco,Monaco" font-size="49.5" fill="#FC4384" transform="matrix(1.00, 0.00, -0.00, -1.00, 565.6, 252.5)">o</text><text xml:space="preserve" font-family="Monaco,Monaco" font-size="49.5" fill="#FC4384" transform="matrix(1.00, 0.00, -0.00, -1.00, 595.3, 252.5)">n</text><text xml:space="preserve" font-family="Monaco,Monaco" font-size="49.5" fill="#F9F9F4" transform="matrix(1.00, 0.00, -0.00, -1.00, 625.0, 252.5)">(</text><text xml:space="preserve" font-family="Monaco,Monaco" font-size="49.5" fill="#F9F9F4" transform="matrix(1.00, 0.00, -0.00, -1.00, 654.7, 252.5)">l</text><text xml:space="preserve" font-family="Monaco,Monaco" font-size="49.5" fill="#F9F9F4" transform="matrix(1.00, 0.00, -0.00, -1.00, 684.4, 252.5)">i</text><text xml:space="preserve" font-family="Monaco,Monaco" font-size="49.5" fill="#F9F9F4" transform="matrix(1.00, 0.00, -0.00, -1.00, 714.1, 252.5)">n</text><text xml:space="preserve" font-family="Monaco,Monaco" font-size="49.5" fill="#F9F9F4" transform="matrix(1.00, 0.00, -0.00, -1.00, 743.8, 252.5)">e</text><text xml:space="preserve" font-family="Monaco,Monaco" font-size="49.5" fill="#F9F9F4" transform="matrix(1.00, 0.00, -0.00, -1.00, 773.5, 252.5)">)</text><text xml:space="preserve" font-family="Monaco,Monaco" font-size="49.5" fill="#F9F9F4" transform="matrix(1.00, 0.00, -0.00, -1.00, 803.2, 252.5)"> </text><text xml:space="preserve" font-family="Monaco,Monaco" font-size="49.5" fill="#F9F9F4" transform="matrix(1.00, 0.00, -0.00, -1.00, 833.0, 252.5)">{</text><text xml:space="preserve" font-family="Monaco,Monaco" font-size="49.5" fill="#000000" transform="matrix(1.00, 0.00, -0.00, -1.00, 120.0, 186.5)"> </text><text xml:space="preserve" font-family="Monaco,Monaco" font-size="49.5" fill="#000000" transform="matrix(1.00, 0.00, -0.00, -1.00, 149.7, 186.5)"> </text><text xml:space="preserve" font-family="Monaco,Monaco" font-size="49.5" fill="#000000" transform="matrix(1.00, 0.00, -0.00, -1.00, 179.4, 186.5)"> </text><text xml:space="preserve" font-family="Monaco,Monaco" font-size="49.5" fill="#000000" transform="matrix(1.00, 0.00, -0.00, -1.00, 209.1, 186.5)"> </text><text xml:space="preserve" font-family="Monaco,Monaco" font-size="49.5" fill="#FC4384" transform="matrix(1.00, 0.00, -0.00, -1.00, 238.8, 186.5)">r</text><text xml:space="preserve" font-family="Monaco,Monaco" font-size="49.5" fill="#FC4384" transform="matrix(1.00, 0.00, -0.00, -1.00, 268.5, 186.5)">e</text><text xml:space="preserve" font-family="Monaco,Monaco" font-size="49.5" fill="#FC4384" transform="matrix(1.00, 0.00, -0.00, -1.00, 298.2, 186.5)">t</text><text xml:space="preserve" font-family="Monaco,Monaco" font-size="49.5" fill="#FC4384" transform="matrix(1.00, 0.00, -0.00, -1.00, 327.9, 186.5)">u</text><text xml:space="preserve" font-family="Monaco,Monaco" font-size="49.5" fill="#FC4384" transform="matrix(1.00, 0.00, -0.00, -1.00, 357.7, 186.5)">r</text><text xml:space="preserve" font-family="Monaco,Monaco" font-size="49.5" fill="#FC4384" transform="matrix(1.00, 0.00, -0.00, -1.00, 387.4, 186.5)">n</text><text xml:space="preserve" font-family="Monaco,Monaco" font-size="49.5" fill="#000000" transform="matrix(1.00, 0.00, -0.00, -1.00, 417.0, 186.5)"> </text><text xml:space="preserve" font-family="Monaco,Monaco" font-size="49.5" fill="#F9F9F4" transform="matrix(1.00, 0.00, -0.00, -1.00, 446.8, 186.5)">l</text><text xml:space="preserve" font-family="Monaco,Monaco" font-size="49.5" fill="#F9F9F4" transform="matrix(1.00, 0.00, -0.00, -1.00, 476.5, 186.5)">i</text><text xml:space="preserve" font-family="Monaco,Monaco" font-size="49.5" fill="#F9F9F4" transform="matrix(1.00, 0.00, -0.00, -1.00, 506.2, 186.5)">n</text><text xml:space="preserve" font-family="Monaco,Monaco" font-size="49.5" fill="#F9F9F4" transform="matrix(1.00, 0.00, -0.00, -1.00, 535.9, 186.5)">e</text><text xml:space="preserve" font-family="Monaco,Monaco" font-size="49.5" fill="#F9F9F4" transform="matrix(1.00, 0.00, -0.00, -1.00, 565.6, 186.5)">.</text><text xml:space="preserve" font-family="Monaco,Monaco" font-size="49.5" fill="#F9F9F4" transform="matrix(1.00, 0.00, -0.00, -1.00, 595.3, 186.5)">l</text><text xml:space="preserve" font-family="Monaco,Monaco" font-size="49.5" fill="#F9F9F4" transform="matrix(1.00, 0.00, -0.00, -1.00, 625.0, 186.5)">e</text><text xml:space="preserve" font-family="Monaco,Monaco" font-size="49.5" fill="#F9F9F4" transform="matrix(1.00, 0.00, -0.00, -1.00, 654.7, 186.5)">n</text><text xml:space="preserve" font-family="Monaco,Monaco" font-size="49.5" fill="#F9F9F4" transform="matrix(1.00, 0.00, -0.00, -1.00, 684.4, 186.5)">g</text><text xml:space="preserve" font-family="Monaco,Monaco" font-size="49.5" fill="#F9F9F4" transform="matrix(1.00, 0.00, -0.00, -1.00, 714.1, 186.5)">t</text><text xml:space="preserve" font-family="Monaco,Monaco" font-size="49.5" fill="#F9F9F4" transform="matrix(1.00, 0.00, -0.00, -1.00, 743.9, 186.5)">h</text><text xml:space="preserve" font-family="Monaco,Monaco" font-size="49.5" fill="#000000" transform="matrix(1.00, 0.00, -0.00, -1.00, 773.5, 186.5)"> </text><text xml:space="preserve" font-family="Monaco,Monaco" font-size="49.5" fill="#F9F9F4" transform="matrix(1.00, 0.00, -0.00, -1.00, 803.2, 186.5)">&gt;</text><text xml:space="preserve" font-family="Monaco,Monaco" font-size="49.5" fill="#000000" transform="matrix(1.00, 0.00, -0.00, -1.00, 832.9, 186.5)"> </text><text xml:space="preserve" font-family="Monaco,Monaco" font-size="49.5" fill="#BC99FF" transform="matrix(1.00, 0.00, -0.00, -1.00, 862.6, 186.5)">8</text><text xml:space="preserve" font-family="Monaco,Monaco" font-size="49.5" fill="#BC99FF" transform="matrix(1.00, 0.00, -0.00, -1.00, 892.3, 186.5)">0</text><text xml:space="preserve" font-family="Monaco,Monaco" font-size="49.5" fill="#F9F9F4" transform="matrix(1.00, 0.00, -0.00, -1.00, 922.0, 186.5)">;</text><text xml:space="preserve" font-family="Monaco,Monaco" font-size="49.5" fill="#000000" transform="matrix(1.00, 0.00, -0.00, -1.00, 120.0, 120.5)"> </text><text xml:space="preserve" font-family="Monaco,Monaco" font-size="49.5" fill="#000000" transform="matrix(1.00, 0.00, -0.00, -1.00, 149.7, 120.5)"> </text><text xml:space="preserve" font-family="Monaco,Monaco" font-size="49.5" fill="#F9F9F4" transform="matrix(1.00, 0.00, -0.00, -1.00, 179.4, 120.5)">}</text><text xml:space="preserve" font-family="Monaco,Monaco" font-size="49.5" fill="#F9F9F4" transform="matrix(1.00, 0.00, -0.00, -1.00, 209.1, 120.5)">)</text><text xml:space="preserve" font-family="Monaco,Monaco" font-size="49.5" fill="#F9F9F4" transform="matrix(1.00, 0.00, -0.00, -1.00, 120.0, 54.5)">)</text><text xml:space="preserve" font-family="Monaco,Monaco" font-size="49.5" fill="#F9F9F4" transform="matrix(1.00, 0.00, -0.00, -1.00, 149.7, 54.5)">;</text></g></svg>