<?xml version="1.0" encoding="UTF-8" standalone="no"?><svg xmlns="http://www.w3.org/2000/svg" xmlns:xlink="http://www.w3.org/1999/xlink" clip-rule="evenodd" stroke-miterlimit="10" viewBox="0 0 1920 1080"><desc>SVG generated by Keynote</desc><defs></defs><g transform="matrix(1.00, 0.00, -0.00, -1.00, 0.0, 1080.0)"><g><clipPath id="clip0x7fe4283bbcc0"><path d="M 0.0 1080.0 L 1920.0 1080.0 L 1920.0 0.0 L 0.0 0.0 Z M 0.0 1080.0 "></path></clipPath><g clip-path="url(#clip0x7fe4283bbcc0)"><image xlink:href="../../EAAA0B26-26D2-4E6F-B71B-738E9DFC302E/assets/0F43D2572F34A9AFB59E4515ED9A1249.jpeg" width="3840.00" height="2160.00" transform="matrix(0.50, 0.00, -0.00, -0.50, 0.0, 1080.0)"></image></g></g><image xlink:href="../../41BB162D-1C4B-4A08-9AA5-F3CD3FD05BCD/assets/5E3B30BBEB39731F56D97D16D9680B09.png" width="411.00" height="82.00" transform="matrix(1.00, 0.00, -0.00, -1.00, 123.0, 952.0)"></image><text xml:space="preserve" font-family="HelveticaNeue-Light,Helvetica Neue" font-size="100.0" fill="#FEFFFE" transform="matrix(1.00, 0.00, -0.00, -1.00, 120.0, 879.2)">R</text><text xml:space="preserve" font-family="HelveticaNeue-Light,Helvetica Neue" font-size="100.0" fill="#FEFFFE" transform="matrix(1.00, 0.00, -0.00, -1.00, 186.7, 879.2)">e</text><text xml:space="preserve" font-family="HelveticaNeue-Light,Helvetica Neue" font-size="100.0" fill="#FEFFFE" transform="matrix(1.00, 0.00, -0.00, -1.00, 238.6, 879.2)">d</text><text xml:space="preserve" font-family="HelveticaNeue-Light,Helvetica Neue" font-size="100.0" fill="#FEFFFE" transform="matrix(1.00, 0.00, -0.00, -1.00, 296.0, 879.2)">u</text><text xml:space="preserve" font-family="HelveticaNeue-Light,Helvetica Neue" font-size="100.0" fill="#FEFFFE" transform="matrix(1.00, 0.00, -0.00, -1.00, 349.7, 879.2)">c</text><text xml:space="preserve" font-family="HelveticaNeue-Light,Helvetica Neue" font-size="100.0" fill="#FEFFFE" transform="matrix(1.00, 0.00, -0.00, -1.00, 401.6, 879.2)">e</text><text xml:space="preserve" font-family="HelveticaNeue-Light,Helvetica Neue" font-size="100.0" fill="#FEFFFE" transform="matrix(1.00, 0.00, -0.00, -1.00, 453.5, 879.2)">r</text><text xml:space="preserve" font-family="HelveticaNeue-Light,Helvetica Neue" font-size="100.0" fill="#FEFFFE" transform="matrix(1.00, 0.00, -0.00, -1.00, 485.0, 879.2)">s</text><text xml:space="preserve" font-family="Monaco,Monaco" font-size="42.0" fill="#FC4384" transform="matrix(1.00, 0.00, -0.00, -1.00, 120.0, 725.0)">v</text><text xml:space="preserve" font-family="Monaco,Monaco" font-size="42.0" fill="#FC4384" transform="matrix(1.00, 0.00, -0.00, -1.00, 145.2, 725.0)">a</text><text xml:space="preserve" font-family="Monaco,Monaco" font-size="42.0" fill="#FC4384" transform="matrix(1.00, 0.00, -0.00, -1.00, 170.4, 725.0)">r</text><text xml:space="preserve" font-family="Monaco,Monaco" font-size="42.0" fill="#000000" transform="matrix(1.00, 0.00, -0.00, -1.00, 195.6, 725.0)"> </text><text xml:space="preserve" font-family="Monaco,Monaco" font-size="42.0" fill="#F9F9F4" transform="matrix(1.00, 0.00, -0.00, -1.00, 220.8, 725.0)">m</text><text xml:space="preserve" font-family="Monaco,Monaco" font-size="42.0" fill="#F9F9F4" transform="matrix(1.00, 0.00, -0.00, -1.00, 246.0, 725.0)">a</text><text xml:space="preserve" font-family="Monaco,Monaco" font-size="42.0" fill="#F9F9F4" transform="matrix(1.00, 0.00, -0.00, -1.00, 271.2, 725.0)">p</text><text xml:space="preserve" font-family="Monaco,Monaco" font-size="42.0" fill="#000000" transform="matrix(1.00, 0.00, -0.00, -1.00, 296.4, 725.0)"> </text><text xml:space="preserve" font-family="Monaco,Monaco" font-size="42.0" fill="#F9F9F4" transform="matrix(1.00, 0.00, -0.00, -1.00, 321.6, 725.0)">=</text><text xml:space="preserve" font-family="Monaco,Monaco" font-size="42.0" fill="#000000" transform="matrix(1.00, 0.00, -0.00, -1.00, 346.8, 725.0)"> </text><text xml:space="preserve" font-family="Monaco,Monaco" font-size="42.0" fill="#FC4384" transform="matrix(1.00, 0.00, -0.00, -1.00, 372.0, 725.0)">f</text><text xml:space="preserve" font-family="Monaco,Monaco" font-size="42.0" fill="#FC4384" transform="matrix(1.00, 0.00, -0.00, -1.00, 397.2, 725.0)">u</text><text xml:space="preserve" font-family="Monaco,Monaco" font-size="42.0" fill="#FC4384" transform="matrix(1.00, 0.00, -0.00, -1.00, 422.5, 725.0)">n</text><text xml:space="preserve" font-family="Monaco,Monaco" font-size="42.0" fill="#FC4384" transform="matrix(1.00, 0.00, -0.00, -1.00, 447.7, 725.0)">c</text><text xml:space="preserve" font-family="Monaco,Monaco" font-size="42.0" fill="#FC4384" transform="matrix(1.00, 0.00, -0.00, -1.00, 472.9, 725.0)">t</text><text xml:space="preserve" font-family="Monaco,Monaco" font-size="42.0" fill="#FC4384" transform="matrix(1.00, 0.00, -0.00, -1.00, 498.1, 725.0)">i</text><text xml:space="preserve" font-family="Monaco,Monaco" font-size="42.0" fill="#FC4384" transform="matrix(1.00, 0.00, -0.00, -1.00, 523.3, 725.0)">o</text><text xml:space="preserve" font-family="Monaco,Monaco" font-size="42.0" fill="#FC4384" transform="matrix(1.00, 0.00, -0.00, -1.00, 548.5, 725.0)">n</text><text xml:space="preserve" font-family="Monaco,Monaco" font-size="42.0" fill="#F9F9F4" transform="matrix(1.00, 0.00, -0.00, -1.00, 573.7, 725.0)">(</text><text xml:space="preserve" font-family="Monaco,Monaco" font-size="42.0" fill="#F9F9F4" transform="matrix(1.00, 0.00, -0.00, -1.00, 598.9, 725.0)">f</text><text xml:space="preserve" font-family="Monaco,Monaco" font-size="42.0" fill="#F9F9F4" transform="matrix(1.00, 0.00, -0.00, -1.00, 624.1, 725.0)">n</text><text xml:space="preserve" font-family="Monaco,Monaco" font-size="42.0" fill="#F9F9F4" transform="matrix(1.00, 0.00, -0.00, -1.00, 649.3, 725.0)">,</text><text xml:space="preserve" font-family="Monaco,Monaco" font-size="42.0" fill="#000000" transform="matrix(1.00, 0.00, -0.00, -1.00, 674.5, 725.0)"> </text><text xml:space="preserve" font-family="Monaco,Monaco" font-size="42.0" fill="#F9F9F4" transform="matrix(1.00, 0.00, -0.00, -1.00, 699.7, 725.0)">c</text><text xml:space="preserve" font-family="Monaco,Monaco" font-size="42.0" fill="#F9F9F4" transform="matrix(1.00, 0.00, -0.00, -1.00, 724.9, 725.0)">o</text><text xml:space="preserve" font-family="Monaco,Monaco" font-size="42.0" fill="#F9F9F4" transform="matrix(1.00, 0.00, -0.00, -1.00, 750.1, 725.0)">l</text><text xml:space="preserve" font-family="Monaco,Monaco" font-size="42.0" fill="#F9F9F4" transform="matrix(1.00, 0.00, -0.00, -1.00, 775.3, 725.0)">l</text><text xml:space="preserve" font-family="Monaco,Monaco" font-size="42.0" fill="#F9F9F4" transform="matrix(1.00, 0.00, -0.00, -1.00, 800.5, 725.0)">)</text><text xml:space="preserve" font-family="Monaco,Monaco" font-size="42.0" fill="#F9F9F4" transform="matrix(1.00, 0.00, -0.00, -1.00, 825.7, 725.0)"> </text><text xml:space="preserve" font-family="Monaco,Monaco" font-size="42.0" fill="#F9F9F4" transform="matrix(1.00, 0.00, -0.00, -1.00, 850.9, 725.0)">{</text><text xml:space="preserve" font-family="Monaco,Monaco" font-size="42.0" fill="#000000" transform="matrix(1.00, 0.00, -0.00, -1.00, 120.0, 668.0)"> </text><text xml:space="preserve" font-family="Monaco,Monaco" font-size="42.0" fill="#000000" transform="matrix(1.00, 0.00, -0.00, -1.00, 145.2, 668.0)"> </text><text xml:space="preserve" font-family="Monaco,Monaco" font-size="42.0" fill="#FC4384" transform="matrix(1.00, 0.00, -0.00, -1.00, 170.4, 668.0)">r</text><text xml:space="preserve" font-family="Monaco,Monaco" font-size="42.0" fill="#FC4384" transform="matrix(1.00, 0.00, -0.00, -1.00, 195.6, 668.0)">e</text><text xml:space="preserve" font-family="Monaco,Monaco" font-size="42.0" fill="#FC4384" transform="matrix(1.00, 0.00, -0.00, -1.00, 220.8, 668.0)">t</text><text xml:space="preserve" font-family="Monaco,Monaco" font-size="42.0" fill="#FC4384" transform="matrix(1.00, 0.00, -0.00, -1.00, 246.0, 668.0)">u</text><text xml:space="preserve" font-family="Monaco,Monaco" font-size="42.0" fill="#FC4384" transform="matrix(1.00, 0.00, -0.00, -1.00, 271.2, 668.0)">r</text><text xml:space="preserve" font-family="Monaco,Monaco" font-size="42.0" fill="#FC4384" transform="matrix(1.00, 0.00, -0.00, -1.00, 296.4, 668.0)">n</text><text xml:space="preserve" font-family="Monaco,Monaco" font-size="42.0" fill="#000000" transform="matrix(1.00, 0.00, -0.00, -1.00, 321.6, 668.0)"> </text><text xml:space="preserve" font-family="Monaco,Monaco" font-size="42.0" fill="#F9F9F4" transform="matrix(1.00, 0.00, -0.00, -1.00, 346.8, 668.0)">{</text><text xml:space="preserve" font-family="Monaco,Monaco" font-size="42.0" fill="#000000" transform="matrix(1.00, 0.00, -0.00, -1.00, 372.0, 668.0)"> </text><text xml:space="preserve" font-family="Monaco,Monaco" font-size="42.0" fill="#F9F9F4" transform="matrix(1.00, 0.00, -0.00, -1.00, 397.2, 668.0)">f</text><text xml:space="preserve" font-family="Monaco,Monaco" font-size="42.0" fill="#F9F9F4" transform="matrix(1.00, 0.00, -0.00, -1.00, 422.5, 668.0)">n</text><text xml:space="preserve" font-family="Monaco,Monaco" font-size="42.0" fill="#F9F9F4" transform="matrix(1.00, 0.00, -0.00, -1.00, 447.7, 668.0)">:</text><text xml:space="preserve" font-family="Monaco,Monaco" font-size="42.0" fill="#000000" transform="matrix(1.00, 0.00, -0.00, -1.00, 472.9, 668.0)"> </text><text xml:space="preserve" font-family="Monaco,Monaco" font-size="42.0" fill="#F9F9F4" transform="matrix(1.00, 0.00, -0.00, -1.00, 498.1, 668.0)">f</text><text xml:space="preserve" font-family="Monaco,Monaco" font-size="42.0" fill="#F9F9F4" transform="matrix(1.00, 0.00, -0.00, -1.00, 523.3, 668.0)">n</text><text xml:space="preserve" font-family="Monaco,Monaco" font-size="42.0" fill="#F9F9F4" transform="matrix(1.00, 0.00, -0.00, -1.00, 548.5, 668.0)">,</text><text xml:space="preserve" font-family="Monaco,Monaco" font-size="42.0" fill="#000000" transform="matrix(1.00, 0.00, -0.00, -1.00, 573.7, 668.0)"> </text><text xml:space="preserve" font-family="Monaco,Monaco" font-size="42.0" fill="#F9F9F4" transform="matrix(1.00, 0.00, -0.00, -1.00, 598.9, 668.0)">c</text><text xml:space="preserve" font-family="Monaco,Monaco" font-size="42.0" fill="#F9F9F4" transform="matrix(1.00, 0.00, -0.00, -1.00, 624.1, 668.0)">o</text><text xml:space="preserve" font-family="Monaco,Monaco" font-size="42.0" fill="#F9F9F4" transform="matrix(1.00, 0.00, -0.00, -1.00, 649.3, 668.0)">l</text><text xml:space="preserve" font-family="Monaco,Monaco" font-size="42.0" fill="#F9F9F4" transform="matrix(1.00, 0.00, -0.00, -1.00, 674.5, 668.0)">l</text><text xml:space="preserve" font-family="Monaco,Monaco" font-size="42.0" fill="#F9F9F4" transform="matrix(1.00, 0.00, -0.00, -1.00, 699.7, 668.0)">:</text><text xml:space="preserve" font-family="Monaco,Monaco" font-size="42.0" fill="#000000" transform="matrix(1.00, 0.00, -0.00, -1.00, 724.9, 668.0)"> </text><text xml:space="preserve" font-family="Monaco,Monaco" font-size="42.0" fill="#F9F9F4" transform="matrix(1.00, 0.00, -0.00, -1.00, 750.1, 668.0)">c</text><text xml:space="preserve" font-family="Monaco,Monaco" font-size="42.0" fill="#F9F9F4" transform="matrix(1.00, 0.00, -0.00, -1.00, 775.3, 668.0)">o</text><text xml:space="preserve" font-family="Monaco,Monaco" font-size="42.0" fill="#F9F9F4" transform="matrix(1.00, 0.00, -0.00, -1.00, 800.5, 668.0)">l</text><text xml:space="preserve" font-family="Monaco,Monaco" font-size="42.0" fill="#F9F9F4" transform="matrix(1.00, 0.00, -0.00, -1.00, 825.7, 668.0)">l</text><text xml:space="preserve" font-family="Monaco,Monaco" font-size="42.0" fill="#000000" transform="matrix(1.00, 0.00, -0.00, -1.00, 850.9, 668.0)"> </text><text xml:space="preserve" font-family="Monaco,Monaco" font-size="42.0" fill="#F9F9F4" transform="matrix(1.00, 0.00, -0.00, -1.00, 876.1, 668.0)">}</text><text xml:space="preserve" font-family="Monaco,Monaco" font-size="42.0" fill="#F9F9F4" transform="matrix(1.00, 0.00, -0.00, -1.00, 901.3, 668.0)">;</text><text xml:space="preserve" font-family="Monaco,Monaco" font-size="42.0" fill="#F9F9F4" transform="matrix(1.00, 0.00, -0.00, -1.00, 120.0, 611.0)">}</text><text xml:space="preserve" font-family="Monaco,Monaco" font-size="42.0" fill="#F9F9F4" transform="matrix(1.00, 0.00, -0.00, -1.00, 145.2, 611.0)">;</text><text xml:space="preserve" font-family="Monaco,Monaco" font-size="42.0" fill="#FC4384" transform="matrix(1.00, 0.00, -0.00, -1.00, 120.0, 554.0)">v</text><text xml:space="preserve" font-family="Monaco,Monaco" font-size="42.0" fill="#FC4384" transform="matrix(1.00, 0.00, -0.00, -1.00, 145.2, 554.0)">a</text><text xml:space="preserve" font-family="Monaco,Monaco" font-size="42.0" fill="#FC4384" transform="matrix(1.00, 0.00, -0.00, -1.00, 170.4, 554.0)">r</text><text xml:space="preserve" font-family="Monaco,Monaco" font-size="42.0" fill="#000000" transform="matrix(1.00, 0.00, -0.00, -1.00, 195.6, 554.0)"> </text><text xml:space="preserve" font-family="Monaco,Monaco" font-size="42.0" fill="#F9F9F4" transform="matrix(1.00, 0.00, -0.00, -1.00, 220.8, 554.0)">r</text><text xml:space="preserve" font-family="Monaco,Monaco" font-size="42.0" fill="#F9F9F4" transform="matrix(1.00, 0.00, -0.00, -1.00, 246.0, 554.0)">e</text><text xml:space="preserve" font-family="Monaco,Monaco" font-size="42.0" fill="#F9F9F4" transform="matrix(1.00, 0.00, -0.00, -1.00, 271.2, 554.0)">d</text><text xml:space="preserve" font-family="Monaco,Monaco" font-size="42.0" fill="#F9F9F4" transform="matrix(1.00, 0.00, -0.00, -1.00, 296.4, 554.0)">u</text><text xml:space="preserve" font-family="Monaco,Monaco" font-size="42.0" fill="#F9F9F4" transform="matrix(1.00, 0.00, -0.00, -1.00, 321.6, 554.0)">c</text><text xml:space="preserve" font-family="Monaco,Monaco" font-size="42.0" fill="#F9F9F4" transform="matrix(1.00, 0.00, -0.00, -1.00, 346.9, 554.0)">e</text><text xml:space="preserve" font-family="Monaco,Monaco" font-size="42.0" fill="#000000" transform="matrix(1.00, 0.00, -0.00, -1.00, 372.0, 554.0)"> </text><text xml:space="preserve" font-family="Monaco,Monaco" font-size="42.0" fill="#F9F9F4" transform="matrix(1.00, 0.00, -0.00, -1.00, 397.2, 554.0)">=</text><text xml:space="preserve" font-family="Monaco,Monaco" font-size="42.0" fill="#000000" transform="matrix(1.00, 0.00, -0.00, -1.00, 422.4, 554.0)"> </text><text xml:space="preserve" font-family="Monaco,Monaco" font-size="42.0" fill="#FC4384" transform="matrix(1.00, 0.00, -0.00, -1.00, 447.7, 554.0)">f</text><text xml:space="preserve" font-family="Monaco,Monaco" font-size="42.0" fill="#FC4384" transform="matrix(1.00, 0.00, -0.00, -1.00, 472.9, 554.0)">u</text><text xml:space="preserve" font-family="Monaco,Monaco" font-size="42.0" fill="#FC4384" transform="matrix(1.00, 0.00, -0.00, -1.00, 498.1, 554.0)">n</text><text xml:space="preserve" font-family="Monaco,Monaco" font-size="42.0" fill="#FC4384" transform="matrix(1.00, 0.00, -0.00, -1.00, 523.3, 554.0)">c</text><text xml:space="preserve" font-family="Monaco,Monaco" font-size="42.0" fill="#FC4384" transform="matrix(1.00, 0.00, -0.00, -1.00, 548.5, 554.0)">t</text><text xml:space="preserve" font-family="Monaco,Monaco" font-size="42.0" fill="#FC4384" transform="matrix(1.00, 0.00, -0.00, -1.00, 573.7, 554.0)">i</text><text xml:space="preserve" font-family="Monaco,Monaco" font-size="42.0" fill="#FC4384" transform="matrix(1.00, 0.00, -0.00, -1.00, 598.9, 554.0)">o</text><text xml:space="preserve" font-family="Monaco,Monaco" font-size="42.0" fill="#FC4384" transform="matrix(1.00, 0.00, -0.00, -1.00, 624.1, 554.0)">n</text><text xml:space="preserve" font-family="Monaco,Monaco" font-size="42.0" fill="#F9F9F4" transform="matrix(1.00, 0.00, -0.00, -1.00, 649.3, 554.0)">(</text><text xml:space="preserve" font-family="Monaco,Monaco" font-size="42.0" fill="#F9F9F4" transform="matrix(1.00, 0.00, -0.00, -1.00, 674.5, 554.0)">s</text><text xml:space="preserve" font-family="Monaco,Monaco" font-size="42.0" fill="#F9F9F4" transform="matrix(1.00, 0.00, -0.00, -1.00, 699.7, 554.0)">t</text><text xml:space="preserve" font-family="Monaco,Monaco" font-size="42.0" fill="#F9F9F4" transform="matrix(1.00, 0.00, -0.00, -1.00, 724.9, 554.0)">e</text><text xml:space="preserve" font-family="Monaco,Monaco" font-size="42.0" fill="#F9F9F4" transform="matrix(1.00, 0.00, -0.00, -1.00, 750.1, 554.0)">p</text><text xml:space="preserve" font-family="Monaco,Monaco" font-size="42.0" fill="#F9F9F4" transform="matrix(1.00, 0.00, -0.00, -1.00, 775.3, 554.0)">,</text><text xml:space="preserve" font-family="Monaco,Monaco" font-size="42.0" fill="#000000" transform="matrix(1.00, 0.00, -0.00, -1.00, 800.5, 554.0)"> </text><text xml:space="preserve" font-family="Monaco,Monaco" font-size="42.0" fill="#F9F9F4" transform="matrix(1.00, 0.00, -0.00, -1.00, 825.7, 554.0)">i</text><text xml:space="preserve" font-family="Monaco,Monaco" font-size="42.0" fill="#F9F9F4" transform="matrix(1.00, 0.00, -0.00, -1.00, 850.9, 554.0)">n</text><text xml:space="preserve" font-family="Monaco,Monaco" font-size="42.0" fill="#F9F9F4" transform="matrix(1.00, 0.00, -0.00, -1.00, 876.1, 554.0)">i</text><text xml:space="preserve" font-family="Monaco,Monaco" font-size="42.0" fill="#F9F9F4" transform="matrix(1.00, 0.00, -0.00, -1.00, 901.3, 554.0)">t</text><text xml:space="preserve" font-family="Monaco,Monaco" font-size="42.0" fill="#F9F9F4" transform="matrix(1.00, 0.00, -0.00, -1.00, 926.5, 554.0)">i</text><text xml:space="preserve" font-family="Monaco,Monaco" font-size="42.0" fill="#F9F9F4" transform="matrix(1.00, 0.00, -0.00, -1.00, 951.8, 554.0)">a</text><text xml:space="preserve" font-family="Monaco,Monaco" font-size="42.0" fill="#F9F9F4" transform="matrix(1.00, 0.00, -0.00, -1.00, 977.0, 554.0)">l</text><text xml:space="preserve" font-family="Monaco,Monaco" font-size="42.0" fill="#F9F9F4" transform="matrix(1.00, 0.00, -0.00, -1.00, 1002.2, 554.0)">,</text><text xml:space="preserve" font-family="Monaco,Monaco" font-size="42.0" fill="#000000" transform="matrix(1.00, 0.00, -0.00, -1.00, 1027.3, 554.0)"> </text><text xml:space="preserve" font-family="Monaco,Monaco" font-size="42.0" fill="#F9F9F4" transform="matrix(1.00, 0.00, -0.00, -1.00, 1052.6, 554.0)">t</text><text xml:space="preserve" font-family="Monaco,Monaco" font-size="42.0" fill="#F9F9F4" transform="matrix(1.00, 0.00, -0.00, -1.00, 1077.8, 554.0)">r</text><text xml:space="preserve" font-family="Monaco,Monaco" font-size="42.0" fill="#F9F9F4" transform="matrix(1.00, 0.00, -0.00, -1.00, 1103.0, 554.0)">a</text><text xml:space="preserve" font-family="Monaco,Monaco" font-size="42.0" fill="#F9F9F4" transform="matrix(1.00, 0.00, -0.00, -1.00, 1128.2, 554.0)">n</text><text xml:space="preserve" font-family="Monaco,Monaco" font-size="42.0" fill="#F9F9F4" transform="matrix(1.00, 0.00, -0.00, -1.00, 1153.4, 554.0)">s</text><text xml:space="preserve" font-family="Monaco,Monaco" font-size="42.0" fill="#F9F9F4" transform="matrix(1.00, 0.00, -0.00, -1.00, 1178.6, 554.0)">f</text><text xml:space="preserve" font-family="Monaco,Monaco" font-size="42.0" fill="#F9F9F4" transform="matrix(1.00, 0.00, -0.00, -1.00, 1203.8, 554.0)">o</text><text xml:space="preserve" font-family="Monaco,Monaco" font-size="42.0" fill="#F9F9F4" transform="matrix(1.00, 0.00, -0.00, -1.00, 1229.0, 554.0)">r</text><text xml:space="preserve" font-family="Monaco,Monaco" font-size="42.0" fill="#F9F9F4" transform="matrix(1.00, 0.00, -0.00, -1.00, 1254.2, 554.0)">m</text><text xml:space="preserve" font-family="Monaco,Monaco" font-size="42.0" fill="#F9F9F4" transform="matrix(1.00, 0.00, -0.00, -1.00, 1279.4, 554.0)">R</text><text xml:space="preserve" font-family="Monaco,Monaco" font-size="42.0" fill="#F9F9F4" transform="matrix(1.00, 0.00, -0.00, -1.00, 1304.6, 554.0)">e</text><text xml:space="preserve" font-family="Monaco,Monaco" font-size="42.0" fill="#F9F9F4" transform="matrix(1.00, 0.00, -0.00, -1.00, 1329.8, 554.0)">s</text><text xml:space="preserve" font-family="Monaco,Monaco" font-size="42.0" fill="#F9F9F4" transform="matrix(1.00, 0.00, -0.00, -1.00, 1355.1, 554.0)">u</text><text xml:space="preserve" font-family="Monaco,Monaco" font-size="42.0" fill="#F9F9F4" transform="matrix(1.00, 0.00, -0.00, -1.00, 1380.3, 554.0)">l</text><text xml:space="preserve" font-family="Monaco,Monaco" font-size="42.0" fill="#F9F9F4" transform="matrix(1.00, 0.00, -0.00, -1.00, 1405.5, 554.0)">t</text><text xml:space="preserve" font-family="Monaco,Monaco" font-size="42.0" fill="#F9F9F4" transform="matrix(1.00, 0.00, -0.00, -1.00, 1430.7, 554.0)">)</text><text xml:space="preserve" font-family="Monaco,Monaco" font-size="42.0" fill="#F9F9F4" transform="matrix(1.00, 0.00, -0.00, -1.00, 1455.9, 554.0)"> </text><text xml:space="preserve" font-family="Monaco,Monaco" font-size="42.0" fill="#F9F9F4" transform="matrix(1.00, 0.00, -0.00, -1.00, 1481.1, 554.0)">{</text><text xml:space="preserve" font-family="Monaco,Monaco" font-size="42.0" fill="#000000" transform="matrix(1.00, 0.00, -0.00, -1.00, 120.0, 497.0)"> </text><text xml:space="preserve" font-family="Monaco,Monaco" font-size="42.0" fill="#000000" transform="matrix(1.00, 0.00, -0.00, -1.00, 145.2, 497.0)"> </text><text xml:space="preserve" font-family="Monaco,Monaco" font-size="42.0" fill="#FC4384" transform="matrix(1.00, 0.00, -0.00, -1.00, 170.4, 497.0)">v</text><text xml:space="preserve" font-family="Monaco,Monaco" font-size="42.0" fill="#FC4384" transform="matrix(1.00, 0.00, -0.00, -1.00, 195.6, 497.0)">a</text><text xml:space="preserve" font-family="Monaco,Monaco" font-size="42.0" fill="#FC4384" transform="matrix(1.00, 0.00, -0.00, -1.00, 220.8, 497.0)">r</text><text xml:space="preserve" font-family="Monaco,Monaco" font-size="42.0" fill="#000000" transform="matrix(1.00, 0.00, -0.00, -1.00, 246.0, 497.0)"> </text><text xml:space="preserve" font-family="Monaco,Monaco" font-size="42.0" fill="#F9F9F4" transform="matrix(1.00, 0.00, -0.00, -1.00, 271.2, 497.0)">c</text><text xml:space="preserve" font-family="Monaco,Monaco" font-size="42.0" fill="#F9F9F4" transform="matrix(1.00, 0.00, -0.00, -1.00, 296.4, 497.0)">o</text><text xml:space="preserve" font-family="Monaco,Monaco" font-size="42.0" fill="#F9F9F4" transform="matrix(1.00, 0.00, -0.00, -1.00, 321.6, 497.0)">l</text><text xml:space="preserve" font-family="Monaco,Monaco" font-size="42.0" fill="#F9F9F4" transform="matrix(1.00, 0.00, -0.00, -1.00, 346.8, 497.0)">l</text><text xml:space="preserve" font-family="Monaco,Monaco" font-size="42.0" fill="#000000" transform="matrix(1.00, 0.00, -0.00, -1.00, 372.0, 497.0)"> </text><text xml:space="preserve" font-family="Monaco,Monaco" font-size="42.0" fill="#F9F9F4" transform="matrix(1.00, 0.00, -0.00, -1.00, 397.2, 497.0)">=</text><text xml:space="preserve" font-family="Monaco,Monaco" font-size="42.0" fill="#000000" transform="matrix(1.00, 0.00, -0.00, -1.00, 422.4, 497.0)"> </text><text xml:space="preserve" font-family="Monaco,Monaco" font-size="42.0" fill="#F9F9F4" transform="matrix(1.00, 0.00, -0.00, -1.00, 447.7, 497.0)">t</text><text xml:space="preserve" font-family="Monaco,Monaco" font-size="42.0" fill="#F9F9F4" transform="matrix(1.00, 0.00, -0.00, -1.00, 472.9, 497.0)">r</text><text xml:space="preserve" font-family="Monaco,Monaco" font-size="42.0" fill="#F9F9F4" transform="matrix(1.00, 0.00, -0.00, -1.00, 498.1, 497.0)">a</text><text xml:space="preserve" font-family="Monaco,Monaco" font-size="42.0" fill="#F9F9F4" transform="matrix(1.00, 0.00, -0.00, -1.00, 523.3, 497.0)">n</text><text xml:space="preserve" font-family="Monaco,Monaco" font-size="42.0" fill="#F9F9F4" transform="matrix(1.00, 0.00, -0.00, -1.00, 548.5, 497.0)">s</text><text xml:space="preserve" font-family="Monaco,Monaco" font-size="42.0" fill="#F9F9F4" transform="matrix(1.00, 0.00, -0.00, -1.00, 573.7, 497.0)">f</text><text xml:space="preserve" font-family="Monaco,Monaco" font-size="42.0" fill="#F9F9F4" transform="matrix(1.00, 0.00, -0.00, -1.00, 598.9, 497.0)">o</text><text xml:space="preserve" font-family="Monaco,Monaco" font-size="42.0" fill="#F9F9F4" transform="matrix(1.00, 0.00, -0.00, -1.00, 624.1, 497.0)">r</text><text xml:space="preserve" font-family="Monaco,Monaco" font-size="42.0" fill="#F9F9F4" transform="matrix(1.00, 0.00, -0.00, -1.00, 649.3, 497.0)">m</text><text xml:space="preserve" font-family="Monaco,Monaco" font-size="42.0" fill="#F9F9F4" transform="matrix(1.00, 0.00, -0.00, -1.00, 674.5, 497.0)">R</text><text xml:space="preserve" font-family="Monaco,Monaco" font-size="42.0" fill="#F9F9F4" transform="matrix(1.00, 0.00, -0.00, -1.00, 699.7, 497.0)">e</text><text xml:space="preserve" font-family="Monaco,Monaco" font-size="42.0" fill="#F9F9F4" transform="matrix(1.00, 0.00, -0.00, -1.00, 724.9, 497.0)">s</text><text xml:space="preserve" font-family="Monaco,Monaco" font-size="42.0" fill="#F9F9F4" transform="matrix(1.00, 0.00, -0.00, -1.00, 750.2, 497.0)">u</text><text xml:space="preserve" font-family="Monaco,Monaco" font-size="42.0" fill="#F9F9F4" transform="matrix(1.00, 0.00, -0.00, -1.00, 775.4, 497.0)">l</text><text xml:space="preserve" font-family="Monaco,Monaco" font-size="42.0" fill="#F9F9F4" transform="matrix(1.00, 0.00, -0.00, -1.00, 800.6, 497.0)">t</text><text xml:space="preserve" font-family="Monaco,Monaco" font-size="42.0" fill="#F9F9F4" transform="matrix(1.00, 0.00, -0.00, -1.00, 825.8, 497.0)">.</text><text xml:space="preserve" font-family="Monaco,Monaco" font-size="42.0" fill="#F9F9F4" transform="matrix(1.00, 0.00, -0.00, -1.00, 851.0, 497.0)">c</text><text xml:space="preserve" font-family="Monaco,Monaco" font-size="42.0" fill="#F9F9F4" transform="matrix(1.00, 0.00, -0.00, -1.00, 876.2, 497.0)">o</text><text xml:space="preserve" font-family="Monaco,Monaco" font-size="42.0" fill="#F9F9F4" transform="matrix(1.00, 0.00, -0.00, -1.00, 901.4, 497.0)">l</text><text xml:space="preserve" font-family="Monaco,Monaco" font-size="42.0" fill="#F9F9F4" transform="matrix(1.00, 0.00, -0.00, -1.00, 926.6, 497.0)">l</text><text xml:space="preserve" font-family="Monaco,Monaco" font-size="42.0" fill="#F9F9F4" transform="matrix(1.00, 0.00, -0.00, -1.00, 951.8, 497.0)">;</text><text xml:space="preserve" font-family="Monaco,Monaco" font-size="42.0" fill="#000000" transform="matrix(1.00, 0.00, -0.00, -1.00, 120.0, 440.0)"> </text><text xml:space="preserve" font-family="Monaco,Monaco" font-size="42.0" fill="#000000" transform="matrix(1.00, 0.00, -0.00, -1.00, 145.2, 440.0)"> </text><text xml:space="preserve" font-family="Monaco,Monaco" font-size="42.0" fill="#FC4384" transform="matrix(1.00, 0.00, -0.00, -1.00, 170.4, 440.0)">v</text><text xml:space="preserve" font-family="Monaco,Monaco" font-size="42.0" fill="#FC4384" transform="matrix(1.00, 0.00, -0.00, -1.00, 195.6, 440.0)">a</text><text xml:space="preserve" font-family="Monaco,Monaco" font-size="42.0" fill="#FC4384" transform="matrix(1.00, 0.00, -0.00, -1.00, 220.8, 440.0)">r</text><text xml:space="preserve" font-family="Monaco,Monaco" font-size="42.0" fill="#000000" transform="matrix(1.00, 0.00, -0.00, -1.00, 246.0, 440.0)"> </text><text xml:space="preserve" font-family="Monaco,Monaco" font-size="42.0" fill="#F9F9F4" transform="matrix(1.00, 0.00, -0.00, -1.00, 271.2, 440.0)">t</text><text xml:space="preserve" font-family="Monaco,Monaco" font-size="42.0" fill="#F9F9F4" transform="matrix(1.00, 0.00, -0.00, -1.00, 296.4, 440.0)">f</text><text xml:space="preserve" font-family="Monaco,Monaco" font-size="42.0" fill="#F9F9F4" transform="matrix(1.00, 0.00, -0.00, -1.00, 321.6, 440.0)">n</text><text xml:space="preserve" font-family="Monaco,Monaco" font-size="42.0" fill="#000000" transform="matrix(1.00, 0.00, -0.00, -1.00, 346.8, 440.0)"> </text><text xml:space="preserve" font-family="Monaco,Monaco" font-size="42.0" fill="#F9F9F4" transform="matrix(1.00, 0.00, -0.00, -1.00, 372.0, 440.0)">=</text><text xml:space="preserve" font-family="Monaco,Monaco" font-size="42.0" fill="#000000" transform="matrix(1.00, 0.00, -0.00, -1.00, 397.2, 440.0)"> </text><text xml:space="preserve" font-family="Monaco,Monaco" font-size="42.0" fill="#F9F9F4" transform="matrix(1.00, 0.00, -0.00, -1.00, 422.4, 440.0)">t</text><text xml:space="preserve" font-family="Monaco,Monaco" font-size="42.0" fill="#F9F9F4" transform="matrix(1.00, 0.00, -0.00, -1.00, 447.7, 440.0)">r</text><text xml:space="preserve" font-family="Monaco,Monaco" font-size="42.0" fill="#F9F9F4" transform="matrix(1.00, 0.00, -0.00, -1.00, 472.9, 440.0)">a</text><text xml:space="preserve" font-family="Monaco,Monaco" font-size="42.0" fill="#F9F9F4" transform="matrix(1.00, 0.00, -0.00, -1.00, 498.1, 440.0)">n</text><text xml:space="preserve" font-family="Monaco,Monaco" font-size="42.0" fill="#F9F9F4" transform="matrix(1.00, 0.00, -0.00, -1.00, 523.3, 440.0)">s</text><text xml:space="preserve" font-family="Monaco,Monaco" font-size="42.0" fill="#F9F9F4" transform="matrix(1.00, 0.00, -0.00, -1.00, 548.5, 440.0)">f</text><text xml:space="preserve" font-family="Monaco,Monaco" font-size="42.0" fill="#F9F9F4" transform="matrix(1.00, 0.00, -0.00, -1.00, 573.7, 440.0)">o</text><text xml:space="preserve" font-family="Monaco,Monaco" font-size="42.0" fill="#F9F9F4" transform="matrix(1.00, 0.00, -0.00, -1.00, 598.9, 440.0)">r</text><text xml:space="preserve" font-family="Monaco,Monaco" font-size="42.0" fill="#F9F9F4" transform="matrix(1.00, 0.00, -0.00, -1.00, 624.1, 440.0)">m</text><text xml:space="preserve" font-family="Monaco,Monaco" font-size="42.0" fill="#F9F9F4" transform="matrix(1.00, 0.00, -0.00, -1.00, 649.3, 440.0)">R</text><text xml:space="preserve" font-family="Monaco,Monaco" font-size="42.0" fill="#F9F9F4" transform="matrix(1.00, 0.00, -0.00, -1.00, 674.5, 440.0)">e</text><text xml:space="preserve" font-family="Monaco,Monaco" font-size="42.0" fill="#F9F9F4" transform="matrix(1.00, 0.00, -0.00, -1.00, 699.7, 440.0)">s</text><text xml:space="preserve" font-family="Monaco,Monaco" font-size="42.0" fill="#F9F9F4" transform="matrix(1.00, 0.00, -0.00, -1.00, 724.9, 440.0)">u</text><text xml:space="preserve" font-family="Monaco,Monaco" font-size="42.0" fill="#F9F9F4" transform="matrix(1.00, 0.00, -0.00, -1.00, 750.2, 440.0)">l</text><text xml:space="preserve" font-family="Monaco,Monaco" font-size="42.0" fill="#F9F9F4" transform="matrix(1.00, 0.00, -0.00, -1.00, 775.4, 440.0)">t</text><text xml:space="preserve" font-family="Monaco,Monaco" font-size="42.0" fill="#F9F9F4" transform="matrix(1.00, 0.00, -0.00, -1.00, 800.6, 440.0)">.</text><text xml:space="preserve" font-family="Monaco,Monaco" font-size="42.0" fill="#F9F9F4" transform="matrix(1.00, 0.00, -0.00, -1.00, 825.8, 440.0)">f</text><text xml:space="preserve" font-family="Monaco,Monaco" font-size="42.0" fill="#F9F9F4" transform="matrix(1.00, 0.00, -0.00, -1.00, 851.0, 440.0)">n</text><text xml:space="preserve" font-family="Monaco,Monaco" font-size="42.0" fill="#F9F9F4" transform="matrix(1.00, 0.00, -0.00, -1.00, 876.2, 440.0)">;</text><text xml:space="preserve" font-family="Monaco,Monaco" font-size="42.0" fill="#000000" transform="matrix(1.00, 0.00, -0.00, -1.00, 120.0, 383.0)"> </text><text xml:space="preserve" font-family="Monaco,Monaco" font-size="42.0" fill="#000000" transform="matrix(1.00, 0.00, -0.00, -1.00, 145.2, 383.0)"> </text><text xml:space="preserve" font-family="Monaco,Monaco" font-size="42.0" fill="#FC4384" transform="matrix(1.00, 0.00, -0.00, -1.00, 170.4, 383.0)">v</text><text xml:space="preserve" font-family="Monaco,Monaco" font-size="42.0" fill="#FC4384" transform="matrix(1.00, 0.00, -0.00, -1.00, 195.6, 383.0)">a</text><text xml:space="preserve" font-family="Monaco,Monaco" font-size="42.0" fill="#FC4384" transform="matrix(1.00, 0.00, -0.00, -1.00, 220.8, 383.0)">r</text><text xml:space="preserve" font-family="Monaco,Monaco" font-size="42.0" fill="#000000" transform="matrix(1.00, 0.00, -0.00, -1.00, 246.0, 383.0)"> </text><text xml:space="preserve" font-family="Monaco,Monaco" font-size="42.0" fill="#F9F9F4" transform="matrix(1.00, 0.00, -0.00, -1.00, 271.2, 383.0)">n</text><text xml:space="preserve" font-family="Monaco,Monaco" font-size="42.0" fill="#F9F9F4" transform="matrix(1.00, 0.00, -0.00, -1.00, 296.4, 383.0)">e</text><text xml:space="preserve" font-family="Monaco,Monaco" font-size="42.0" fill="#F9F9F4" transform="matrix(1.00, 0.00, -0.00, -1.00, 321.6, 383.0)">w</text><text xml:space="preserve" font-family="Monaco,Monaco" font-size="42.0" fill="#F9F9F4" transform="matrix(1.00, 0.00, -0.00, -1.00, 346.8, 383.0)">S</text><text xml:space="preserve" font-family="Monaco,Monaco" font-size="42.0" fill="#F9F9F4" transform="matrix(1.00, 0.00, -0.00, -1.00, 372.1, 383.0)">t</text><text xml:space="preserve" font-family="Monaco,Monaco" font-size="42.0" fill="#F9F9F4" transform="matrix(1.00, 0.00, -0.00, -1.00, 397.3, 383.0)">e</text><text xml:space="preserve" font-family="Monaco,Monaco" font-size="42.0" fill="#F9F9F4" transform="matrix(1.00, 0.00, -0.00, -1.00, 422.5, 383.0)">p</text><text xml:space="preserve" font-family="Monaco,Monaco" font-size="42.0" fill="#000000" transform="matrix(1.00, 0.00, -0.00, -1.00, 447.7, 383.0)"> </text><text xml:space="preserve" font-family="Monaco,Monaco" font-size="42.0" fill="#F9F9F4" transform="matrix(1.00, 0.00, -0.00, -1.00, 472.9, 383.0)">=</text><text xml:space="preserve" font-family="Monaco,Monaco" font-size="42.0" fill="#000000" transform="matrix(1.00, 0.00, -0.00, -1.00, 498.1, 383.0)"> </text><text xml:space="preserve" font-family="Monaco,Monaco" font-size="42.0" fill="#FC4384" transform="matrix(1.00, 0.00, -0.00, -1.00, 523.3, 383.0)">f</text><text xml:space="preserve" font-family="Monaco,Monaco" font-size="42.0" fill="#FC4384" transform="matrix(1.00, 0.00, -0.00, -1.00, 548.5, 383.0)">u</text><text xml:space="preserve" font-family="Monaco,Monaco" font-size="42.0" fill="#FC4384" transform="matrix(1.00, 0.00, -0.00, -1.00, 573.7, 383.0)">n</text><text xml:space="preserve" font-family="Monaco,Monaco" font-size="42.0" fill="#FC4384" transform="matrix(1.00, 0.00, -0.00, -1.00, 598.9, 383.0)">c</text><text xml:space="preserve" font-family="Monaco,Monaco" font-size="42.0" fill="#FC4384" transform="matrix(1.00, 0.00, -0.00, -1.00, 624.1, 383.0)">t</text><text xml:space="preserve" font-family="Monaco,Monaco" font-size="42.0" fill="#FC4384" transform="matrix(1.00, 0.00, -0.00, -1.00, 649.3, 383.0)">i</text><text xml:space="preserve" font-family="Monaco,Monaco" font-size="42.0" fill="#FC4384" transform="matrix(1.00, 0.00, -0.00, -1.00, 674.5, 383.0)">o</text><text xml:space="preserve" font-family="Monaco,Monaco" font-size="42.0" fill="#FC4384" transform="matrix(1.00, 0.00, -0.00, -1.00, 699.7, 383.0)">n</text><text xml:space="preserve" font-family="Monaco,Monaco" font-size="42.0" fill="#F9F9F4" transform="matrix(1.00, 0.00, -0.00, -1.00, 724.9, 383.0)">(</text><text xml:space="preserve" font-family="Monaco,Monaco" font-size="42.0" fill="#F9F9F4" transform="matrix(1.00, 0.00, -0.00, -1.00, 750.1, 383.0)">a</text><text xml:space="preserve" font-family="Monaco,Monaco" font-size="42.0" fill="#F9F9F4" transform="matrix(1.00, 0.00, -0.00, -1.00, 775.3, 383.0)">c</text><text xml:space="preserve" font-family="Monaco,Monaco" font-size="42.0" fill="#F9F9F4" transform="matrix(1.00, 0.00, -0.00, -1.00, 800.5, 383.0)">c</text><text xml:space="preserve" font-family="Monaco,Monaco" font-size="42.0" fill="#F9F9F4" transform="matrix(1.00, 0.00, -0.00, -1.00, 825.7, 383.0)">,</text><text xml:space="preserve" font-family="Monaco,Monaco" font-size="42.0" fill="#000000" transform="matrix(1.00, 0.00, -0.00, -1.00, 850.9, 383.0)"> </text><text xml:space="preserve" font-family="Monaco,Monaco" font-size="42.0" fill="#F9F9F4" transform="matrix(1.00, 0.00, -0.00, -1.00, 876.1, 383.0)">e</text><text xml:space="preserve" font-family="Monaco,Monaco" font-size="42.0" fill="#F9F9F4" transform="matrix(1.00, 0.00, -0.00, -1.00, 901.3, 383.0)">l</text><text xml:space="preserve" font-family="Monaco,Monaco" font-size="42.0" fill="#F9F9F4" transform="matrix(1.00, 0.00, -0.00, -1.00, 926.5, 383.0)">e</text><text xml:space="preserve" font-family="Monaco,Monaco" font-size="42.0" fill="#F9F9F4" transform="matrix(1.00, 0.00, -0.00, -1.00, 951.7, 383.0)">m</text><text xml:space="preserve" font-family="Monaco,Monaco" font-size="42.0" fill="#F9F9F4" transform="matrix(1.00, 0.00, -0.00, -1.00, 977.0, 383.0)">e</text><text xml:space="preserve" font-family="Monaco,Monaco" font-size="42.0" fill="#F9F9F4" transform="matrix(1.00, 0.00, -0.00, -1.00, 1002.2, 383.0)">n</text><text xml:space="preserve" font-family="Monaco,Monaco" font-size="42.0" fill="#F9F9F4" transform="matrix(1.00, 0.00, -0.00, -1.00, 1027.4, 383.0)">t</text><text xml:space="preserve" font-family="Monaco,Monaco" font-size="42.0" fill="#F9F9F4" transform="matrix(1.00, 0.00, -0.00, -1.00, 1052.6, 383.0)">)</text><text xml:space="preserve" font-family="Monaco,Monaco" font-size="42.0" fill="#F9F9F4" transform="matrix(1.00, 0.00, -0.00, -1.00, 1077.8, 383.0)"> </text><text xml:space="preserve" font-family="Monaco,Monaco" font-size="42.0" fill="#F9F9F4" transform="matrix(1.00, 0.00, -0.00, -1.00, 1103.0, 383.0)">{</text><text xml:space="preserve" font-family="Monaco,Monaco" font-size="42.0" fill="#000000" transform="matrix(1.00, 0.00, -0.00, -1.00, 120.0, 326.0)"> </text><text xml:space="preserve" font-family="Monaco,Monaco" font-size="42.0" fill="#000000" transform="matrix(1.00, 0.00, -0.00, -1.00, 145.2, 326.0)"> </text><text xml:space="preserve" font-family="Monaco,Monaco" font-size="42.0" fill="#000000" transform="matrix(1.00, 0.00, -0.00, -1.00, 170.4, 326.0)"> </text><text xml:space="preserve" font-family="Monaco,Monaco" font-size="42.0" fill="#000000" transform="matrix(1.00, 0.00, -0.00, -1.00, 195.6, 326.0)"> </text><text xml:space="preserve" font-family="Monaco,Monaco" font-size="42.0" fill="#FC4384" transform="matrix(1.00, 0.00, -0.00, -1.00, 220.8, 326.0)">r</text><text xml:space="preserve" font-family="Monaco,Monaco" font-size="42.0" fill="#FC4384" transform="matrix(1.00, 0.00, -0.00, -1.00, 246.0, 326.0)">e</text><text xml:space="preserve" font-family="Monaco,Monaco" font-size="42.0" fill="#FC4384" transform="matrix(1.00, 0.00, -0.00, -1.00, 271.2, 326.0)">t</text><text xml:space="preserve" font-family="Monaco,Monaco" font-size="42.0" fill="#FC4384" transform="matrix(1.00, 0.00, -0.00, -1.00, 296.4, 326.0)">u</text><text xml:space="preserve" font-family="Monaco,Monaco" font-size="42.0" fill="#FC4384" transform="matrix(1.00, 0.00, -0.00, -1.00, 321.6, 326.0)">r</text><text xml:space="preserve" font-family="Monaco,Monaco" font-size="42.0" fill="#FC4384" transform="matrix(1.00, 0.00, -0.00, -1.00, 346.9, 326.0)">n</text><text xml:space="preserve" font-family="Monaco,Monaco" font-size="42.0" fill="#000000" transform="matrix(1.00, 0.00, -0.00, -1.00, 372.0, 326.0)"> </text><text xml:space="preserve" font-family="Monaco,Monaco" font-size="42.0" fill="#13F7BA" transform="matrix(1.00, 0.00, -0.00, -1.00, 397.2, 326.0)">s</text><text xml:space="preserve" font-family="Monaco,Monaco" font-size="42.0" fill="#13F7BA" transform="matrix(1.00, 0.00, -0.00, -1.00, 422.5, 326.0)">t</text><text xml:space="preserve" font-family="Monaco,Monaco" font-size="42.0" fill="#13F7BA" transform="matrix(1.00, 0.00, -0.00, -1.00, 447.7, 326.0)">e</text><text xml:space="preserve" font-family="Monaco,Monaco" font-size="42.0" fill="#13F7BA" transform="matrix(1.00, 0.00, -0.00, -1.00, 472.9, 326.0)">p</text><text xml:space="preserve" font-family="Monaco,Monaco" font-size="42.0" fill="#F9F9F4" transform="matrix(1.00, 0.00, -0.00, -1.00, 498.1, 326.0)">(</text><text xml:space="preserve" font-family="Monaco,Monaco" font-size="42.0" fill="#F9F9F4" transform="matrix(1.00, 0.00, -0.00, -1.00, 523.3, 326.0)">a</text><text xml:space="preserve" font-family="Monaco,Monaco" font-size="42.0" fill="#F9F9F4" transform="matrix(1.00, 0.00, -0.00, -1.00, 548.5, 326.0)">c</text><text xml:space="preserve" font-family="Monaco,Monaco" font-size="42.0" fill="#F9F9F4" transform="matrix(1.00, 0.00, -0.00, -1.00, 573.7, 326.0)">c</text><text xml:space="preserve" font-family="Monaco,Monaco" font-size="42.0" fill="#F9F9F4" transform="matrix(1.00, 0.00, -0.00, -1.00, 598.9, 326.0)">,</text><text xml:space="preserve" font-family="Monaco,Monaco" font-size="42.0" fill="#000000" transform="matrix(1.00, 0.00, -0.00, -1.00, 624.1, 326.0)"> </text><text xml:space="preserve" font-family="Monaco,Monaco" font-size="42.0" fill="#13F7BA" transform="matrix(1.00, 0.00, -0.00, -1.00, 649.3, 326.0)">t</text><text xml:space="preserve" font-family="Monaco,Monaco" font-size="42.0" fill="#13F7BA" transform="matrix(1.00, 0.00, -0.00, -1.00, 674.5, 326.0)">f</text><text xml:space="preserve" font-family="Monaco,Monaco" font-size="42.0" fill="#13F7BA" transform="matrix(1.00, 0.00, -0.00, -1.00, 699.7, 326.0)">n</text><text xml:space="preserve" font-family="Monaco,Monaco" font-size="42.0" fill="#F9F9F4" transform="matrix(1.00, 0.00, -0.00, -1.00, 724.9, 326.0)">(</text><text xml:space="preserve" font-family="Monaco,Monaco" font-size="42.0" fill="#F9F9F4" transform="matrix(1.00, 0.00, -0.00, -1.00, 750.1, 326.0)">e</text><text xml:space="preserve" font-family="Monaco,Monaco" font-size="42.0" fill="#F9F9F4" transform="matrix(1.00, 0.00, -0.00, -1.00, 775.3, 326.0)">l</text><text xml:space="preserve" font-family="Monaco,Monaco" font-size="42.0" fill="#F9F9F4" transform="matrix(1.00, 0.00, -0.00, -1.00, 800.5, 326.0)">e</text><text xml:space="preserve" font-family="Monaco,Monaco" font-size="42.0" fill="#F9F9F4" transform="matrix(1.00, 0.00, -0.00, -1.00, 825.7, 326.0)">m</text><text xml:space="preserve" font-family="Monaco,Monaco" font-size="42.0" fill="#F9F9F4" transform="matrix(1.00, 0.00, -0.00, -1.00, 850.9, 326.0)">e</text><text xml:space="preserve" font-family="Monaco,Monaco" font-size="42.0" fill="#F9F9F4" transform="matrix(1.00, 0.00, -0.00, -1.00, 876.1, 326.0)">n</text><text xml:space="preserve" font-family="Monaco,Monaco" font-size="42.0" fill="#F9F9F4" transform="matrix(1.00, 0.00, -0.00, -1.00, 901.4, 326.0)">t</text><text xml:space="preserve" font-family="Monaco,Monaco" font-size="42.0" fill="#F9F9F4" transform="matrix(1.00, 0.00, -0.00, -1.00, 926.6, 326.0)">)</text><text xml:space="preserve" font-family="Monaco,Monaco" font-size="42.0" fill="#F9F9F4" transform="matrix(1.00, 0.00, -0.00, -1.00, 951.8, 326.0)">)</text><text xml:space="preserve" font-family="Monaco,Monaco" font-size="42.0" fill="#F9F9F4" transform="matrix(1.00, 0.00, -0.00, -1.00, 977.0, 326.0)">;</text><text xml:space="preserve" font-family="Monaco,Monaco" font-size="42.0" fill="#000000" transform="matrix(1.00, 0.00, -0.00, -1.00, 120.0, 269.0)"> </text><text xml:space="preserve" font-family="Monaco,Monaco" font-size="42.0" fill="#000000" transform="matrix(1.00, 0.00, -0.00, -1.00, 145.2, 269.0)"> </text><text xml:space="preserve" font-family="Monaco,Monaco" font-size="42.0" fill="#F9F9F4" transform="matrix(1.00, 0.00, -0.00, -1.00, 170.4, 269.0)">}</text><text xml:space="preserve" font-family="Monaco,Monaco" font-size="42.0" fill="#F9F9F4" transform="matrix(1.00, 0.00, -0.00, -1.00, 195.6, 269.0)">;</text><text xml:space="preserve" font-family="Monaco,Monaco" font-size="42.0" fill="#000000" transform="matrix(1.00, 0.00, -0.00, -1.00, 120.0, 212.0)"> </text><text xml:space="preserve" font-family="Monaco,Monaco" font-size="42.0" fill="#000000" transform="matrix(1.00, 0.00, -0.00, -1.00, 145.2, 212.0)"> </text><text xml:space="preserve" font-family="Monaco,Monaco" font-size="42.0" fill="#FC4384" transform="matrix(1.00, 0.00, -0.00, -1.00, 170.4, 212.0)">r</text><text xml:space="preserve" font-family="Monaco,Monaco" font-size="42.0" fill="#FC4384" transform="matrix(1.00, 0.00, -0.00, -1.00, 195.6, 212.0)">e</text><text xml:space="preserve" font-family="Monaco,Monaco" font-size="42.0" fill="#FC4384" transform="matrix(1.00, 0.00, -0.00, -1.00, 220.8, 212.0)">t</text><text xml:space="preserve" font-family="Monaco,Monaco" font-size="42.0" fill="#FC4384" transform="matrix(1.00, 0.00, -0.00, -1.00, 246.0, 212.0)">u</text><text xml:space="preserve" font-family="Monaco,Monaco" font-size="42.0" fill="#FC4384" transform="matrix(1.00, 0.00, -0.00, -1.00, 271.2, 212.0)">r</text><text xml:space="preserve" font-family="Monaco,Monaco" font-size="42.0" fill="#FC4384" transform="matrix(1.00, 0.00, -0.00, -1.00, 296.4, 212.0)">n</text><text xml:space="preserve" font-family="Monaco,Monaco" font-size="42.0" fill="#000000" transform="matrix(1.00, 0.00, -0.00, -1.00, 321.6, 212.0)"> </text><text xml:space="preserve" font-family="Monaco,Monaco" font-size="42.0" fill="#F9F9F4" transform="matrix(1.00, 0.00, -0.00, -1.00, 346.8, 212.0)">c</text><text xml:space="preserve" font-family="Monaco,Monaco" font-size="42.0" fill="#F9F9F4" transform="matrix(1.00, 0.00, -0.00, -1.00, 372.0, 212.0)">o</text><text xml:space="preserve" font-family="Monaco,Monaco" font-size="42.0" fill="#F9F9F4" transform="matrix(1.00, 0.00, -0.00, -1.00, 397.3, 212.0)">l</text><text xml:space="preserve" font-family="Monaco,Monaco" font-size="42.0" fill="#F9F9F4" transform="matrix(1.00, 0.00, -0.00, -1.00, 422.5, 212.0)">l</text><text xml:space="preserve" font-family="Monaco,Monaco" font-size="42.0" fill="#F9F9F4" transform="matrix(1.00, 0.00, -0.00, -1.00, 447.7, 212.0)">.</text><text xml:space="preserve" font-family="Monaco,Monaco" font-size="42.0" fill="#13F7BA" transform="matrix(1.00, 0.00, -0.00, -1.00, 472.9, 212.0)">r</text><text xml:space="preserve" font-family="Monaco,Monaco" font-size="42.0" fill="#13F7BA" transform="matrix(1.00, 0.00, -0.00, -1.00, 498.1, 212.0)">e</text><text xml:space="preserve" font-family="Monaco,Monaco" font-size="42.0" fill="#13F7BA" transform="matrix(1.00, 0.00, -0.00, -1.00, 523.3, 212.0)">d</text><text xml:space="preserve" font-family="Monaco,Monaco" font-size="42.0" fill="#13F7BA" transform="matrix(1.00, 0.00, -0.00, -1.00, 548.5, 212.0)">u</text><text xml:space="preserve" font-family="Monaco,Monaco" font-size="42.0" fill="#13F7BA" transform="matrix(1.00, 0.00, -0.00, -1.00, 573.7, 212.0)">c</text><text xml:space="preserve" font-family="Monaco,Monaco" font-size="42.0" fill="#13F7BA" transform="matrix(1.00, 0.00, -0.00, -1.00, 598.9, 212.0)">e</text><text xml:space="preserve" font-family="Monaco,Monaco" font-size="42.0" fill="#F9F9F4" transform="matrix(1.00, 0.00, -0.00, -1.00, 624.1, 212.0)">(</text><text xml:space="preserve" font-family="Monaco,Monaco" font-size="42.0" fill="#F9F9F4" transform="matrix(1.00, 0.00, -0.00, -1.00, 649.3, 212.0)">n</text><text xml:space="preserve" font-family="Monaco,Monaco" font-size="42.0" fill="#F9F9F4" transform="matrix(1.00, 0.00, -0.00, -1.00, 674.5, 212.0)">e</text><text xml:space="preserve" font-family="Monaco,Monaco" font-size="42.0" fill="#F9F9F4" transform="matrix(1.00, 0.00, -0.00, -1.00, 699.7, 212.0)">w</text><text xml:space="preserve" font-family="Monaco,Monaco" font-size="42.0" fill="#F9F9F4" transform="matrix(1.00, 0.00, -0.00, -1.00, 724.9, 212.0)">S</text><text xml:space="preserve" font-family="Monaco,Monaco" font-size="42.0" fill="#F9F9F4" transform="matrix(1.00, 0.00, -0.00, -1.00, 750.1, 212.0)">t</text><text xml:space="preserve" font-family="Monaco,Monaco" font-size="42.0" fill="#F9F9F4" transform="matrix(1.00, 0.00, -0.00, -1.00, 775.3, 212.0)">e</text><text xml:space="preserve" font-family="Monaco,Monaco" font-size="42.0" fill="#F9F9F4" transform="matrix(1.00, 0.00, -0.00, -1.00, 800.5, 212.0)">p</text><text xml:space="preserve" font-family="Monaco,Monaco" font-size="42.0" fill="#F9F9F4" transform="matrix(1.00, 0.00, -0.00, -1.00, 825.7, 212.0)">,</text><text xml:space="preserve" font-family="Monaco,Monaco" font-size="42.0" fill="#000000" transform="matrix(1.00, 0.00, -0.00, -1.00, 850.9, 212.0)"> </text><text xml:space="preserve" font-family="Monaco,Monaco" font-size="42.0" fill="#F9F9F4" transform="matrix(1.00, 0.00, -0.00, -1.00, 876.1, 212.0)">i</text><text xml:space="preserve" font-family="Monaco,Monaco" font-size="42.0" fill="#F9F9F4" transform="matrix(1.00, 0.00, -0.00, -1.00, 901.3, 212.0)">n</text><text xml:space="preserve" font-family="Monaco,Monaco" font-size="42.0" fill="#F9F9F4" transform="matrix(1.00, 0.00, -0.00, -1.00, 926.5, 212.0)">i</text><text xml:space="preserve" font-family="Monaco,Monaco" font-size="42.0" fill="#F9F9F4" transform="matrix(1.00, 0.00, -0.00, -1.00, 951.7, 212.0)">t</text><text xml:space="preserve" font-family="Monaco,Monaco" font-size="42.0" fill="#F9F9F4" transform="matrix(1.00, 0.00, -0.00, -1.00, 977.0, 212.0)">i</text><text xml:space="preserve" font-family="Monaco,Monaco" font-size="42.0" fill="#F9F9F4" transform="matrix(1.00, 0.00, -0.00, -1.00, 1002.2, 212.0)">a</text><text xml:space="preserve" font-family="Monaco,Monaco" font-size="42.0" fill="#F9F9F4" transform="matrix(1.00, 0.00, -0.00, -1.00, 1027.4, 212.0)">l</text><text xml:space="preserve" font-family="Monaco,Monaco" font-size="42.0" fill="#F9F9F4" transform="matrix(1.00, 0.00, -0.00, -1.00, 1052.6, 212.0)">)</text><text xml:space="preserve" font-family="Monaco,Monaco" font-size="42.0" fill="#F9F9F4" transform="matrix(1.00, 0.00, -0.00, -1.00, 1077.8, 212.0)">;</text><text xml:space="preserve" font-family="Monaco,Monaco" font-size="42.0" fill="#F9F9F4" transform="matrix(1.00, 0.00, -0.00, -1.00, 120.0, 155.0)">}</text><text xml:space="preserve" font-family="Monaco,Monaco" font-size="42.0" fill="#F9F9F4" transform="matrix(1.00, 0.00, -0.00, -1.00, 145.2, 155.0)">;</text></g></svg>